%TF.GenerationSoftware,KiCad,Pcbnew,9.0.2*%
%TF.CreationDate,2026-02-19T14:28:25-08:00*%
%TF.ProjectId,EPS_PCB_Prototyping,4550535f-5043-4425-9f50-726f746f7479,rev?*%
%TF.SameCoordinates,Original*%
%TF.FileFunction,Copper,L2,Bot*%
%TF.FilePolarity,Positive*%
%FSLAX46Y46*%
G04 Gerber Fmt 4.6, Leading zero omitted, Abs format (unit mm)*
G04 Created by KiCad (PCBNEW 9.0.2) date 2026-02-19 14:28:25*
%MOMM*%
%LPD*%
G01*
G04 APERTURE LIST*
%TA.AperFunction,ComponentPad*%
%ADD10C,0.600000*%
%TD*%
%TA.AperFunction,SMDPad,CuDef*%
%ADD11R,2.950000X4.500000*%
%TD*%
%TA.AperFunction,ComponentPad*%
%ADD12R,1.700000X1.700000*%
%TD*%
%TA.AperFunction,ComponentPad*%
%ADD13C,1.700000*%
%TD*%
%TA.AperFunction,ComponentPad*%
%ADD14C,1.600000*%
%TD*%
%TA.AperFunction,ComponentPad*%
%ADD15C,3.600000*%
%TD*%
%TA.AperFunction,ConnectorPad*%
%ADD16C,6.400000*%
%TD*%
%TA.AperFunction,ComponentPad*%
%ADD17C,0.400000*%
%TD*%
%TA.AperFunction,ViaPad*%
%ADD18C,0.600000*%
%TD*%
%TA.AperFunction,ViaPad*%
%ADD19C,0.500000*%
%TD*%
%TA.AperFunction,ViaPad*%
%ADD20C,0.700000*%
%TD*%
%TA.AperFunction,Conductor*%
%ADD21C,1.000000*%
%TD*%
%TA.AperFunction,Conductor*%
%ADD22C,0.200000*%
%TD*%
%TA.AperFunction,Conductor*%
%ADD23C,0.127000*%
%TD*%
%TA.AperFunction,Conductor*%
%ADD24C,0.500000*%
%TD*%
%TA.AperFunction,Conductor*%
%ADD25C,0.254000*%
%TD*%
G04 APERTURE END LIST*
D10*
%TO.P,U2,9,GNDPAD*%
%TO.N,GND*%
X208228200Y-106523000D03*
X208228200Y-107723000D03*
X208228200Y-109023000D03*
X208228200Y-110123000D03*
D11*
X208828200Y-108323000D03*
D10*
X209428200Y-106523000D03*
X209428200Y-107723000D03*
X209428200Y-109023000D03*
X209428200Y-110123000D03*
%TD*%
D12*
%TO.P,J4,1,Pin_1*%
%TO.N,Net-(J4-Pin_1)*%
X203250000Y-107920000D03*
D13*
%TO.P,J4,2,Pin_2*%
%TO.N,12V_conv_out*%
X203250000Y-105380000D03*
%TD*%
D12*
%TO.P,J12,1,Pin_1*%
%TO.N,+5Vin2*%
X216265000Y-64220000D03*
D13*
%TO.P,J12,2,Pin_2*%
%TO.N,Net-(J11-Pin_1)*%
X213725000Y-64220000D03*
%TD*%
D12*
%TO.P,J7,1,Pin_1*%
%TO.N,+5Vin*%
X185900000Y-59520000D03*
D13*
%TO.P,J7,2,Pin_2*%
%TO.N,/watchdog_timer/conn*%
X185900000Y-62060000D03*
%TD*%
D10*
%TO.P,U1,9,GNDPAD*%
%TO.N,GND*%
X207436000Y-84404400D03*
X207436000Y-85604400D03*
X207436000Y-86904400D03*
X207436000Y-88004400D03*
D11*
X208036000Y-86204400D03*
D10*
X208636000Y-84404400D03*
X208636000Y-85604400D03*
X208636000Y-86904400D03*
X208636000Y-88004400D03*
%TD*%
D14*
%TO.P,R24,1*%
%TO.N,Net-(R23-Pad2)*%
X213175000Y-58242500D03*
%TO.P,R24,2*%
%TO.N,HYST_OUT*%
X213175000Y-50622500D03*
%TD*%
D12*
%TO.P,J1,a1,Pin_a1*%
%TO.N,unconnected-(J1-Pin_a1-Pada1)*%
X221900000Y-131920000D03*
D13*
%TO.P,J1,a2,Pin_a2*%
%TO.N,unconnected-(J1-Pin_a2-Pada2)*%
X221900000Y-129380000D03*
%TO.P,J1,a3,Pin_a3*%
%TO.N,5V_en*%
X221900000Y-126840000D03*
%TO.P,J1,a4,Pin_a4*%
%TO.N,unconnected-(J1-Pin_a4-Pada4)*%
X221900000Y-124300000D03*
%TO.P,J1,a5,Pin_a5*%
%TO.N,3V3_en*%
X221900000Y-121760000D03*
%TO.P,J1,a6,Pin_a6*%
%TO.N,unconnected-(J1-Pin_a6-Pada6)*%
X221900000Y-119220000D03*
%TO.P,J1,a7,Pin_a7*%
%TO.N,unconnected-(J1-Pin_a7-Pada7)*%
X221900000Y-116680000D03*
%TO.P,J1,a8,Pin_a8*%
%TO.N,unconnected-(J1-Pin_a8-Pada8)*%
X221900000Y-114140000D03*
%TO.P,J1,a9,Pin_a9*%
%TO.N,12V_en*%
X221900000Y-111600000D03*
%TO.P,J1,a10,Pin_a10*%
%TO.N,unconnected-(J1-Pin_a10-Pada10)*%
X221900000Y-109060000D03*
%TO.P,J1,a11,Pin_a11*%
%TO.N,unconnected-(J1-Pin_a11-Pada11)*%
X221900000Y-106520000D03*
%TO.P,J1,a12,Pin_a12*%
%TO.N,unconnected-(J1-Pin_a12-Pada12)*%
X221900000Y-103980000D03*
%TO.P,J1,a13,Pin_a13*%
%TO.N,unconnected-(J1-Pin_a13-Pada13)*%
X221900000Y-101440000D03*
%TO.P,J1,a14,Pin_a14*%
%TO.N,A0*%
X221900000Y-98900000D03*
%TO.P,J1,a15,Pin_a15*%
%TO.N,CM_SCL*%
X221900000Y-96360000D03*
%TO.P,J1,a16,Pin_a16*%
%TO.N,CM_SDA*%
X221900000Y-93820000D03*
%TO.P,J1,a17,Pin_a17*%
%TO.N,WARNING*%
X221900000Y-91280000D03*
%TO.P,J1,a18,Pin_a18*%
%TO.N,CRITICAL*%
X221900000Y-88740000D03*
%TO.P,J1,a19,Pin_a19*%
%TO.N,PV*%
X221900000Y-86200000D03*
%TO.P,J1,a20,Pin_a20*%
%TO.N,unconnected-(J1-Pin_a20-Pada20)*%
X221900000Y-83660000D03*
%TO.P,J1,a21,Pin_a21*%
%TO.N,unconnected-(J1-Pin_a21-Pada21)*%
X221900000Y-81120000D03*
%TO.P,J1,a22,Pin_a22*%
%TO.N,unconnected-(J1-Pin_a22-Pada22)*%
X221900000Y-78580000D03*
%TO.P,J1,a23,Pin_a23*%
%TO.N,unconnected-(J1-Pin_a23-Pada23)*%
X221900000Y-76040000D03*
%TO.P,J1,a24,Pin_a24*%
%TO.N,unconnected-(J1-Pin_a24-Pada24)*%
X221900000Y-73500000D03*
%TO.P,J1,a25,Pin_a25*%
%TO.N,unconnected-(J1-Pin_a25-Pada25)*%
X221900000Y-70960000D03*
%TO.P,J1,a26,Pin_a26*%
%TO.N,unconnected-(J1-Pin_a26-Pada26)*%
X221900000Y-68420000D03*
%TO.P,J1,a27,Pin_a27*%
%TO.N,unconnected-(J1-Pin_a27-Pada27)*%
X221900000Y-65880000D03*
%TO.P,J1,a28,Pin_a28*%
%TO.N,unconnected-(J1-Pin_a28-Pada28)*%
X221900000Y-63340000D03*
%TO.P,J1,a29,Pin_a29*%
%TO.N,unconnected-(J1-Pin_a29-Pada29)*%
X221900000Y-60800000D03*
%TO.P,J1,a30,Pin_a30*%
%TO.N,GPIO*%
X221900000Y-58260000D03*
%TO.P,J1,a31,Pin_a31*%
%TO.N,unconnected-(J1-Pin_a31-Pada31)*%
X221900000Y-55720000D03*
%TO.P,J1,a32,Pin_a32*%
%TO.N,GND*%
X221900000Y-53180000D03*
%TO.P,J1,b1,Pin_b1*%
X219360000Y-131920000D03*
%TO.P,J1,b2,Pin_b2*%
%TO.N,unconnected-(J1-Pin_b2-Padb2)*%
X219360000Y-129380000D03*
%TO.P,J1,b3,Pin_b3*%
%TO.N,5V_out*%
X219360000Y-126840000D03*
%TO.P,J1,b4,Pin_b4*%
%TO.N,unconnected-(J1-Pin_b4-Padb4)*%
X219360000Y-124300000D03*
%TO.P,J1,b5,Pin_b5*%
%TO.N,3V3_out*%
X219360000Y-121760000D03*
%TO.P,J1,b6,Pin_b6*%
%TO.N,V_Batt*%
X219360000Y-119220000D03*
%TO.P,J1,b7,Pin_b7*%
X219360000Y-116680000D03*
%TO.P,J1,b8,Pin_b8*%
X219360000Y-114140000D03*
%TO.P,J1,b9,Pin_b9*%
%TO.N,12V_out*%
X219360000Y-111600000D03*
%TO.P,J1,b10,Pin_b10*%
%TO.N,unconnected-(J1-Pin_b10-Padb10)*%
X219360000Y-109060000D03*
%TO.P,J1,b11,Pin_b11*%
%TO.N,unconnected-(J1-Pin_b11-Padb11)*%
X219360000Y-106520000D03*
%TO.P,J1,b12,Pin_b12*%
%TO.N,unconnected-(J1-Pin_b12-Padb12)*%
X219360000Y-103980000D03*
%TO.P,J1,b13,Pin_b13*%
%TO.N,unconnected-(J1-Pin_b13-Padb13)*%
X219360000Y-101440000D03*
%TO.P,J1,b14,Pin_b14*%
%TO.N,unconnected-(J1-Pin_b14-Padb14)*%
X219360000Y-98900000D03*
%TO.P,J1,b15,Pin_b15*%
%TO.N,3V3_conv_out*%
X219360000Y-96360000D03*
%TO.P,J1,b16,Pin_b16*%
%TO.N,5V_conv_out*%
X219360000Y-93820000D03*
%TO.P,J1,b17,Pin_b17*%
%TO.N,12V_conv_out*%
X219360000Y-91280000D03*
%TO.P,J1,b18,Pin_b18*%
%TO.N,unconnected-(J1-Pin_b18-Padb18)*%
X219360000Y-88740000D03*
%TO.P,J1,b19,Pin_b19*%
%TO.N,unconnected-(J1-Pin_b19-Padb19)*%
X219360000Y-86200000D03*
%TO.P,J1,b20,Pin_b20*%
%TO.N,unconnected-(J1-Pin_b20-Padb20)*%
X219360000Y-83660000D03*
%TO.P,J1,b21,Pin_b21*%
%TO.N,unconnected-(J1-Pin_b21-Padb21)*%
X219360000Y-81120000D03*
%TO.P,J1,b22,Pin_b22*%
%TO.N,unconnected-(J1-Pin_b22-Padb22)*%
X219360000Y-78580000D03*
%TO.P,J1,b23,Pin_b23*%
%TO.N,unconnected-(J1-Pin_b23-Padb23)*%
X219360000Y-76040000D03*
%TO.P,J1,b24,Pin_b24*%
%TO.N,unconnected-(J1-Pin_b24-Padb24)*%
X219360000Y-73500000D03*
%TO.P,J1,b25,Pin_b25*%
%TO.N,unconnected-(J1-Pin_b25-Padb25)*%
X219360000Y-70960000D03*
%TO.P,J1,b26,Pin_b26*%
%TO.N,unconnected-(J1-Pin_b26-Padb26)*%
X219360000Y-68420000D03*
%TO.P,J1,b27,Pin_b27*%
%TO.N,unconnected-(J1-Pin_b27-Padb27)*%
X219360000Y-65880000D03*
%TO.P,J1,b28,Pin_b28*%
%TO.N,unconnected-(J1-Pin_b28-Padb28)*%
X219360000Y-63340000D03*
%TO.P,J1,b29,Pin_b29*%
%TO.N,HYST_OUT*%
X219360000Y-60800000D03*
%TO.P,J1,b30,Pin_b30*%
%TO.N,RESET*%
X219360000Y-58260000D03*
%TO.P,J1,b31,Pin_b31*%
%TO.N,GND*%
X219360000Y-55720000D03*
%TO.P,J1,b32,Pin_b32*%
X219360000Y-53180000D03*
%TD*%
D12*
%TO.P,J8,1,Pin_1*%
%TO.N,/Curr_meas/5V_to_fuse*%
X183900000Y-98970000D03*
D13*
%TO.P,J8,2,Pin_2*%
%TO.N,/Curr_meas/IN-1*%
X183900000Y-101510000D03*
%TD*%
D12*
%TO.P,J11,1,Pin_1*%
%TO.N,Net-(J11-Pin_1)*%
X205815000Y-70370000D03*
D13*
%TO.P,J11,2,Pin_2*%
%TO.N,5V_conv_out*%
X203275000Y-70370000D03*
%TD*%
D15*
%TO.P,H4,1,1*%
%TO.N,GND*%
X226980000Y-133190000D03*
D16*
X226980000Y-133190000D03*
%TD*%
D12*
%TO.P,J10,1,Pin_1*%
%TO.N,/Curr_meas/3V3_to_fuse*%
X172435000Y-122670000D03*
D13*
%TO.P,J10,2,Pin_2*%
%TO.N,/Curr_meas/IN-3*%
X174975000Y-122670000D03*
%TD*%
D15*
%TO.P,H2,1,1*%
%TO.N,GND*%
X226980000Y-53180000D03*
D16*
X226980000Y-53180000D03*
%TD*%
D14*
%TO.P,R23,1*%
%TO.N,Net-(U8-IN+)*%
X204175000Y-58900000D03*
%TO.P,R23,2*%
%TO.N,Net-(R23-Pad2)*%
X204175000Y-66520000D03*
%TD*%
D12*
%TO.P,J9,1,Pin_1*%
%TO.N,/Curr_meas/12V_to_fuse*%
X172950000Y-106320000D03*
D13*
%TO.P,J9,2,Pin_2*%
%TO.N,/Curr_meas/IN-2*%
X172950000Y-108860000D03*
%TD*%
D12*
%TO.P,J6,1,Pin_1*%
%TO.N,/watchdog_timer/conn*%
X190700000Y-62370000D03*
D13*
%TO.P,J6,2,Pin_2*%
%TO.N,5V_conv_out*%
X190700000Y-59830000D03*
%TD*%
D17*
%TO.P,U4,10*%
%TO.N,N/C*%
X186175000Y-66670000D03*
%TO.P,U4,11*%
X186675000Y-66045000D03*
%TO.P,U4,12*%
X185675000Y-66045000D03*
%TO.P,U4,13*%
X186175000Y-65420000D03*
%TD*%
D14*
%TO.P,R27,1*%
%TO.N,Net-(U8-IN+)*%
X208425000Y-67330000D03*
%TO.P,R27,2*%
%TO.N,GND*%
X208425000Y-59710000D03*
%TD*%
D12*
%TO.P,J5,1,Pin_1*%
%TO.N,Net-(J5-Pin_1)*%
X197185000Y-115470000D03*
D13*
%TO.P,J5,2,Pin_2*%
%TO.N,3V3_conv_out*%
X199725000Y-115470000D03*
%TD*%
D15*
%TO.P,H1,1,1*%
%TO.N,GND*%
X141255000Y-55720000D03*
D16*
X141255000Y-55720000D03*
%TD*%
D15*
%TO.P,H3,1,1*%
%TO.N,GND*%
X141255000Y-129380000D03*
D16*
X141255000Y-129380000D03*
%TD*%
D12*
%TO.P,J3,1,Pin_1*%
%TO.N,Net-(J3-Pin_1)*%
X197975000Y-81270000D03*
D13*
%TO.P,J3,2,Pin_2*%
%TO.N,5V_conv_out*%
X197975000Y-83810000D03*
%TD*%
D10*
%TO.P,U3,9,GNDPAD*%
%TO.N,GND*%
X207700000Y-127115000D03*
X207700000Y-128315000D03*
X207700000Y-129615000D03*
X207700000Y-130715000D03*
D11*
X208300000Y-128915000D03*
D10*
X208900000Y-127115000D03*
X208900000Y-128315000D03*
X208900000Y-129615000D03*
X208900000Y-130715000D03*
%TD*%
D14*
%TO.P,R26,1*%
%TO.N,Net-(J11-Pin_1)*%
X199425000Y-69390000D03*
%TO.P,R26,2*%
%TO.N,Net-(U8-IN+)*%
X199425000Y-61770000D03*
%TD*%
D13*
%TO.P,J2,c0,Pin_c0*%
%TO.N,GND*%
X224440000Y-111600000D03*
%TO.P,J2,c1,Pin_c1*%
%TO.N,unconnected-(J2-Pin_c1-Padc1)*%
X224440000Y-109060000D03*
%TO.P,J2,c2,Pin_c2*%
%TO.N,unconnected-(J2-Pin_c2-Padc2)*%
X224440000Y-106520000D03*
%TO.P,J2,c3,Pin_c3*%
%TO.N,unconnected-(J2-Pin_c3-Padc3)*%
X224440000Y-103980000D03*
%TO.P,J2,c4,Pin_c4*%
%TO.N,unconnected-(J2-Pin_c4-Padc4)*%
X224440000Y-101440000D03*
%TO.P,J2,c5,Pin_c5*%
%TO.N,unconnected-(J2-Pin_c5-Padc5)*%
X224440000Y-98900000D03*
%TO.P,J2,c6,Pin_c6*%
%TO.N,unconnected-(J2-Pin_c6-Padc6)*%
X224440000Y-96360000D03*
%TO.P,J2,c7,Pin_c7*%
%TO.N,unconnected-(J2-Pin_c7-Padc7)*%
X224440000Y-93820000D03*
%TO.P,J2,c8,Pin_c8*%
%TO.N,unconnected-(J2-Pin_c8-Padc8)*%
X224440000Y-91280000D03*
%TO.P,J2,c9,Pin_c9*%
%TO.N,unconnected-(J2-Pin_c9-Padc9)*%
X224440000Y-88740000D03*
%TO.P,J2,c10,Pin_c10*%
%TO.N,unconnected-(J2-Pin_c10-Padc10)*%
X224440000Y-86200000D03*
%TO.P,J2,c11,Pin_c11*%
%TO.N,unconnected-(J2-Pin_c11-Padc11)*%
X224440000Y-83660000D03*
%TO.P,J2,c12,Pin_c12*%
%TO.N,unconnected-(J2-Pin_c12-Padc12)*%
X224440000Y-81120000D03*
%TO.P,J2,c13,Pin_c13*%
%TO.N,unconnected-(J2-Pin_c13-Padc13)*%
X224440000Y-78580000D03*
%TO.P,J2,c14,Pin_c14*%
%TO.N,unconnected-(J2-Pin_c14-Padc14)*%
X224440000Y-76040000D03*
%TO.P,J2,c15,Pin_c15*%
%TO.N,unconnected-(J2-Pin_c15-Padc15)*%
X224440000Y-73500000D03*
%TO.P,J2,c16,Pin_c16*%
%TO.N,unconnected-(J2-Pin_c16-Padc16)*%
X224440000Y-70960000D03*
%TO.P,J2,c17,Pin_c17*%
%TO.N,unconnected-(J2-Pin_c17-Padc17)*%
X224440000Y-68420000D03*
%TO.P,J2,c18,Pin_c18*%
%TO.N,unconnected-(J2-Pin_c18-Padc18)*%
X224440000Y-65880000D03*
%TO.P,J2,c19,Pin_c19*%
%TO.N,unconnected-(J2-Pin_c19-Padc19)*%
X224440000Y-63340000D03*
D12*
%TO.P,J2,d0,Pin_d0*%
%TO.N,unconnected-(J2-Pin_d0-Padd0)*%
X226980000Y-111600000D03*
D13*
%TO.P,J2,d1,Pin_d1*%
%TO.N,unconnected-(J2-Pin_d1-Padd1)*%
X226980000Y-109060000D03*
%TO.P,J2,d2,Pin_d2*%
%TO.N,unconnected-(J2-Pin_d2-Padd2)*%
X226980000Y-106520000D03*
%TO.P,J2,d3,Pin_d3*%
%TO.N,unconnected-(J2-Pin_d3-Padd3)*%
X226980000Y-103980000D03*
%TO.P,J2,d4,Pin_d4*%
%TO.N,unconnected-(J2-Pin_d4-Padd4)*%
X226980000Y-101440000D03*
%TO.P,J2,d5,Pin_d5*%
%TO.N,unconnected-(J2-Pin_d5-Padd5)*%
X226980000Y-98900000D03*
%TO.P,J2,d6,Pin_d6*%
%TO.N,unconnected-(J2-Pin_d6-Padd6)*%
X226980000Y-96360000D03*
%TO.P,J2,d7,Pin_d7*%
%TO.N,unconnected-(J2-Pin_d7-Padd7)*%
X226980000Y-93820000D03*
%TO.P,J2,d8,Pin_d8*%
%TO.N,unconnected-(J2-Pin_d8-Padd8)*%
X226980000Y-91280000D03*
%TO.P,J2,d9,Pin_d9*%
%TO.N,unconnected-(J2-Pin_d9-Padd9)*%
X226980000Y-88740000D03*
%TO.P,J2,d10,Pin_d10*%
%TO.N,unconnected-(J2-Pin_d10-Padd10)*%
X226980000Y-86200000D03*
%TO.P,J2,d11,Pin_d11*%
%TO.N,unconnected-(J2-Pin_d11-Padd11)*%
X226980000Y-83660000D03*
%TO.P,J2,d12,Pin_d12*%
%TO.N,unconnected-(J2-Pin_d12-Padd12)*%
X226980000Y-81120000D03*
%TO.P,J2,d13,Pin_d13*%
%TO.N,unconnected-(J2-Pin_d13-Padd13)*%
X226980000Y-78580000D03*
%TO.P,J2,d14,Pin_d14*%
%TO.N,unconnected-(J2-Pin_d14-Padd14)*%
X226980000Y-76040000D03*
%TO.P,J2,d15,Pin_d15*%
%TO.N,unconnected-(J2-Pin_d15-Padd15)*%
X226980000Y-73500000D03*
%TO.P,J2,d16,Pin_d16*%
%TO.N,unconnected-(J2-Pin_d16-Padd16)*%
X226980000Y-70960000D03*
%TO.P,J2,d17,Pin_d17*%
%TO.N,unconnected-(J2-Pin_d17-Padd17)*%
X226980000Y-68420000D03*
%TO.P,J2,d18,Pin_d18*%
%TO.N,GND*%
X226980000Y-65880000D03*
%TO.P,J2,d19,Pin_d19*%
X226980000Y-63340000D03*
%TD*%
D18*
%TO.N,GND*%
X198425000Y-128870000D03*
D19*
X206425000Y-59520000D03*
X171963600Y-97376000D03*
X187575000Y-63270000D03*
X212175000Y-71270000D03*
D18*
X196025000Y-85070000D03*
X199925000Y-83720000D03*
D20*
X182606200Y-118788200D03*
D19*
X215925000Y-67520000D03*
X189175000Y-73545000D03*
D18*
X209325000Y-99670000D03*
X181825000Y-128420000D03*
D19*
X207975000Y-132770000D03*
X208675000Y-111770000D03*
D18*
X194725000Y-129820000D03*
D19*
X208175000Y-90520000D03*
X211975000Y-116770000D03*
X180066200Y-111523800D03*
D18*
%TO.N,RESET*%
X202675000Y-57270000D03*
%TO.N,GPIO*%
X201675000Y-57833500D03*
D19*
%TO.N,V_Batt*%
X214175000Y-105270000D03*
X213175000Y-83520000D03*
X215175000Y-83520000D03*
X214975000Y-127770000D03*
X213475000Y-126270000D03*
X216175000Y-107270000D03*
X214975000Y-124770000D03*
X215925000Y-80020000D03*
X216175000Y-106270000D03*
X215175000Y-85020000D03*
D20*
%TO.N,/Curr_meas/5V_to_fuse*%
X174376600Y-99763600D03*
%TO.N,/Curr_meas/12V_to_fuse*%
X166096200Y-102430600D03*
%TO.N,/Curr_meas/3V3_to_fet*%
X176675000Y-132770000D03*
X210725000Y-119220000D03*
%TO.N,/Curr_meas/5V_to_fet*%
X177275000Y-92270000D03*
X210700000Y-122795000D03*
%TO.N,/Curr_meas/12V_to_fet*%
X163675000Y-91270000D03*
X211200000Y-114245000D03*
D18*
%TO.N,5V_conv_out*%
X179125000Y-88870000D03*
X201575000Y-93120000D03*
D20*
%TO.N,12V_conv_out*%
X175725000Y-104120000D03*
X181425000Y-104120000D03*
D18*
X203675000Y-102770000D03*
X190325000Y-91420000D03*
X204175000Y-91270000D03*
%TO.N,3V3_conv_out*%
X177625000Y-119520000D03*
D20*
X177323000Y-117420000D03*
D18*
X180925000Y-119770000D03*
D20*
X189225000Y-117442000D03*
D18*
X210175000Y-112270000D03*
X211175000Y-101270000D03*
D20*
X176307000Y-109822000D03*
X191064400Y-110152200D03*
X189375000Y-121370000D03*
D18*
%TO.N,CM_SDA*%
X196875000Y-108170000D03*
X193825000Y-110070000D03*
%TO.N,CM_SCL*%
X197525000Y-108670000D03*
X194475000Y-110670000D03*
%TO.N,PV*%
X197225000Y-87920000D03*
X188675000Y-105820000D03*
X188524000Y-98270000D03*
%TO.N,CRITICAL*%
X188525000Y-106820000D03*
X189025000Y-98970000D03*
X197125000Y-89120000D03*
%TO.N,WARNING*%
X194775000Y-89320000D03*
X185225000Y-112870000D03*
X187925000Y-97470000D03*
%TO.N,A0*%
X197994669Y-109339669D03*
X195075000Y-111320000D03*
%TO.N,Net-(U4-EN)*%
X183884653Y-64974721D03*
X188625000Y-65720000D03*
%TD*%
D21*
%TO.N,GND*%
X194725000Y-129820000D02*
X197475000Y-129820000D01*
D22*
X196025000Y-85070000D02*
X198575000Y-85070000D01*
D21*
X197475000Y-129820000D02*
X198425000Y-128870000D01*
D22*
X198575000Y-85070000D02*
X199925000Y-83720000D01*
D23*
X182606200Y-118788200D02*
X181825000Y-119569400D01*
X181825000Y-119569400D02*
X181825000Y-128420000D01*
%TO.N,RESET*%
X211675000Y-56270000D02*
X217370000Y-56270000D01*
X217370000Y-56270000D02*
X219360000Y-58260000D01*
X210675000Y-57270000D02*
X211675000Y-56270000D01*
X202675000Y-57270000D02*
X210675000Y-57270000D01*
D22*
%TO.N,GPIO*%
X210825980Y-57634500D02*
X211825980Y-56634500D01*
X216106740Y-56634500D02*
X218883240Y-59411000D01*
X202923943Y-57871000D02*
X203160443Y-57634500D01*
X218883240Y-59411000D02*
X220749000Y-59411000D01*
X220749000Y-59411000D02*
X221900000Y-58260000D01*
X211825980Y-56634500D02*
X216106740Y-56634500D01*
X203160443Y-57634500D02*
X210825980Y-57634500D01*
X201712500Y-57871000D02*
X202923943Y-57871000D01*
X201675000Y-57833500D02*
X201712500Y-57871000D01*
D21*
%TO.N,/Curr_meas/5V_to_fuse*%
X180844000Y-101151000D02*
X179456600Y-99763600D01*
X181719000Y-101151000D02*
X183900000Y-98970000D01*
X180844000Y-101151000D02*
X181719000Y-101151000D01*
X179456600Y-99763600D02*
X174376600Y-99763600D01*
%TO.N,/Curr_meas/12V_to_fuse*%
X172950000Y-106320000D02*
X171214600Y-106320000D01*
X171214600Y-106320000D02*
X167325200Y-102430600D01*
X167325200Y-102430600D02*
X166096200Y-102430600D01*
%TO.N,/Curr_meas/3V3_to_fet*%
X178175000Y-134270000D02*
X176675000Y-132770000D01*
X195675000Y-134270000D02*
X178175000Y-134270000D01*
X210675000Y-119270000D02*
X195675000Y-134270000D01*
%TO.N,/Curr_meas/5V_to_fet*%
X209223470Y-116120000D02*
X211875999Y-118772529D01*
X201875000Y-114570000D02*
X201875000Y-116120000D01*
X198995669Y-111549331D02*
X198925000Y-111620000D01*
X198995669Y-105892199D02*
X198995669Y-111549331D01*
X201875000Y-116120000D02*
X209223470Y-116120000D01*
X198925000Y-111620000D02*
X201875000Y-114570000D01*
X177275000Y-92270000D02*
X185373470Y-92270000D01*
X211875999Y-118772529D02*
X211875999Y-121569001D01*
X211875999Y-121569001D02*
X210675000Y-122770000D01*
X185373470Y-92270000D02*
X198995669Y-105892199D01*
X177275000Y-92270000D02*
X177175000Y-92270000D01*
%TO.N,/Curr_meas/12V_to_fet*%
X203875000Y-114270000D02*
X211175000Y-114270000D01*
X200525000Y-105020000D02*
X200525000Y-110920000D01*
X200525000Y-110920000D02*
X203875000Y-114270000D01*
X163876000Y-91069000D02*
X186574000Y-91069000D01*
X163675000Y-91270000D02*
X163876000Y-91069000D01*
X186574000Y-91069000D02*
X200525000Y-105020000D01*
%TO.N,5V_conv_out*%
X196424000Y-74221000D02*
X197625000Y-73020000D01*
X197975000Y-83810000D02*
X195869372Y-83810000D01*
X197625000Y-65552919D02*
X197625000Y-73020000D01*
X179125000Y-88920000D02*
X179125000Y-88870000D01*
X195869372Y-83810000D02*
X193774000Y-85905372D01*
X197413000Y-83810000D02*
X196424000Y-82821000D01*
X197625000Y-73020000D02*
X200625000Y-73020000D01*
X193774000Y-89734628D02*
X192959372Y-88920000D01*
X197159372Y-93120000D02*
X201575000Y-93120000D01*
X197975000Y-83810000D02*
X197413000Y-83810000D01*
X191902081Y-59830000D02*
X197625000Y-65552919D01*
X192959372Y-88920000D02*
X179125000Y-88920000D01*
X193774000Y-89734628D02*
X197159372Y-93120000D01*
X200625000Y-73020000D02*
X203275000Y-70370000D01*
X193774000Y-85905372D02*
X193774000Y-89734628D01*
X196424000Y-82821000D02*
X196424000Y-74221000D01*
X190700000Y-59830000D02*
X191902081Y-59830000D01*
%TO.N,12V_conv_out*%
X193725000Y-94820000D02*
X204175000Y-94820000D01*
D24*
X204175000Y-102270000D02*
X204175000Y-94820000D01*
X204175000Y-94820000D02*
X204175000Y-91270000D01*
D21*
X175725000Y-104120000D02*
X181425000Y-104120000D01*
D24*
X203675000Y-102770000D02*
X204175000Y-102270000D01*
D21*
X190325000Y-91420000D02*
X193725000Y-94820000D01*
%TO.N,3V3_conv_out*%
X189210200Y-117442000D02*
X189210200Y-112006400D01*
X177323000Y-117420000D02*
X177323000Y-110838000D01*
X177323000Y-110838000D02*
X176307000Y-109822000D01*
X177323000Y-117442000D02*
X177323000Y-117420000D01*
X189225000Y-117442000D02*
X189210200Y-117442000D01*
X189325000Y-121370000D02*
X189325000Y-117442000D01*
D23*
X177625000Y-119520000D02*
X180675000Y-119520000D01*
D21*
X189325000Y-117442000D02*
X189225000Y-117442000D01*
D24*
X211175000Y-111270000D02*
X211175000Y-101270000D01*
D23*
X180675000Y-119520000D02*
X180925000Y-119770000D01*
D21*
X189210200Y-112006400D02*
X191064400Y-110152200D01*
D24*
X210175000Y-112270000D02*
X211175000Y-111270000D01*
D23*
%TO.N,CM_SDA*%
X193825000Y-110070000D02*
X194975000Y-110070000D01*
X194975000Y-110070000D02*
X196875000Y-108170000D01*
%TO.N,CM_SCL*%
X194475000Y-110670000D02*
X195525000Y-110670000D01*
X195525000Y-110670000D02*
X197525000Y-108670000D01*
%TO.N,PV*%
X197225000Y-87920000D02*
X206725000Y-78420000D01*
X218925000Y-85020000D02*
X220720000Y-85020000D01*
X217225000Y-78420000D02*
X217225000Y-83320000D01*
X206725000Y-78420000D02*
X217225000Y-78420000D01*
X188375000Y-105520000D02*
X188375000Y-105220000D01*
X188375000Y-105220000D02*
X188375000Y-98419000D01*
X188675000Y-105820000D02*
X188375000Y-105520000D01*
X217225000Y-83320000D02*
X218925000Y-85020000D01*
X188375000Y-98419000D02*
X188524000Y-98270000D01*
X220720000Y-85020000D02*
X221900000Y-86200000D01*
%TO.N,CRITICAL*%
X189239500Y-106105500D02*
X189239500Y-99184500D01*
X207325000Y-78920000D02*
X216825000Y-78920000D01*
X220785500Y-87625500D02*
X221900000Y-88740000D01*
X216825000Y-85241142D02*
X219209358Y-87625500D01*
X197125000Y-89120000D02*
X207325000Y-78920000D01*
X216825000Y-78920000D02*
X216825000Y-85241142D01*
X219209358Y-87625500D02*
X220785500Y-87625500D01*
X188525000Y-106820000D02*
X189239500Y-106105500D01*
X189239500Y-99184500D02*
X189025000Y-98970000D01*
%TO.N,WARNING*%
X187960500Y-110134500D02*
X187960500Y-97505500D01*
X219209358Y-90165500D02*
X220785500Y-90165500D01*
X185225000Y-112870000D02*
X187960500Y-110134500D01*
X216439500Y-87395642D02*
X219209358Y-90165500D01*
X208075000Y-79370000D02*
X216375000Y-79370000D01*
X220785500Y-90165500D02*
X221900000Y-91280000D01*
X216375000Y-79370000D02*
X216439500Y-79434500D01*
X197760500Y-89684500D02*
X208075000Y-79370000D01*
X216439500Y-79434500D02*
X216439500Y-87395642D01*
X195139500Y-89684500D02*
X197760500Y-89684500D01*
X194775000Y-89320000D02*
X195139500Y-89684500D01*
X187960500Y-97505500D02*
X187925000Y-97470000D01*
D21*
%TO.N,Net-(R23-Pad2)*%
X212452500Y-58242500D02*
X213175000Y-58242500D01*
X204175000Y-66520000D02*
X212452500Y-58242500D01*
%TO.N,Net-(U8-IN+)*%
X207625001Y-68129999D02*
X208425000Y-67330000D01*
X199425000Y-61770000D02*
X201305000Y-61770000D01*
X201305000Y-61770000D02*
X204175000Y-58900000D01*
X199425000Y-63892735D02*
X203662264Y-68129999D01*
X203662264Y-68129999D02*
X207625001Y-68129999D01*
X199425000Y-61770000D02*
X199425000Y-63892735D01*
D22*
%TO.N,A0*%
X195075000Y-111320000D02*
X196075000Y-111320000D01*
X196075000Y-111320000D02*
X198025000Y-109370000D01*
X198025000Y-109370000D02*
X197994669Y-109339669D01*
D25*
%TO.N,Net-(U4-EN)*%
X187375000Y-64470000D02*
X184375000Y-64470000D01*
X183875000Y-64970000D02*
X183879721Y-64974721D01*
X183879721Y-64974721D02*
X183884653Y-64974721D01*
X188625000Y-65720000D02*
X187375000Y-64470000D01*
X184375000Y-64470000D02*
X183875000Y-64970000D01*
%TD*%
%TA.AperFunction,Conductor*%
%TO.N,V_Batt*%
G36*
X215818539Y-79953685D02*
G01*
X215864294Y-80006489D01*
X215875500Y-80058000D01*
X215875500Y-87469894D01*
X215913935Y-87613338D01*
X215988187Y-87741946D01*
X215988189Y-87741948D01*
X216100261Y-87854020D01*
X216100267Y-87854025D01*
X218138681Y-89892439D01*
X218172166Y-89953762D01*
X218175000Y-89980120D01*
X218175000Y-90601191D01*
X218161485Y-90657485D01*
X218108445Y-90761582D01*
X218042753Y-90963760D01*
X218009500Y-91173713D01*
X218009500Y-91386286D01*
X218042753Y-91596239D01*
X218108444Y-91798414D01*
X218161485Y-91902512D01*
X218175000Y-91958807D01*
X218175000Y-93141191D01*
X218161485Y-93197485D01*
X218108445Y-93301582D01*
X218042753Y-93503760D01*
X218009500Y-93713713D01*
X218009500Y-93926286D01*
X218042753Y-94136239D01*
X218108444Y-94338414D01*
X218161485Y-94442512D01*
X218175000Y-94498807D01*
X218175000Y-95681191D01*
X218161485Y-95737485D01*
X218108445Y-95841582D01*
X218042753Y-96043760D01*
X218009500Y-96253713D01*
X218009500Y-96466286D01*
X218042753Y-96676239D01*
X218108444Y-96878414D01*
X218161485Y-96982512D01*
X218175000Y-97038807D01*
X218175000Y-98221191D01*
X218161485Y-98277485D01*
X218108445Y-98381582D01*
X218042753Y-98583760D01*
X218009500Y-98793713D01*
X218009500Y-99006286D01*
X218042753Y-99216239D01*
X218108444Y-99418414D01*
X218161485Y-99522512D01*
X218175000Y-99578807D01*
X218175000Y-100761191D01*
X218161485Y-100817485D01*
X218108445Y-100921582D01*
X218042753Y-101123760D01*
X218009500Y-101333713D01*
X218009500Y-101546287D01*
X218013985Y-101574604D01*
X218042753Y-101756239D01*
X218108444Y-101958414D01*
X218161485Y-102062512D01*
X218175000Y-102118807D01*
X218175000Y-103301191D01*
X218161485Y-103357485D01*
X218108445Y-103461582D01*
X218042753Y-103663760D01*
X218009500Y-103873713D01*
X218009500Y-104086286D01*
X218042753Y-104296239D01*
X218108444Y-104498414D01*
X218161485Y-104602512D01*
X218175000Y-104658807D01*
X218175000Y-105841191D01*
X218161485Y-105897485D01*
X218108445Y-106001582D01*
X218042753Y-106203760D01*
X218009500Y-106413713D01*
X218009500Y-106626286D01*
X218042753Y-106836239D01*
X218108444Y-107038414D01*
X218161485Y-107142512D01*
X218175000Y-107198807D01*
X218175000Y-108381191D01*
X218161485Y-108437485D01*
X218108445Y-108541582D01*
X218042753Y-108743760D01*
X218009500Y-108953713D01*
X218009500Y-109166286D01*
X218042753Y-109376239D01*
X218108444Y-109578414D01*
X218161485Y-109682512D01*
X218175000Y-109738807D01*
X218175000Y-110270000D01*
X218511347Y-110270000D01*
X218578386Y-110289685D01*
X218624141Y-110342489D01*
X218634085Y-110411647D01*
X218605060Y-110475203D01*
X218584232Y-110494319D01*
X218480207Y-110569896D01*
X218329890Y-110720213D01*
X218204951Y-110892179D01*
X218108444Y-111081585D01*
X218042753Y-111283760D01*
X218033225Y-111343918D01*
X218009500Y-111493713D01*
X218009500Y-111706287D01*
X218019534Y-111769644D01*
X218042753Y-111916239D01*
X218108444Y-112118414D01*
X218204951Y-112307820D01*
X218329890Y-112479786D01*
X218480213Y-112630109D01*
X218652179Y-112755048D01*
X218652181Y-112755049D01*
X218652184Y-112755051D01*
X218841588Y-112851557D01*
X219043757Y-112917246D01*
X219253713Y-112950500D01*
X219253714Y-112950500D01*
X219466286Y-112950500D01*
X219466287Y-112950500D01*
X219676243Y-112917246D01*
X219878412Y-112851557D01*
X220067816Y-112755051D01*
X220089789Y-112739086D01*
X220239786Y-112630109D01*
X220239788Y-112630106D01*
X220239792Y-112630104D01*
X220390104Y-112479792D01*
X220390106Y-112479788D01*
X220390109Y-112479786D01*
X220450682Y-112396414D01*
X220506011Y-112353748D01*
X220575625Y-112347769D01*
X220637420Y-112380374D01*
X220671777Y-112441213D01*
X220675000Y-112469299D01*
X220675000Y-113539696D01*
X220661486Y-113595989D01*
X220648440Y-113621592D01*
X220582753Y-113823759D01*
X220549500Y-114033713D01*
X220549500Y-114246286D01*
X220582753Y-114456239D01*
X220648444Y-114658416D01*
X220661484Y-114684007D01*
X220675000Y-114740303D01*
X220675000Y-116079696D01*
X220661486Y-116135989D01*
X220648440Y-116161592D01*
X220582753Y-116363759D01*
X220549500Y-116573713D01*
X220549500Y-116786286D01*
X220582753Y-116996239D01*
X220648444Y-117198416D01*
X220661484Y-117224007D01*
X220675000Y-117280303D01*
X220675000Y-118619696D01*
X220661486Y-118675989D01*
X220648440Y-118701592D01*
X220582753Y-118903759D01*
X220549500Y-119113713D01*
X220549500Y-119326286D01*
X220582753Y-119536239D01*
X220648444Y-119738416D01*
X220661484Y-119764007D01*
X220675000Y-119820303D01*
X220675000Y-120890700D01*
X220655315Y-120957739D01*
X220602511Y-121003494D01*
X220533353Y-121013438D01*
X220469797Y-120984413D01*
X220450682Y-120963585D01*
X220390109Y-120880214D01*
X220390105Y-120880209D01*
X220239786Y-120729890D01*
X220067820Y-120604951D01*
X219878414Y-120508444D01*
X219878413Y-120508443D01*
X219878412Y-120508443D01*
X219676243Y-120442754D01*
X219676241Y-120442753D01*
X219676240Y-120442753D01*
X219514957Y-120417208D01*
X219466287Y-120409500D01*
X219253713Y-120409500D01*
X219205042Y-120417208D01*
X219043760Y-120442753D01*
X218841585Y-120508444D01*
X218652179Y-120604951D01*
X218480213Y-120729890D01*
X218329890Y-120880213D01*
X218204951Y-121052179D01*
X218108444Y-121241585D01*
X218042753Y-121443760D01*
X218038524Y-121470461D01*
X218009500Y-121653713D01*
X218009500Y-121866287D01*
X218042754Y-122076243D01*
X218085169Y-122206783D01*
X218108444Y-122278414D01*
X218204951Y-122467820D01*
X218329890Y-122639786D01*
X218480213Y-122790109D01*
X218652182Y-122915050D01*
X218660946Y-122919516D01*
X218711742Y-122967491D01*
X218728536Y-123035312D01*
X218705998Y-123101447D01*
X218676001Y-123131415D01*
X218668792Y-123136486D01*
X218652184Y-123144949D01*
X218511936Y-123246844D01*
X218511125Y-123247415D01*
X218478892Y-123258365D01*
X218446852Y-123269798D01*
X218445096Y-123269848D01*
X218444970Y-123269891D01*
X218444828Y-123269855D01*
X218439774Y-123270000D01*
X217675000Y-123270000D01*
X217675000Y-129146000D01*
X217655315Y-129213039D01*
X217602511Y-129258794D01*
X217551000Y-129270000D01*
X211799000Y-129270000D01*
X211731961Y-129250315D01*
X211686206Y-129197511D01*
X211675000Y-129146000D01*
X211675000Y-123236281D01*
X211694685Y-123169242D01*
X211711316Y-123148603D01*
X212513777Y-122346142D01*
X212513781Y-122346140D01*
X212653138Y-122206783D01*
X212762631Y-122042915D01*
X212815960Y-121914166D01*
X212838050Y-121860837D01*
X212876499Y-121667541D01*
X212876499Y-121470461D01*
X212876499Y-118673988D01*
X212876499Y-118673985D01*
X212838051Y-118480699D01*
X212838050Y-118480698D01*
X212838050Y-118480694D01*
X212819167Y-118435105D01*
X212762634Y-118298621D01*
X212762627Y-118298608D01*
X212653139Y-118134748D01*
X212653138Y-118134747D01*
X212513781Y-117995390D01*
X212513780Y-117995389D01*
X212195125Y-117676734D01*
X212161640Y-117615411D01*
X212166624Y-117545719D01*
X212208496Y-117489786D01*
X212235347Y-117474495D01*
X212330495Y-117435084D01*
X212453416Y-117352951D01*
X212557951Y-117248416D01*
X212640084Y-117125495D01*
X212696658Y-116988913D01*
X212725500Y-116843918D01*
X212725500Y-116696082D01*
X212725500Y-116696079D01*
X212696659Y-116551092D01*
X212696658Y-116551091D01*
X212696658Y-116551087D01*
X212696656Y-116551082D01*
X212640087Y-116414511D01*
X212640080Y-116414498D01*
X212557951Y-116291584D01*
X212557948Y-116291580D01*
X212453419Y-116187051D01*
X212453415Y-116187048D01*
X212330501Y-116104919D01*
X212330488Y-116104912D01*
X212193917Y-116048343D01*
X212193907Y-116048340D01*
X212048920Y-116019500D01*
X212048918Y-116019500D01*
X211901082Y-116019500D01*
X211901079Y-116019500D01*
X211823191Y-116034993D01*
X211753600Y-116028766D01*
X211698423Y-115985903D01*
X211675178Y-115920013D01*
X211675000Y-115913376D01*
X211675000Y-115205480D01*
X211694685Y-115138441D01*
X211730105Y-115102381D01*
X211812782Y-115047139D01*
X211952139Y-114907782D01*
X212061632Y-114743914D01*
X212137051Y-114561835D01*
X212175500Y-114368541D01*
X212175500Y-114171459D01*
X212175500Y-114171456D01*
X212137052Y-113978170D01*
X212137051Y-113978169D01*
X212137051Y-113978165D01*
X212137049Y-113978160D01*
X212061635Y-113796092D01*
X212061628Y-113796079D01*
X211952139Y-113632218D01*
X211952136Y-113632214D01*
X211812785Y-113492863D01*
X211812781Y-113492860D01*
X211730109Y-113437620D01*
X211685304Y-113384008D01*
X211675000Y-113334518D01*
X211675000Y-111882729D01*
X211682059Y-111858688D01*
X211685057Y-111833811D01*
X211692658Y-111822591D01*
X211694685Y-111815690D01*
X211703454Y-111803691D01*
X211707178Y-111799188D01*
X211757952Y-111748415D01*
X211791276Y-111698541D01*
X211840084Y-111625495D01*
X211863518Y-111568920D01*
X211896659Y-111488912D01*
X211925500Y-111343917D01*
X211925500Y-111196082D01*
X211925500Y-101574604D01*
X211934939Y-101527151D01*
X211944737Y-101503497D01*
X211975500Y-101348842D01*
X211975500Y-101191158D01*
X211975500Y-101191155D01*
X211975499Y-101191153D01*
X211944737Y-101036503D01*
X211897136Y-100921582D01*
X211884397Y-100890827D01*
X211884390Y-100890814D01*
X211796789Y-100759711D01*
X211796786Y-100759707D01*
X211711319Y-100674240D01*
X211677834Y-100612917D01*
X211675000Y-100586559D01*
X211675000Y-80058000D01*
X211694685Y-79990961D01*
X211747489Y-79945206D01*
X211799000Y-79934000D01*
X215751500Y-79934000D01*
X215818539Y-79953685D01*
G37*
%TD.AperFunction*%
%TD*%
%TA.AperFunction,Conductor*%
%TO.N,GND*%
G36*
X230064418Y-48600816D02*
G01*
X230264561Y-48615130D01*
X230282063Y-48617647D01*
X230473797Y-48659355D01*
X230490755Y-48664334D01*
X230674609Y-48732909D01*
X230690701Y-48740259D01*
X230862904Y-48834288D01*
X230877784Y-48843849D01*
X231034867Y-48961441D01*
X231048237Y-48973027D01*
X231186972Y-49111762D01*
X231198558Y-49125132D01*
X231316146Y-49282210D01*
X231325711Y-49297095D01*
X231419740Y-49469298D01*
X231427090Y-49485390D01*
X231495662Y-49669236D01*
X231500646Y-49686212D01*
X231542351Y-49877931D01*
X231544869Y-49895442D01*
X231559184Y-50095580D01*
X231559500Y-50104427D01*
X231559500Y-67661000D01*
X231539815Y-67728039D01*
X231487011Y-67773794D01*
X231435500Y-67785000D01*
X228248140Y-67785000D01*
X228181101Y-67765315D01*
X228137655Y-67717295D01*
X228135051Y-67712184D01*
X228135049Y-67712181D01*
X228135048Y-67712179D01*
X228010109Y-67540213D01*
X227859786Y-67389890D01*
X227687820Y-67264951D01*
X227498414Y-67168444D01*
X227498413Y-67168443D01*
X227498412Y-67168443D01*
X227296243Y-67102754D01*
X227296241Y-67102753D01*
X227296240Y-67102753D01*
X227134957Y-67077208D01*
X227086287Y-67069500D01*
X226873713Y-67069500D01*
X226825042Y-67077208D01*
X226663760Y-67102753D01*
X226461585Y-67168444D01*
X226272179Y-67264951D01*
X226100213Y-67389890D01*
X225949890Y-67540213D01*
X225824949Y-67712182D01*
X225820484Y-67720946D01*
X225772509Y-67771742D01*
X225704688Y-67788536D01*
X225638553Y-67765998D01*
X225599516Y-67720946D01*
X225595050Y-67712182D01*
X225470109Y-67540213D01*
X225319786Y-67389890D01*
X225147820Y-67264951D01*
X225147115Y-67264591D01*
X225139054Y-67260485D01*
X225088259Y-67212512D01*
X225071463Y-67144692D01*
X225093999Y-67078556D01*
X225139054Y-67039515D01*
X225147816Y-67035051D01*
X225193577Y-67001804D01*
X225319786Y-66910109D01*
X225319788Y-66910106D01*
X225319792Y-66910104D01*
X225470104Y-66759792D01*
X225470106Y-66759788D01*
X225470109Y-66759786D01*
X225595048Y-66587820D01*
X225595047Y-66587820D01*
X225595051Y-66587816D01*
X225691557Y-66398412D01*
X225757246Y-66196243D01*
X225790500Y-65986287D01*
X225790500Y-65773713D01*
X225757246Y-65563757D01*
X225691557Y-65361588D01*
X225595051Y-65172184D01*
X225595049Y-65172181D01*
X225595048Y-65172179D01*
X225470109Y-65000213D01*
X225319786Y-64849890D01*
X225147820Y-64724951D01*
X225147115Y-64724591D01*
X225139054Y-64720485D01*
X225088259Y-64672512D01*
X225071463Y-64604692D01*
X225093999Y-64538556D01*
X225139054Y-64499515D01*
X225147816Y-64495051D01*
X225189965Y-64464428D01*
X225319786Y-64370109D01*
X225319788Y-64370106D01*
X225319792Y-64370104D01*
X225470104Y-64219792D01*
X225470106Y-64219788D01*
X225470109Y-64219786D01*
X225595048Y-64047820D01*
X225595047Y-64047820D01*
X225595051Y-64047816D01*
X225691557Y-63858412D01*
X225757246Y-63656243D01*
X225790500Y-63446287D01*
X225790500Y-63233713D01*
X225757246Y-63023757D01*
X225691557Y-62821588D01*
X225595051Y-62632184D01*
X225595049Y-62632181D01*
X225595048Y-62632179D01*
X225470109Y-62460213D01*
X225319786Y-62309890D01*
X225147820Y-62184951D01*
X224958414Y-62088444D01*
X224958413Y-62088443D01*
X224958412Y-62088443D01*
X224756243Y-62022754D01*
X224756241Y-62022753D01*
X224756240Y-62022753D01*
X224594957Y-61997208D01*
X224546287Y-61989500D01*
X224333713Y-61989500D01*
X224285042Y-61997208D01*
X224123760Y-62022753D01*
X223921585Y-62088444D01*
X223732179Y-62184951D01*
X223560213Y-62309890D01*
X223409890Y-62460213D01*
X223284949Y-62632182D01*
X223280484Y-62640946D01*
X223232509Y-62691742D01*
X223164688Y-62708536D01*
X223098553Y-62685998D01*
X223059516Y-62640946D01*
X223055050Y-62632182D01*
X222930109Y-62460213D01*
X222779786Y-62309890D01*
X222607820Y-62184951D01*
X222607115Y-62184591D01*
X222599054Y-62180485D01*
X222548259Y-62132512D01*
X222531463Y-62064692D01*
X222553999Y-61998556D01*
X222599054Y-61959515D01*
X222607816Y-61955051D01*
X222629789Y-61939086D01*
X222779786Y-61830109D01*
X222779788Y-61830106D01*
X222779792Y-61830104D01*
X222930104Y-61679792D01*
X222930106Y-61679788D01*
X222930109Y-61679786D01*
X223055048Y-61507820D01*
X223055047Y-61507820D01*
X223055051Y-61507816D01*
X223151557Y-61318412D01*
X223217246Y-61116243D01*
X223250500Y-60906287D01*
X223250500Y-60693713D01*
X223217246Y-60483757D01*
X223151557Y-60281588D01*
X223055051Y-60092184D01*
X223055049Y-60092181D01*
X223055048Y-60092179D01*
X222930109Y-59920213D01*
X222779786Y-59769890D01*
X222607820Y-59644951D01*
X222607115Y-59644591D01*
X222599054Y-59640485D01*
X222548259Y-59592512D01*
X222531463Y-59524692D01*
X222553999Y-59458556D01*
X222599054Y-59419515D01*
X222607816Y-59415051D01*
X222750226Y-59311585D01*
X222779786Y-59290109D01*
X222779788Y-59290106D01*
X222779792Y-59290104D01*
X222930104Y-59139792D01*
X222930106Y-59139788D01*
X222930109Y-59139786D01*
X223055048Y-58967820D01*
X223055047Y-58967820D01*
X223055051Y-58967816D01*
X223151557Y-58778412D01*
X223217246Y-58576243D01*
X223250500Y-58366287D01*
X223250500Y-58153713D01*
X223217246Y-57943757D01*
X223151557Y-57741588D01*
X223055051Y-57552184D01*
X223055049Y-57552181D01*
X223055048Y-57552179D01*
X222930109Y-57380213D01*
X222779786Y-57229890D01*
X222607820Y-57104951D01*
X222607115Y-57104591D01*
X222599054Y-57100485D01*
X222548259Y-57052512D01*
X222531463Y-56984692D01*
X222553999Y-56918556D01*
X222599054Y-56879515D01*
X222607816Y-56875051D01*
X222629789Y-56859086D01*
X222779786Y-56750109D01*
X222779788Y-56750106D01*
X222779792Y-56750104D01*
X222930104Y-56599792D01*
X222930106Y-56599788D01*
X222930109Y-56599786D01*
X223055048Y-56427820D01*
X223055047Y-56427820D01*
X223055051Y-56427816D01*
X223151557Y-56238412D01*
X223217246Y-56036243D01*
X223250500Y-55826287D01*
X223250500Y-55613713D01*
X223217246Y-55403757D01*
X223151557Y-55201588D01*
X223055051Y-55012184D01*
X223055049Y-55012181D01*
X223055048Y-55012179D01*
X222930109Y-54840213D01*
X222779786Y-54689890D01*
X222607820Y-54564951D01*
X222418414Y-54468444D01*
X222418413Y-54468443D01*
X222418412Y-54468443D01*
X222216243Y-54402754D01*
X222216241Y-54402753D01*
X222216240Y-54402753D01*
X222054957Y-54377208D01*
X222006287Y-54369500D01*
X221793713Y-54369500D01*
X221745042Y-54377208D01*
X221583760Y-54402753D01*
X221381585Y-54468444D01*
X221192179Y-54564951D01*
X221020213Y-54689890D01*
X220869890Y-54840213D01*
X220744951Y-55012179D01*
X220648444Y-55201585D01*
X220582753Y-55403760D01*
X220549500Y-55613713D01*
X220549500Y-55826286D01*
X220582753Y-56036239D01*
X220648444Y-56238414D01*
X220744951Y-56427820D01*
X220869890Y-56599786D01*
X221020213Y-56750109D01*
X221192182Y-56875050D01*
X221200946Y-56879516D01*
X221251742Y-56927491D01*
X221268536Y-56995312D01*
X221245998Y-57061447D01*
X221200946Y-57100484D01*
X221192182Y-57104949D01*
X221020213Y-57229890D01*
X220869890Y-57380213D01*
X220744949Y-57552182D01*
X220740484Y-57560946D01*
X220692509Y-57611742D01*
X220624688Y-57628536D01*
X220558553Y-57605998D01*
X220519516Y-57560946D01*
X220515050Y-57552182D01*
X220390109Y-57380213D01*
X220239786Y-57229890D01*
X220067820Y-57104951D01*
X219878414Y-57008444D01*
X219878413Y-57008443D01*
X219878412Y-57008443D01*
X219676243Y-56942754D01*
X219676241Y-56942753D01*
X219676240Y-56942753D01*
X219514957Y-56917208D01*
X219466287Y-56909500D01*
X219253713Y-56909500D01*
X219196536Y-56918556D01*
X219043755Y-56942754D01*
X219043752Y-56942754D01*
X218962515Y-56969150D01*
X218892673Y-56971145D01*
X218836516Y-56938900D01*
X217828383Y-55930767D01*
X217828381Y-55930764D01*
X217716306Y-55818689D01*
X217716304Y-55818687D01*
X217587696Y-55744435D01*
X217444253Y-55706000D01*
X217444252Y-55706000D01*
X211756865Y-55706000D01*
X211756849Y-55705999D01*
X211749253Y-55705999D01*
X211600748Y-55705999D01*
X211469063Y-55741284D01*
X211457300Y-55744436D01*
X211328699Y-55818684D01*
X211328693Y-55818689D01*
X210477703Y-56669681D01*
X210416380Y-56703166D01*
X210390022Y-56706000D01*
X203294441Y-56706000D01*
X203227402Y-56686315D01*
X203206760Y-56669681D01*
X203185292Y-56648213D01*
X203185288Y-56648210D01*
X203054185Y-56560609D01*
X203054172Y-56560602D01*
X202908501Y-56500264D01*
X202908489Y-56500261D01*
X202753845Y-56469500D01*
X202753842Y-56469500D01*
X202596158Y-56469500D01*
X202596155Y-56469500D01*
X202441510Y-56500261D01*
X202441498Y-56500264D01*
X202295827Y-56560602D01*
X202295814Y-56560609D01*
X202164711Y-56648210D01*
X202164707Y-56648213D01*
X202053213Y-56759707D01*
X202053210Y-56759711D01*
X201965609Y-56890814D01*
X201965604Y-56890824D01*
X201934020Y-56967075D01*
X201890179Y-57021478D01*
X201823884Y-57043543D01*
X201795269Y-57041240D01*
X201771453Y-57036503D01*
X201753842Y-57033000D01*
X201596158Y-57033000D01*
X201596155Y-57033000D01*
X201441510Y-57063761D01*
X201441498Y-57063764D01*
X201295827Y-57124102D01*
X201295814Y-57124109D01*
X201164711Y-57211710D01*
X201164707Y-57211713D01*
X201053213Y-57323207D01*
X201053210Y-57323211D01*
X200965609Y-57454314D01*
X200965602Y-57454327D01*
X200905264Y-57599998D01*
X200905261Y-57600010D01*
X200874500Y-57754653D01*
X200874500Y-57912346D01*
X200905261Y-58066989D01*
X200905264Y-58067001D01*
X200965602Y-58212672D01*
X200965609Y-58212685D01*
X201053210Y-58343788D01*
X201053213Y-58343792D01*
X201164707Y-58455286D01*
X201164711Y-58455289D01*
X201295814Y-58542890D01*
X201295827Y-58542897D01*
X201422742Y-58595466D01*
X201441503Y-58603237D01*
X201596153Y-58633999D01*
X201596156Y-58634000D01*
X201596158Y-58634000D01*
X201753844Y-58634000D01*
X201753845Y-58633999D01*
X201908497Y-58603237D01*
X202044184Y-58547034D01*
X202054177Y-58542895D01*
X202054180Y-58542893D01*
X202054185Y-58542890D01*
X202076789Y-58527785D01*
X202129753Y-58492398D01*
X202196430Y-58471520D01*
X202198643Y-58471500D01*
X202780972Y-58471500D01*
X202798909Y-58476766D01*
X202817603Y-58477034D01*
X202831739Y-58486407D01*
X202848011Y-58491185D01*
X202860252Y-58505312D01*
X202875836Y-58515645D01*
X202882660Y-58531172D01*
X202893766Y-58543989D01*
X202896426Y-58562494D01*
X202903949Y-58579609D01*
X202903491Y-58611628D01*
X202903710Y-58613147D01*
X202903445Y-58614899D01*
X202883073Y-58743515D01*
X202853143Y-58806649D01*
X202848281Y-58811797D01*
X200926899Y-60733181D01*
X200865576Y-60766666D01*
X200839218Y-60769500D01*
X200300762Y-60769500D01*
X200233723Y-60749815D01*
X200227877Y-60745818D01*
X200106613Y-60657715D01*
X200106612Y-60657714D01*
X200106610Y-60657713D01*
X200017543Y-60612331D01*
X199924223Y-60564781D01*
X199729534Y-60501522D01*
X199554995Y-60473878D01*
X199527352Y-60469500D01*
X199322648Y-60469500D01*
X199298329Y-60473351D01*
X199120465Y-60501522D01*
X198925776Y-60564781D01*
X198743386Y-60657715D01*
X198577786Y-60778028D01*
X198433028Y-60922786D01*
X198312715Y-61088386D01*
X198219781Y-61270776D01*
X198156522Y-61465465D01*
X198124500Y-61667648D01*
X198124500Y-61872351D01*
X198156522Y-62074534D01*
X198219781Y-62269223D01*
X198286776Y-62400706D01*
X198312713Y-62451610D01*
X198400819Y-62572877D01*
X198424298Y-62638681D01*
X198424500Y-62645761D01*
X198424500Y-63991279D01*
X198462947Y-64184568D01*
X198462949Y-64184572D01*
X198485038Y-64237899D01*
X198538366Y-64366646D01*
X198538371Y-64366655D01*
X198647860Y-64530516D01*
X198647863Y-64530520D01*
X198791537Y-64674194D01*
X198791559Y-64674214D01*
X202885122Y-68767777D01*
X202885125Y-68767781D01*
X202928593Y-68811249D01*
X202975187Y-68857844D01*
X202990387Y-68885682D01*
X203008671Y-68919166D01*
X203003687Y-68988858D01*
X202984642Y-69014299D01*
X202961814Y-69044792D01*
X202961810Y-69044793D01*
X202925823Y-69063455D01*
X202756585Y-69118444D01*
X202567179Y-69214951D01*
X202395213Y-69339890D01*
X202244890Y-69490213D01*
X202119951Y-69662179D01*
X202023444Y-69851585D01*
X201957753Y-70053760D01*
X201923738Y-70268525D01*
X201922684Y-70268358D01*
X201899621Y-70328850D01*
X201888576Y-70341503D01*
X200246899Y-71983181D01*
X200185576Y-72016666D01*
X200159218Y-72019500D01*
X198749500Y-72019500D01*
X198682461Y-71999815D01*
X198636706Y-71947011D01*
X198625500Y-71895500D01*
X198625500Y-70644568D01*
X198645185Y-70577529D01*
X198697989Y-70531774D01*
X198767147Y-70521830D01*
X198805793Y-70534083D01*
X198861697Y-70562567D01*
X198925774Y-70595217D01*
X198925777Y-70595217D01*
X198925781Y-70595220D01*
X199060245Y-70638910D01*
X199120465Y-70658477D01*
X199221557Y-70674488D01*
X199322648Y-70690500D01*
X199322649Y-70690500D01*
X199527351Y-70690500D01*
X199527352Y-70690500D01*
X199729534Y-70658477D01*
X199924219Y-70595220D01*
X200106610Y-70502287D01*
X200224501Y-70416635D01*
X200272213Y-70381971D01*
X200272215Y-70381968D01*
X200272219Y-70381966D01*
X200416966Y-70237219D01*
X200416968Y-70237215D01*
X200416971Y-70237213D01*
X200515463Y-70101648D01*
X200537287Y-70071610D01*
X200630220Y-69889219D01*
X200693477Y-69694534D01*
X200725500Y-69492352D01*
X200725500Y-69287648D01*
X200693477Y-69085466D01*
X200670353Y-69014299D01*
X200639443Y-68919166D01*
X200630220Y-68890781D01*
X200630218Y-68890778D01*
X200630218Y-68890776D01*
X200567548Y-68767781D01*
X200537287Y-68708390D01*
X200499745Y-68656717D01*
X200416971Y-68542786D01*
X200272213Y-68398028D01*
X200106613Y-68277715D01*
X200106612Y-68277714D01*
X200106610Y-68277713D01*
X200044205Y-68245916D01*
X199924223Y-68184781D01*
X199729534Y-68121522D01*
X199554995Y-68093878D01*
X199527352Y-68089500D01*
X199322648Y-68089500D01*
X199298329Y-68093351D01*
X199120465Y-68121522D01*
X198925776Y-68184781D01*
X198805795Y-68245916D01*
X198737126Y-68258812D01*
X198672385Y-68232536D01*
X198632128Y-68175429D01*
X198625500Y-68135431D01*
X198625500Y-65454377D01*
X198625499Y-65454376D01*
X198609657Y-65374729D01*
X198587052Y-65261084D01*
X198519588Y-65098213D01*
X198511633Y-65079007D01*
X198511628Y-65078998D01*
X198402140Y-64915138D01*
X198402137Y-64915134D01*
X192686290Y-59199289D01*
X192686287Y-59199285D01*
X192686287Y-59199286D01*
X192679220Y-59192219D01*
X192679220Y-59192218D01*
X192539863Y-59052861D01*
X192539862Y-59052860D01*
X192539861Y-59052859D01*
X192376001Y-58943371D01*
X192375988Y-58943364D01*
X192231738Y-58883614D01*
X192231730Y-58883612D01*
X192223691Y-58880282D01*
X192193917Y-58867949D01*
X192097269Y-58848724D01*
X192093853Y-58848044D01*
X192093851Y-58848044D01*
X192000625Y-58829500D01*
X192000622Y-58829500D01*
X191660200Y-58829500D01*
X191593161Y-58809815D01*
X191580634Y-58800506D01*
X191407820Y-58674951D01*
X191218414Y-58578444D01*
X191218413Y-58578443D01*
X191218412Y-58578443D01*
X191016243Y-58512754D01*
X191016241Y-58512753D01*
X191016240Y-58512753D01*
X190849896Y-58486407D01*
X190806287Y-58479500D01*
X190593713Y-58479500D01*
X190550104Y-58486407D01*
X190383760Y-58512753D01*
X190181585Y-58578444D01*
X189992179Y-58674951D01*
X189820213Y-58799890D01*
X189669890Y-58950213D01*
X189544951Y-59122179D01*
X189448444Y-59311585D01*
X189382753Y-59513760D01*
X189349500Y-59723713D01*
X189349500Y-59936286D01*
X189376256Y-60105220D01*
X189382754Y-60146243D01*
X189445173Y-60338349D01*
X189448444Y-60348414D01*
X189544951Y-60537820D01*
X189669890Y-60709786D01*
X189783430Y-60823326D01*
X189816915Y-60884649D01*
X189811931Y-60954341D01*
X189770059Y-61010274D01*
X189739083Y-61027189D01*
X189607669Y-61076203D01*
X189607664Y-61076206D01*
X189492455Y-61162452D01*
X189492452Y-61162455D01*
X189406206Y-61277664D01*
X189406202Y-61277671D01*
X189355908Y-61412517D01*
X189349501Y-61472116D01*
X189349500Y-61472135D01*
X189349500Y-63267870D01*
X189349501Y-63267876D01*
X189355908Y-63327483D01*
X189406202Y-63462328D01*
X189406206Y-63462335D01*
X189492452Y-63577544D01*
X189492455Y-63577547D01*
X189607664Y-63663793D01*
X189607671Y-63663797D01*
X189742517Y-63714091D01*
X189742516Y-63714091D01*
X189749444Y-63714835D01*
X189802127Y-63720500D01*
X191597872Y-63720499D01*
X191657483Y-63714091D01*
X191792331Y-63663796D01*
X191907546Y-63577546D01*
X191993796Y-63462331D01*
X192044091Y-63327483D01*
X192050500Y-63267873D01*
X192050499Y-61692699D01*
X192070184Y-61625661D01*
X192122987Y-61579906D01*
X192192146Y-61569962D01*
X192255702Y-61598987D01*
X192262180Y-61605019D01*
X196588181Y-65931020D01*
X196621666Y-65992343D01*
X196624500Y-66018701D01*
X196624500Y-72554217D01*
X196604815Y-72621256D01*
X196588181Y-72641898D01*
X195786220Y-73443859D01*
X195786218Y-73443861D01*
X195716538Y-73513540D01*
X195646859Y-73583219D01*
X195537371Y-73747079D01*
X195537364Y-73747092D01*
X195461950Y-73929160D01*
X195461947Y-73929170D01*
X195423500Y-74122456D01*
X195423500Y-82838351D01*
X195403815Y-82905390D01*
X195368391Y-82941453D01*
X195231590Y-83032859D01*
X195231587Y-83032862D01*
X193574665Y-84689786D01*
X193136220Y-85128231D01*
X193136218Y-85128233D01*
X193094561Y-85169890D01*
X192996859Y-85267591D01*
X192887371Y-85431452D01*
X192887364Y-85431465D01*
X192848508Y-85525275D01*
X192848508Y-85525276D01*
X192811950Y-85613533D01*
X192811947Y-85613542D01*
X192805590Y-85645503D01*
X192773500Y-85806826D01*
X192773500Y-87795500D01*
X192753815Y-87862539D01*
X192701011Y-87908294D01*
X192649500Y-87919500D01*
X179469386Y-87919500D01*
X179421936Y-87910062D01*
X179416835Y-87907949D01*
X179416828Y-87907947D01*
X179223543Y-87869500D01*
X179223541Y-87869500D01*
X179026459Y-87869500D01*
X179026457Y-87869500D01*
X178833170Y-87907947D01*
X178833160Y-87907950D01*
X178651092Y-87983364D01*
X178651079Y-87983371D01*
X178487218Y-88092860D01*
X178487214Y-88092863D01*
X178347863Y-88232214D01*
X178347860Y-88232218D01*
X178238371Y-88396079D01*
X178238364Y-88396092D01*
X178162950Y-88578160D01*
X178162947Y-88578170D01*
X178124500Y-88771456D01*
X178124500Y-88771459D01*
X178124500Y-88821459D01*
X178124500Y-89018541D01*
X178124500Y-89018543D01*
X178124499Y-89018543D01*
X178162947Y-89211829D01*
X178162950Y-89211839D01*
X178238364Y-89393907D01*
X178238371Y-89393920D01*
X178347860Y-89557781D01*
X178347863Y-89557785D01*
X178487214Y-89697136D01*
X178487218Y-89697139D01*
X178651079Y-89806628D01*
X178651092Y-89806635D01*
X178707353Y-89829939D01*
X178761757Y-89873780D01*
X178783822Y-89940074D01*
X178766543Y-90007773D01*
X178715406Y-90055384D01*
X178659901Y-90068500D01*
X163777455Y-90068500D01*
X163680812Y-90087724D01*
X163584170Y-90106946D01*
X163584161Y-90106949D01*
X163540707Y-90124948D01*
X163540708Y-90124949D01*
X163402082Y-90182369D01*
X163238219Y-90291859D01*
X163200913Y-90329166D01*
X163098861Y-90431218D01*
X162897863Y-90632215D01*
X162897860Y-90632219D01*
X162788372Y-90796079D01*
X162788367Y-90796089D01*
X162712949Y-90978163D01*
X162712947Y-90978171D01*
X162674500Y-91171455D01*
X162674500Y-91368544D01*
X162712947Y-91561828D01*
X162712949Y-91561836D01*
X162788367Y-91743910D01*
X162788372Y-91743920D01*
X162897860Y-91907780D01*
X162897863Y-91907784D01*
X163037215Y-92047136D01*
X163037219Y-92047139D01*
X163201079Y-92156627D01*
X163201083Y-92156629D01*
X163201086Y-92156631D01*
X163383164Y-92232051D01*
X163576455Y-92270499D01*
X163576458Y-92270500D01*
X163576460Y-92270500D01*
X163773542Y-92270500D01*
X163773543Y-92270499D01*
X163966836Y-92232051D01*
X164148914Y-92156631D01*
X164248039Y-92090398D01*
X164314716Y-92069520D01*
X164316930Y-92069500D01*
X176050500Y-92069500D01*
X176117539Y-92089185D01*
X176163294Y-92141989D01*
X176174500Y-92193500D01*
X176174500Y-92368541D01*
X176174500Y-92368543D01*
X176174499Y-92368543D01*
X176212947Y-92561829D01*
X176212950Y-92561839D01*
X176288364Y-92743907D01*
X176288371Y-92743920D01*
X176397860Y-92907781D01*
X176397863Y-92907785D01*
X176537214Y-93047136D01*
X176537218Y-93047139D01*
X176701079Y-93156628D01*
X176701092Y-93156635D01*
X176883160Y-93232049D01*
X176883165Y-93232051D01*
X176883169Y-93232051D01*
X176883170Y-93232052D01*
X177076456Y-93270500D01*
X177076459Y-93270500D01*
X177176459Y-93270500D01*
X184907688Y-93270500D01*
X184974727Y-93290185D01*
X184995369Y-93306819D01*
X188156954Y-96468404D01*
X188190439Y-96529727D01*
X188185455Y-96599419D01*
X188143583Y-96655352D01*
X188078119Y-96679769D01*
X188045083Y-96677703D01*
X188003842Y-96669500D01*
X187846158Y-96669500D01*
X187846155Y-96669500D01*
X187691510Y-96700261D01*
X187691498Y-96700264D01*
X187545827Y-96760602D01*
X187545814Y-96760609D01*
X187414711Y-96848210D01*
X187414707Y-96848213D01*
X187303213Y-96959707D01*
X187303210Y-96959711D01*
X187215609Y-97090814D01*
X187215602Y-97090827D01*
X187155264Y-97236498D01*
X187155261Y-97236510D01*
X187124500Y-97391153D01*
X187124500Y-97548846D01*
X187155261Y-97703489D01*
X187155264Y-97703501D01*
X187215602Y-97849172D01*
X187215609Y-97849185D01*
X187303209Y-97980287D01*
X187303210Y-97980288D01*
X187303211Y-97980289D01*
X187360182Y-98037260D01*
X187393666Y-98098581D01*
X187396500Y-98124940D01*
X187396500Y-109849522D01*
X187376815Y-109916561D01*
X187360181Y-109937203D01*
X185264203Y-112033181D01*
X185202880Y-112066666D01*
X185176522Y-112069500D01*
X185146155Y-112069500D01*
X184991510Y-112100261D01*
X184991498Y-112100264D01*
X184845827Y-112160602D01*
X184845814Y-112160609D01*
X184714711Y-112248210D01*
X184714707Y-112248213D01*
X184603213Y-112359707D01*
X184603210Y-112359711D01*
X184515609Y-112490814D01*
X184515602Y-112490827D01*
X184455264Y-112636498D01*
X184455261Y-112636510D01*
X184424500Y-112791153D01*
X184424500Y-112948846D01*
X184455261Y-113103489D01*
X184455264Y-113103501D01*
X184515602Y-113249172D01*
X184515609Y-113249185D01*
X184603210Y-113380288D01*
X184603213Y-113380292D01*
X184714707Y-113491786D01*
X184714711Y-113491789D01*
X184845814Y-113579390D01*
X184845827Y-113579397D01*
X184947687Y-113621588D01*
X184991503Y-113639737D01*
X185146153Y-113670499D01*
X185146156Y-113670500D01*
X185146158Y-113670500D01*
X185303844Y-113670500D01*
X185303845Y-113670499D01*
X185458497Y-113639737D01*
X185604179Y-113579394D01*
X185735289Y-113491789D01*
X185846789Y-113380289D01*
X185934394Y-113249179D01*
X185994737Y-113103497D01*
X186025500Y-112948842D01*
X186025500Y-112918477D01*
X186045185Y-112851438D01*
X186061814Y-112830801D01*
X188296594Y-110596020D01*
X188296599Y-110596017D01*
X188306802Y-110585813D01*
X188306804Y-110585813D01*
X188411813Y-110480804D01*
X188486065Y-110352196D01*
X188496954Y-110311557D01*
X188499939Y-110300417D01*
X188511155Y-110258556D01*
X188524500Y-110208753D01*
X188524500Y-110060248D01*
X188524500Y-107738046D01*
X188544185Y-107671007D01*
X188596989Y-107625252D01*
X188624309Y-107616429D01*
X188653848Y-107610552D01*
X188758497Y-107589737D01*
X188904179Y-107529394D01*
X189035289Y-107441789D01*
X189146789Y-107330289D01*
X189234394Y-107199179D01*
X189294737Y-107053497D01*
X189325500Y-106898842D01*
X189325500Y-106868478D01*
X189345185Y-106801439D01*
X189361819Y-106780797D01*
X189430164Y-106712452D01*
X189690813Y-106451804D01*
X189765065Y-106323196D01*
X189803501Y-106179752D01*
X189803501Y-106031247D01*
X189803501Y-106023652D01*
X189803500Y-106023634D01*
X189803500Y-99268754D01*
X189803500Y-99258755D01*
X189803501Y-99258753D01*
X189803501Y-99171647D01*
X189805884Y-99147457D01*
X189825500Y-99048844D01*
X189825500Y-98891155D01*
X189825499Y-98891153D01*
X189807676Y-98801550D01*
X189794737Y-98736503D01*
X189794735Y-98736498D01*
X189734397Y-98590827D01*
X189734390Y-98590814D01*
X189646789Y-98459711D01*
X189646786Y-98459707D01*
X189535292Y-98348213D01*
X189535288Y-98348210D01*
X189404185Y-98260609D01*
X189404172Y-98260602D01*
X189393635Y-98256238D01*
X189339231Y-98212397D01*
X189319470Y-98165868D01*
X189293738Y-98036510D01*
X189293737Y-98036503D01*
X189286988Y-98020209D01*
X189233397Y-97890827D01*
X189230521Y-97885446D01*
X189232808Y-97884223D01*
X189215292Y-97828324D01*
X189233762Y-97760940D01*
X189285731Y-97714239D01*
X189354698Y-97703047D01*
X189418768Y-97730919D01*
X189426953Y-97738403D01*
X197958850Y-106270300D01*
X197992335Y-106331623D01*
X197995169Y-106357981D01*
X197995169Y-107812716D01*
X197987633Y-107838378D01*
X197983685Y-107864832D01*
X197977940Y-107871390D01*
X197975484Y-107879755D01*
X197955274Y-107897266D01*
X197937648Y-107917390D01*
X197929267Y-107919801D01*
X197922680Y-107925510D01*
X197896208Y-107929316D01*
X197870504Y-107936714D01*
X197859788Y-107934552D01*
X197853522Y-107935454D01*
X197835596Y-107931504D01*
X197829546Y-107929692D01*
X197758497Y-107900263D01*
X197677414Y-107884134D01*
X197671787Y-107882449D01*
X197647216Y-107866471D01*
X197621257Y-107852892D01*
X197617220Y-107846965D01*
X197613213Y-107844360D01*
X197608861Y-107834693D01*
X197592799Y-107811114D01*
X197584394Y-107790821D01*
X197584389Y-107790814D01*
X197496789Y-107659711D01*
X197496786Y-107659707D01*
X197385292Y-107548213D01*
X197385288Y-107548210D01*
X197254185Y-107460609D01*
X197254172Y-107460602D01*
X197108501Y-107400264D01*
X197108489Y-107400261D01*
X196953845Y-107369500D01*
X196953842Y-107369500D01*
X196796158Y-107369500D01*
X196796155Y-107369500D01*
X196641510Y-107400261D01*
X196641498Y-107400264D01*
X196495827Y-107460602D01*
X196495814Y-107460609D01*
X196364711Y-107548210D01*
X196364707Y-107548213D01*
X196253213Y-107659707D01*
X196253210Y-107659711D01*
X196165609Y-107790814D01*
X196165602Y-107790827D01*
X196105264Y-107936498D01*
X196105261Y-107936510D01*
X196074500Y-108091153D01*
X196074500Y-108121522D01*
X196054815Y-108188561D01*
X196038181Y-108209203D01*
X194777703Y-109469681D01*
X194750775Y-109484384D01*
X194724957Y-109500977D01*
X194718756Y-109501868D01*
X194716380Y-109503166D01*
X194690022Y-109506000D01*
X194444441Y-109506000D01*
X194377402Y-109486315D01*
X194356760Y-109469681D01*
X194335292Y-109448213D01*
X194335288Y-109448210D01*
X194204185Y-109360609D01*
X194204172Y-109360602D01*
X194058501Y-109300264D01*
X194058489Y-109300261D01*
X193903845Y-109269500D01*
X193903842Y-109269500D01*
X193746158Y-109269500D01*
X193746155Y-109269500D01*
X193591510Y-109300261D01*
X193591498Y-109300264D01*
X193445827Y-109360602D01*
X193445814Y-109360609D01*
X193314711Y-109448210D01*
X193314707Y-109448213D01*
X193203213Y-109559707D01*
X193203210Y-109559711D01*
X193115609Y-109690814D01*
X193115602Y-109690827D01*
X193055264Y-109836498D01*
X193055261Y-109836510D01*
X193024500Y-109991153D01*
X193024500Y-110148846D01*
X193055261Y-110303489D01*
X193055264Y-110303501D01*
X193115602Y-110449172D01*
X193115609Y-110449185D01*
X193203210Y-110580288D01*
X193203213Y-110580292D01*
X193314707Y-110691786D01*
X193314711Y-110691789D01*
X193445814Y-110779390D01*
X193445827Y-110779397D01*
X193533230Y-110815599D01*
X193591503Y-110839737D01*
X193621689Y-110845741D01*
X193683599Y-110878124D01*
X193712059Y-110919905D01*
X193765604Y-111049176D01*
X193765609Y-111049185D01*
X193853210Y-111180288D01*
X193853213Y-111180292D01*
X193964707Y-111291786D01*
X193964711Y-111291789D01*
X194095814Y-111379390D01*
X194095827Y-111379397D01*
X194225093Y-111432940D01*
X194279497Y-111476780D01*
X194299258Y-111523310D01*
X194305261Y-111553489D01*
X194305264Y-111553501D01*
X194365602Y-111699172D01*
X194365609Y-111699185D01*
X194453210Y-111830288D01*
X194453213Y-111830292D01*
X194564707Y-111941786D01*
X194564711Y-111941789D01*
X194695814Y-112029390D01*
X194695827Y-112029397D01*
X194785804Y-112066666D01*
X194841503Y-112089737D01*
X194985661Y-112118412D01*
X194996153Y-112120499D01*
X194996156Y-112120500D01*
X194996158Y-112120500D01*
X195153844Y-112120500D01*
X195153845Y-112120499D01*
X195308497Y-112089737D01*
X195454179Y-112029394D01*
X195454185Y-112029390D01*
X195585875Y-111941398D01*
X195652553Y-111920520D01*
X195654766Y-111920500D01*
X195988331Y-111920500D01*
X195988347Y-111920501D01*
X195995943Y-111920501D01*
X196154054Y-111920501D01*
X196154057Y-111920501D01*
X196306785Y-111879577D01*
X196357837Y-111850102D01*
X196357838Y-111850102D01*
X196443709Y-111800524D01*
X196443708Y-111800524D01*
X196443716Y-111800520D01*
X196555520Y-111688716D01*
X196555520Y-111688714D01*
X196565724Y-111678511D01*
X196565727Y-111678506D01*
X197783489Y-110460744D01*
X197844811Y-110427261D01*
X197914503Y-110432245D01*
X197970436Y-110474117D01*
X197994853Y-110539581D01*
X197995169Y-110548427D01*
X197995169Y-111225712D01*
X197985730Y-111273164D01*
X197962950Y-111328159D01*
X197962947Y-111328171D01*
X197924500Y-111521455D01*
X197924500Y-111718544D01*
X197962947Y-111911828D01*
X197962949Y-111911836D01*
X198038367Y-112093910D01*
X198038372Y-112093920D01*
X198147860Y-112257780D01*
X198147863Y-112257784D01*
X199797899Y-113907819D01*
X199831384Y-113969142D01*
X199826400Y-114038834D01*
X199784528Y-114094767D01*
X199719064Y-114119184D01*
X199710218Y-114119500D01*
X199618713Y-114119500D01*
X199570042Y-114127208D01*
X199408760Y-114152753D01*
X199206585Y-114218444D01*
X199017179Y-114314951D01*
X198845215Y-114439889D01*
X198731673Y-114553431D01*
X198670350Y-114586915D01*
X198600658Y-114581931D01*
X198544725Y-114540059D01*
X198527810Y-114509082D01*
X198478797Y-114377671D01*
X198478793Y-114377664D01*
X198392547Y-114262455D01*
X198392544Y-114262452D01*
X198277335Y-114176206D01*
X198277328Y-114176202D01*
X198142482Y-114125908D01*
X198142483Y-114125908D01*
X198082883Y-114119501D01*
X198082881Y-114119500D01*
X198082873Y-114119500D01*
X198082864Y-114119500D01*
X196287129Y-114119500D01*
X196287123Y-114119501D01*
X196227516Y-114125908D01*
X196092671Y-114176202D01*
X196092664Y-114176206D01*
X195977455Y-114262452D01*
X195977452Y-114262455D01*
X195891206Y-114377664D01*
X195891202Y-114377671D01*
X195840908Y-114512517D01*
X195834501Y-114572116D01*
X195834500Y-114572135D01*
X195834500Y-116367870D01*
X195834501Y-116367876D01*
X195840908Y-116427483D01*
X195891202Y-116562328D01*
X195891206Y-116562335D01*
X195977452Y-116677544D01*
X195977455Y-116677547D01*
X196092664Y-116763793D01*
X196092671Y-116763797D01*
X196227517Y-116814091D01*
X196227516Y-116814091D01*
X196234444Y-116814835D01*
X196287127Y-116820500D01*
X198082872Y-116820499D01*
X198142483Y-116814091D01*
X198277331Y-116763796D01*
X198392546Y-116677546D01*
X198478796Y-116562331D01*
X198527810Y-116430916D01*
X198569681Y-116374984D01*
X198635145Y-116350566D01*
X198703418Y-116365417D01*
X198731673Y-116386569D01*
X198845213Y-116500109D01*
X199017179Y-116625048D01*
X199017181Y-116625049D01*
X199017184Y-116625051D01*
X199206588Y-116721557D01*
X199408757Y-116787246D01*
X199618713Y-116820500D01*
X199618714Y-116820500D01*
X199831286Y-116820500D01*
X199831287Y-116820500D01*
X200041243Y-116787246D01*
X200243412Y-116721557D01*
X200432816Y-116625051D01*
X200538581Y-116548209D01*
X200604784Y-116500110D01*
X200604784Y-116500109D01*
X200604792Y-116500104D01*
X200717324Y-116387571D01*
X200778643Y-116354089D01*
X200848335Y-116359073D01*
X200904269Y-116400944D01*
X200919563Y-116427803D01*
X200988364Y-116593907D01*
X200988371Y-116593920D01*
X201097860Y-116757781D01*
X201097863Y-116757785D01*
X201237214Y-116897136D01*
X201237218Y-116897139D01*
X201401079Y-117006628D01*
X201401092Y-117006635D01*
X201583160Y-117082049D01*
X201583165Y-117082051D01*
X201583169Y-117082051D01*
X201583170Y-117082052D01*
X201776456Y-117120500D01*
X201776459Y-117120500D01*
X208757688Y-117120500D01*
X208824727Y-117140185D01*
X208845369Y-117156819D01*
X210021633Y-118333083D01*
X210055118Y-118394406D01*
X210050134Y-118464098D01*
X210021633Y-118508445D01*
X195296899Y-133233181D01*
X195235576Y-133266666D01*
X195209218Y-133269500D01*
X178640783Y-133269500D01*
X178573744Y-133249815D01*
X178553102Y-133233181D01*
X177312784Y-131992863D01*
X177312780Y-131992860D01*
X177148920Y-131883372D01*
X177148910Y-131883367D01*
X176966836Y-131807949D01*
X176966828Y-131807947D01*
X176773543Y-131769500D01*
X176773540Y-131769500D01*
X176576460Y-131769500D01*
X176576457Y-131769500D01*
X176383171Y-131807947D01*
X176383163Y-131807949D01*
X176201089Y-131883367D01*
X176201079Y-131883372D01*
X176037219Y-131992860D01*
X176037215Y-131992863D01*
X175897863Y-132132215D01*
X175897860Y-132132219D01*
X175788372Y-132296079D01*
X175788367Y-132296089D01*
X175712949Y-132478163D01*
X175712947Y-132478171D01*
X175674500Y-132671455D01*
X175674500Y-132868544D01*
X175712947Y-133061828D01*
X175712949Y-133061836D01*
X175788367Y-133243910D01*
X175788372Y-133243920D01*
X175897860Y-133407780D01*
X175897863Y-133407784D01*
X177387646Y-134897567D01*
X177397860Y-134907781D01*
X177397861Y-134907782D01*
X177537218Y-135047139D01*
X177701086Y-135156632D01*
X177807745Y-135200811D01*
X177883164Y-135232051D01*
X178076454Y-135270499D01*
X178076457Y-135270500D01*
X178076459Y-135270500D01*
X195773542Y-135270500D01*
X195804566Y-135264328D01*
X195870188Y-135251275D01*
X195966836Y-135232051D01*
X196020165Y-135209961D01*
X196148914Y-135156632D01*
X196312782Y-135047139D01*
X196452139Y-134907782D01*
X196452139Y-134907780D01*
X196462347Y-134897573D01*
X196462348Y-134897570D01*
X210663820Y-120696099D01*
X210725141Y-120662616D01*
X210794833Y-120667600D01*
X210850766Y-120709472D01*
X210875183Y-120774936D01*
X210875499Y-120783782D01*
X210875499Y-121103218D01*
X210855814Y-121170257D01*
X210839180Y-121190899D01*
X209897863Y-122132215D01*
X209897860Y-122132219D01*
X209788372Y-122296079D01*
X209788367Y-122296089D01*
X209712949Y-122478163D01*
X209712947Y-122478171D01*
X209674500Y-122671455D01*
X209674500Y-122868544D01*
X209712947Y-123061828D01*
X209712949Y-123061836D01*
X209788367Y-123243910D01*
X209788372Y-123243920D01*
X209897860Y-123407780D01*
X209897863Y-123407784D01*
X210037215Y-123547136D01*
X210037219Y-123547139D01*
X210201079Y-123656627D01*
X210201083Y-123656629D01*
X210201086Y-123656631D01*
X210383164Y-123732051D01*
X210535377Y-123762328D01*
X210576455Y-123770499D01*
X210576458Y-123770500D01*
X210576460Y-123770500D01*
X210773542Y-123770500D01*
X210773543Y-123770499D01*
X210966836Y-123732051D01*
X210998047Y-123719122D01*
X211067514Y-123711653D01*
X211129994Y-123742927D01*
X211165648Y-123803015D01*
X211169500Y-123833683D01*
X211169500Y-129146000D01*
X211169501Y-129146009D01*
X211181052Y-129253450D01*
X211181054Y-129253462D01*
X211192260Y-129304972D01*
X211226383Y-129407497D01*
X211226386Y-129407503D01*
X211304171Y-129528537D01*
X211304179Y-129528548D01*
X211349923Y-129581340D01*
X211349926Y-129581343D01*
X211349930Y-129581347D01*
X211458664Y-129675567D01*
X211458667Y-129675568D01*
X211458668Y-129675569D01*
X211582402Y-129732078D01*
X211589541Y-129735338D01*
X211656580Y-129755023D01*
X211656584Y-129755024D01*
X211799000Y-129775500D01*
X211799003Y-129775500D01*
X217550990Y-129775500D01*
X217551000Y-129775500D01*
X217658456Y-129763947D01*
X217709967Y-129752741D01*
X217744197Y-129741347D01*
X217812497Y-129718616D01*
X217812501Y-129718613D01*
X217812504Y-129718613D01*
X217873714Y-129679274D01*
X217940753Y-129659590D01*
X218007793Y-129679274D01*
X218053548Y-129732078D01*
X218058682Y-129745265D01*
X218090000Y-129841650D01*
X218108444Y-129898414D01*
X218204951Y-130087820D01*
X218329890Y-130259786D01*
X218480213Y-130410109D01*
X218652179Y-130535048D01*
X218652181Y-130535049D01*
X218652184Y-130535051D01*
X218841588Y-130631557D01*
X219043757Y-130697246D01*
X219253713Y-130730500D01*
X219253714Y-130730500D01*
X219466286Y-130730500D01*
X219466287Y-130730500D01*
X219676243Y-130697246D01*
X219878412Y-130631557D01*
X220067816Y-130535051D01*
X220157554Y-130469853D01*
X220239786Y-130410109D01*
X220239788Y-130410106D01*
X220239792Y-130410104D01*
X220390104Y-130259792D01*
X220390106Y-130259788D01*
X220390109Y-130259786D01*
X220515048Y-130087820D01*
X220515047Y-130087820D01*
X220515051Y-130087816D01*
X220519514Y-130079054D01*
X220567488Y-130028259D01*
X220635308Y-130011463D01*
X220701444Y-130033999D01*
X220740486Y-130079056D01*
X220744951Y-130087820D01*
X220869890Y-130259786D01*
X220983430Y-130373326D01*
X221016915Y-130434649D01*
X221011931Y-130504341D01*
X220970059Y-130560274D01*
X220939083Y-130577189D01*
X220807669Y-130626203D01*
X220807664Y-130626206D01*
X220692455Y-130712452D01*
X220692452Y-130712455D01*
X220606206Y-130827664D01*
X220606202Y-130827671D01*
X220555908Y-130962517D01*
X220549501Y-131022116D01*
X220549501Y-131022123D01*
X220549500Y-131022135D01*
X220549500Y-132817870D01*
X220549501Y-132817876D01*
X220555908Y-132877483D01*
X220606202Y-133012328D01*
X220606206Y-133012335D01*
X220692452Y-133127544D01*
X220692455Y-133127547D01*
X220807664Y-133213793D01*
X220807671Y-133213797D01*
X220942517Y-133264091D01*
X220942516Y-133264091D01*
X220949444Y-133264835D01*
X221002127Y-133270500D01*
X222797872Y-133270499D01*
X222857483Y-133264091D01*
X222992331Y-133213796D01*
X223107546Y-133127546D01*
X223193796Y-133012331D01*
X223244091Y-132877483D01*
X223250500Y-132817873D01*
X223250499Y-131022128D01*
X223244091Y-130962517D01*
X223193796Y-130827669D01*
X223193795Y-130827668D01*
X223193793Y-130827664D01*
X223107547Y-130712455D01*
X223107544Y-130712452D01*
X222992335Y-130626206D01*
X222992328Y-130626202D01*
X222860917Y-130577189D01*
X222804983Y-130535318D01*
X222780566Y-130469853D01*
X222795418Y-130401580D01*
X222816563Y-130373332D01*
X222930104Y-130259792D01*
X223055051Y-130087816D01*
X223151557Y-129898412D01*
X223217246Y-129696243D01*
X223250500Y-129486287D01*
X223250500Y-129273713D01*
X223217246Y-129063757D01*
X223151557Y-128861588D01*
X223055051Y-128672184D01*
X223055049Y-128672181D01*
X223055048Y-128672179D01*
X222930109Y-128500213D01*
X222779786Y-128349890D01*
X222607820Y-128224951D01*
X222607115Y-128224591D01*
X222599054Y-128220485D01*
X222548259Y-128172512D01*
X222531463Y-128104692D01*
X222553999Y-128038556D01*
X222599054Y-127999515D01*
X222607816Y-127995051D01*
X222629789Y-127979086D01*
X222779786Y-127870109D01*
X222779788Y-127870106D01*
X222779792Y-127870104D01*
X222930104Y-127719792D01*
X222930106Y-127719788D01*
X222930109Y-127719786D01*
X223055048Y-127547820D01*
X223055047Y-127547820D01*
X223055051Y-127547816D01*
X223151557Y-127358412D01*
X223217246Y-127156243D01*
X223250500Y-126946287D01*
X223250500Y-126733713D01*
X223217246Y-126523757D01*
X223151557Y-126321588D01*
X223055051Y-126132184D01*
X223055049Y-126132181D01*
X223055048Y-126132179D01*
X222930109Y-125960213D01*
X222779786Y-125809890D01*
X222607820Y-125684951D01*
X222607115Y-125684591D01*
X222599054Y-125680485D01*
X222548259Y-125632512D01*
X222531463Y-125564692D01*
X222553999Y-125498556D01*
X222599054Y-125459515D01*
X222607816Y-125455051D01*
X222629789Y-125439086D01*
X222779786Y-125330109D01*
X222779788Y-125330106D01*
X222779792Y-125330104D01*
X222930104Y-125179792D01*
X222930106Y-125179788D01*
X222930109Y-125179786D01*
X223055048Y-125007820D01*
X223055047Y-125007820D01*
X223055051Y-125007816D01*
X223151557Y-124818412D01*
X223217246Y-124616243D01*
X223250500Y-124406287D01*
X223250500Y-124193713D01*
X223217246Y-123983757D01*
X223151557Y-123781588D01*
X223055051Y-123592184D01*
X223055049Y-123592181D01*
X223055048Y-123592179D01*
X222930109Y-123420213D01*
X222779786Y-123269890D01*
X222607820Y-123144951D01*
X222607115Y-123144591D01*
X222599054Y-123140485D01*
X222548259Y-123092512D01*
X222531463Y-123024692D01*
X222553999Y-122958556D01*
X222599054Y-122919515D01*
X222607816Y-122915051D01*
X222671828Y-122868544D01*
X222779786Y-122790109D01*
X222779788Y-122790106D01*
X222779792Y-122790104D01*
X222930104Y-122639792D01*
X222930106Y-122639788D01*
X222930109Y-122639786D01*
X223047533Y-122478164D01*
X223055051Y-122467816D01*
X223151557Y-122278412D01*
X223217246Y-122076243D01*
X223250500Y-121866287D01*
X223250500Y-121653713D01*
X223217246Y-121443757D01*
X223151557Y-121241588D01*
X223055051Y-121052184D01*
X223055049Y-121052181D01*
X223055048Y-121052179D01*
X222930109Y-120880213D01*
X222779786Y-120729890D01*
X222607820Y-120604951D01*
X222607115Y-120604591D01*
X222599054Y-120600485D01*
X222548259Y-120552512D01*
X222531463Y-120484692D01*
X222553999Y-120418556D01*
X222599054Y-120379515D01*
X222607816Y-120375051D01*
X222682901Y-120320499D01*
X222779786Y-120250109D01*
X222779788Y-120250106D01*
X222779792Y-120250104D01*
X222930104Y-120099792D01*
X222930106Y-120099788D01*
X222930109Y-120099786D01*
X223055048Y-119927820D01*
X223055047Y-119927820D01*
X223055051Y-119927816D01*
X223151557Y-119738412D01*
X223217246Y-119536243D01*
X223250500Y-119326287D01*
X223250500Y-119113713D01*
X223217246Y-118903757D01*
X223151557Y-118701588D01*
X223055051Y-118512184D01*
X223055049Y-118512181D01*
X223055048Y-118512179D01*
X222930109Y-118340213D01*
X222779786Y-118189890D01*
X222607820Y-118064951D01*
X222607115Y-118064591D01*
X222599054Y-118060485D01*
X222548259Y-118012512D01*
X222531463Y-117944692D01*
X222553999Y-117878556D01*
X222599054Y-117839515D01*
X222607816Y-117835051D01*
X222629789Y-117819086D01*
X222779786Y-117710109D01*
X222779788Y-117710106D01*
X222779792Y-117710104D01*
X222930104Y-117559792D01*
X222930106Y-117559788D01*
X222930109Y-117559786D01*
X223055048Y-117387820D01*
X223055047Y-117387820D01*
X223055051Y-117387816D01*
X223151557Y-117198412D01*
X223217246Y-116996243D01*
X223250500Y-116786287D01*
X223250500Y-116573713D01*
X223217246Y-116363757D01*
X223151557Y-116161588D01*
X223055051Y-115972184D01*
X223055049Y-115972181D01*
X223055048Y-115972179D01*
X222930109Y-115800213D01*
X222779786Y-115649890D01*
X222607820Y-115524951D01*
X222607115Y-115524591D01*
X222599054Y-115520485D01*
X222548259Y-115472512D01*
X222531463Y-115404692D01*
X222553999Y-115338556D01*
X222599054Y-115299515D01*
X222607816Y-115295051D01*
X222641608Y-115270500D01*
X222779786Y-115170109D01*
X222779788Y-115170106D01*
X222779792Y-115170104D01*
X222930104Y-115019792D01*
X222930106Y-115019788D01*
X222930109Y-115019786D01*
X223055048Y-114847820D01*
X223055047Y-114847820D01*
X223055051Y-114847816D01*
X223151557Y-114658412D01*
X223217246Y-114456243D01*
X223250500Y-114246287D01*
X223250500Y-114033713D01*
X223217246Y-113823757D01*
X223151557Y-113621588D01*
X223055051Y-113432184D01*
X223055049Y-113432181D01*
X223055048Y-113432179D01*
X222930109Y-113260213D01*
X222779786Y-113109890D01*
X222607820Y-112984951D01*
X222607115Y-112984591D01*
X222599054Y-112980485D01*
X222548259Y-112932512D01*
X222531463Y-112864692D01*
X222553999Y-112798556D01*
X222599054Y-112759515D01*
X222607816Y-112755051D01*
X222694138Y-112692335D01*
X222779786Y-112630109D01*
X222779788Y-112630106D01*
X222779792Y-112630104D01*
X222930104Y-112479792D01*
X222930106Y-112479788D01*
X222930109Y-112479786D01*
X223055048Y-112307820D01*
X223055047Y-112307820D01*
X223055051Y-112307816D01*
X223151557Y-112118412D01*
X223217246Y-111916243D01*
X223250500Y-111706287D01*
X223250500Y-111493713D01*
X223217246Y-111283757D01*
X223151557Y-111081588D01*
X223055051Y-110892184D01*
X223055049Y-110892181D01*
X223055048Y-110892179D01*
X222930109Y-110720213D01*
X222779786Y-110569890D01*
X222607820Y-110444951D01*
X222606008Y-110444028D01*
X222599054Y-110440485D01*
X222548259Y-110392512D01*
X222531463Y-110324692D01*
X222553999Y-110258556D01*
X222599054Y-110219515D01*
X222607816Y-110215051D01*
X222650085Y-110184341D01*
X222779786Y-110090109D01*
X222779788Y-110090106D01*
X222779792Y-110090104D01*
X222930104Y-109939792D01*
X222930106Y-109939788D01*
X222930109Y-109939786D01*
X223055048Y-109767820D01*
X223055047Y-109767820D01*
X223055051Y-109767816D01*
X223059514Y-109759054D01*
X223107488Y-109708259D01*
X223175308Y-109691463D01*
X223241444Y-109713999D01*
X223280484Y-109759054D01*
X223284591Y-109767115D01*
X223284951Y-109767820D01*
X223409890Y-109939786D01*
X223560213Y-110090109D01*
X223732179Y-110215048D01*
X223732181Y-110215049D01*
X223732184Y-110215051D01*
X223921588Y-110311557D01*
X224123757Y-110377246D01*
X224333713Y-110410500D01*
X224333714Y-110410500D01*
X224546286Y-110410500D01*
X224546287Y-110410500D01*
X224756243Y-110377246D01*
X224958412Y-110311557D01*
X225147816Y-110215051D01*
X225190085Y-110184341D01*
X225319786Y-110090109D01*
X225319788Y-110090106D01*
X225319792Y-110090104D01*
X225470104Y-109939792D01*
X225470106Y-109939788D01*
X225470109Y-109939786D01*
X225595048Y-109767820D01*
X225595047Y-109767820D01*
X225595051Y-109767816D01*
X225599514Y-109759054D01*
X225647488Y-109708259D01*
X225715308Y-109691463D01*
X225781444Y-109713999D01*
X225820484Y-109759054D01*
X225824591Y-109767115D01*
X225824951Y-109767820D01*
X225949890Y-109939786D01*
X226063430Y-110053326D01*
X226096915Y-110114649D01*
X226091931Y-110184341D01*
X226050059Y-110240274D01*
X226019083Y-110257189D01*
X225887669Y-110306203D01*
X225887664Y-110306206D01*
X225772455Y-110392452D01*
X225772452Y-110392455D01*
X225686206Y-110507664D01*
X225686202Y-110507671D01*
X225635908Y-110642517D01*
X225629501Y-110702116D01*
X225629500Y-110702135D01*
X225629501Y-112497870D01*
X225635908Y-112557483D01*
X225686202Y-112692328D01*
X225686206Y-112692335D01*
X225772452Y-112807544D01*
X225772455Y-112807547D01*
X225887664Y-112893793D01*
X225887671Y-112893797D01*
X226022517Y-112944091D01*
X226022516Y-112944091D01*
X226029444Y-112944835D01*
X226082127Y-112950500D01*
X227877872Y-112950499D01*
X227937483Y-112944091D01*
X228006158Y-112918477D01*
X228080641Y-112890697D01*
X228081740Y-112893645D01*
X228134812Y-112882086D01*
X228200283Y-112906485D01*
X228242170Y-112962407D01*
X228250000Y-113005772D01*
X228250000Y-118585000D01*
X231435500Y-118585000D01*
X231502539Y-118604685D01*
X231548294Y-118657489D01*
X231559500Y-118709000D01*
X231559500Y-136265572D01*
X231559184Y-136274418D01*
X231559184Y-136274419D01*
X231544869Y-136474557D01*
X231542351Y-136492068D01*
X231500646Y-136683787D01*
X231495662Y-136700763D01*
X231427090Y-136884609D01*
X231419740Y-136900701D01*
X231325711Y-137072904D01*
X231316146Y-137087789D01*
X231198558Y-137244867D01*
X231186972Y-137258237D01*
X231048237Y-137396972D01*
X231034867Y-137408558D01*
X230877789Y-137526146D01*
X230862904Y-137535711D01*
X230690701Y-137629740D01*
X230674609Y-137637090D01*
X230490763Y-137705662D01*
X230473787Y-137710646D01*
X230282068Y-137752351D01*
X230264557Y-137754869D01*
X230083779Y-137767799D01*
X230064417Y-137769184D01*
X230055572Y-137769500D01*
X138179428Y-137769500D01*
X138170582Y-137769184D01*
X138148622Y-137767613D01*
X137970442Y-137754869D01*
X137952931Y-137752351D01*
X137761212Y-137710646D01*
X137744236Y-137705662D01*
X137560390Y-137637090D01*
X137544298Y-137629740D01*
X137372095Y-137535711D01*
X137357210Y-137526146D01*
X137200132Y-137408558D01*
X137186762Y-137396972D01*
X137048027Y-137258237D01*
X137036441Y-137244867D01*
X136918849Y-137087784D01*
X136909288Y-137072904D01*
X136815259Y-136900701D01*
X136807909Y-136884609D01*
X136747091Y-136721551D01*
X136739334Y-136700755D01*
X136734355Y-136683797D01*
X136692647Y-136492063D01*
X136690130Y-136474556D01*
X136675816Y-136274418D01*
X136675500Y-136265572D01*
X136675500Y-121772135D01*
X171084500Y-121772135D01*
X171084500Y-123567870D01*
X171084501Y-123567876D01*
X171090908Y-123627483D01*
X171141202Y-123762328D01*
X171141206Y-123762335D01*
X171227452Y-123877544D01*
X171227455Y-123877547D01*
X171342664Y-123963793D01*
X171342671Y-123963797D01*
X171477517Y-124014091D01*
X171477516Y-124014091D01*
X171484444Y-124014835D01*
X171537127Y-124020500D01*
X173332872Y-124020499D01*
X173392483Y-124014091D01*
X173527331Y-123963796D01*
X173642546Y-123877546D01*
X173728796Y-123762331D01*
X173777810Y-123630916D01*
X173819681Y-123574984D01*
X173885145Y-123550566D01*
X173953418Y-123565417D01*
X173981673Y-123586569D01*
X174095213Y-123700109D01*
X174267179Y-123825048D01*
X174267181Y-123825049D01*
X174267184Y-123825051D01*
X174456588Y-123921557D01*
X174658757Y-123987246D01*
X174868713Y-124020500D01*
X174868714Y-124020500D01*
X175081286Y-124020500D01*
X175081287Y-124020500D01*
X175291243Y-123987246D01*
X175493412Y-123921557D01*
X175682816Y-123825051D01*
X175759079Y-123769643D01*
X175854786Y-123700109D01*
X175854788Y-123700106D01*
X175854792Y-123700104D01*
X176005104Y-123549792D01*
X176005106Y-123549788D01*
X176005109Y-123549786D01*
X176130048Y-123377820D01*
X176130047Y-123377820D01*
X176130051Y-123377816D01*
X176226557Y-123188412D01*
X176292246Y-122986243D01*
X176325500Y-122776287D01*
X176325500Y-122563713D01*
X176292246Y-122353757D01*
X176226557Y-122151588D01*
X176130051Y-121962184D01*
X176130049Y-121962181D01*
X176130048Y-121962179D01*
X176005109Y-121790213D01*
X175854786Y-121639890D01*
X175682820Y-121514951D01*
X175493414Y-121418444D01*
X175493413Y-121418443D01*
X175493412Y-121418443D01*
X175291243Y-121352754D01*
X175291241Y-121352753D01*
X175291240Y-121352753D01*
X175129957Y-121327208D01*
X175081287Y-121319500D01*
X174868713Y-121319500D01*
X174820042Y-121327208D01*
X174658760Y-121352753D01*
X174456585Y-121418444D01*
X174267179Y-121514951D01*
X174095215Y-121639889D01*
X173981673Y-121753431D01*
X173920350Y-121786915D01*
X173850658Y-121781931D01*
X173794725Y-121740059D01*
X173777810Y-121709082D01*
X173728797Y-121577671D01*
X173728793Y-121577664D01*
X173642547Y-121462455D01*
X173642544Y-121462452D01*
X173527335Y-121376206D01*
X173527328Y-121376202D01*
X173392482Y-121325908D01*
X173392483Y-121325908D01*
X173332883Y-121319501D01*
X173332881Y-121319500D01*
X173332873Y-121319500D01*
X173332864Y-121319500D01*
X171537129Y-121319500D01*
X171537123Y-121319501D01*
X171477516Y-121325908D01*
X171342671Y-121376202D01*
X171342664Y-121376206D01*
X171227455Y-121462452D01*
X171227452Y-121462455D01*
X171141206Y-121577664D01*
X171141202Y-121577671D01*
X171090908Y-121712517D01*
X171084501Y-121772116D01*
X171084500Y-121772135D01*
X136675500Y-121772135D01*
X136675500Y-119441153D01*
X176824500Y-119441153D01*
X176824500Y-119598846D01*
X176855261Y-119753489D01*
X176855264Y-119753501D01*
X176915602Y-119899172D01*
X176915609Y-119899185D01*
X177003210Y-120030288D01*
X177003213Y-120030292D01*
X177114707Y-120141786D01*
X177114711Y-120141789D01*
X177245814Y-120229390D01*
X177245827Y-120229397D01*
X177391498Y-120289735D01*
X177391503Y-120289737D01*
X177546153Y-120320499D01*
X177546156Y-120320500D01*
X177546158Y-120320500D01*
X177703844Y-120320500D01*
X177703845Y-120320499D01*
X177858497Y-120289737D01*
X178004179Y-120229394D01*
X178135289Y-120141789D01*
X178135292Y-120141786D01*
X178156760Y-120120319D01*
X178218083Y-120086834D01*
X178244441Y-120084000D01*
X180106444Y-120084000D01*
X180173483Y-120103685D01*
X180211334Y-120144706D01*
X180212221Y-120144114D01*
X180303210Y-120280288D01*
X180303213Y-120280292D01*
X180414707Y-120391786D01*
X180414711Y-120391789D01*
X180545814Y-120479390D01*
X180545827Y-120479397D01*
X180691498Y-120539735D01*
X180691503Y-120539737D01*
X180846153Y-120570499D01*
X180846156Y-120570500D01*
X180846158Y-120570500D01*
X181003844Y-120570500D01*
X181003845Y-120570499D01*
X181158497Y-120539737D01*
X181278574Y-120490000D01*
X181304172Y-120479397D01*
X181304172Y-120479396D01*
X181304179Y-120479394D01*
X181435289Y-120391789D01*
X181546789Y-120280289D01*
X181634394Y-120149179D01*
X181694737Y-120003497D01*
X181725500Y-119848842D01*
X181725500Y-119691158D01*
X181725500Y-119691155D01*
X181725499Y-119691153D01*
X181694738Y-119536510D01*
X181694737Y-119536503D01*
X181655242Y-119441153D01*
X181634397Y-119390827D01*
X181634390Y-119390814D01*
X181546789Y-119259711D01*
X181546786Y-119259707D01*
X181435292Y-119148213D01*
X181435288Y-119148210D01*
X181304185Y-119060609D01*
X181304172Y-119060602D01*
X181158501Y-119000264D01*
X181158489Y-119000261D01*
X181003845Y-118969500D01*
X181003842Y-118969500D01*
X180846158Y-118969500D01*
X180846157Y-118969500D01*
X180840095Y-118970097D01*
X180839978Y-118968915D01*
X180791530Y-118967328D01*
X180749253Y-118956000D01*
X180749252Y-118956000D01*
X178244441Y-118956000D01*
X178177402Y-118936315D01*
X178156760Y-118919681D01*
X178135292Y-118898213D01*
X178135288Y-118898210D01*
X178004185Y-118810609D01*
X178004172Y-118810602D01*
X177858501Y-118750264D01*
X177858489Y-118750261D01*
X177703845Y-118719500D01*
X177703842Y-118719500D01*
X177546158Y-118719500D01*
X177546155Y-118719500D01*
X177391510Y-118750261D01*
X177391498Y-118750264D01*
X177245827Y-118810602D01*
X177245814Y-118810609D01*
X177114711Y-118898210D01*
X177114707Y-118898213D01*
X177003213Y-119009707D01*
X177003210Y-119009711D01*
X176915609Y-119140814D01*
X176915602Y-119140827D01*
X176855264Y-119286498D01*
X176855261Y-119286510D01*
X176824500Y-119441153D01*
X136675500Y-119441153D01*
X136675500Y-118709000D01*
X136695185Y-118641961D01*
X136747989Y-118596206D01*
X136799500Y-118585000D01*
X139985000Y-118585000D01*
X139985000Y-102529143D01*
X165095699Y-102529143D01*
X165134147Y-102722429D01*
X165134150Y-102722439D01*
X165209564Y-102904507D01*
X165209571Y-102904520D01*
X165319060Y-103068381D01*
X165319063Y-103068385D01*
X165458414Y-103207736D01*
X165458418Y-103207739D01*
X165622279Y-103317228D01*
X165622292Y-103317235D01*
X165802277Y-103391786D01*
X165804365Y-103392651D01*
X165804369Y-103392651D01*
X165804370Y-103392652D01*
X165997656Y-103431100D01*
X165997659Y-103431100D01*
X166859418Y-103431100D01*
X166926457Y-103450785D01*
X166947099Y-103467419D01*
X170434335Y-106954655D01*
X170434364Y-106954686D01*
X170576814Y-107097136D01*
X170576818Y-107097139D01*
X170740679Y-107206628D01*
X170740692Y-107206635D01*
X170869433Y-107259961D01*
X170911733Y-107277482D01*
X170922764Y-107282051D01*
X171019412Y-107301275D01*
X171067735Y-107310887D01*
X171116058Y-107320500D01*
X171116059Y-107320500D01*
X171116060Y-107320500D01*
X171313140Y-107320500D01*
X171535859Y-107320500D01*
X171602898Y-107340185D01*
X171648653Y-107392989D01*
X171652030Y-107401140D01*
X171656204Y-107412331D01*
X171656205Y-107412332D01*
X171656206Y-107412335D01*
X171742452Y-107527544D01*
X171742455Y-107527547D01*
X171857664Y-107613793D01*
X171857671Y-107613797D01*
X171989082Y-107662810D01*
X172045016Y-107704681D01*
X172069433Y-107770145D01*
X172054582Y-107838418D01*
X172033431Y-107866673D01*
X171919889Y-107980215D01*
X171794951Y-108152179D01*
X171698444Y-108341585D01*
X171632753Y-108543760D01*
X171599500Y-108753713D01*
X171599500Y-108966286D01*
X171628866Y-109151700D01*
X171632754Y-109176243D01*
X171697354Y-109375061D01*
X171698444Y-109378414D01*
X171794951Y-109567820D01*
X171919890Y-109739786D01*
X172070213Y-109890109D01*
X172242179Y-110015048D01*
X172242181Y-110015049D01*
X172242184Y-110015051D01*
X172431588Y-110111557D01*
X172633757Y-110177246D01*
X172843713Y-110210500D01*
X172843714Y-110210500D01*
X173056286Y-110210500D01*
X173056287Y-110210500D01*
X173266243Y-110177246D01*
X173468412Y-110111557D01*
X173657816Y-110015051D01*
X173761402Y-109939792D01*
X173829786Y-109890109D01*
X173829788Y-109890106D01*
X173829792Y-109890104D01*
X173980104Y-109739792D01*
X173991973Y-109723455D01*
X175306500Y-109723455D01*
X175306500Y-109920544D01*
X175344947Y-110113828D01*
X175344949Y-110113836D01*
X175420367Y-110295910D01*
X175420372Y-110295920D01*
X175529860Y-110459780D01*
X175529863Y-110459784D01*
X176286181Y-111216101D01*
X176319666Y-111277424D01*
X176322500Y-111303782D01*
X176322500Y-117321459D01*
X176322500Y-117540541D01*
X176322500Y-117540543D01*
X176322499Y-117540543D01*
X176360947Y-117733829D01*
X176360950Y-117733839D01*
X176436364Y-117915907D01*
X176436371Y-117915920D01*
X176545860Y-118079781D01*
X176545863Y-118079785D01*
X176685214Y-118219136D01*
X176685218Y-118219139D01*
X176849079Y-118328628D01*
X176849092Y-118328635D01*
X177031160Y-118404049D01*
X177031165Y-118404051D01*
X177031169Y-118404051D01*
X177031170Y-118404052D01*
X177224456Y-118442500D01*
X177224459Y-118442500D01*
X177421543Y-118442500D01*
X177551582Y-118416632D01*
X177614835Y-118404051D01*
X177796914Y-118328632D01*
X177960782Y-118219139D01*
X178100139Y-118079782D01*
X178209632Y-117915914D01*
X178285051Y-117733835D01*
X178323500Y-117540543D01*
X188209699Y-117540543D01*
X188248147Y-117733829D01*
X188248150Y-117733839D01*
X188315061Y-117895377D01*
X188324500Y-117942829D01*
X188324500Y-121468541D01*
X188324500Y-121468543D01*
X188324499Y-121468543D01*
X188362947Y-121661829D01*
X188362950Y-121661839D01*
X188438364Y-121843907D01*
X188438371Y-121843920D01*
X188547860Y-122007781D01*
X188547863Y-122007785D01*
X188687214Y-122147136D01*
X188687218Y-122147139D01*
X188851079Y-122256628D01*
X188851092Y-122256635D01*
X188946344Y-122296089D01*
X189033165Y-122332051D01*
X189033169Y-122332051D01*
X189033170Y-122332052D01*
X189226456Y-122370500D01*
X189226459Y-122370500D01*
X189423543Y-122370500D01*
X189553582Y-122344632D01*
X189616835Y-122332051D01*
X189798914Y-122256632D01*
X189962782Y-122147139D01*
X190102139Y-122007782D01*
X190211632Y-121843914D01*
X190287051Y-121661835D01*
X190299632Y-121598582D01*
X190325500Y-121468543D01*
X190325500Y-117343456D01*
X190287052Y-117150170D01*
X190287051Y-117150169D01*
X190287051Y-117150165D01*
X190282917Y-117140185D01*
X190220139Y-116988622D01*
X190210700Y-116941170D01*
X190210700Y-112472182D01*
X190230385Y-112405143D01*
X190247019Y-112384501D01*
X191841536Y-110789984D01*
X191841539Y-110789981D01*
X191951031Y-110626114D01*
X192026451Y-110444036D01*
X192064900Y-110250740D01*
X192064900Y-110053660D01*
X192064900Y-110053657D01*
X192064899Y-110053655D01*
X192057220Y-110015048D01*
X192026451Y-109860364D01*
X191951031Y-109678286D01*
X191951029Y-109678283D01*
X191951027Y-109678279D01*
X191841539Y-109514419D01*
X191841536Y-109514415D01*
X191702184Y-109375063D01*
X191702180Y-109375060D01*
X191538320Y-109265572D01*
X191538310Y-109265567D01*
X191356236Y-109190149D01*
X191356228Y-109190147D01*
X191162943Y-109151700D01*
X191162940Y-109151700D01*
X190965860Y-109151700D01*
X190965857Y-109151700D01*
X190772571Y-109190147D01*
X190772563Y-109190149D01*
X190590489Y-109265567D01*
X190590479Y-109265572D01*
X190426619Y-109375060D01*
X190426615Y-109375063D01*
X189498190Y-110303489D01*
X188572421Y-111229258D01*
X188572418Y-111229261D01*
X188528515Y-111273164D01*
X188433059Y-111368619D01*
X188323571Y-111532480D01*
X188323566Y-111532489D01*
X188287526Y-111619500D01*
X188254525Y-111699172D01*
X188248149Y-111714564D01*
X188239704Y-111757021D01*
X188209700Y-111907859D01*
X188209700Y-117343459D01*
X188209700Y-117540541D01*
X188209700Y-117540543D01*
X188209699Y-117540543D01*
X178323500Y-117540543D01*
X178323500Y-117540541D01*
X178323500Y-117321459D01*
X178323500Y-110739459D01*
X178323500Y-110739456D01*
X178312328Y-110683297D01*
X178296939Y-110605931D01*
X178285051Y-110546164D01*
X178249270Y-110459781D01*
X178222023Y-110394000D01*
X178209635Y-110364092D01*
X178209628Y-110364079D01*
X178100139Y-110200218D01*
X178100136Y-110200214D01*
X177957686Y-110057764D01*
X177957655Y-110057735D01*
X176944784Y-109044863D01*
X176944780Y-109044860D01*
X176780920Y-108935372D01*
X176780910Y-108935367D01*
X176598836Y-108859949D01*
X176598828Y-108859947D01*
X176405543Y-108821500D01*
X176405540Y-108821500D01*
X176208460Y-108821500D01*
X176208457Y-108821500D01*
X176015171Y-108859947D01*
X176015163Y-108859949D01*
X175833089Y-108935367D01*
X175833079Y-108935372D01*
X175669219Y-109044860D01*
X175669215Y-109044863D01*
X175529863Y-109184215D01*
X175529860Y-109184219D01*
X175420372Y-109348079D01*
X175420367Y-109348089D01*
X175344949Y-109530163D01*
X175344947Y-109530171D01*
X175306500Y-109723455D01*
X173991973Y-109723455D01*
X174105051Y-109567816D01*
X174201557Y-109378412D01*
X174267246Y-109176243D01*
X174300500Y-108966287D01*
X174300500Y-108753713D01*
X174267246Y-108543757D01*
X174201557Y-108341588D01*
X174105051Y-108152184D01*
X174105049Y-108152181D01*
X174105048Y-108152179D01*
X173980109Y-107980213D01*
X173866569Y-107866673D01*
X173833084Y-107805350D01*
X173838068Y-107735658D01*
X173879940Y-107679725D01*
X173910915Y-107662810D01*
X174042331Y-107613796D01*
X174157546Y-107527546D01*
X174243796Y-107412331D01*
X174294091Y-107277483D01*
X174300500Y-107217873D01*
X174300499Y-105422128D01*
X174294353Y-105364951D01*
X174294091Y-105362516D01*
X174243797Y-105227671D01*
X174243793Y-105227664D01*
X174157547Y-105112455D01*
X174157544Y-105112452D01*
X174042335Y-105026206D01*
X174042328Y-105026202D01*
X173907482Y-104975908D01*
X173907483Y-104975908D01*
X173847883Y-104969501D01*
X173847881Y-104969500D01*
X173847873Y-104969500D01*
X173847864Y-104969500D01*
X172052129Y-104969500D01*
X172052123Y-104969501D01*
X171992516Y-104975908D01*
X171857671Y-105026202D01*
X171857664Y-105026206D01*
X171742455Y-105112452D01*
X171691010Y-105181174D01*
X171635076Y-105223044D01*
X171565385Y-105228028D01*
X171504063Y-105194543D01*
X170528063Y-104218543D01*
X174724499Y-104218543D01*
X174762947Y-104411829D01*
X174762950Y-104411839D01*
X174838364Y-104593907D01*
X174838371Y-104593920D01*
X174947860Y-104757781D01*
X174947863Y-104757785D01*
X175087214Y-104897136D01*
X175087218Y-104897139D01*
X175251079Y-105006628D01*
X175251092Y-105006635D01*
X175388999Y-105063757D01*
X175433165Y-105082051D01*
X175433169Y-105082051D01*
X175433170Y-105082052D01*
X175626456Y-105120500D01*
X175626459Y-105120500D01*
X181523543Y-105120500D01*
X181653582Y-105094632D01*
X181716835Y-105082051D01*
X181898914Y-105006632D01*
X182062782Y-104897139D01*
X182202139Y-104757782D01*
X182311632Y-104593914D01*
X182387051Y-104411835D01*
X182399632Y-104348582D01*
X182425500Y-104218543D01*
X182425500Y-104021456D01*
X182387052Y-103828170D01*
X182387051Y-103828169D01*
X182387051Y-103828165D01*
X182387049Y-103828160D01*
X182311635Y-103646092D01*
X182311628Y-103646079D01*
X182202139Y-103482218D01*
X182202136Y-103482214D01*
X182062785Y-103342863D01*
X182062781Y-103342860D01*
X181898920Y-103233371D01*
X181898907Y-103233364D01*
X181716839Y-103157950D01*
X181716829Y-103157947D01*
X181523543Y-103119500D01*
X181523541Y-103119500D01*
X175626459Y-103119500D01*
X175626457Y-103119500D01*
X175433170Y-103157947D01*
X175433160Y-103157950D01*
X175251092Y-103233364D01*
X175251079Y-103233371D01*
X175087218Y-103342860D01*
X175087214Y-103342863D01*
X174947863Y-103482214D01*
X174947860Y-103482218D01*
X174838371Y-103646079D01*
X174838364Y-103646092D01*
X174762950Y-103828160D01*
X174762947Y-103828170D01*
X174724500Y-104021456D01*
X174724500Y-104021459D01*
X174724500Y-104218541D01*
X174724500Y-104218543D01*
X174724499Y-104218543D01*
X170528063Y-104218543D01*
X168106679Y-101797159D01*
X168106659Y-101797137D01*
X167962985Y-101653463D01*
X167962981Y-101653460D01*
X167799120Y-101543971D01*
X167799107Y-101543964D01*
X167644239Y-101479816D01*
X167644233Y-101479814D01*
X167634990Y-101475986D01*
X167617036Y-101468549D01*
X167487763Y-101442835D01*
X167485623Y-101442409D01*
X167485609Y-101442406D01*
X167423743Y-101430100D01*
X167423741Y-101430100D01*
X165997659Y-101430100D01*
X165997657Y-101430100D01*
X165804370Y-101468547D01*
X165804360Y-101468550D01*
X165622292Y-101543964D01*
X165622279Y-101543971D01*
X165458418Y-101653460D01*
X165458414Y-101653463D01*
X165319063Y-101792814D01*
X165319060Y-101792818D01*
X165209571Y-101956679D01*
X165209564Y-101956692D01*
X165134150Y-102138760D01*
X165134147Y-102138770D01*
X165095700Y-102332056D01*
X165095700Y-102332059D01*
X165095700Y-102529141D01*
X165095700Y-102529143D01*
X165095699Y-102529143D01*
X139985000Y-102529143D01*
X139985000Y-99862143D01*
X173376099Y-99862143D01*
X173414547Y-100055429D01*
X173414550Y-100055439D01*
X173489964Y-100237507D01*
X173489971Y-100237520D01*
X173599460Y-100401381D01*
X173599463Y-100401385D01*
X173738814Y-100540736D01*
X173738818Y-100540739D01*
X173902679Y-100650228D01*
X173902692Y-100650235D01*
X174084760Y-100725649D01*
X174084765Y-100725651D01*
X174084769Y-100725651D01*
X174084770Y-100725652D01*
X174278056Y-100764100D01*
X174278059Y-100764100D01*
X178990818Y-100764100D01*
X179057857Y-100783785D01*
X179078499Y-100800419D01*
X180063735Y-101785655D01*
X180063764Y-101785686D01*
X180206214Y-101928136D01*
X180206218Y-101928139D01*
X180370079Y-102037628D01*
X180370092Y-102037635D01*
X180498833Y-102090961D01*
X180506168Y-102093999D01*
X180552164Y-102113051D01*
X180648812Y-102132275D01*
X180682901Y-102139056D01*
X180745458Y-102151500D01*
X180745459Y-102151500D01*
X181817542Y-102151500D01*
X181848566Y-102145328D01*
X181914188Y-102132275D01*
X182010836Y-102113051D01*
X182064165Y-102090961D01*
X182192914Y-102037632D01*
X182356782Y-101928139D01*
X182409245Y-101875675D01*
X182470564Y-101842192D01*
X182540256Y-101847175D01*
X182596190Y-101889046D01*
X182614854Y-101925038D01*
X182618810Y-101937210D01*
X182648444Y-102028416D01*
X182744951Y-102217820D01*
X182869890Y-102389786D01*
X183020213Y-102540109D01*
X183192179Y-102665048D01*
X183192181Y-102665049D01*
X183192184Y-102665051D01*
X183381588Y-102761557D01*
X183583757Y-102827246D01*
X183793713Y-102860500D01*
X183793714Y-102860500D01*
X184006286Y-102860500D01*
X184006287Y-102860500D01*
X184216243Y-102827246D01*
X184418412Y-102761557D01*
X184607816Y-102665051D01*
X184631985Y-102647491D01*
X184779786Y-102540109D01*
X184779788Y-102540106D01*
X184779792Y-102540104D01*
X184930104Y-102389792D01*
X184930106Y-102389788D01*
X184930109Y-102389786D01*
X185055048Y-102217820D01*
X185055047Y-102217820D01*
X185055051Y-102217816D01*
X185151557Y-102028412D01*
X185217246Y-101826243D01*
X185250500Y-101616287D01*
X185250500Y-101403713D01*
X185217246Y-101193757D01*
X185151557Y-100991588D01*
X185055051Y-100802184D01*
X185055049Y-100802181D01*
X185055048Y-100802179D01*
X184930109Y-100630213D01*
X184816569Y-100516673D01*
X184783084Y-100455350D01*
X184788068Y-100385658D01*
X184829940Y-100329725D01*
X184860915Y-100312810D01*
X184992331Y-100263796D01*
X185107546Y-100177546D01*
X185193796Y-100062331D01*
X185244091Y-99927483D01*
X185250500Y-99867873D01*
X185250499Y-98072128D01*
X185244091Y-98012517D01*
X185198701Y-97890821D01*
X185193797Y-97877671D01*
X185193793Y-97877664D01*
X185107547Y-97762455D01*
X185107544Y-97762452D01*
X184992335Y-97676206D01*
X184992328Y-97676202D01*
X184857482Y-97625908D01*
X184857483Y-97625908D01*
X184797883Y-97619501D01*
X184797881Y-97619500D01*
X184797873Y-97619500D01*
X184797864Y-97619500D01*
X183002129Y-97619500D01*
X183002123Y-97619501D01*
X182942516Y-97625908D01*
X182807671Y-97676202D01*
X182807664Y-97676206D01*
X182692455Y-97762452D01*
X182692452Y-97762455D01*
X182606206Y-97877664D01*
X182606202Y-97877671D01*
X182555908Y-98012517D01*
X182549501Y-98072116D01*
X182549501Y-98072123D01*
X182549500Y-98072135D01*
X182549500Y-98854217D01*
X182529815Y-98921256D01*
X182513181Y-98941898D01*
X181369180Y-100085898D01*
X181307857Y-100119383D01*
X181238165Y-100114399D01*
X181193818Y-100085898D01*
X180238079Y-99130159D01*
X180238059Y-99130137D01*
X180094385Y-98986463D01*
X180094381Y-98986460D01*
X179930520Y-98876971D01*
X179930511Y-98876966D01*
X179864217Y-98849506D01*
X179801765Y-98823638D01*
X179748436Y-98801549D01*
X179616353Y-98775276D01*
X179612499Y-98774509D01*
X179612494Y-98774508D01*
X179555143Y-98763100D01*
X179555141Y-98763100D01*
X174278059Y-98763100D01*
X174278057Y-98763100D01*
X174084770Y-98801547D01*
X174084760Y-98801550D01*
X173902692Y-98876964D01*
X173902679Y-98876971D01*
X173738818Y-98986460D01*
X173738814Y-98986463D01*
X173599463Y-99125814D01*
X173599460Y-99125818D01*
X173489971Y-99289679D01*
X173489964Y-99289692D01*
X173414550Y-99471760D01*
X173414547Y-99471770D01*
X173376100Y-99665056D01*
X173376100Y-99665059D01*
X173376100Y-99862141D01*
X173376100Y-99862143D01*
X173376099Y-99862143D01*
X139985000Y-99862143D01*
X139985000Y-67785000D01*
X136799500Y-67785000D01*
X136732461Y-67765315D01*
X136686706Y-67712511D01*
X136675500Y-67661000D01*
X136675500Y-64895874D01*
X183084153Y-64895874D01*
X183084153Y-65053567D01*
X183114914Y-65208210D01*
X183114917Y-65208222D01*
X183175255Y-65353893D01*
X183175262Y-65353906D01*
X183262863Y-65485009D01*
X183262866Y-65485013D01*
X183374360Y-65596507D01*
X183374364Y-65596510D01*
X183505467Y-65684111D01*
X183505480Y-65684118D01*
X183651151Y-65744456D01*
X183651156Y-65744458D01*
X183798230Y-65773713D01*
X183805806Y-65775220D01*
X183805809Y-65775221D01*
X183805811Y-65775221D01*
X183963497Y-65775221D01*
X183963498Y-65775220D01*
X184118150Y-65744458D01*
X184263832Y-65684115D01*
X184394942Y-65596510D01*
X184506442Y-65485010D01*
X184594047Y-65353900D01*
X184654390Y-65208218D01*
X184656559Y-65197311D01*
X184688943Y-65135400D01*
X184749657Y-65100824D01*
X184778177Y-65097500D01*
X185373831Y-65097500D01*
X185394046Y-65103435D01*
X185415085Y-65104564D01*
X185426897Y-65113082D01*
X185440870Y-65117185D01*
X185454666Y-65133106D01*
X185471757Y-65145431D01*
X185477089Y-65158984D01*
X185486625Y-65169989D01*
X185489623Y-65190840D01*
X185497338Y-65210449D01*
X185496008Y-65235246D01*
X185496569Y-65239147D01*
X185495448Y-65245691D01*
X185495448Y-65245693D01*
X185483348Y-65306520D01*
X185450962Y-65368430D01*
X185409185Y-65396888D01*
X185343189Y-65424225D01*
X185343182Y-65424228D01*
X185228458Y-65500885D01*
X185228454Y-65500888D01*
X185130888Y-65598454D01*
X185130885Y-65598458D01*
X185054228Y-65713182D01*
X185054221Y-65713195D01*
X185001421Y-65840667D01*
X185001418Y-65840677D01*
X184974500Y-65976004D01*
X184974500Y-65976007D01*
X184974500Y-66113993D01*
X184974500Y-66113995D01*
X184974499Y-66113995D01*
X185001418Y-66249322D01*
X185001421Y-66249332D01*
X185054221Y-66376804D01*
X185054228Y-66376817D01*
X185130885Y-66491541D01*
X185130888Y-66491545D01*
X185228454Y-66589111D01*
X185228458Y-66589114D01*
X185343182Y-66665771D01*
X185343195Y-66665778D01*
X185409183Y-66693111D01*
X185463587Y-66736952D01*
X185483348Y-66783480D01*
X185501418Y-66874322D01*
X185501421Y-66874332D01*
X185554221Y-67001804D01*
X185554228Y-67001817D01*
X185630885Y-67116541D01*
X185630888Y-67116545D01*
X185728454Y-67214111D01*
X185728458Y-67214114D01*
X185843182Y-67290771D01*
X185843195Y-67290778D01*
X185970667Y-67343578D01*
X185970672Y-67343580D01*
X185970676Y-67343580D01*
X185970677Y-67343581D01*
X186106004Y-67370500D01*
X186106007Y-67370500D01*
X186243995Y-67370500D01*
X186335041Y-67352389D01*
X186379328Y-67343580D01*
X186506811Y-67290775D01*
X186621542Y-67214114D01*
X186719114Y-67116542D01*
X186795775Y-67001811D01*
X186848580Y-66874328D01*
X186866651Y-66783481D01*
X186899036Y-66721570D01*
X186940816Y-66693111D01*
X187006804Y-66665778D01*
X187006804Y-66665777D01*
X187006811Y-66665775D01*
X187121542Y-66589114D01*
X187219114Y-66491542D01*
X187295775Y-66376811D01*
X187348580Y-66249328D01*
X187373354Y-66124781D01*
X187375500Y-66113995D01*
X187375500Y-65976004D01*
X187348581Y-65840677D01*
X187348580Y-65840676D01*
X187348580Y-65840672D01*
X187331255Y-65798846D01*
X187295778Y-65713195D01*
X187295771Y-65713182D01*
X187219114Y-65598458D01*
X187219111Y-65598454D01*
X187121545Y-65500888D01*
X187121541Y-65500885D01*
X187006817Y-65424228D01*
X187006807Y-65424223D01*
X186940815Y-65396888D01*
X186934633Y-65391906D01*
X186926908Y-65390081D01*
X186907819Y-65370298D01*
X186886412Y-65353047D01*
X186882668Y-65344233D01*
X186878392Y-65339801D01*
X186866651Y-65306518D01*
X186854552Y-65245691D01*
X186860779Y-65176099D01*
X186903643Y-65120922D01*
X186969532Y-65097678D01*
X186976169Y-65097500D01*
X187063719Y-65097500D01*
X187130758Y-65117185D01*
X187151400Y-65133819D01*
X187799907Y-65782326D01*
X187833392Y-65843649D01*
X187833843Y-65845815D01*
X187855261Y-65953491D01*
X187855264Y-65953501D01*
X187915602Y-66099172D01*
X187915609Y-66099185D01*
X188003210Y-66230288D01*
X188003213Y-66230292D01*
X188114707Y-66341786D01*
X188114711Y-66341789D01*
X188245814Y-66429390D01*
X188245827Y-66429397D01*
X188391498Y-66489735D01*
X188391503Y-66489737D01*
X188546153Y-66520499D01*
X188546156Y-66520500D01*
X188546158Y-66520500D01*
X188703844Y-66520500D01*
X188703845Y-66520499D01*
X188858497Y-66489737D01*
X189004179Y-66429394D01*
X189135289Y-66341789D01*
X189246789Y-66230289D01*
X189334394Y-66099179D01*
X189394737Y-65953497D01*
X189425500Y-65798842D01*
X189425500Y-65641158D01*
X189425500Y-65641155D01*
X189425499Y-65641153D01*
X189417006Y-65598458D01*
X189394737Y-65486503D01*
X189388545Y-65471555D01*
X189334397Y-65340827D01*
X189334390Y-65340814D01*
X189246789Y-65209711D01*
X189246786Y-65209707D01*
X189135292Y-65098213D01*
X189135288Y-65098210D01*
X189004185Y-65010609D01*
X189004172Y-65010602D01*
X188858501Y-64950264D01*
X188858491Y-64950261D01*
X188750815Y-64928843D01*
X188688904Y-64896458D01*
X188687326Y-64894907D01*
X187775010Y-63982591D01*
X187775006Y-63982588D01*
X187767814Y-63977782D01*
X187672233Y-63913917D01*
X187672232Y-63913916D01*
X187672230Y-63913915D01*
X187638785Y-63900062D01*
X187558035Y-63866614D01*
X187558027Y-63866612D01*
X187436807Y-63842500D01*
X187436803Y-63842500D01*
X184436803Y-63842500D01*
X184313197Y-63842500D01*
X184313192Y-63842500D01*
X184191973Y-63866611D01*
X184191973Y-63866612D01*
X184191970Y-63866613D01*
X184191966Y-63866614D01*
X184125070Y-63894323D01*
X184125068Y-63894323D01*
X184077770Y-63913915D01*
X184077760Y-63913920D01*
X183982186Y-63977782D01*
X183974991Y-63982588D01*
X183804382Y-64153197D01*
X183743059Y-64186682D01*
X183740893Y-64187133D01*
X183651161Y-64204982D01*
X183651151Y-64204985D01*
X183505480Y-64265323D01*
X183505467Y-64265330D01*
X183374364Y-64352931D01*
X183374360Y-64352934D01*
X183262866Y-64464428D01*
X183262863Y-64464432D01*
X183175262Y-64595535D01*
X183175255Y-64595548D01*
X183114917Y-64741219D01*
X183114914Y-64741231D01*
X183084153Y-64895874D01*
X136675500Y-64895874D01*
X136675500Y-58622135D01*
X184549500Y-58622135D01*
X184549500Y-60417870D01*
X184549501Y-60417876D01*
X184555908Y-60477483D01*
X184606202Y-60612328D01*
X184606206Y-60612335D01*
X184692452Y-60727544D01*
X184692455Y-60727547D01*
X184807664Y-60813793D01*
X184807671Y-60813797D01*
X184939082Y-60862810D01*
X184995016Y-60904681D01*
X185019433Y-60970145D01*
X185004582Y-61038418D01*
X184983431Y-61066673D01*
X184869889Y-61180215D01*
X184744951Y-61352179D01*
X184648444Y-61541585D01*
X184582753Y-61743760D01*
X184549500Y-61953713D01*
X184549500Y-62166286D01*
X184572245Y-62309896D01*
X184582754Y-62376243D01*
X184607242Y-62451610D01*
X184648444Y-62578414D01*
X184744951Y-62767820D01*
X184869890Y-62939786D01*
X185020213Y-63090109D01*
X185192179Y-63215048D01*
X185192181Y-63215049D01*
X185192184Y-63215051D01*
X185381588Y-63311557D01*
X185583757Y-63377246D01*
X185793713Y-63410500D01*
X185793714Y-63410500D01*
X186006286Y-63410500D01*
X186006287Y-63410500D01*
X186216243Y-63377246D01*
X186418412Y-63311557D01*
X186607816Y-63215051D01*
X186642447Y-63189890D01*
X186779786Y-63090109D01*
X186779788Y-63090106D01*
X186779792Y-63090104D01*
X186930104Y-62939792D01*
X186930106Y-62939788D01*
X186930109Y-62939786D01*
X187055048Y-62767820D01*
X187055047Y-62767820D01*
X187055051Y-62767816D01*
X187151557Y-62578412D01*
X187217246Y-62376243D01*
X187250500Y-62166287D01*
X187250500Y-61953713D01*
X187217246Y-61743757D01*
X187151557Y-61541588D01*
X187055051Y-61352184D01*
X187055049Y-61352181D01*
X187055048Y-61352179D01*
X186930109Y-61180213D01*
X186816569Y-61066673D01*
X186783084Y-61005350D01*
X186788068Y-60935658D01*
X186829940Y-60879725D01*
X186860915Y-60862810D01*
X186992331Y-60813796D01*
X187107546Y-60727546D01*
X187193796Y-60612331D01*
X187244091Y-60477483D01*
X187250500Y-60417873D01*
X187250499Y-58622128D01*
X187244091Y-58562517D01*
X187244082Y-58562494D01*
X187193797Y-58427671D01*
X187193793Y-58427664D01*
X187107547Y-58312455D01*
X187107544Y-58312452D01*
X186992335Y-58226206D01*
X186992328Y-58226202D01*
X186857482Y-58175908D01*
X186857483Y-58175908D01*
X186797883Y-58169501D01*
X186797881Y-58169500D01*
X186797873Y-58169500D01*
X186797864Y-58169500D01*
X185002129Y-58169500D01*
X185002123Y-58169501D01*
X184942516Y-58175908D01*
X184807671Y-58226202D01*
X184807664Y-58226206D01*
X184692455Y-58312452D01*
X184692452Y-58312455D01*
X184606206Y-58427664D01*
X184606202Y-58427671D01*
X184555908Y-58562517D01*
X184550465Y-58613147D01*
X184549501Y-58622123D01*
X184549500Y-58622135D01*
X136675500Y-58622135D01*
X136675500Y-50520148D01*
X211874500Y-50520148D01*
X211874500Y-50724851D01*
X211906522Y-50927034D01*
X211969781Y-51121723D01*
X212062715Y-51304113D01*
X212183028Y-51469713D01*
X212327786Y-51614471D01*
X212482749Y-51727056D01*
X212493390Y-51734787D01*
X212609607Y-51794003D01*
X212675776Y-51827718D01*
X212675778Y-51827718D01*
X212675781Y-51827720D01*
X212780137Y-51861627D01*
X212870465Y-51890977D01*
X212971557Y-51906988D01*
X213072648Y-51923000D01*
X213072649Y-51923000D01*
X213277351Y-51923000D01*
X213277352Y-51923000D01*
X213479534Y-51890977D01*
X213674219Y-51827720D01*
X213856610Y-51734787D01*
X213949590Y-51667232D01*
X214022213Y-51614471D01*
X214022215Y-51614468D01*
X214022219Y-51614466D01*
X214166966Y-51469719D01*
X214166968Y-51469715D01*
X214166971Y-51469713D01*
X214219732Y-51397090D01*
X214287287Y-51304110D01*
X214380220Y-51121719D01*
X214443477Y-50927034D01*
X214475500Y-50724852D01*
X214475500Y-50520148D01*
X214443477Y-50317966D01*
X214380220Y-50123281D01*
X214380218Y-50123278D01*
X214380218Y-50123276D01*
X214334784Y-50034108D01*
X214287287Y-49940890D01*
X214254268Y-49895443D01*
X214166971Y-49775286D01*
X214022213Y-49630528D01*
X213856613Y-49510215D01*
X213856612Y-49510214D01*
X213856610Y-49510213D01*
X213776310Y-49469298D01*
X213674223Y-49417281D01*
X213479534Y-49354022D01*
X213304995Y-49326378D01*
X213277352Y-49322000D01*
X213072648Y-49322000D01*
X213048329Y-49325851D01*
X212870465Y-49354022D01*
X212675776Y-49417281D01*
X212493386Y-49510215D01*
X212327786Y-49630528D01*
X212183028Y-49775286D01*
X212062715Y-49940886D01*
X211969781Y-50123276D01*
X211906522Y-50317965D01*
X211874500Y-50520148D01*
X136675500Y-50520148D01*
X136675500Y-50104427D01*
X136675816Y-50095581D01*
X136690130Y-49895443D01*
X136690131Y-49895434D01*
X136692646Y-49877938D01*
X136734356Y-49686199D01*
X136739333Y-49669248D01*
X136807911Y-49485385D01*
X136815259Y-49469298D01*
X136877815Y-49354734D01*
X136909291Y-49297089D01*
X136918845Y-49282221D01*
X137036448Y-49125123D01*
X137048020Y-49111769D01*
X137186769Y-48973020D01*
X137200123Y-48961448D01*
X137357221Y-48843845D01*
X137372089Y-48834291D01*
X137544298Y-48740258D01*
X137560385Y-48732911D01*
X137744248Y-48664333D01*
X137761199Y-48659356D01*
X137952938Y-48617646D01*
X137970436Y-48615130D01*
X138170582Y-48600816D01*
X138179428Y-48600500D01*
X138240892Y-48600500D01*
X229994108Y-48600500D01*
X230055572Y-48600500D01*
X230064418Y-48600816D01*
G37*
%TD.AperFunction*%
%TA.AperFunction,Conductor*%
G36*
X211112539Y-115290185D02*
G01*
X211158294Y-115342989D01*
X211169500Y-115394500D01*
X211169500Y-115913366D01*
X211169682Y-115926953D01*
X211169859Y-115933534D01*
X211170403Y-115947072D01*
X211170403Y-115947076D01*
X211198473Y-116088186D01*
X211198474Y-116088193D01*
X211221713Y-116154065D01*
X211221716Y-116154072D01*
X211221718Y-116154077D01*
X211288406Y-116281566D01*
X211288408Y-116281569D01*
X211371684Y-116367872D01*
X211388312Y-116385104D01*
X211388315Y-116385106D01*
X211388319Y-116385110D01*
X211422722Y-116411835D01*
X211443489Y-116427967D01*
X211443493Y-116427970D01*
X211568524Y-116499167D01*
X211708548Y-116532254D01*
X211778139Y-116538481D01*
X211921810Y-116530780D01*
X211938888Y-116527382D01*
X211963079Y-116525000D01*
X211986918Y-116525000D01*
X212011102Y-116527381D01*
X212034489Y-116532032D01*
X212057738Y-116539084D01*
X212079779Y-116548214D01*
X212101200Y-116559664D01*
X212121023Y-116572910D01*
X212139809Y-116588327D01*
X212156665Y-116605182D01*
X212172086Y-116623973D01*
X212172804Y-116625048D01*
X212185328Y-116643790D01*
X212196790Y-116665233D01*
X212205913Y-116687260D01*
X212212966Y-116710512D01*
X212217616Y-116733883D01*
X212220000Y-116758080D01*
X212220000Y-116781913D01*
X212217616Y-116806109D01*
X212212964Y-116829491D01*
X212205910Y-116852745D01*
X212196790Y-116874764D01*
X212185329Y-116896207D01*
X212172083Y-116916030D01*
X212156663Y-116934818D01*
X212139816Y-116951665D01*
X212121026Y-116967086D01*
X212101208Y-116980328D01*
X212079774Y-116991785D01*
X212041912Y-117007469D01*
X212041894Y-117007477D01*
X211985197Y-117035227D01*
X211958347Y-117050518D01*
X211958340Y-117050523D01*
X211905565Y-117085109D01*
X211842211Y-117148462D01*
X211780887Y-117181946D01*
X211711196Y-117176960D01*
X211666850Y-117148460D01*
X210007673Y-115489283D01*
X210000566Y-115482175D01*
X209993613Y-115469439D01*
X209992186Y-115470391D01*
X209992184Y-115470388D01*
X209993611Y-115469436D01*
X209982657Y-115449372D01*
X209967087Y-115420858D01*
X209967087Y-115420854D01*
X209967085Y-115420850D01*
X209969651Y-115384998D01*
X209972071Y-115351166D01*
X209972073Y-115351162D01*
X209972074Y-115351158D01*
X209992113Y-115324393D01*
X210013943Y-115295233D01*
X210013947Y-115295231D01*
X210013950Y-115295228D01*
X210046905Y-115282938D01*
X210079407Y-115270816D01*
X210079413Y-115270815D01*
X210079418Y-115270815D01*
X210088253Y-115270500D01*
X211045500Y-115270500D01*
X211112539Y-115290185D01*
G37*
%TD.AperFunction*%
%TA.AperFunction,Conductor*%
G36*
X211112539Y-79953685D02*
G01*
X211158294Y-80006489D01*
X211169500Y-80058000D01*
X211169500Y-100353146D01*
X211149815Y-100420185D01*
X211097011Y-100465940D01*
X211069692Y-100474763D01*
X210941508Y-100500261D01*
X210941498Y-100500264D01*
X210795827Y-100560602D01*
X210795814Y-100560609D01*
X210664711Y-100648210D01*
X210664707Y-100648213D01*
X210553213Y-100759707D01*
X210553210Y-100759711D01*
X210465609Y-100890814D01*
X210465602Y-100890827D01*
X210405264Y-101036498D01*
X210405261Y-101036510D01*
X210374500Y-101191153D01*
X210374500Y-101348846D01*
X210405261Y-101503489D01*
X210405263Y-101503497D01*
X210415061Y-101527151D01*
X210424500Y-101574604D01*
X210424500Y-110907769D01*
X210404815Y-110974808D01*
X210388181Y-110995450D01*
X209859703Y-111523927D01*
X209819480Y-111550805D01*
X209795819Y-111560606D01*
X209795818Y-111560607D01*
X209664715Y-111648207D01*
X209664707Y-111648213D01*
X209553213Y-111759707D01*
X209553210Y-111759711D01*
X209465609Y-111890814D01*
X209465602Y-111890827D01*
X209405264Y-112036498D01*
X209405261Y-112036510D01*
X209374500Y-112191153D01*
X209374500Y-112348846D01*
X209405261Y-112503489D01*
X209405264Y-112503501D01*
X209465602Y-112649172D01*
X209465609Y-112649185D01*
X209553210Y-112780288D01*
X209553213Y-112780292D01*
X209664707Y-112891786D01*
X209664711Y-112891789D01*
X209795814Y-112979390D01*
X209795827Y-112979397D01*
X209920262Y-113030939D01*
X209974666Y-113074779D01*
X209996731Y-113141074D01*
X209979452Y-113208773D01*
X209928315Y-113256384D01*
X209872810Y-113269500D01*
X204340783Y-113269500D01*
X204273744Y-113249815D01*
X204253102Y-113233181D01*
X201561819Y-110541898D01*
X201528334Y-110480575D01*
X201525500Y-110454217D01*
X201525500Y-105273713D01*
X201899500Y-105273713D01*
X201899500Y-105486286D01*
X201930573Y-105682476D01*
X201932754Y-105696243D01*
X201989777Y-105871742D01*
X201998444Y-105898414D01*
X202094951Y-106087820D01*
X202219890Y-106259786D01*
X202333430Y-106373326D01*
X202366915Y-106434649D01*
X202361931Y-106504341D01*
X202320059Y-106560274D01*
X202289083Y-106577189D01*
X202157669Y-106626203D01*
X202157664Y-106626206D01*
X202042455Y-106712452D01*
X202042452Y-106712455D01*
X201956206Y-106827664D01*
X201956202Y-106827671D01*
X201905908Y-106962517D01*
X201899501Y-107022116D01*
X201899501Y-107022123D01*
X201899500Y-107022135D01*
X201899500Y-108817870D01*
X201899501Y-108817876D01*
X201905908Y-108877483D01*
X201956202Y-109012328D01*
X201956206Y-109012335D01*
X202042452Y-109127544D01*
X202042455Y-109127547D01*
X202157664Y-109213793D01*
X202157671Y-109213797D01*
X202292517Y-109264091D01*
X202292516Y-109264091D01*
X202299444Y-109264835D01*
X202352127Y-109270500D01*
X204147872Y-109270499D01*
X204207483Y-109264091D01*
X204342331Y-109213796D01*
X204457546Y-109127546D01*
X204543796Y-109012331D01*
X204594091Y-108877483D01*
X204600500Y-108817873D01*
X204600499Y-107022128D01*
X204594091Y-106962517D01*
X204592323Y-106957778D01*
X204543797Y-106827671D01*
X204543793Y-106827664D01*
X204457547Y-106712455D01*
X204457544Y-106712452D01*
X204342335Y-106626206D01*
X204342328Y-106626202D01*
X204210917Y-106577189D01*
X204154983Y-106535318D01*
X204130566Y-106469853D01*
X204145418Y-106401580D01*
X204166563Y-106373332D01*
X204280104Y-106259792D01*
X204405051Y-106087816D01*
X204501557Y-105898412D01*
X204567246Y-105696243D01*
X204600500Y-105486287D01*
X204600500Y-105273713D01*
X204567246Y-105063757D01*
X204501557Y-104861588D01*
X204405051Y-104672184D01*
X204405049Y-104672181D01*
X204405048Y-104672179D01*
X204280109Y-104500213D01*
X204129786Y-104349890D01*
X203957820Y-104224951D01*
X203768414Y-104128444D01*
X203768413Y-104128443D01*
X203768412Y-104128443D01*
X203566243Y-104062754D01*
X203566241Y-104062753D01*
X203566240Y-104062753D01*
X203404957Y-104037208D01*
X203356287Y-104029500D01*
X203143713Y-104029500D01*
X203095042Y-104037208D01*
X202933760Y-104062753D01*
X202731585Y-104128444D01*
X202542179Y-104224951D01*
X202370213Y-104349890D01*
X202219890Y-104500213D01*
X202094951Y-104672179D01*
X201998444Y-104861585D01*
X201932753Y-105063760D01*
X201899500Y-105273713D01*
X201525500Y-105273713D01*
X201525500Y-104921456D01*
X201505778Y-104822310D01*
X201497486Y-104780626D01*
X201487051Y-104728164D01*
X201435149Y-104602861D01*
X201431443Y-104593914D01*
X201411635Y-104546092D01*
X201411628Y-104546079D01*
X201302140Y-104382219D01*
X201269811Y-104349890D01*
X201162782Y-104242861D01*
X201162781Y-104242860D01*
X187358208Y-90438288D01*
X187358206Y-90438285D01*
X187358206Y-90438286D01*
X187351139Y-90431219D01*
X187351139Y-90431218D01*
X187211782Y-90291861D01*
X187211781Y-90291860D01*
X187211780Y-90291859D01*
X187047917Y-90182369D01*
X187047914Y-90182368D01*
X186991646Y-90159061D01*
X186937242Y-90115220D01*
X186915177Y-90048926D01*
X186932456Y-89981227D01*
X186983593Y-89933616D01*
X187039098Y-89920500D01*
X192493590Y-89920500D01*
X192560629Y-89940185D01*
X192581271Y-89956819D01*
X192996858Y-90372406D01*
X192996861Y-90372410D01*
X193136218Y-90511767D01*
X193136221Y-90511769D01*
X196232271Y-93607819D01*
X196265756Y-93669142D01*
X196260772Y-93738834D01*
X196218900Y-93794767D01*
X196153436Y-93819184D01*
X196144590Y-93819500D01*
X194190782Y-93819500D01*
X194123743Y-93799815D01*
X194103101Y-93783181D01*
X190962784Y-90642863D01*
X190962780Y-90642860D01*
X190798920Y-90533372D01*
X190798910Y-90533367D01*
X190616836Y-90457949D01*
X190616828Y-90457947D01*
X190423543Y-90419500D01*
X190423540Y-90419500D01*
X190226460Y-90419500D01*
X190226457Y-90419500D01*
X190033171Y-90457947D01*
X190033163Y-90457949D01*
X189851089Y-90533367D01*
X189851079Y-90533372D01*
X189687219Y-90642860D01*
X189687215Y-90642863D01*
X189547863Y-90782215D01*
X189547860Y-90782219D01*
X189438372Y-90946079D01*
X189438367Y-90946089D01*
X189362949Y-91128163D01*
X189362947Y-91128171D01*
X189324500Y-91321455D01*
X189324500Y-91518544D01*
X189362947Y-91711828D01*
X189362949Y-91711836D01*
X189438367Y-91893910D01*
X189438372Y-91893920D01*
X189547860Y-92057780D01*
X189547863Y-92057784D01*
X192944735Y-95454655D01*
X192944764Y-95454686D01*
X193087214Y-95597136D01*
X193087218Y-95597139D01*
X193251079Y-95706628D01*
X193251092Y-95706635D01*
X193379833Y-95759961D01*
X193433159Y-95782049D01*
X193433164Y-95782051D01*
X193519368Y-95799198D01*
X193546140Y-95804523D01*
X193626456Y-95820500D01*
X193626459Y-95820500D01*
X193626460Y-95820500D01*
X193823540Y-95820500D01*
X203300500Y-95820500D01*
X203367539Y-95840185D01*
X203413294Y-95892989D01*
X203424500Y-95944500D01*
X203424500Y-101907768D01*
X203415854Y-101937210D01*
X203409331Y-101967197D01*
X203405577Y-101972211D01*
X203404815Y-101974807D01*
X203388180Y-101995451D01*
X203359700Y-102023930D01*
X203319477Y-102050806D01*
X203295823Y-102060604D01*
X203295818Y-102060607D01*
X203164715Y-102148207D01*
X203164707Y-102148213D01*
X203053213Y-102259707D01*
X203053210Y-102259711D01*
X202965609Y-102390814D01*
X202965602Y-102390827D01*
X202905264Y-102536498D01*
X202905261Y-102536510D01*
X202874500Y-102691153D01*
X202874500Y-102848846D01*
X202905261Y-103003489D01*
X202905264Y-103003501D01*
X202965602Y-103149172D01*
X202965609Y-103149185D01*
X203053210Y-103280288D01*
X203053213Y-103280292D01*
X203164707Y-103391786D01*
X203164711Y-103391789D01*
X203295814Y-103479390D01*
X203295827Y-103479397D01*
X203389867Y-103518349D01*
X203441503Y-103539737D01*
X203596153Y-103570499D01*
X203596156Y-103570500D01*
X203596158Y-103570500D01*
X203753844Y-103570500D01*
X203753845Y-103570499D01*
X203908497Y-103539737D01*
X204054179Y-103479394D01*
X204185289Y-103391789D01*
X204296789Y-103280289D01*
X204384394Y-103149179D01*
X204394191Y-103125524D01*
X204421069Y-103085297D01*
X204757952Y-102748416D01*
X204807186Y-102674729D01*
X204840084Y-102625495D01*
X204896658Y-102488913D01*
X204925500Y-102343918D01*
X204925500Y-95534610D01*
X204945185Y-95467571D01*
X204950228Y-95460641D01*
X204952136Y-95457784D01*
X204952139Y-95457782D01*
X205061632Y-95293914D01*
X205137051Y-95111835D01*
X205163372Y-94979514D01*
X205175500Y-94918543D01*
X205175500Y-94721456D01*
X205137052Y-94528170D01*
X205137051Y-94528169D01*
X205137051Y-94528165D01*
X205136908Y-94527820D01*
X205061635Y-94346092D01*
X205061628Y-94346079D01*
X204948755Y-94177153D01*
X204950278Y-94176135D01*
X204926331Y-94119723D01*
X204925500Y-94105389D01*
X204925500Y-91574604D01*
X204934939Y-91527151D01*
X204938504Y-91518544D01*
X204944737Y-91503497D01*
X204975500Y-91348842D01*
X204975500Y-91191158D01*
X204975500Y-91191155D01*
X204975499Y-91191153D01*
X204962971Y-91128171D01*
X204944737Y-91036503D01*
X204944735Y-91036498D01*
X204884397Y-90890827D01*
X204884390Y-90890814D01*
X204796789Y-90759711D01*
X204796786Y-90759707D01*
X204685292Y-90648213D01*
X204685288Y-90648210D01*
X204554185Y-90560609D01*
X204554172Y-90560602D01*
X204408501Y-90500264D01*
X204408489Y-90500261D01*
X204253845Y-90469500D01*
X204253842Y-90469500D01*
X204096158Y-90469500D01*
X204096155Y-90469500D01*
X203941510Y-90500261D01*
X203941498Y-90500264D01*
X203795827Y-90560602D01*
X203795814Y-90560609D01*
X203664711Y-90648210D01*
X203664707Y-90648213D01*
X203553213Y-90759707D01*
X203553210Y-90759711D01*
X203465609Y-90890814D01*
X203465602Y-90890827D01*
X203405264Y-91036498D01*
X203405261Y-91036510D01*
X203374500Y-91191153D01*
X203374500Y-91348846D01*
X203405261Y-91503489D01*
X203405263Y-91503497D01*
X203415061Y-91527151D01*
X203424500Y-91574604D01*
X203424500Y-93695500D01*
X203404815Y-93762539D01*
X203352011Y-93808294D01*
X203300500Y-93819500D01*
X202542889Y-93819500D01*
X202475850Y-93799815D01*
X202430095Y-93747011D01*
X202420151Y-93677853D01*
X202439786Y-93626610D01*
X202461629Y-93593918D01*
X202461632Y-93593914D01*
X202537051Y-93411835D01*
X202565165Y-93270500D01*
X202575500Y-93218543D01*
X202575500Y-93021456D01*
X202537052Y-92828170D01*
X202537051Y-92828169D01*
X202537051Y-92828165D01*
X202502156Y-92743920D01*
X202461635Y-92646092D01*
X202461628Y-92646079D01*
X202352139Y-92482218D01*
X202352136Y-92482214D01*
X202212785Y-92342863D01*
X202212781Y-92342860D01*
X202048920Y-92233371D01*
X202048907Y-92233364D01*
X201866839Y-92157950D01*
X201866829Y-92157947D01*
X201673543Y-92119500D01*
X201673541Y-92119500D01*
X197625154Y-92119500D01*
X197558115Y-92099815D01*
X197537473Y-92083181D01*
X195914473Y-90460181D01*
X195880988Y-90398858D01*
X195885972Y-90329166D01*
X195927844Y-90273233D01*
X195993308Y-90248816D01*
X196002154Y-90248500D01*
X197834751Y-90248500D01*
X197834753Y-90248500D01*
X197978196Y-90210065D01*
X197980834Y-90208542D01*
X198106804Y-90135813D01*
X198211813Y-90030804D01*
X198211813Y-90030802D01*
X198222017Y-90020599D01*
X198222020Y-90020594D01*
X208272297Y-79970319D01*
X208333620Y-79936834D01*
X208359978Y-79934000D01*
X211045500Y-79934000D01*
X211112539Y-79953685D01*
G37*
%TD.AperFunction*%
%TA.AperFunction,Conductor*%
G36*
X215873682Y-57254685D02*
G01*
X215894324Y-57271319D01*
X218348873Y-59725868D01*
X218382358Y-59787191D01*
X218377374Y-59856883D01*
X218348875Y-59901228D01*
X218329890Y-59920213D01*
X218204951Y-60092179D01*
X218108444Y-60281585D01*
X218042753Y-60483760D01*
X218009500Y-60693713D01*
X218009500Y-60906287D01*
X218012113Y-60922786D01*
X218036412Y-61076206D01*
X218042754Y-61116243D01*
X218095205Y-61277671D01*
X218108444Y-61318414D01*
X218204951Y-61507820D01*
X218329890Y-61679786D01*
X218480213Y-61830109D01*
X218652182Y-61955050D01*
X218660946Y-61959516D01*
X218711742Y-62007491D01*
X218728536Y-62075312D01*
X218705998Y-62141447D01*
X218660946Y-62180484D01*
X218652182Y-62184949D01*
X218480213Y-62309890D01*
X218329890Y-62460213D01*
X218204951Y-62632179D01*
X218108444Y-62821585D01*
X218042753Y-63023760D01*
X218009500Y-63233713D01*
X218009500Y-63446286D01*
X218030645Y-63579794D01*
X218042754Y-63656243D01*
X218063632Y-63720500D01*
X218108444Y-63858414D01*
X218204951Y-64047820D01*
X218329890Y-64219786D01*
X218480213Y-64370109D01*
X218652182Y-64495050D01*
X218660946Y-64499516D01*
X218711742Y-64547491D01*
X218728536Y-64615312D01*
X218705998Y-64681447D01*
X218660946Y-64720484D01*
X218652182Y-64724949D01*
X218480213Y-64849890D01*
X218329890Y-65000213D01*
X218204951Y-65172179D01*
X218108444Y-65361585D01*
X218108443Y-65361587D01*
X218108443Y-65361588D01*
X218087012Y-65427546D01*
X218042753Y-65563760D01*
X218014133Y-65744459D01*
X218009500Y-65773713D01*
X218009500Y-65986287D01*
X218042754Y-66196243D01*
X218101426Y-66376817D01*
X218108444Y-66398414D01*
X218204951Y-66587820D01*
X218329890Y-66759786D01*
X218480213Y-66910109D01*
X218652182Y-67035050D01*
X218660946Y-67039516D01*
X218711742Y-67087491D01*
X218728536Y-67155312D01*
X218705998Y-67221447D01*
X218660946Y-67260484D01*
X218652182Y-67264949D01*
X218480213Y-67389890D01*
X218329890Y-67540213D01*
X218204951Y-67712179D01*
X218108444Y-67901585D01*
X218042753Y-68103760D01*
X218009500Y-68313713D01*
X218009500Y-68526287D01*
X218042754Y-68736243D01*
X218098281Y-68907138D01*
X218108444Y-68938414D01*
X218204951Y-69127820D01*
X218329890Y-69299786D01*
X218480213Y-69450109D01*
X218652182Y-69575050D01*
X218660946Y-69579516D01*
X218711742Y-69627491D01*
X218728536Y-69695312D01*
X218705998Y-69761447D01*
X218660946Y-69800484D01*
X218652182Y-69804949D01*
X218480213Y-69929890D01*
X218329890Y-70080213D01*
X218204951Y-70252179D01*
X218108444Y-70441585D01*
X218042753Y-70643760D01*
X218009500Y-70853713D01*
X218009500Y-71066286D01*
X218038564Y-71249792D01*
X218042754Y-71276243D01*
X218103219Y-71462335D01*
X218108444Y-71478414D01*
X218204951Y-71667820D01*
X218329890Y-71839786D01*
X218480213Y-71990109D01*
X218652182Y-72115050D01*
X218660946Y-72119516D01*
X218711742Y-72167491D01*
X218728536Y-72235312D01*
X218705998Y-72301447D01*
X218660946Y-72340484D01*
X218652182Y-72344949D01*
X218480213Y-72469890D01*
X218329890Y-72620213D01*
X218204951Y-72792179D01*
X218108444Y-72981585D01*
X218042753Y-73183760D01*
X218009500Y-73393713D01*
X218009500Y-73606286D01*
X218031800Y-73747086D01*
X218042754Y-73816243D01*
X218103174Y-74002197D01*
X218108444Y-74018414D01*
X218204951Y-74207820D01*
X218329890Y-74379786D01*
X218480213Y-74530109D01*
X218652182Y-74655050D01*
X218660946Y-74659516D01*
X218711742Y-74707491D01*
X218728536Y-74775312D01*
X218705998Y-74841447D01*
X218660946Y-74880484D01*
X218652182Y-74884949D01*
X218480213Y-75009890D01*
X218329890Y-75160213D01*
X218204951Y-75332179D01*
X218108444Y-75521585D01*
X218042753Y-75723760D01*
X218009500Y-75933713D01*
X218009500Y-76146286D01*
X218042753Y-76356239D01*
X218108444Y-76558414D01*
X218204951Y-76747820D01*
X218329890Y-76919786D01*
X218480213Y-77070109D01*
X218652182Y-77195050D01*
X218660946Y-77199516D01*
X218711742Y-77247491D01*
X218728536Y-77315312D01*
X218705998Y-77381447D01*
X218660946Y-77420484D01*
X218652182Y-77424949D01*
X218480213Y-77549890D01*
X218329890Y-77700213D01*
X218204951Y-77872179D01*
X218108444Y-78061583D01*
X218076175Y-78160897D01*
X218062361Y-78181097D01*
X218052288Y-78203397D01*
X218042991Y-78209425D01*
X218036737Y-78218572D01*
X218014195Y-78228097D01*
X217993665Y-78241411D01*
X217976908Y-78243855D01*
X217972378Y-78245770D01*
X217958751Y-78246577D01*
X217958431Y-78246578D01*
X217858703Y-78246579D01*
X217855788Y-78246998D01*
X217848485Y-78247028D01*
X217818766Y-78238433D01*
X217788547Y-78231859D01*
X217785398Y-78228784D01*
X217781366Y-78227618D01*
X217764874Y-78208742D01*
X217740591Y-78185029D01*
X217726658Y-78160897D01*
X217676313Y-78073696D01*
X217571304Y-77968687D01*
X217442696Y-77894435D01*
X217299252Y-77856000D01*
X217299251Y-77856000D01*
X206806865Y-77856000D01*
X206806849Y-77855999D01*
X206799253Y-77855999D01*
X206650748Y-77855999D01*
X206519063Y-77891284D01*
X206507300Y-77894436D01*
X206378699Y-77968684D01*
X206378693Y-77968689D01*
X206273685Y-78073698D01*
X197264203Y-87083181D01*
X197202880Y-87116666D01*
X197176522Y-87119500D01*
X197146155Y-87119500D01*
X196991510Y-87150261D01*
X196991498Y-87150264D01*
X196845827Y-87210602D01*
X196845814Y-87210609D01*
X196714711Y-87298210D01*
X196714707Y-87298213D01*
X196603213Y-87409707D01*
X196603210Y-87409711D01*
X196515609Y-87540814D01*
X196515602Y-87540827D01*
X196455264Y-87686498D01*
X196455261Y-87686510D01*
X196424500Y-87841153D01*
X196424500Y-87998846D01*
X196455261Y-88153489D01*
X196455264Y-88153501D01*
X196515602Y-88299172D01*
X196515609Y-88299185D01*
X196578485Y-88393285D01*
X196599363Y-88459963D01*
X196580878Y-88527343D01*
X196563064Y-88549857D01*
X196503213Y-88609707D01*
X196503210Y-88609711D01*
X196415609Y-88740814D01*
X196415602Y-88740827D01*
X196355264Y-88886498D01*
X196355261Y-88886510D01*
X196328571Y-89020691D01*
X196296186Y-89082602D01*
X196235471Y-89117176D01*
X196206954Y-89120500D01*
X195641673Y-89120500D01*
X195574634Y-89100815D01*
X195528879Y-89048011D01*
X195527112Y-89043952D01*
X195484397Y-88940827D01*
X195484390Y-88940814D01*
X195396789Y-88809711D01*
X195396786Y-88809707D01*
X195285292Y-88698213D01*
X195285288Y-88698210D01*
X195154185Y-88610609D01*
X195154172Y-88610602D01*
X195008501Y-88550264D01*
X195008491Y-88550261D01*
X194874308Y-88523570D01*
X194812397Y-88491185D01*
X194777823Y-88430469D01*
X194774500Y-88401953D01*
X194774500Y-86371154D01*
X194794185Y-86304115D01*
X194810819Y-86283473D01*
X196247474Y-84846819D01*
X196308797Y-84813334D01*
X196335155Y-84810500D01*
X197014800Y-84810500D01*
X197081839Y-84830185D01*
X197094365Y-84839493D01*
X197267179Y-84965048D01*
X197267181Y-84965049D01*
X197267184Y-84965051D01*
X197456588Y-85061557D01*
X197658757Y-85127246D01*
X197868713Y-85160500D01*
X197868714Y-85160500D01*
X198081286Y-85160500D01*
X198081287Y-85160500D01*
X198291243Y-85127246D01*
X198493412Y-85061557D01*
X198682816Y-84965051D01*
X198817097Y-84867491D01*
X198854786Y-84840109D01*
X198854788Y-84840106D01*
X198854792Y-84840104D01*
X199005104Y-84689792D01*
X199005106Y-84689788D01*
X199005109Y-84689786D01*
X199130048Y-84517820D01*
X199130047Y-84517820D01*
X199130051Y-84517816D01*
X199226557Y-84328412D01*
X199292246Y-84126243D01*
X199325500Y-83916287D01*
X199325500Y-83703713D01*
X199292246Y-83493757D01*
X199226557Y-83291588D01*
X199130051Y-83102184D01*
X199130049Y-83102181D01*
X199130048Y-83102179D01*
X199005109Y-82930213D01*
X198891569Y-82816673D01*
X198858084Y-82755350D01*
X198863068Y-82685658D01*
X198904940Y-82629725D01*
X198935915Y-82612810D01*
X199067331Y-82563796D01*
X199182546Y-82477546D01*
X199268796Y-82362331D01*
X199319091Y-82227483D01*
X199325500Y-82167873D01*
X199325499Y-80372128D01*
X199319091Y-80312517D01*
X199315003Y-80301557D01*
X199268797Y-80177671D01*
X199268793Y-80177664D01*
X199182547Y-80062455D01*
X199182544Y-80062452D01*
X199067335Y-79976206D01*
X199067328Y-79976202D01*
X198932482Y-79925908D01*
X198932483Y-79925908D01*
X198872883Y-79919501D01*
X198872881Y-79919500D01*
X198872873Y-79919500D01*
X198872865Y-79919500D01*
X197548500Y-79919500D01*
X197481461Y-79899815D01*
X197435706Y-79847011D01*
X197424500Y-79795500D01*
X197424500Y-74686782D01*
X197444185Y-74619743D01*
X197460819Y-74599101D01*
X198003102Y-74056819D01*
X198064425Y-74023334D01*
X198090783Y-74020500D01*
X200723542Y-74020500D01*
X200754566Y-74014328D01*
X200820188Y-74001275D01*
X200916836Y-73982051D01*
X200970165Y-73959961D01*
X201098914Y-73906632D01*
X201262782Y-73797139D01*
X201402139Y-73657782D01*
X201402140Y-73657779D01*
X201409206Y-73650714D01*
X201409208Y-73650710D01*
X203303498Y-71756421D01*
X203364819Y-71722938D01*
X203380279Y-71720659D01*
X203381283Y-71720500D01*
X203381287Y-71720500D01*
X203591243Y-71687246D01*
X203793412Y-71621557D01*
X203982816Y-71525051D01*
X204154792Y-71400104D01*
X204268329Y-71286566D01*
X204329648Y-71253084D01*
X204399340Y-71258068D01*
X204455274Y-71299939D01*
X204472189Y-71330917D01*
X204521202Y-71462328D01*
X204521206Y-71462335D01*
X204607452Y-71577544D01*
X204607455Y-71577547D01*
X204722664Y-71663793D01*
X204722671Y-71663797D01*
X204857517Y-71714091D01*
X204857516Y-71714091D01*
X204864444Y-71714835D01*
X204917127Y-71720500D01*
X206712872Y-71720499D01*
X206772483Y-71714091D01*
X206907331Y-71663796D01*
X207022546Y-71577546D01*
X207108796Y-71462331D01*
X207159091Y-71327483D01*
X207165500Y-71267873D01*
X207165499Y-69472128D01*
X207159091Y-69412517D01*
X207136235Y-69351236D01*
X207116317Y-69297832D01*
X207111333Y-69228140D01*
X207144818Y-69166817D01*
X207206142Y-69133333D01*
X207232499Y-69130499D01*
X207723543Y-69130499D01*
X207754567Y-69124327D01*
X207820189Y-69111274D01*
X207916837Y-69092050D01*
X207970166Y-69069960D01*
X208098915Y-69016631D01*
X208262783Y-68907138D01*
X208402140Y-68767781D01*
X208402140Y-68767779D01*
X208412348Y-68757572D01*
X208412350Y-68757569D01*
X208513203Y-68656715D01*
X208574524Y-68623232D01*
X208581473Y-68621927D01*
X208729534Y-68598477D01*
X208924219Y-68535220D01*
X209106610Y-68442287D01*
X209215239Y-68363364D01*
X209272213Y-68321971D01*
X209272215Y-68321968D01*
X209272219Y-68321966D01*
X209416966Y-68177219D01*
X209416968Y-68177215D01*
X209416971Y-68177213D01*
X209480697Y-68089500D01*
X209537287Y-68011610D01*
X209630220Y-67829219D01*
X209693477Y-67634534D01*
X209725500Y-67432352D01*
X209725500Y-67227648D01*
X209712361Y-67144692D01*
X209693477Y-67025465D01*
X209655994Y-66910104D01*
X209630220Y-66830781D01*
X209630218Y-66830778D01*
X209630218Y-66830776D01*
X209594046Y-66759786D01*
X209537287Y-66648390D01*
X209493278Y-66587816D01*
X209416971Y-66482786D01*
X209272213Y-66338028D01*
X209106613Y-66217715D01*
X209106612Y-66217714D01*
X209106610Y-66217713D01*
X209049653Y-66188691D01*
X208924223Y-66124781D01*
X208729534Y-66061522D01*
X208554995Y-66033878D01*
X208527352Y-66029500D01*
X208322648Y-66029500D01*
X208298329Y-66033351D01*
X208120465Y-66061522D01*
X207925776Y-66124781D01*
X207743386Y-66217715D01*
X207577786Y-66338028D01*
X207433028Y-66482786D01*
X207312715Y-66648386D01*
X207219781Y-66830776D01*
X207156522Y-67025465D01*
X207155388Y-67030194D01*
X207154232Y-67029916D01*
X207126684Y-67088031D01*
X207067373Y-67124963D01*
X207034140Y-67129499D01*
X205515059Y-67129499D01*
X205448020Y-67109814D01*
X205402265Y-67057010D01*
X205392321Y-66987852D01*
X205397128Y-66967180D01*
X205415674Y-66910104D01*
X205443477Y-66824534D01*
X205466925Y-66676483D01*
X205496854Y-66613350D01*
X205501699Y-66608219D01*
X207996205Y-64113713D01*
X212374500Y-64113713D01*
X212374500Y-64326286D01*
X212406847Y-64530520D01*
X212407754Y-64536243D01*
X212469069Y-64724951D01*
X212473444Y-64738414D01*
X212569951Y-64927820D01*
X212694890Y-65099786D01*
X212845213Y-65250109D01*
X213017179Y-65375048D01*
X213017181Y-65375049D01*
X213017184Y-65375051D01*
X213206588Y-65471557D01*
X213408757Y-65537246D01*
X213618713Y-65570500D01*
X213618714Y-65570500D01*
X213831286Y-65570500D01*
X213831287Y-65570500D01*
X214041243Y-65537246D01*
X214243412Y-65471557D01*
X214432816Y-65375051D01*
X214515771Y-65314781D01*
X214604784Y-65250110D01*
X214604784Y-65250109D01*
X214604792Y-65250104D01*
X214718329Y-65136566D01*
X214779648Y-65103084D01*
X214849340Y-65108068D01*
X214905274Y-65149939D01*
X214922189Y-65180917D01*
X214971202Y-65312328D01*
X214971206Y-65312335D01*
X215057452Y-65427544D01*
X215057455Y-65427547D01*
X215172664Y-65513793D01*
X215172671Y-65513797D01*
X215307517Y-65564091D01*
X215307516Y-65564091D01*
X215314444Y-65564835D01*
X215367127Y-65570500D01*
X217162872Y-65570499D01*
X217222483Y-65564091D01*
X217357331Y-65513796D01*
X217472546Y-65427546D01*
X217558796Y-65312331D01*
X217609091Y-65177483D01*
X217615500Y-65117873D01*
X217615499Y-63322128D01*
X217609091Y-63262517D01*
X217607810Y-63259083D01*
X217558797Y-63127671D01*
X217558793Y-63127664D01*
X217472547Y-63012455D01*
X217472544Y-63012452D01*
X217357335Y-62926206D01*
X217357328Y-62926202D01*
X217222482Y-62875908D01*
X217222483Y-62875908D01*
X217162883Y-62869501D01*
X217162881Y-62869500D01*
X217162873Y-62869500D01*
X217162864Y-62869500D01*
X215367129Y-62869500D01*
X215367123Y-62869501D01*
X215307516Y-62875908D01*
X215172671Y-62926202D01*
X215172664Y-62926206D01*
X215057455Y-63012452D01*
X215057452Y-63012455D01*
X214971206Y-63127664D01*
X214971203Y-63127669D01*
X214922189Y-63259083D01*
X214880317Y-63315016D01*
X214814853Y-63339433D01*
X214746580Y-63324581D01*
X214718326Y-63303430D01*
X214604786Y-63189890D01*
X214432820Y-63064951D01*
X214243414Y-62968444D01*
X214243413Y-62968443D01*
X214243412Y-62968443D01*
X214041243Y-62902754D01*
X214041241Y-62902753D01*
X214041240Y-62902753D01*
X213879957Y-62877208D01*
X213831287Y-62869500D01*
X213618713Y-62869500D01*
X213570042Y-62877208D01*
X213408760Y-62902753D01*
X213206585Y-62968444D01*
X213017179Y-63064951D01*
X212845213Y-63189890D01*
X212694890Y-63340213D01*
X212569951Y-63512179D01*
X212473444Y-63701585D01*
X212407753Y-63903760D01*
X212374500Y-64113713D01*
X207996205Y-64113713D01*
X212611802Y-59498117D01*
X212673121Y-59464635D01*
X212737796Y-59467869D01*
X212821063Y-59494925D01*
X212870465Y-59510977D01*
X212957058Y-59524692D01*
X213072648Y-59543000D01*
X213072649Y-59543000D01*
X213277351Y-59543000D01*
X213277352Y-59543000D01*
X213479534Y-59510977D01*
X213674219Y-59447720D01*
X213856610Y-59354787D01*
X213949590Y-59287232D01*
X214022213Y-59234471D01*
X214022215Y-59234468D01*
X214022219Y-59234466D01*
X214166966Y-59089719D01*
X214166968Y-59089715D01*
X214166971Y-59089713D01*
X214268322Y-58950213D01*
X214287287Y-58924110D01*
X214380220Y-58741719D01*
X214443477Y-58547034D01*
X214475500Y-58344852D01*
X214475500Y-58140148D01*
X214443477Y-57937965D01*
X214398113Y-57798349D01*
X214380220Y-57743281D01*
X214380218Y-57743278D01*
X214380218Y-57743276D01*
X214313197Y-57611742D01*
X214287287Y-57560890D01*
X214278006Y-57548116D01*
X214193561Y-57431885D01*
X214170081Y-57366078D01*
X214185907Y-57298025D01*
X214236013Y-57249330D01*
X214293879Y-57235000D01*
X215806643Y-57235000D01*
X215873682Y-57254685D01*
G37*
%TD.AperFunction*%
%TA.AperFunction,Conductor*%
G36*
X210739327Y-58235001D02*
G01*
X210745715Y-58235001D01*
X210747434Y-58235506D01*
X210754691Y-58235958D01*
X210754699Y-58235959D01*
X210766620Y-58241139D01*
X210812754Y-58254686D01*
X210858509Y-58307490D01*
X210868453Y-58376648D01*
X210839428Y-58440204D01*
X210833396Y-58446682D01*
X204086797Y-65193281D01*
X204025474Y-65226766D01*
X204018515Y-65228073D01*
X203870468Y-65251522D01*
X203701209Y-65306518D01*
X203683328Y-65312328D01*
X203675778Y-65314781D01*
X203493386Y-65407715D01*
X203327786Y-65528028D01*
X203183028Y-65672786D01*
X203062713Y-65838388D01*
X203046648Y-65869916D01*
X202998672Y-65920711D01*
X202930851Y-65937504D01*
X202864716Y-65914964D01*
X202848484Y-65901299D01*
X200461819Y-63514634D01*
X200428334Y-63453311D01*
X200425500Y-63426953D01*
X200425500Y-62894500D01*
X200445185Y-62827461D01*
X200497989Y-62781706D01*
X200549500Y-62770500D01*
X201403542Y-62770500D01*
X201434566Y-62764328D01*
X201500188Y-62751275D01*
X201596836Y-62732051D01*
X201650165Y-62709961D01*
X201778914Y-62656632D01*
X201942782Y-62547139D01*
X202082139Y-62407782D01*
X202082140Y-62407779D01*
X202089206Y-62400714D01*
X202089209Y-62400710D01*
X204263203Y-60226715D01*
X204324524Y-60193232D01*
X204331473Y-60191927D01*
X204479534Y-60168477D01*
X204674219Y-60105220D01*
X204856610Y-60012287D01*
X204983347Y-59920208D01*
X205022213Y-59891971D01*
X205022215Y-59891968D01*
X205022219Y-59891966D01*
X205166966Y-59747219D01*
X205166968Y-59747215D01*
X205166971Y-59747213D01*
X205279366Y-59592512D01*
X205287287Y-59581610D01*
X205380220Y-59399219D01*
X205443477Y-59204534D01*
X205475500Y-59002352D01*
X205475500Y-58797648D01*
X205446555Y-58614899D01*
X205443477Y-58595465D01*
X205426394Y-58542890D01*
X205380220Y-58400781D01*
X205380216Y-58400775D01*
X205379094Y-58397319D01*
X205377099Y-58327478D01*
X205413179Y-58267645D01*
X205475879Y-58236816D01*
X205497025Y-58235000D01*
X210739311Y-58235000D01*
X210739327Y-58235001D01*
G37*
%TD.AperFunction*%
%TD*%
M02*
