%TF.GenerationSoftware,KiCad,Pcbnew,9.0.2*%
%TF.CreationDate,2026-02-19T14:28:25-08:00*%
%TF.ProjectId,EPS_PCB_Prototyping,4550535f-5043-4425-9f50-726f746f7479,rev?*%
%TF.SameCoordinates,Original*%
%TF.FileFunction,Legend,Top*%
%TF.FilePolarity,Positive*%
%FSLAX46Y46*%
G04 Gerber Fmt 4.6, Leading zero omitted, Abs format (unit mm)*
G04 Created by KiCad (PCBNEW 9.0.2) date 2026-02-19 14:28:25*
%MOMM*%
%LPD*%
G01*
G04 APERTURE LIST*
%ADD10C,0.100000*%
%ADD11C,0.150000*%
%ADD12C,0.120000*%
%ADD13C,0.152400*%
%ADD14C,0.000000*%
%ADD15C,0.127000*%
%ADD16C,0.200000*%
%ADD17C,1.700000*%
G04 APERTURE END LIST*
D10*
X200362217Y-81868609D02*
X200505074Y-81916228D01*
X200505074Y-81916228D02*
X200552693Y-81963847D01*
X200552693Y-81963847D02*
X200600312Y-82059085D01*
X200600312Y-82059085D02*
X200600312Y-82201942D01*
X200600312Y-82201942D02*
X200552693Y-82297180D01*
X200552693Y-82297180D02*
X200505074Y-82344800D01*
X200505074Y-82344800D02*
X200409836Y-82392419D01*
X200409836Y-82392419D02*
X200028884Y-82392419D01*
X200028884Y-82392419D02*
X200028884Y-81392419D01*
X200028884Y-81392419D02*
X200362217Y-81392419D01*
X200362217Y-81392419D02*
X200457455Y-81440038D01*
X200457455Y-81440038D02*
X200505074Y-81487657D01*
X200505074Y-81487657D02*
X200552693Y-81582895D01*
X200552693Y-81582895D02*
X200552693Y-81678133D01*
X200552693Y-81678133D02*
X200505074Y-81773371D01*
X200505074Y-81773371D02*
X200457455Y-81820990D01*
X200457455Y-81820990D02*
X200362217Y-81868609D01*
X200362217Y-81868609D02*
X200028884Y-81868609D01*
X194712217Y-60468609D02*
X194855074Y-60516228D01*
X194855074Y-60516228D02*
X194902693Y-60563847D01*
X194902693Y-60563847D02*
X194950312Y-60659085D01*
X194950312Y-60659085D02*
X194950312Y-60801942D01*
X194950312Y-60801942D02*
X194902693Y-60897180D01*
X194902693Y-60897180D02*
X194855074Y-60944800D01*
X194855074Y-60944800D02*
X194759836Y-60992419D01*
X194759836Y-60992419D02*
X194378884Y-60992419D01*
X194378884Y-60992419D02*
X194378884Y-59992419D01*
X194378884Y-59992419D02*
X194712217Y-59992419D01*
X194712217Y-59992419D02*
X194807455Y-60040038D01*
X194807455Y-60040038D02*
X194855074Y-60087657D01*
X194855074Y-60087657D02*
X194902693Y-60182895D01*
X194902693Y-60182895D02*
X194902693Y-60278133D01*
X194902693Y-60278133D02*
X194855074Y-60373371D01*
X194855074Y-60373371D02*
X194807455Y-60420990D01*
X194807455Y-60420990D02*
X194712217Y-60468609D01*
X194712217Y-60468609D02*
X194378884Y-60468609D01*
X213905074Y-61442419D02*
X213428884Y-61442419D01*
X213428884Y-61442419D02*
X213381265Y-61918609D01*
X213381265Y-61918609D02*
X213428884Y-61870990D01*
X213428884Y-61870990D02*
X213524122Y-61823371D01*
X213524122Y-61823371D02*
X213762217Y-61823371D01*
X213762217Y-61823371D02*
X213857455Y-61870990D01*
X213857455Y-61870990D02*
X213905074Y-61918609D01*
X213905074Y-61918609D02*
X213952693Y-62013847D01*
X213952693Y-62013847D02*
X213952693Y-62251942D01*
X213952693Y-62251942D02*
X213905074Y-62347180D01*
X213905074Y-62347180D02*
X213857455Y-62394800D01*
X213857455Y-62394800D02*
X213762217Y-62442419D01*
X213762217Y-62442419D02*
X213524122Y-62442419D01*
X213524122Y-62442419D02*
X213428884Y-62394800D01*
X213428884Y-62394800D02*
X213381265Y-62347180D01*
X214286027Y-61775752D02*
X214524122Y-62442419D01*
X214524122Y-62442419D02*
X214762217Y-61775752D01*
X215905075Y-62442419D02*
X215905075Y-61775752D01*
X215905075Y-61442419D02*
X215857456Y-61490038D01*
X215857456Y-61490038D02*
X215905075Y-61537657D01*
X215905075Y-61537657D02*
X215952694Y-61490038D01*
X215952694Y-61490038D02*
X215905075Y-61442419D01*
X215905075Y-61442419D02*
X215905075Y-61537657D01*
X216381265Y-61775752D02*
X216381265Y-62442419D01*
X216381265Y-61870990D02*
X216428884Y-61823371D01*
X216428884Y-61823371D02*
X216524122Y-61775752D01*
X216524122Y-61775752D02*
X216666979Y-61775752D01*
X216666979Y-61775752D02*
X216762217Y-61823371D01*
X216762217Y-61823371D02*
X216809836Y-61918609D01*
X216809836Y-61918609D02*
X216809836Y-62442419D01*
X181055074Y-60342419D02*
X180578884Y-60342419D01*
X180578884Y-60342419D02*
X180531265Y-60818609D01*
X180531265Y-60818609D02*
X180578884Y-60770990D01*
X180578884Y-60770990D02*
X180674122Y-60723371D01*
X180674122Y-60723371D02*
X180912217Y-60723371D01*
X180912217Y-60723371D02*
X181007455Y-60770990D01*
X181007455Y-60770990D02*
X181055074Y-60818609D01*
X181055074Y-60818609D02*
X181102693Y-60913847D01*
X181102693Y-60913847D02*
X181102693Y-61151942D01*
X181102693Y-61151942D02*
X181055074Y-61247180D01*
X181055074Y-61247180D02*
X181007455Y-61294800D01*
X181007455Y-61294800D02*
X180912217Y-61342419D01*
X180912217Y-61342419D02*
X180674122Y-61342419D01*
X180674122Y-61342419D02*
X180578884Y-61294800D01*
X180578884Y-61294800D02*
X180531265Y-61247180D01*
X181388408Y-60342419D02*
X181721741Y-61342419D01*
X181721741Y-61342419D02*
X182055074Y-60342419D01*
X183150313Y-61342419D02*
X183150313Y-60675752D01*
X183150313Y-60342419D02*
X183102694Y-60390038D01*
X183102694Y-60390038D02*
X183150313Y-60437657D01*
X183150313Y-60437657D02*
X183197932Y-60390038D01*
X183197932Y-60390038D02*
X183150313Y-60342419D01*
X183150313Y-60342419D02*
X183150313Y-60437657D01*
X183626503Y-60675752D02*
X183626503Y-61342419D01*
X183626503Y-60770990D02*
X183674122Y-60723371D01*
X183674122Y-60723371D02*
X183769360Y-60675752D01*
X183769360Y-60675752D02*
X183912217Y-60675752D01*
X183912217Y-60675752D02*
X184007455Y-60723371D01*
X184007455Y-60723371D02*
X184055074Y-60818609D01*
X184055074Y-60818609D02*
X184055074Y-61342419D01*
X200712217Y-107668609D02*
X200855074Y-107716228D01*
X200855074Y-107716228D02*
X200902693Y-107763847D01*
X200902693Y-107763847D02*
X200950312Y-107859085D01*
X200950312Y-107859085D02*
X200950312Y-108001942D01*
X200950312Y-108001942D02*
X200902693Y-108097180D01*
X200902693Y-108097180D02*
X200855074Y-108144800D01*
X200855074Y-108144800D02*
X200759836Y-108192419D01*
X200759836Y-108192419D02*
X200378884Y-108192419D01*
X200378884Y-108192419D02*
X200378884Y-107192419D01*
X200378884Y-107192419D02*
X200712217Y-107192419D01*
X200712217Y-107192419D02*
X200807455Y-107240038D01*
X200807455Y-107240038D02*
X200855074Y-107287657D01*
X200855074Y-107287657D02*
X200902693Y-107382895D01*
X200902693Y-107382895D02*
X200902693Y-107478133D01*
X200902693Y-107478133D02*
X200855074Y-107573371D01*
X200855074Y-107573371D02*
X200807455Y-107620990D01*
X200807455Y-107620990D02*
X200712217Y-107668609D01*
X200712217Y-107668609D02*
X200378884Y-107668609D01*
X194273609Y-114032782D02*
X194321228Y-113889925D01*
X194321228Y-113889925D02*
X194368847Y-113842306D01*
X194368847Y-113842306D02*
X194464085Y-113794687D01*
X194464085Y-113794687D02*
X194606942Y-113794687D01*
X194606942Y-113794687D02*
X194702180Y-113842306D01*
X194702180Y-113842306D02*
X194749800Y-113889925D01*
X194749800Y-113889925D02*
X194797419Y-113985163D01*
X194797419Y-113985163D02*
X194797419Y-114366115D01*
X194797419Y-114366115D02*
X193797419Y-114366115D01*
X193797419Y-114366115D02*
X193797419Y-114032782D01*
X193797419Y-114032782D02*
X193845038Y-113937544D01*
X193845038Y-113937544D02*
X193892657Y-113889925D01*
X193892657Y-113889925D02*
X193987895Y-113842306D01*
X193987895Y-113842306D02*
X194083133Y-113842306D01*
X194083133Y-113842306D02*
X194178371Y-113889925D01*
X194178371Y-113889925D02*
X194225990Y-113937544D01*
X194225990Y-113937544D02*
X194273609Y-114032782D01*
X194273609Y-114032782D02*
X194273609Y-114366115D01*
D11*
X210286905Y-102924819D02*
X210286905Y-101924819D01*
X210286905Y-101924819D02*
X210525000Y-101924819D01*
X210525000Y-101924819D02*
X210667857Y-101972438D01*
X210667857Y-101972438D02*
X210763095Y-102067676D01*
X210763095Y-102067676D02*
X210810714Y-102162914D01*
X210810714Y-102162914D02*
X210858333Y-102353390D01*
X210858333Y-102353390D02*
X210858333Y-102496247D01*
X210858333Y-102496247D02*
X210810714Y-102686723D01*
X210810714Y-102686723D02*
X210763095Y-102781961D01*
X210763095Y-102781961D02*
X210667857Y-102877200D01*
X210667857Y-102877200D02*
X210525000Y-102924819D01*
X210525000Y-102924819D02*
X210286905Y-102924819D01*
X211239286Y-102020057D02*
X211286905Y-101972438D01*
X211286905Y-101972438D02*
X211382143Y-101924819D01*
X211382143Y-101924819D02*
X211620238Y-101924819D01*
X211620238Y-101924819D02*
X211715476Y-101972438D01*
X211715476Y-101972438D02*
X211763095Y-102020057D01*
X211763095Y-102020057D02*
X211810714Y-102115295D01*
X211810714Y-102115295D02*
X211810714Y-102210533D01*
X211810714Y-102210533D02*
X211763095Y-102353390D01*
X211763095Y-102353390D02*
X211191667Y-102924819D01*
X211191667Y-102924819D02*
X211810714Y-102924819D01*
X181229819Y-65974166D02*
X180753628Y-66307499D01*
X181229819Y-66545594D02*
X180229819Y-66545594D01*
X180229819Y-66545594D02*
X180229819Y-66164642D01*
X180229819Y-66164642D02*
X180277438Y-66069404D01*
X180277438Y-66069404D02*
X180325057Y-66021785D01*
X180325057Y-66021785D02*
X180420295Y-65974166D01*
X180420295Y-65974166D02*
X180563152Y-65974166D01*
X180563152Y-65974166D02*
X180658390Y-66021785D01*
X180658390Y-66021785D02*
X180706009Y-66069404D01*
X180706009Y-66069404D02*
X180753628Y-66164642D01*
X180753628Y-66164642D02*
X180753628Y-66545594D01*
X180229819Y-65640832D02*
X180229819Y-64974166D01*
X180229819Y-64974166D02*
X181229819Y-65402737D01*
X188110142Y-116931619D02*
X187776809Y-116455428D01*
X187538714Y-116931619D02*
X187538714Y-115931619D01*
X187538714Y-115931619D02*
X187919666Y-115931619D01*
X187919666Y-115931619D02*
X188014904Y-115979238D01*
X188014904Y-115979238D02*
X188062523Y-116026857D01*
X188062523Y-116026857D02*
X188110142Y-116122095D01*
X188110142Y-116122095D02*
X188110142Y-116264952D01*
X188110142Y-116264952D02*
X188062523Y-116360190D01*
X188062523Y-116360190D02*
X188014904Y-116407809D01*
X188014904Y-116407809D02*
X187919666Y-116455428D01*
X187919666Y-116455428D02*
X187538714Y-116455428D01*
X189062523Y-116931619D02*
X188491095Y-116931619D01*
X188776809Y-116931619D02*
X188776809Y-115931619D01*
X188776809Y-115931619D02*
X188681571Y-116074476D01*
X188681571Y-116074476D02*
X188586333Y-116169714D01*
X188586333Y-116169714D02*
X188491095Y-116217333D01*
X189443476Y-116026857D02*
X189491095Y-115979238D01*
X189491095Y-115979238D02*
X189586333Y-115931619D01*
X189586333Y-115931619D02*
X189824428Y-115931619D01*
X189824428Y-115931619D02*
X189919666Y-115979238D01*
X189919666Y-115979238D02*
X189967285Y-116026857D01*
X189967285Y-116026857D02*
X190014904Y-116122095D01*
X190014904Y-116122095D02*
X190014904Y-116217333D01*
X190014904Y-116217333D02*
X189967285Y-116360190D01*
X189967285Y-116360190D02*
X189395857Y-116931619D01*
X189395857Y-116931619D02*
X190014904Y-116931619D01*
X196214580Y-82436666D02*
X196262200Y-82484285D01*
X196262200Y-82484285D02*
X196309819Y-82627142D01*
X196309819Y-82627142D02*
X196309819Y-82722380D01*
X196309819Y-82722380D02*
X196262200Y-82865237D01*
X196262200Y-82865237D02*
X196166961Y-82960475D01*
X196166961Y-82960475D02*
X196071723Y-83008094D01*
X196071723Y-83008094D02*
X195881247Y-83055713D01*
X195881247Y-83055713D02*
X195738390Y-83055713D01*
X195738390Y-83055713D02*
X195547914Y-83008094D01*
X195547914Y-83008094D02*
X195452676Y-82960475D01*
X195452676Y-82960475D02*
X195357438Y-82865237D01*
X195357438Y-82865237D02*
X195309819Y-82722380D01*
X195309819Y-82722380D02*
X195309819Y-82627142D01*
X195309819Y-82627142D02*
X195357438Y-82484285D01*
X195357438Y-82484285D02*
X195405057Y-82436666D01*
X195309819Y-82103332D02*
X195309819Y-81436666D01*
X195309819Y-81436666D02*
X196309819Y-81865237D01*
X207713095Y-104524819D02*
X207713095Y-105334342D01*
X207713095Y-105334342D02*
X207760714Y-105429580D01*
X207760714Y-105429580D02*
X207808333Y-105477200D01*
X207808333Y-105477200D02*
X207903571Y-105524819D01*
X207903571Y-105524819D02*
X208094047Y-105524819D01*
X208094047Y-105524819D02*
X208189285Y-105477200D01*
X208189285Y-105477200D02*
X208236904Y-105429580D01*
X208236904Y-105429580D02*
X208284523Y-105334342D01*
X208284523Y-105334342D02*
X208284523Y-104524819D01*
X208713095Y-104620057D02*
X208760714Y-104572438D01*
X208760714Y-104572438D02*
X208855952Y-104524819D01*
X208855952Y-104524819D02*
X209094047Y-104524819D01*
X209094047Y-104524819D02*
X209189285Y-104572438D01*
X209189285Y-104572438D02*
X209236904Y-104620057D01*
X209236904Y-104620057D02*
X209284523Y-104715295D01*
X209284523Y-104715295D02*
X209284523Y-104810533D01*
X209284523Y-104810533D02*
X209236904Y-104953390D01*
X209236904Y-104953390D02*
X208665476Y-105524819D01*
X208665476Y-105524819D02*
X209284523Y-105524819D01*
X184643419Y-133172457D02*
X184167228Y-133505790D01*
X184643419Y-133743885D02*
X183643419Y-133743885D01*
X183643419Y-133743885D02*
X183643419Y-133362933D01*
X183643419Y-133362933D02*
X183691038Y-133267695D01*
X183691038Y-133267695D02*
X183738657Y-133220076D01*
X183738657Y-133220076D02*
X183833895Y-133172457D01*
X183833895Y-133172457D02*
X183976752Y-133172457D01*
X183976752Y-133172457D02*
X184071990Y-133220076D01*
X184071990Y-133220076D02*
X184119609Y-133267695D01*
X184119609Y-133267695D02*
X184167228Y-133362933D01*
X184167228Y-133362933D02*
X184167228Y-133743885D01*
X184643419Y-132220076D02*
X184643419Y-132791504D01*
X184643419Y-132505790D02*
X183643419Y-132505790D01*
X183643419Y-132505790D02*
X183786276Y-132601028D01*
X183786276Y-132601028D02*
X183881514Y-132696266D01*
X183881514Y-132696266D02*
X183929133Y-132791504D01*
X183643419Y-131886742D02*
X183643419Y-131220076D01*
X183643419Y-131220076D02*
X184643419Y-131648647D01*
X195058333Y-125174580D02*
X195010714Y-125222200D01*
X195010714Y-125222200D02*
X194867857Y-125269819D01*
X194867857Y-125269819D02*
X194772619Y-125269819D01*
X194772619Y-125269819D02*
X194629762Y-125222200D01*
X194629762Y-125222200D02*
X194534524Y-125126961D01*
X194534524Y-125126961D02*
X194486905Y-125031723D01*
X194486905Y-125031723D02*
X194439286Y-124841247D01*
X194439286Y-124841247D02*
X194439286Y-124698390D01*
X194439286Y-124698390D02*
X194486905Y-124507914D01*
X194486905Y-124507914D02*
X194534524Y-124412676D01*
X194534524Y-124412676D02*
X194629762Y-124317438D01*
X194629762Y-124317438D02*
X194772619Y-124269819D01*
X194772619Y-124269819D02*
X194867857Y-124269819D01*
X194867857Y-124269819D02*
X195010714Y-124317438D01*
X195010714Y-124317438D02*
X195058333Y-124365057D01*
X195534524Y-125269819D02*
X195725000Y-125269819D01*
X195725000Y-125269819D02*
X195820238Y-125222200D01*
X195820238Y-125222200D02*
X195867857Y-125174580D01*
X195867857Y-125174580D02*
X195963095Y-125031723D01*
X195963095Y-125031723D02*
X196010714Y-124841247D01*
X196010714Y-124841247D02*
X196010714Y-124460295D01*
X196010714Y-124460295D02*
X195963095Y-124365057D01*
X195963095Y-124365057D02*
X195915476Y-124317438D01*
X195915476Y-124317438D02*
X195820238Y-124269819D01*
X195820238Y-124269819D02*
X195629762Y-124269819D01*
X195629762Y-124269819D02*
X195534524Y-124317438D01*
X195534524Y-124317438D02*
X195486905Y-124365057D01*
X195486905Y-124365057D02*
X195439286Y-124460295D01*
X195439286Y-124460295D02*
X195439286Y-124698390D01*
X195439286Y-124698390D02*
X195486905Y-124793628D01*
X195486905Y-124793628D02*
X195534524Y-124841247D01*
X195534524Y-124841247D02*
X195629762Y-124888866D01*
X195629762Y-124888866D02*
X195820238Y-124888866D01*
X195820238Y-124888866D02*
X195915476Y-124841247D01*
X195915476Y-124841247D02*
X195963095Y-124793628D01*
X195963095Y-124793628D02*
X196010714Y-124698390D01*
X200241666Y-105974819D02*
X200241666Y-106689104D01*
X200241666Y-106689104D02*
X200194047Y-106831961D01*
X200194047Y-106831961D02*
X200098809Y-106927200D01*
X200098809Y-106927200D02*
X199955952Y-106974819D01*
X199955952Y-106974819D02*
X199860714Y-106974819D01*
X201146428Y-106308152D02*
X201146428Y-106974819D01*
X200908333Y-105927200D02*
X200670238Y-106641485D01*
X200670238Y-106641485D02*
X201289285Y-106641485D01*
X216214580Y-108436666D02*
X216262200Y-108484285D01*
X216262200Y-108484285D02*
X216309819Y-108627142D01*
X216309819Y-108627142D02*
X216309819Y-108722380D01*
X216309819Y-108722380D02*
X216262200Y-108865237D01*
X216262200Y-108865237D02*
X216166961Y-108960475D01*
X216166961Y-108960475D02*
X216071723Y-109008094D01*
X216071723Y-109008094D02*
X215881247Y-109055713D01*
X215881247Y-109055713D02*
X215738390Y-109055713D01*
X215738390Y-109055713D02*
X215547914Y-109008094D01*
X215547914Y-109008094D02*
X215452676Y-108960475D01*
X215452676Y-108960475D02*
X215357438Y-108865237D01*
X215357438Y-108865237D02*
X215309819Y-108722380D01*
X215309819Y-108722380D02*
X215309819Y-108627142D01*
X215309819Y-108627142D02*
X215357438Y-108484285D01*
X215357438Y-108484285D02*
X215405057Y-108436666D01*
X215405057Y-108055713D02*
X215357438Y-108008094D01*
X215357438Y-108008094D02*
X215309819Y-107912856D01*
X215309819Y-107912856D02*
X215309819Y-107674761D01*
X215309819Y-107674761D02*
X215357438Y-107579523D01*
X215357438Y-107579523D02*
X215405057Y-107531904D01*
X215405057Y-107531904D02*
X215500295Y-107484285D01*
X215500295Y-107484285D02*
X215595533Y-107484285D01*
X215595533Y-107484285D02*
X215738390Y-107531904D01*
X215738390Y-107531904D02*
X216309819Y-108103332D01*
X216309819Y-108103332D02*
X216309819Y-107484285D01*
X205989819Y-112223466D02*
X205513628Y-112556799D01*
X205989819Y-112794894D02*
X204989819Y-112794894D01*
X204989819Y-112794894D02*
X204989819Y-112413942D01*
X204989819Y-112413942D02*
X205037438Y-112318704D01*
X205037438Y-112318704D02*
X205085057Y-112271085D01*
X205085057Y-112271085D02*
X205180295Y-112223466D01*
X205180295Y-112223466D02*
X205323152Y-112223466D01*
X205323152Y-112223466D02*
X205418390Y-112271085D01*
X205418390Y-112271085D02*
X205466009Y-112318704D01*
X205466009Y-112318704D02*
X205513628Y-112413942D01*
X205513628Y-112413942D02*
X205513628Y-112794894D01*
X205323152Y-111366323D02*
X205989819Y-111366323D01*
X204942200Y-111604418D02*
X205656485Y-111842513D01*
X205656485Y-111842513D02*
X205656485Y-111223466D01*
X200408333Y-109594819D02*
X200075000Y-109118628D01*
X199836905Y-109594819D02*
X199836905Y-108594819D01*
X199836905Y-108594819D02*
X200217857Y-108594819D01*
X200217857Y-108594819D02*
X200313095Y-108642438D01*
X200313095Y-108642438D02*
X200360714Y-108690057D01*
X200360714Y-108690057D02*
X200408333Y-108785295D01*
X200408333Y-108785295D02*
X200408333Y-108928152D01*
X200408333Y-108928152D02*
X200360714Y-109023390D01*
X200360714Y-109023390D02*
X200313095Y-109071009D01*
X200313095Y-109071009D02*
X200217857Y-109118628D01*
X200217857Y-109118628D02*
X199836905Y-109118628D01*
X200741667Y-108594819D02*
X201360714Y-108594819D01*
X201360714Y-108594819D02*
X201027381Y-108975771D01*
X201027381Y-108975771D02*
X201170238Y-108975771D01*
X201170238Y-108975771D02*
X201265476Y-109023390D01*
X201265476Y-109023390D02*
X201313095Y-109071009D01*
X201313095Y-109071009D02*
X201360714Y-109166247D01*
X201360714Y-109166247D02*
X201360714Y-109404342D01*
X201360714Y-109404342D02*
X201313095Y-109499580D01*
X201313095Y-109499580D02*
X201265476Y-109547200D01*
X201265476Y-109547200D02*
X201170238Y-109594819D01*
X201170238Y-109594819D02*
X200884524Y-109594819D01*
X200884524Y-109594819D02*
X200789286Y-109547200D01*
X200789286Y-109547200D02*
X200741667Y-109499580D01*
X218489819Y-65029523D02*
X219204104Y-65029523D01*
X219204104Y-65029523D02*
X219346961Y-65077142D01*
X219346961Y-65077142D02*
X219442200Y-65172380D01*
X219442200Y-65172380D02*
X219489819Y-65315237D01*
X219489819Y-65315237D02*
X219489819Y-65410475D01*
X219489819Y-64029523D02*
X219489819Y-64600951D01*
X219489819Y-64315237D02*
X218489819Y-64315237D01*
X218489819Y-64315237D02*
X218632676Y-64410475D01*
X218632676Y-64410475D02*
X218727914Y-64505713D01*
X218727914Y-64505713D02*
X218775533Y-64600951D01*
X218585057Y-63648570D02*
X218537438Y-63600951D01*
X218537438Y-63600951D02*
X218489819Y-63505713D01*
X218489819Y-63505713D02*
X218489819Y-63267618D01*
X218489819Y-63267618D02*
X218537438Y-63172380D01*
X218537438Y-63172380D02*
X218585057Y-63124761D01*
X218585057Y-63124761D02*
X218680295Y-63077142D01*
X218680295Y-63077142D02*
X218775533Y-63077142D01*
X218775533Y-63077142D02*
X218918390Y-63124761D01*
X218918390Y-63124761D02*
X219489819Y-63696189D01*
X219489819Y-63696189D02*
X219489819Y-63077142D01*
X215539580Y-128936666D02*
X215587200Y-128984285D01*
X215587200Y-128984285D02*
X215634819Y-129127142D01*
X215634819Y-129127142D02*
X215634819Y-129222380D01*
X215634819Y-129222380D02*
X215587200Y-129365237D01*
X215587200Y-129365237D02*
X215491961Y-129460475D01*
X215491961Y-129460475D02*
X215396723Y-129508094D01*
X215396723Y-129508094D02*
X215206247Y-129555713D01*
X215206247Y-129555713D02*
X215063390Y-129555713D01*
X215063390Y-129555713D02*
X214872914Y-129508094D01*
X214872914Y-129508094D02*
X214777676Y-129460475D01*
X214777676Y-129460475D02*
X214682438Y-129365237D01*
X214682438Y-129365237D02*
X214634819Y-129222380D01*
X214634819Y-129222380D02*
X214634819Y-129127142D01*
X214634819Y-129127142D02*
X214682438Y-128984285D01*
X214682438Y-128984285D02*
X214730057Y-128936666D01*
X214634819Y-128603332D02*
X214634819Y-127984285D01*
X214634819Y-127984285D02*
X215015771Y-128317618D01*
X215015771Y-128317618D02*
X215015771Y-128174761D01*
X215015771Y-128174761D02*
X215063390Y-128079523D01*
X215063390Y-128079523D02*
X215111009Y-128031904D01*
X215111009Y-128031904D02*
X215206247Y-127984285D01*
X215206247Y-127984285D02*
X215444342Y-127984285D01*
X215444342Y-127984285D02*
X215539580Y-128031904D01*
X215539580Y-128031904D02*
X215587200Y-128079523D01*
X215587200Y-128079523D02*
X215634819Y-128174761D01*
X215634819Y-128174761D02*
X215634819Y-128460475D01*
X215634819Y-128460475D02*
X215587200Y-128555713D01*
X215587200Y-128555713D02*
X215539580Y-128603332D01*
X182391666Y-59174819D02*
X182391666Y-59889104D01*
X182391666Y-59889104D02*
X182344047Y-60031961D01*
X182344047Y-60031961D02*
X182248809Y-60127200D01*
X182248809Y-60127200D02*
X182105952Y-60174819D01*
X182105952Y-60174819D02*
X182010714Y-60174819D01*
X182772619Y-59174819D02*
X183439285Y-59174819D01*
X183439285Y-59174819D02*
X183010714Y-60174819D01*
X201299819Y-87686666D02*
X200823628Y-88019999D01*
X201299819Y-88258094D02*
X200299819Y-88258094D01*
X200299819Y-88258094D02*
X200299819Y-87877142D01*
X200299819Y-87877142D02*
X200347438Y-87781904D01*
X200347438Y-87781904D02*
X200395057Y-87734285D01*
X200395057Y-87734285D02*
X200490295Y-87686666D01*
X200490295Y-87686666D02*
X200633152Y-87686666D01*
X200633152Y-87686666D02*
X200728390Y-87734285D01*
X200728390Y-87734285D02*
X200776009Y-87781904D01*
X200776009Y-87781904D02*
X200823628Y-87877142D01*
X200823628Y-87877142D02*
X200823628Y-88258094D01*
X200395057Y-87305713D02*
X200347438Y-87258094D01*
X200347438Y-87258094D02*
X200299819Y-87162856D01*
X200299819Y-87162856D02*
X200299819Y-86924761D01*
X200299819Y-86924761D02*
X200347438Y-86829523D01*
X200347438Y-86829523D02*
X200395057Y-86781904D01*
X200395057Y-86781904D02*
X200490295Y-86734285D01*
X200490295Y-86734285D02*
X200585533Y-86734285D01*
X200585533Y-86734285D02*
X200728390Y-86781904D01*
X200728390Y-86781904D02*
X201299819Y-87353332D01*
X201299819Y-87353332D02*
X201299819Y-86734285D01*
X189662342Y-113469219D02*
X189329009Y-112993028D01*
X189090914Y-113469219D02*
X189090914Y-112469219D01*
X189090914Y-112469219D02*
X189471866Y-112469219D01*
X189471866Y-112469219D02*
X189567104Y-112516838D01*
X189567104Y-112516838D02*
X189614723Y-112564457D01*
X189614723Y-112564457D02*
X189662342Y-112659695D01*
X189662342Y-112659695D02*
X189662342Y-112802552D01*
X189662342Y-112802552D02*
X189614723Y-112897790D01*
X189614723Y-112897790D02*
X189567104Y-112945409D01*
X189567104Y-112945409D02*
X189471866Y-112993028D01*
X189471866Y-112993028D02*
X189090914Y-112993028D01*
X190614723Y-113469219D02*
X190043295Y-113469219D01*
X190329009Y-113469219D02*
X190329009Y-112469219D01*
X190329009Y-112469219D02*
X190233771Y-112612076D01*
X190233771Y-112612076D02*
X190138533Y-112707314D01*
X190138533Y-112707314D02*
X190043295Y-112754933D01*
X191519485Y-112469219D02*
X191043295Y-112469219D01*
X191043295Y-112469219D02*
X190995676Y-112945409D01*
X190995676Y-112945409D02*
X191043295Y-112897790D01*
X191043295Y-112897790D02*
X191138533Y-112850171D01*
X191138533Y-112850171D02*
X191376628Y-112850171D01*
X191376628Y-112850171D02*
X191471866Y-112897790D01*
X191471866Y-112897790D02*
X191519485Y-112945409D01*
X191519485Y-112945409D02*
X191567104Y-113040647D01*
X191567104Y-113040647D02*
X191567104Y-113278742D01*
X191567104Y-113278742D02*
X191519485Y-113373980D01*
X191519485Y-113373980D02*
X191471866Y-113421600D01*
X191471866Y-113421600D02*
X191376628Y-113469219D01*
X191376628Y-113469219D02*
X191138533Y-113469219D01*
X191138533Y-113469219D02*
X191043295Y-113421600D01*
X191043295Y-113421600D02*
X190995676Y-113373980D01*
X203550333Y-82858980D02*
X203502714Y-82906600D01*
X203502714Y-82906600D02*
X203359857Y-82954219D01*
X203359857Y-82954219D02*
X203264619Y-82954219D01*
X203264619Y-82954219D02*
X203121762Y-82906600D01*
X203121762Y-82906600D02*
X203026524Y-82811361D01*
X203026524Y-82811361D02*
X202978905Y-82716123D01*
X202978905Y-82716123D02*
X202931286Y-82525647D01*
X202931286Y-82525647D02*
X202931286Y-82382790D01*
X202931286Y-82382790D02*
X202978905Y-82192314D01*
X202978905Y-82192314D02*
X203026524Y-82097076D01*
X203026524Y-82097076D02*
X203121762Y-82001838D01*
X203121762Y-82001838D02*
X203264619Y-81954219D01*
X203264619Y-81954219D02*
X203359857Y-81954219D01*
X203359857Y-81954219D02*
X203502714Y-82001838D01*
X203502714Y-82001838D02*
X203550333Y-82049457D01*
X204407476Y-82287552D02*
X204407476Y-82954219D01*
X204169381Y-81906600D02*
X203931286Y-82620885D01*
X203931286Y-82620885D02*
X204550333Y-82620885D01*
X208413095Y-81954219D02*
X208413095Y-82763742D01*
X208413095Y-82763742D02*
X208460714Y-82858980D01*
X208460714Y-82858980D02*
X208508333Y-82906600D01*
X208508333Y-82906600D02*
X208603571Y-82954219D01*
X208603571Y-82954219D02*
X208794047Y-82954219D01*
X208794047Y-82954219D02*
X208889285Y-82906600D01*
X208889285Y-82906600D02*
X208936904Y-82858980D01*
X208936904Y-82858980D02*
X208984523Y-82763742D01*
X208984523Y-82763742D02*
X208984523Y-81954219D01*
X209984523Y-82954219D02*
X209413095Y-82954219D01*
X209698809Y-82954219D02*
X209698809Y-81954219D01*
X209698809Y-81954219D02*
X209603571Y-82097076D01*
X209603571Y-82097076D02*
X209508333Y-82192314D01*
X209508333Y-82192314D02*
X209413095Y-82239933D01*
X199633333Y-121324819D02*
X199157143Y-121324819D01*
X199157143Y-121324819D02*
X199157143Y-120324819D01*
X199871429Y-120324819D02*
X200490476Y-120324819D01*
X200490476Y-120324819D02*
X200157143Y-120705771D01*
X200157143Y-120705771D02*
X200300000Y-120705771D01*
X200300000Y-120705771D02*
X200395238Y-120753390D01*
X200395238Y-120753390D02*
X200442857Y-120801009D01*
X200442857Y-120801009D02*
X200490476Y-120896247D01*
X200490476Y-120896247D02*
X200490476Y-121134342D01*
X200490476Y-121134342D02*
X200442857Y-121229580D01*
X200442857Y-121229580D02*
X200395238Y-121277200D01*
X200395238Y-121277200D02*
X200300000Y-121324819D01*
X200300000Y-121324819D02*
X200014286Y-121324819D01*
X200014286Y-121324819D02*
X199919048Y-121277200D01*
X199919048Y-121277200D02*
X199871429Y-121229580D01*
X191764580Y-67087857D02*
X191812200Y-67135476D01*
X191812200Y-67135476D02*
X191859819Y-67278333D01*
X191859819Y-67278333D02*
X191859819Y-67373571D01*
X191859819Y-67373571D02*
X191812200Y-67516428D01*
X191812200Y-67516428D02*
X191716961Y-67611666D01*
X191716961Y-67611666D02*
X191621723Y-67659285D01*
X191621723Y-67659285D02*
X191431247Y-67706904D01*
X191431247Y-67706904D02*
X191288390Y-67706904D01*
X191288390Y-67706904D02*
X191097914Y-67659285D01*
X191097914Y-67659285D02*
X191002676Y-67611666D01*
X191002676Y-67611666D02*
X190907438Y-67516428D01*
X190907438Y-67516428D02*
X190859819Y-67373571D01*
X190859819Y-67373571D02*
X190859819Y-67278333D01*
X190859819Y-67278333D02*
X190907438Y-67135476D01*
X190907438Y-67135476D02*
X190955057Y-67087857D01*
X191859819Y-66135476D02*
X191859819Y-66706904D01*
X191859819Y-66421190D02*
X190859819Y-66421190D01*
X190859819Y-66421190D02*
X191002676Y-66516428D01*
X191002676Y-66516428D02*
X191097914Y-66611666D01*
X191097914Y-66611666D02*
X191145533Y-66706904D01*
X190955057Y-65754523D02*
X190907438Y-65706904D01*
X190907438Y-65706904D02*
X190859819Y-65611666D01*
X190859819Y-65611666D02*
X190859819Y-65373571D01*
X190859819Y-65373571D02*
X190907438Y-65278333D01*
X190907438Y-65278333D02*
X190955057Y-65230714D01*
X190955057Y-65230714D02*
X191050295Y-65183095D01*
X191050295Y-65183095D02*
X191145533Y-65183095D01*
X191145533Y-65183095D02*
X191288390Y-65230714D01*
X191288390Y-65230714D02*
X191859819Y-65802142D01*
X191859819Y-65802142D02*
X191859819Y-65183095D01*
X187032142Y-120129580D02*
X186984523Y-120177200D01*
X186984523Y-120177200D02*
X186841666Y-120224819D01*
X186841666Y-120224819D02*
X186746428Y-120224819D01*
X186746428Y-120224819D02*
X186603571Y-120177200D01*
X186603571Y-120177200D02*
X186508333Y-120081961D01*
X186508333Y-120081961D02*
X186460714Y-119986723D01*
X186460714Y-119986723D02*
X186413095Y-119796247D01*
X186413095Y-119796247D02*
X186413095Y-119653390D01*
X186413095Y-119653390D02*
X186460714Y-119462914D01*
X186460714Y-119462914D02*
X186508333Y-119367676D01*
X186508333Y-119367676D02*
X186603571Y-119272438D01*
X186603571Y-119272438D02*
X186746428Y-119224819D01*
X186746428Y-119224819D02*
X186841666Y-119224819D01*
X186841666Y-119224819D02*
X186984523Y-119272438D01*
X186984523Y-119272438D02*
X187032142Y-119320057D01*
X187984523Y-120224819D02*
X187413095Y-120224819D01*
X187698809Y-120224819D02*
X187698809Y-119224819D01*
X187698809Y-119224819D02*
X187603571Y-119367676D01*
X187603571Y-119367676D02*
X187508333Y-119462914D01*
X187508333Y-119462914D02*
X187413095Y-119510533D01*
X188317857Y-119224819D02*
X188936904Y-119224819D01*
X188936904Y-119224819D02*
X188603571Y-119605771D01*
X188603571Y-119605771D02*
X188746428Y-119605771D01*
X188746428Y-119605771D02*
X188841666Y-119653390D01*
X188841666Y-119653390D02*
X188889285Y-119701009D01*
X188889285Y-119701009D02*
X188936904Y-119796247D01*
X188936904Y-119796247D02*
X188936904Y-120034342D01*
X188936904Y-120034342D02*
X188889285Y-120129580D01*
X188889285Y-120129580D02*
X188841666Y-120177200D01*
X188841666Y-120177200D02*
X188746428Y-120224819D01*
X188746428Y-120224819D02*
X188460714Y-120224819D01*
X188460714Y-120224819D02*
X188365476Y-120177200D01*
X188365476Y-120177200D02*
X188317857Y-120129580D01*
X178432742Y-97049780D02*
X178385123Y-97097400D01*
X178385123Y-97097400D02*
X178242266Y-97145019D01*
X178242266Y-97145019D02*
X178147028Y-97145019D01*
X178147028Y-97145019D02*
X178004171Y-97097400D01*
X178004171Y-97097400D02*
X177908933Y-97002161D01*
X177908933Y-97002161D02*
X177861314Y-96906923D01*
X177861314Y-96906923D02*
X177813695Y-96716447D01*
X177813695Y-96716447D02*
X177813695Y-96573590D01*
X177813695Y-96573590D02*
X177861314Y-96383114D01*
X177861314Y-96383114D02*
X177908933Y-96287876D01*
X177908933Y-96287876D02*
X178004171Y-96192638D01*
X178004171Y-96192638D02*
X178147028Y-96145019D01*
X178147028Y-96145019D02*
X178242266Y-96145019D01*
X178242266Y-96145019D02*
X178385123Y-96192638D01*
X178385123Y-96192638D02*
X178432742Y-96240257D01*
X179385123Y-97145019D02*
X178813695Y-97145019D01*
X179099409Y-97145019D02*
X179099409Y-96145019D01*
X179099409Y-96145019D02*
X179004171Y-96287876D01*
X179004171Y-96287876D02*
X178908933Y-96383114D01*
X178908933Y-96383114D02*
X178813695Y-96430733D01*
X180289885Y-96145019D02*
X179813695Y-96145019D01*
X179813695Y-96145019D02*
X179766076Y-96621209D01*
X179766076Y-96621209D02*
X179813695Y-96573590D01*
X179813695Y-96573590D02*
X179908933Y-96525971D01*
X179908933Y-96525971D02*
X180147028Y-96525971D01*
X180147028Y-96525971D02*
X180242266Y-96573590D01*
X180242266Y-96573590D02*
X180289885Y-96621209D01*
X180289885Y-96621209D02*
X180337504Y-96716447D01*
X180337504Y-96716447D02*
X180337504Y-96954542D01*
X180337504Y-96954542D02*
X180289885Y-97049780D01*
X180289885Y-97049780D02*
X180242266Y-97097400D01*
X180242266Y-97097400D02*
X180147028Y-97145019D01*
X180147028Y-97145019D02*
X179908933Y-97145019D01*
X179908933Y-97145019D02*
X179813695Y-97097400D01*
X179813695Y-97097400D02*
X179766076Y-97049780D01*
X180932142Y-110579580D02*
X180884523Y-110627200D01*
X180884523Y-110627200D02*
X180741666Y-110674819D01*
X180741666Y-110674819D02*
X180646428Y-110674819D01*
X180646428Y-110674819D02*
X180503571Y-110627200D01*
X180503571Y-110627200D02*
X180408333Y-110531961D01*
X180408333Y-110531961D02*
X180360714Y-110436723D01*
X180360714Y-110436723D02*
X180313095Y-110246247D01*
X180313095Y-110246247D02*
X180313095Y-110103390D01*
X180313095Y-110103390D02*
X180360714Y-109912914D01*
X180360714Y-109912914D02*
X180408333Y-109817676D01*
X180408333Y-109817676D02*
X180503571Y-109722438D01*
X180503571Y-109722438D02*
X180646428Y-109674819D01*
X180646428Y-109674819D02*
X180741666Y-109674819D01*
X180741666Y-109674819D02*
X180884523Y-109722438D01*
X180884523Y-109722438D02*
X180932142Y-109770057D01*
X181313095Y-109770057D02*
X181360714Y-109722438D01*
X181360714Y-109722438D02*
X181455952Y-109674819D01*
X181455952Y-109674819D02*
X181694047Y-109674819D01*
X181694047Y-109674819D02*
X181789285Y-109722438D01*
X181789285Y-109722438D02*
X181836904Y-109770057D01*
X181836904Y-109770057D02*
X181884523Y-109865295D01*
X181884523Y-109865295D02*
X181884523Y-109960533D01*
X181884523Y-109960533D02*
X181836904Y-110103390D01*
X181836904Y-110103390D02*
X181265476Y-110674819D01*
X181265476Y-110674819D02*
X181884523Y-110674819D01*
X182741666Y-110008152D02*
X182741666Y-110674819D01*
X182503571Y-109627200D02*
X182265476Y-110341485D01*
X182265476Y-110341485D02*
X182884523Y-110341485D01*
X208758333Y-124729580D02*
X208710714Y-124777200D01*
X208710714Y-124777200D02*
X208567857Y-124824819D01*
X208567857Y-124824819D02*
X208472619Y-124824819D01*
X208472619Y-124824819D02*
X208329762Y-124777200D01*
X208329762Y-124777200D02*
X208234524Y-124681961D01*
X208234524Y-124681961D02*
X208186905Y-124586723D01*
X208186905Y-124586723D02*
X208139286Y-124396247D01*
X208139286Y-124396247D02*
X208139286Y-124253390D01*
X208139286Y-124253390D02*
X208186905Y-124062914D01*
X208186905Y-124062914D02*
X208234524Y-123967676D01*
X208234524Y-123967676D02*
X208329762Y-123872438D01*
X208329762Y-123872438D02*
X208472619Y-123824819D01*
X208472619Y-123824819D02*
X208567857Y-123824819D01*
X208567857Y-123824819D02*
X208710714Y-123872438D01*
X208710714Y-123872438D02*
X208758333Y-123920057D01*
X209615476Y-123824819D02*
X209425000Y-123824819D01*
X209425000Y-123824819D02*
X209329762Y-123872438D01*
X209329762Y-123872438D02*
X209282143Y-123920057D01*
X209282143Y-123920057D02*
X209186905Y-124062914D01*
X209186905Y-124062914D02*
X209139286Y-124253390D01*
X209139286Y-124253390D02*
X209139286Y-124634342D01*
X209139286Y-124634342D02*
X209186905Y-124729580D01*
X209186905Y-124729580D02*
X209234524Y-124777200D01*
X209234524Y-124777200D02*
X209329762Y-124824819D01*
X209329762Y-124824819D02*
X209520238Y-124824819D01*
X209520238Y-124824819D02*
X209615476Y-124777200D01*
X209615476Y-124777200D02*
X209663095Y-124729580D01*
X209663095Y-124729580D02*
X209710714Y-124634342D01*
X209710714Y-124634342D02*
X209710714Y-124396247D01*
X209710714Y-124396247D02*
X209663095Y-124301009D01*
X209663095Y-124301009D02*
X209615476Y-124253390D01*
X209615476Y-124253390D02*
X209520238Y-124205771D01*
X209520238Y-124205771D02*
X209329762Y-124205771D01*
X209329762Y-124205771D02*
X209234524Y-124253390D01*
X209234524Y-124253390D02*
X209186905Y-124301009D01*
X209186905Y-124301009D02*
X209139286Y-124396247D01*
X196768533Y-76299419D02*
X196292343Y-76299419D01*
X196292343Y-76299419D02*
X196292343Y-75299419D01*
X197530438Y-75632752D02*
X197530438Y-76299419D01*
X197292343Y-75251800D02*
X197054248Y-75966085D01*
X197054248Y-75966085D02*
X197673295Y-75966085D01*
X204284819Y-132024166D02*
X203808628Y-132357499D01*
X204284819Y-132595594D02*
X203284819Y-132595594D01*
X203284819Y-132595594D02*
X203284819Y-132214642D01*
X203284819Y-132214642D02*
X203332438Y-132119404D01*
X203332438Y-132119404D02*
X203380057Y-132071785D01*
X203380057Y-132071785D02*
X203475295Y-132024166D01*
X203475295Y-132024166D02*
X203618152Y-132024166D01*
X203618152Y-132024166D02*
X203713390Y-132071785D01*
X203713390Y-132071785D02*
X203761009Y-132119404D01*
X203761009Y-132119404D02*
X203808628Y-132214642D01*
X203808628Y-132214642D02*
X203808628Y-132595594D01*
X203284819Y-131167023D02*
X203284819Y-131357499D01*
X203284819Y-131357499D02*
X203332438Y-131452737D01*
X203332438Y-131452737D02*
X203380057Y-131500356D01*
X203380057Y-131500356D02*
X203522914Y-131595594D01*
X203522914Y-131595594D02*
X203713390Y-131643213D01*
X203713390Y-131643213D02*
X204094342Y-131643213D01*
X204094342Y-131643213D02*
X204189580Y-131595594D01*
X204189580Y-131595594D02*
X204237200Y-131547975D01*
X204237200Y-131547975D02*
X204284819Y-131452737D01*
X204284819Y-131452737D02*
X204284819Y-131262261D01*
X204284819Y-131262261D02*
X204237200Y-131167023D01*
X204237200Y-131167023D02*
X204189580Y-131119404D01*
X204189580Y-131119404D02*
X204094342Y-131071785D01*
X204094342Y-131071785D02*
X203856247Y-131071785D01*
X203856247Y-131071785D02*
X203761009Y-131119404D01*
X203761009Y-131119404D02*
X203713390Y-131167023D01*
X203713390Y-131167023D02*
X203665771Y-131262261D01*
X203665771Y-131262261D02*
X203665771Y-131452737D01*
X203665771Y-131452737D02*
X203713390Y-131547975D01*
X203713390Y-131547975D02*
X203761009Y-131595594D01*
X203761009Y-131595594D02*
X203856247Y-131643213D01*
X213629819Y-55062857D02*
X213153628Y-55396190D01*
X213629819Y-55634285D02*
X212629819Y-55634285D01*
X212629819Y-55634285D02*
X212629819Y-55253333D01*
X212629819Y-55253333D02*
X212677438Y-55158095D01*
X212677438Y-55158095D02*
X212725057Y-55110476D01*
X212725057Y-55110476D02*
X212820295Y-55062857D01*
X212820295Y-55062857D02*
X212963152Y-55062857D01*
X212963152Y-55062857D02*
X213058390Y-55110476D01*
X213058390Y-55110476D02*
X213106009Y-55158095D01*
X213106009Y-55158095D02*
X213153628Y-55253333D01*
X213153628Y-55253333D02*
X213153628Y-55634285D01*
X212725057Y-54681904D02*
X212677438Y-54634285D01*
X212677438Y-54634285D02*
X212629819Y-54539047D01*
X212629819Y-54539047D02*
X212629819Y-54300952D01*
X212629819Y-54300952D02*
X212677438Y-54205714D01*
X212677438Y-54205714D02*
X212725057Y-54158095D01*
X212725057Y-54158095D02*
X212820295Y-54110476D01*
X212820295Y-54110476D02*
X212915533Y-54110476D01*
X212915533Y-54110476D02*
X213058390Y-54158095D01*
X213058390Y-54158095D02*
X213629819Y-54729523D01*
X213629819Y-54729523D02*
X213629819Y-54110476D01*
X212963152Y-53253333D02*
X213629819Y-53253333D01*
X212582200Y-53491428D02*
X213296485Y-53729523D01*
X213296485Y-53729523D02*
X213296485Y-53110476D01*
X161059142Y-94712980D02*
X161011523Y-94760600D01*
X161011523Y-94760600D02*
X160868666Y-94808219D01*
X160868666Y-94808219D02*
X160773428Y-94808219D01*
X160773428Y-94808219D02*
X160630571Y-94760600D01*
X160630571Y-94760600D02*
X160535333Y-94665361D01*
X160535333Y-94665361D02*
X160487714Y-94570123D01*
X160487714Y-94570123D02*
X160440095Y-94379647D01*
X160440095Y-94379647D02*
X160440095Y-94236790D01*
X160440095Y-94236790D02*
X160487714Y-94046314D01*
X160487714Y-94046314D02*
X160535333Y-93951076D01*
X160535333Y-93951076D02*
X160630571Y-93855838D01*
X160630571Y-93855838D02*
X160773428Y-93808219D01*
X160773428Y-93808219D02*
X160868666Y-93808219D01*
X160868666Y-93808219D02*
X161011523Y-93855838D01*
X161011523Y-93855838D02*
X161059142Y-93903457D01*
X162011523Y-94808219D02*
X161440095Y-94808219D01*
X161725809Y-94808219D02*
X161725809Y-93808219D01*
X161725809Y-93808219D02*
X161630571Y-93951076D01*
X161630571Y-93951076D02*
X161535333Y-94046314D01*
X161535333Y-94046314D02*
X161440095Y-94093933D01*
X162487714Y-94808219D02*
X162678190Y-94808219D01*
X162678190Y-94808219D02*
X162773428Y-94760600D01*
X162773428Y-94760600D02*
X162821047Y-94712980D01*
X162821047Y-94712980D02*
X162916285Y-94570123D01*
X162916285Y-94570123D02*
X162963904Y-94379647D01*
X162963904Y-94379647D02*
X162963904Y-93998695D01*
X162963904Y-93998695D02*
X162916285Y-93903457D01*
X162916285Y-93903457D02*
X162868666Y-93855838D01*
X162868666Y-93855838D02*
X162773428Y-93808219D01*
X162773428Y-93808219D02*
X162582952Y-93808219D01*
X162582952Y-93808219D02*
X162487714Y-93855838D01*
X162487714Y-93855838D02*
X162440095Y-93903457D01*
X162440095Y-93903457D02*
X162392476Y-93998695D01*
X162392476Y-93998695D02*
X162392476Y-94236790D01*
X162392476Y-94236790D02*
X162440095Y-94332028D01*
X162440095Y-94332028D02*
X162487714Y-94379647D01*
X162487714Y-94379647D02*
X162582952Y-94427266D01*
X162582952Y-94427266D02*
X162773428Y-94427266D01*
X162773428Y-94427266D02*
X162868666Y-94379647D01*
X162868666Y-94379647D02*
X162916285Y-94332028D01*
X162916285Y-94332028D02*
X162963904Y-94236790D01*
X178564294Y-129961820D02*
X178564294Y-130771343D01*
X178564294Y-130771343D02*
X178611913Y-130866581D01*
X178611913Y-130866581D02*
X178659532Y-130914201D01*
X178659532Y-130914201D02*
X178754770Y-130961820D01*
X178754770Y-130961820D02*
X178945246Y-130961820D01*
X178945246Y-130961820D02*
X179040484Y-130914201D01*
X179040484Y-130914201D02*
X179088103Y-130866581D01*
X179088103Y-130866581D02*
X179135722Y-130771343D01*
X179135722Y-130771343D02*
X179135722Y-129961820D01*
X180040484Y-129961820D02*
X179850008Y-129961820D01*
X179850008Y-129961820D02*
X179754770Y-130009439D01*
X179754770Y-130009439D02*
X179707151Y-130057058D01*
X179707151Y-130057058D02*
X179611913Y-130199915D01*
X179611913Y-130199915D02*
X179564294Y-130390391D01*
X179564294Y-130390391D02*
X179564294Y-130771343D01*
X179564294Y-130771343D02*
X179611913Y-130866581D01*
X179611913Y-130866581D02*
X179659532Y-130914201D01*
X179659532Y-130914201D02*
X179754770Y-130961820D01*
X179754770Y-130961820D02*
X179945246Y-130961820D01*
X179945246Y-130961820D02*
X180040484Y-130914201D01*
X180040484Y-130914201D02*
X180088103Y-130866581D01*
X180088103Y-130866581D02*
X180135722Y-130771343D01*
X180135722Y-130771343D02*
X180135722Y-130533248D01*
X180135722Y-130533248D02*
X180088103Y-130438010D01*
X180088103Y-130438010D02*
X180040484Y-130390391D01*
X180040484Y-130390391D02*
X179945246Y-130342772D01*
X179945246Y-130342772D02*
X179754770Y-130342772D01*
X179754770Y-130342772D02*
X179659532Y-130390391D01*
X179659532Y-130390391D02*
X179611913Y-130438010D01*
X179611913Y-130438010D02*
X179564294Y-130533248D01*
X176811399Y-128711820D02*
X176811399Y-128949915D01*
X176573304Y-128854677D02*
X176811399Y-128949915D01*
X176811399Y-128949915D02*
X177049494Y-128854677D01*
X176668542Y-129140391D02*
X176811399Y-128949915D01*
X176811399Y-128949915D02*
X176954256Y-129140391D01*
X176811399Y-128711820D02*
X176811399Y-128949915D01*
X176573304Y-128854677D02*
X176811399Y-128949915D01*
X176811399Y-128949915D02*
X177049494Y-128854677D01*
X176668542Y-129140391D02*
X176811399Y-128949915D01*
X176811399Y-128949915D02*
X176954256Y-129140391D01*
X178432742Y-94636780D02*
X178385123Y-94684400D01*
X178385123Y-94684400D02*
X178242266Y-94732019D01*
X178242266Y-94732019D02*
X178147028Y-94732019D01*
X178147028Y-94732019D02*
X178004171Y-94684400D01*
X178004171Y-94684400D02*
X177908933Y-94589161D01*
X177908933Y-94589161D02*
X177861314Y-94493923D01*
X177861314Y-94493923D02*
X177813695Y-94303447D01*
X177813695Y-94303447D02*
X177813695Y-94160590D01*
X177813695Y-94160590D02*
X177861314Y-93970114D01*
X177861314Y-93970114D02*
X177908933Y-93874876D01*
X177908933Y-93874876D02*
X178004171Y-93779638D01*
X178004171Y-93779638D02*
X178147028Y-93732019D01*
X178147028Y-93732019D02*
X178242266Y-93732019D01*
X178242266Y-93732019D02*
X178385123Y-93779638D01*
X178385123Y-93779638D02*
X178432742Y-93827257D01*
X179385123Y-94732019D02*
X178813695Y-94732019D01*
X179099409Y-94732019D02*
X179099409Y-93732019D01*
X179099409Y-93732019D02*
X179004171Y-93874876D01*
X179004171Y-93874876D02*
X178908933Y-93970114D01*
X178908933Y-93970114D02*
X178813695Y-94017733D01*
X179956552Y-94160590D02*
X179861314Y-94112971D01*
X179861314Y-94112971D02*
X179813695Y-94065352D01*
X179813695Y-94065352D02*
X179766076Y-93970114D01*
X179766076Y-93970114D02*
X179766076Y-93922495D01*
X179766076Y-93922495D02*
X179813695Y-93827257D01*
X179813695Y-93827257D02*
X179861314Y-93779638D01*
X179861314Y-93779638D02*
X179956552Y-93732019D01*
X179956552Y-93732019D02*
X180147028Y-93732019D01*
X180147028Y-93732019D02*
X180242266Y-93779638D01*
X180242266Y-93779638D02*
X180289885Y-93827257D01*
X180289885Y-93827257D02*
X180337504Y-93922495D01*
X180337504Y-93922495D02*
X180337504Y-93970114D01*
X180337504Y-93970114D02*
X180289885Y-94065352D01*
X180289885Y-94065352D02*
X180242266Y-94112971D01*
X180242266Y-94112971D02*
X180147028Y-94160590D01*
X180147028Y-94160590D02*
X179956552Y-94160590D01*
X179956552Y-94160590D02*
X179861314Y-94208209D01*
X179861314Y-94208209D02*
X179813695Y-94255828D01*
X179813695Y-94255828D02*
X179766076Y-94351066D01*
X179766076Y-94351066D02*
X179766076Y-94541542D01*
X179766076Y-94541542D02*
X179813695Y-94636780D01*
X179813695Y-94636780D02*
X179861314Y-94684400D01*
X179861314Y-94684400D02*
X179956552Y-94732019D01*
X179956552Y-94732019D02*
X180147028Y-94732019D01*
X180147028Y-94732019D02*
X180242266Y-94684400D01*
X180242266Y-94684400D02*
X180289885Y-94636780D01*
X180289885Y-94636780D02*
X180337504Y-94541542D01*
X180337504Y-94541542D02*
X180337504Y-94351066D01*
X180337504Y-94351066D02*
X180289885Y-94255828D01*
X180289885Y-94255828D02*
X180242266Y-94208209D01*
X180242266Y-94208209D02*
X180147028Y-94160590D01*
X181158333Y-107674819D02*
X180825000Y-107198628D01*
X180586905Y-107674819D02*
X180586905Y-106674819D01*
X180586905Y-106674819D02*
X180967857Y-106674819D01*
X180967857Y-106674819D02*
X181063095Y-106722438D01*
X181063095Y-106722438D02*
X181110714Y-106770057D01*
X181110714Y-106770057D02*
X181158333Y-106865295D01*
X181158333Y-106865295D02*
X181158333Y-107008152D01*
X181158333Y-107008152D02*
X181110714Y-107103390D01*
X181110714Y-107103390D02*
X181063095Y-107151009D01*
X181063095Y-107151009D02*
X180967857Y-107198628D01*
X180967857Y-107198628D02*
X180586905Y-107198628D01*
X181729762Y-107103390D02*
X181634524Y-107055771D01*
X181634524Y-107055771D02*
X181586905Y-107008152D01*
X181586905Y-107008152D02*
X181539286Y-106912914D01*
X181539286Y-106912914D02*
X181539286Y-106865295D01*
X181539286Y-106865295D02*
X181586905Y-106770057D01*
X181586905Y-106770057D02*
X181634524Y-106722438D01*
X181634524Y-106722438D02*
X181729762Y-106674819D01*
X181729762Y-106674819D02*
X181920238Y-106674819D01*
X181920238Y-106674819D02*
X182015476Y-106722438D01*
X182015476Y-106722438D02*
X182063095Y-106770057D01*
X182063095Y-106770057D02*
X182110714Y-106865295D01*
X182110714Y-106865295D02*
X182110714Y-106912914D01*
X182110714Y-106912914D02*
X182063095Y-107008152D01*
X182063095Y-107008152D02*
X182015476Y-107055771D01*
X182015476Y-107055771D02*
X181920238Y-107103390D01*
X181920238Y-107103390D02*
X181729762Y-107103390D01*
X181729762Y-107103390D02*
X181634524Y-107151009D01*
X181634524Y-107151009D02*
X181586905Y-107198628D01*
X181586905Y-107198628D02*
X181539286Y-107293866D01*
X181539286Y-107293866D02*
X181539286Y-107484342D01*
X181539286Y-107484342D02*
X181586905Y-107579580D01*
X181586905Y-107579580D02*
X181634524Y-107627200D01*
X181634524Y-107627200D02*
X181729762Y-107674819D01*
X181729762Y-107674819D02*
X181920238Y-107674819D01*
X181920238Y-107674819D02*
X182015476Y-107627200D01*
X182015476Y-107627200D02*
X182063095Y-107579580D01*
X182063095Y-107579580D02*
X182110714Y-107484342D01*
X182110714Y-107484342D02*
X182110714Y-107293866D01*
X182110714Y-107293866D02*
X182063095Y-107198628D01*
X182063095Y-107198628D02*
X182015476Y-107151009D01*
X182015476Y-107151009D02*
X181920238Y-107103390D01*
X208658333Y-104079580D02*
X208610714Y-104127200D01*
X208610714Y-104127200D02*
X208467857Y-104174819D01*
X208467857Y-104174819D02*
X208372619Y-104174819D01*
X208372619Y-104174819D02*
X208229762Y-104127200D01*
X208229762Y-104127200D02*
X208134524Y-104031961D01*
X208134524Y-104031961D02*
X208086905Y-103936723D01*
X208086905Y-103936723D02*
X208039286Y-103746247D01*
X208039286Y-103746247D02*
X208039286Y-103603390D01*
X208039286Y-103603390D02*
X208086905Y-103412914D01*
X208086905Y-103412914D02*
X208134524Y-103317676D01*
X208134524Y-103317676D02*
X208229762Y-103222438D01*
X208229762Y-103222438D02*
X208372619Y-103174819D01*
X208372619Y-103174819D02*
X208467857Y-103174819D01*
X208467857Y-103174819D02*
X208610714Y-103222438D01*
X208610714Y-103222438D02*
X208658333Y-103270057D01*
X209563095Y-103174819D02*
X209086905Y-103174819D01*
X209086905Y-103174819D02*
X209039286Y-103651009D01*
X209039286Y-103651009D02*
X209086905Y-103603390D01*
X209086905Y-103603390D02*
X209182143Y-103555771D01*
X209182143Y-103555771D02*
X209420238Y-103555771D01*
X209420238Y-103555771D02*
X209515476Y-103603390D01*
X209515476Y-103603390D02*
X209563095Y-103651009D01*
X209563095Y-103651009D02*
X209610714Y-103746247D01*
X209610714Y-103746247D02*
X209610714Y-103984342D01*
X209610714Y-103984342D02*
X209563095Y-104079580D01*
X209563095Y-104079580D02*
X209515476Y-104127200D01*
X209515476Y-104127200D02*
X209420238Y-104174819D01*
X209420238Y-104174819D02*
X209182143Y-104174819D01*
X209182143Y-104174819D02*
X209086905Y-104127200D01*
X209086905Y-104127200D02*
X209039286Y-104079580D01*
X194015333Y-98338219D02*
X193539143Y-98338219D01*
X193539143Y-98338219D02*
X193539143Y-97338219D01*
X194824857Y-97338219D02*
X194348667Y-97338219D01*
X194348667Y-97338219D02*
X194301048Y-97814409D01*
X194301048Y-97814409D02*
X194348667Y-97766790D01*
X194348667Y-97766790D02*
X194443905Y-97719171D01*
X194443905Y-97719171D02*
X194682000Y-97719171D01*
X194682000Y-97719171D02*
X194777238Y-97766790D01*
X194777238Y-97766790D02*
X194824857Y-97814409D01*
X194824857Y-97814409D02*
X194872476Y-97909647D01*
X194872476Y-97909647D02*
X194872476Y-98147742D01*
X194872476Y-98147742D02*
X194824857Y-98242980D01*
X194824857Y-98242980D02*
X194777238Y-98290600D01*
X194777238Y-98290600D02*
X194682000Y-98338219D01*
X194682000Y-98338219D02*
X194443905Y-98338219D01*
X194443905Y-98338219D02*
X194348667Y-98290600D01*
X194348667Y-98290600D02*
X194301048Y-98242980D01*
X174761580Y-89433657D02*
X174809200Y-89481276D01*
X174809200Y-89481276D02*
X174856819Y-89624133D01*
X174856819Y-89624133D02*
X174856819Y-89719371D01*
X174856819Y-89719371D02*
X174809200Y-89862228D01*
X174809200Y-89862228D02*
X174713961Y-89957466D01*
X174713961Y-89957466D02*
X174618723Y-90005085D01*
X174618723Y-90005085D02*
X174428247Y-90052704D01*
X174428247Y-90052704D02*
X174285390Y-90052704D01*
X174285390Y-90052704D02*
X174094914Y-90005085D01*
X174094914Y-90005085D02*
X173999676Y-89957466D01*
X173999676Y-89957466D02*
X173904438Y-89862228D01*
X173904438Y-89862228D02*
X173856819Y-89719371D01*
X173856819Y-89719371D02*
X173856819Y-89624133D01*
X173856819Y-89624133D02*
X173904438Y-89481276D01*
X173904438Y-89481276D02*
X173952057Y-89433657D01*
X173952057Y-89052704D02*
X173904438Y-89005085D01*
X173904438Y-89005085D02*
X173856819Y-88909847D01*
X173856819Y-88909847D02*
X173856819Y-88671752D01*
X173856819Y-88671752D02*
X173904438Y-88576514D01*
X173904438Y-88576514D02*
X173952057Y-88528895D01*
X173952057Y-88528895D02*
X174047295Y-88481276D01*
X174047295Y-88481276D02*
X174142533Y-88481276D01*
X174142533Y-88481276D02*
X174285390Y-88528895D01*
X174285390Y-88528895D02*
X174856819Y-89100323D01*
X174856819Y-89100323D02*
X174856819Y-88481276D01*
X173856819Y-88147942D02*
X173856819Y-87528895D01*
X173856819Y-87528895D02*
X174237771Y-87862228D01*
X174237771Y-87862228D02*
X174237771Y-87719371D01*
X174237771Y-87719371D02*
X174285390Y-87624133D01*
X174285390Y-87624133D02*
X174333009Y-87576514D01*
X174333009Y-87576514D02*
X174428247Y-87528895D01*
X174428247Y-87528895D02*
X174666342Y-87528895D01*
X174666342Y-87528895D02*
X174761580Y-87576514D01*
X174761580Y-87576514D02*
X174809200Y-87624133D01*
X174809200Y-87624133D02*
X174856819Y-87719371D01*
X174856819Y-87719371D02*
X174856819Y-88005085D01*
X174856819Y-88005085D02*
X174809200Y-88100323D01*
X174809200Y-88100323D02*
X174761580Y-88147942D01*
X194058333Y-105874819D02*
X193582143Y-105874819D01*
X193582143Y-105874819D02*
X193582143Y-104874819D01*
X194820238Y-104874819D02*
X194629762Y-104874819D01*
X194629762Y-104874819D02*
X194534524Y-104922438D01*
X194534524Y-104922438D02*
X194486905Y-104970057D01*
X194486905Y-104970057D02*
X194391667Y-105112914D01*
X194391667Y-105112914D02*
X194344048Y-105303390D01*
X194344048Y-105303390D02*
X194344048Y-105684342D01*
X194344048Y-105684342D02*
X194391667Y-105779580D01*
X194391667Y-105779580D02*
X194439286Y-105827200D01*
X194439286Y-105827200D02*
X194534524Y-105874819D01*
X194534524Y-105874819D02*
X194725000Y-105874819D01*
X194725000Y-105874819D02*
X194820238Y-105827200D01*
X194820238Y-105827200D02*
X194867857Y-105779580D01*
X194867857Y-105779580D02*
X194915476Y-105684342D01*
X194915476Y-105684342D02*
X194915476Y-105446247D01*
X194915476Y-105446247D02*
X194867857Y-105351009D01*
X194867857Y-105351009D02*
X194820238Y-105303390D01*
X194820238Y-105303390D02*
X194725000Y-105255771D01*
X194725000Y-105255771D02*
X194534524Y-105255771D01*
X194534524Y-105255771D02*
X194439286Y-105303390D01*
X194439286Y-105303390D02*
X194391667Y-105351009D01*
X194391667Y-105351009D02*
X194344048Y-105446247D01*
X170008719Y-96131304D02*
X170818242Y-96131304D01*
X170818242Y-96131304D02*
X170913480Y-96083685D01*
X170913480Y-96083685D02*
X170961100Y-96036066D01*
X170961100Y-96036066D02*
X171008719Y-95940828D01*
X171008719Y-95940828D02*
X171008719Y-95750352D01*
X171008719Y-95750352D02*
X170961100Y-95655114D01*
X170961100Y-95655114D02*
X170913480Y-95607495D01*
X170913480Y-95607495D02*
X170818242Y-95559876D01*
X170818242Y-95559876D02*
X170008719Y-95559876D01*
X170008719Y-95178923D02*
X170008719Y-94512257D01*
X170008719Y-94512257D02*
X171008719Y-94940828D01*
X169102719Y-97312499D02*
X169340814Y-97312499D01*
X169245576Y-97550594D02*
X169340814Y-97312499D01*
X169340814Y-97312499D02*
X169245576Y-97074404D01*
X169531290Y-97455356D02*
X169340814Y-97312499D01*
X169340814Y-97312499D02*
X169531290Y-97169642D01*
X169102719Y-97312499D02*
X169340814Y-97312499D01*
X169245576Y-97550594D02*
X169340814Y-97312499D01*
X169340814Y-97312499D02*
X169245576Y-97074404D01*
X169531290Y-97455356D02*
X169340814Y-97312499D01*
X169340814Y-97312499D02*
X169531290Y-97169642D01*
X220296666Y-133754819D02*
X220296666Y-134469104D01*
X220296666Y-134469104D02*
X220249047Y-134611961D01*
X220249047Y-134611961D02*
X220153809Y-134707200D01*
X220153809Y-134707200D02*
X220010952Y-134754819D01*
X220010952Y-134754819D02*
X219915714Y-134754819D01*
X221296666Y-134754819D02*
X220725238Y-134754819D01*
X221010952Y-134754819D02*
X221010952Y-133754819D01*
X221010952Y-133754819D02*
X220915714Y-133897676D01*
X220915714Y-133897676D02*
X220820476Y-133992914D01*
X220820476Y-133992914D02*
X220725238Y-134040533D01*
X191144942Y-110403819D02*
X190811609Y-109927628D01*
X190573514Y-110403819D02*
X190573514Y-109403819D01*
X190573514Y-109403819D02*
X190954466Y-109403819D01*
X190954466Y-109403819D02*
X191049704Y-109451438D01*
X191049704Y-109451438D02*
X191097323Y-109499057D01*
X191097323Y-109499057D02*
X191144942Y-109594295D01*
X191144942Y-109594295D02*
X191144942Y-109737152D01*
X191144942Y-109737152D02*
X191097323Y-109832390D01*
X191097323Y-109832390D02*
X191049704Y-109880009D01*
X191049704Y-109880009D02*
X190954466Y-109927628D01*
X190954466Y-109927628D02*
X190573514Y-109927628D01*
X192097323Y-110403819D02*
X191525895Y-110403819D01*
X191811609Y-110403819D02*
X191811609Y-109403819D01*
X191811609Y-109403819D02*
X191716371Y-109546676D01*
X191716371Y-109546676D02*
X191621133Y-109641914D01*
X191621133Y-109641914D02*
X191525895Y-109689533D01*
X192430657Y-109403819D02*
X193049704Y-109403819D01*
X193049704Y-109403819D02*
X192716371Y-109784771D01*
X192716371Y-109784771D02*
X192859228Y-109784771D01*
X192859228Y-109784771D02*
X192954466Y-109832390D01*
X192954466Y-109832390D02*
X193002085Y-109880009D01*
X193002085Y-109880009D02*
X193049704Y-109975247D01*
X193049704Y-109975247D02*
X193049704Y-110213342D01*
X193049704Y-110213342D02*
X193002085Y-110308580D01*
X193002085Y-110308580D02*
X192954466Y-110356200D01*
X192954466Y-110356200D02*
X192859228Y-110403819D01*
X192859228Y-110403819D02*
X192573514Y-110403819D01*
X192573514Y-110403819D02*
X192478276Y-110356200D01*
X192478276Y-110356200D02*
X192430657Y-110308580D01*
X183566666Y-95654819D02*
X183566666Y-96369104D01*
X183566666Y-96369104D02*
X183519047Y-96511961D01*
X183519047Y-96511961D02*
X183423809Y-96607200D01*
X183423809Y-96607200D02*
X183280952Y-96654819D01*
X183280952Y-96654819D02*
X183185714Y-96654819D01*
X184185714Y-96083390D02*
X184090476Y-96035771D01*
X184090476Y-96035771D02*
X184042857Y-95988152D01*
X184042857Y-95988152D02*
X183995238Y-95892914D01*
X183995238Y-95892914D02*
X183995238Y-95845295D01*
X183995238Y-95845295D02*
X184042857Y-95750057D01*
X184042857Y-95750057D02*
X184090476Y-95702438D01*
X184090476Y-95702438D02*
X184185714Y-95654819D01*
X184185714Y-95654819D02*
X184376190Y-95654819D01*
X184376190Y-95654819D02*
X184471428Y-95702438D01*
X184471428Y-95702438D02*
X184519047Y-95750057D01*
X184519047Y-95750057D02*
X184566666Y-95845295D01*
X184566666Y-95845295D02*
X184566666Y-95892914D01*
X184566666Y-95892914D02*
X184519047Y-95988152D01*
X184519047Y-95988152D02*
X184471428Y-96035771D01*
X184471428Y-96035771D02*
X184376190Y-96083390D01*
X184376190Y-96083390D02*
X184185714Y-96083390D01*
X184185714Y-96083390D02*
X184090476Y-96131009D01*
X184090476Y-96131009D02*
X184042857Y-96178628D01*
X184042857Y-96178628D02*
X183995238Y-96273866D01*
X183995238Y-96273866D02*
X183995238Y-96464342D01*
X183995238Y-96464342D02*
X184042857Y-96559580D01*
X184042857Y-96559580D02*
X184090476Y-96607200D01*
X184090476Y-96607200D02*
X184185714Y-96654819D01*
X184185714Y-96654819D02*
X184376190Y-96654819D01*
X184376190Y-96654819D02*
X184471428Y-96607200D01*
X184471428Y-96607200D02*
X184519047Y-96559580D01*
X184519047Y-96559580D02*
X184566666Y-96464342D01*
X184566666Y-96464342D02*
X184566666Y-96273866D01*
X184566666Y-96273866D02*
X184519047Y-96178628D01*
X184519047Y-96178628D02*
X184471428Y-96131009D01*
X184471428Y-96131009D02*
X184376190Y-96083390D01*
X208039819Y-71179523D02*
X208754104Y-71179523D01*
X208754104Y-71179523D02*
X208896961Y-71227142D01*
X208896961Y-71227142D02*
X208992200Y-71322380D01*
X208992200Y-71322380D02*
X209039819Y-71465237D01*
X209039819Y-71465237D02*
X209039819Y-71560475D01*
X209039819Y-70179523D02*
X209039819Y-70750951D01*
X209039819Y-70465237D02*
X208039819Y-70465237D01*
X208039819Y-70465237D02*
X208182676Y-70560475D01*
X208182676Y-70560475D02*
X208277914Y-70655713D01*
X208277914Y-70655713D02*
X208325533Y-70750951D01*
X209039819Y-69227142D02*
X209039819Y-69798570D01*
X209039819Y-69512856D02*
X208039819Y-69512856D01*
X208039819Y-69512856D02*
X208182676Y-69608094D01*
X208182676Y-69608094D02*
X208277914Y-69703332D01*
X208277914Y-69703332D02*
X208325533Y-69798570D01*
X171777942Y-128190180D02*
X171730323Y-128237800D01*
X171730323Y-128237800D02*
X171587466Y-128285419D01*
X171587466Y-128285419D02*
X171492228Y-128285419D01*
X171492228Y-128285419D02*
X171349371Y-128237800D01*
X171349371Y-128237800D02*
X171254133Y-128142561D01*
X171254133Y-128142561D02*
X171206514Y-128047323D01*
X171206514Y-128047323D02*
X171158895Y-127856847D01*
X171158895Y-127856847D02*
X171158895Y-127713990D01*
X171158895Y-127713990D02*
X171206514Y-127523514D01*
X171206514Y-127523514D02*
X171254133Y-127428276D01*
X171254133Y-127428276D02*
X171349371Y-127333038D01*
X171349371Y-127333038D02*
X171492228Y-127285419D01*
X171492228Y-127285419D02*
X171587466Y-127285419D01*
X171587466Y-127285419D02*
X171730323Y-127333038D01*
X171730323Y-127333038D02*
X171777942Y-127380657D01*
X172730323Y-128285419D02*
X172158895Y-128285419D01*
X172444609Y-128285419D02*
X172444609Y-127285419D01*
X172444609Y-127285419D02*
X172349371Y-127428276D01*
X172349371Y-127428276D02*
X172254133Y-127523514D01*
X172254133Y-127523514D02*
X172158895Y-127571133D01*
X173587466Y-127618752D02*
X173587466Y-128285419D01*
X173349371Y-127237800D02*
X173111276Y-127952085D01*
X173111276Y-127952085D02*
X173730323Y-127952085D01*
X181032142Y-112174819D02*
X180698809Y-111698628D01*
X180460714Y-112174819D02*
X180460714Y-111174819D01*
X180460714Y-111174819D02*
X180841666Y-111174819D01*
X180841666Y-111174819D02*
X180936904Y-111222438D01*
X180936904Y-111222438D02*
X180984523Y-111270057D01*
X180984523Y-111270057D02*
X181032142Y-111365295D01*
X181032142Y-111365295D02*
X181032142Y-111508152D01*
X181032142Y-111508152D02*
X180984523Y-111603390D01*
X180984523Y-111603390D02*
X180936904Y-111651009D01*
X180936904Y-111651009D02*
X180841666Y-111698628D01*
X180841666Y-111698628D02*
X180460714Y-111698628D01*
X181984523Y-112174819D02*
X181413095Y-112174819D01*
X181698809Y-112174819D02*
X181698809Y-111174819D01*
X181698809Y-111174819D02*
X181603571Y-111317676D01*
X181603571Y-111317676D02*
X181508333Y-111412914D01*
X181508333Y-111412914D02*
X181413095Y-111460533D01*
X182841666Y-111174819D02*
X182651190Y-111174819D01*
X182651190Y-111174819D02*
X182555952Y-111222438D01*
X182555952Y-111222438D02*
X182508333Y-111270057D01*
X182508333Y-111270057D02*
X182413095Y-111412914D01*
X182413095Y-111412914D02*
X182365476Y-111603390D01*
X182365476Y-111603390D02*
X182365476Y-111984342D01*
X182365476Y-111984342D02*
X182413095Y-112079580D01*
X182413095Y-112079580D02*
X182460714Y-112127200D01*
X182460714Y-112127200D02*
X182555952Y-112174819D01*
X182555952Y-112174819D02*
X182746428Y-112174819D01*
X182746428Y-112174819D02*
X182841666Y-112127200D01*
X182841666Y-112127200D02*
X182889285Y-112079580D01*
X182889285Y-112079580D02*
X182936904Y-111984342D01*
X182936904Y-111984342D02*
X182936904Y-111746247D01*
X182936904Y-111746247D02*
X182889285Y-111651009D01*
X182889285Y-111651009D02*
X182841666Y-111603390D01*
X182841666Y-111603390D02*
X182746428Y-111555771D01*
X182746428Y-111555771D02*
X182555952Y-111555771D01*
X182555952Y-111555771D02*
X182460714Y-111603390D01*
X182460714Y-111603390D02*
X182413095Y-111651009D01*
X182413095Y-111651009D02*
X182365476Y-111746247D01*
X203258333Y-97924819D02*
X202782143Y-97924819D01*
X202782143Y-97924819D02*
X202782143Y-96924819D01*
X203544048Y-97020057D02*
X203591667Y-96972438D01*
X203591667Y-96972438D02*
X203686905Y-96924819D01*
X203686905Y-96924819D02*
X203925000Y-96924819D01*
X203925000Y-96924819D02*
X204020238Y-96972438D01*
X204020238Y-96972438D02*
X204067857Y-97020057D01*
X204067857Y-97020057D02*
X204115476Y-97115295D01*
X204115476Y-97115295D02*
X204115476Y-97210533D01*
X204115476Y-97210533D02*
X204067857Y-97353390D01*
X204067857Y-97353390D02*
X203496429Y-97924819D01*
X203496429Y-97924819D02*
X204115476Y-97924819D01*
X207236905Y-119874819D02*
X207236905Y-118874819D01*
X207236905Y-118874819D02*
X207475000Y-118874819D01*
X207475000Y-118874819D02*
X207617857Y-118922438D01*
X207617857Y-118922438D02*
X207713095Y-119017676D01*
X207713095Y-119017676D02*
X207760714Y-119112914D01*
X207760714Y-119112914D02*
X207808333Y-119303390D01*
X207808333Y-119303390D02*
X207808333Y-119446247D01*
X207808333Y-119446247D02*
X207760714Y-119636723D01*
X207760714Y-119636723D02*
X207713095Y-119731961D01*
X207713095Y-119731961D02*
X207617857Y-119827200D01*
X207617857Y-119827200D02*
X207475000Y-119874819D01*
X207475000Y-119874819D02*
X207236905Y-119874819D01*
X208141667Y-118874819D02*
X208760714Y-118874819D01*
X208760714Y-118874819D02*
X208427381Y-119255771D01*
X208427381Y-119255771D02*
X208570238Y-119255771D01*
X208570238Y-119255771D02*
X208665476Y-119303390D01*
X208665476Y-119303390D02*
X208713095Y-119351009D01*
X208713095Y-119351009D02*
X208760714Y-119446247D01*
X208760714Y-119446247D02*
X208760714Y-119684342D01*
X208760714Y-119684342D02*
X208713095Y-119779580D01*
X208713095Y-119779580D02*
X208665476Y-119827200D01*
X208665476Y-119827200D02*
X208570238Y-119874819D01*
X208570238Y-119874819D02*
X208284524Y-119874819D01*
X208284524Y-119874819D02*
X208189286Y-119827200D01*
X208189286Y-119827200D02*
X208141667Y-119779580D01*
X199508333Y-91224819D02*
X199175000Y-90748628D01*
X198936905Y-91224819D02*
X198936905Y-90224819D01*
X198936905Y-90224819D02*
X199317857Y-90224819D01*
X199317857Y-90224819D02*
X199413095Y-90272438D01*
X199413095Y-90272438D02*
X199460714Y-90320057D01*
X199460714Y-90320057D02*
X199508333Y-90415295D01*
X199508333Y-90415295D02*
X199508333Y-90558152D01*
X199508333Y-90558152D02*
X199460714Y-90653390D01*
X199460714Y-90653390D02*
X199413095Y-90701009D01*
X199413095Y-90701009D02*
X199317857Y-90748628D01*
X199317857Y-90748628D02*
X198936905Y-90748628D01*
X200460714Y-91224819D02*
X199889286Y-91224819D01*
X200175000Y-91224819D02*
X200175000Y-90224819D01*
X200175000Y-90224819D02*
X200079762Y-90367676D01*
X200079762Y-90367676D02*
X199984524Y-90462914D01*
X199984524Y-90462914D02*
X199889286Y-90510533D01*
X196454580Y-111736666D02*
X196502200Y-111784285D01*
X196502200Y-111784285D02*
X196549819Y-111927142D01*
X196549819Y-111927142D02*
X196549819Y-112022380D01*
X196549819Y-112022380D02*
X196502200Y-112165237D01*
X196502200Y-112165237D02*
X196406961Y-112260475D01*
X196406961Y-112260475D02*
X196311723Y-112308094D01*
X196311723Y-112308094D02*
X196121247Y-112355713D01*
X196121247Y-112355713D02*
X195978390Y-112355713D01*
X195978390Y-112355713D02*
X195787914Y-112308094D01*
X195787914Y-112308094D02*
X195692676Y-112260475D01*
X195692676Y-112260475D02*
X195597438Y-112165237D01*
X195597438Y-112165237D02*
X195549819Y-112022380D01*
X195549819Y-112022380D02*
X195549819Y-111927142D01*
X195549819Y-111927142D02*
X195597438Y-111784285D01*
X195597438Y-111784285D02*
X195645057Y-111736666D01*
X195978390Y-111165237D02*
X195930771Y-111260475D01*
X195930771Y-111260475D02*
X195883152Y-111308094D01*
X195883152Y-111308094D02*
X195787914Y-111355713D01*
X195787914Y-111355713D02*
X195740295Y-111355713D01*
X195740295Y-111355713D02*
X195645057Y-111308094D01*
X195645057Y-111308094D02*
X195597438Y-111260475D01*
X195597438Y-111260475D02*
X195549819Y-111165237D01*
X195549819Y-111165237D02*
X195549819Y-110974761D01*
X195549819Y-110974761D02*
X195597438Y-110879523D01*
X195597438Y-110879523D02*
X195645057Y-110831904D01*
X195645057Y-110831904D02*
X195740295Y-110784285D01*
X195740295Y-110784285D02*
X195787914Y-110784285D01*
X195787914Y-110784285D02*
X195883152Y-110831904D01*
X195883152Y-110831904D02*
X195930771Y-110879523D01*
X195930771Y-110879523D02*
X195978390Y-110974761D01*
X195978390Y-110974761D02*
X195978390Y-111165237D01*
X195978390Y-111165237D02*
X196026009Y-111260475D01*
X196026009Y-111260475D02*
X196073628Y-111308094D01*
X196073628Y-111308094D02*
X196168866Y-111355713D01*
X196168866Y-111355713D02*
X196359342Y-111355713D01*
X196359342Y-111355713D02*
X196454580Y-111308094D01*
X196454580Y-111308094D02*
X196502200Y-111260475D01*
X196502200Y-111260475D02*
X196549819Y-111165237D01*
X196549819Y-111165237D02*
X196549819Y-110974761D01*
X196549819Y-110974761D02*
X196502200Y-110879523D01*
X196502200Y-110879523D02*
X196454580Y-110831904D01*
X196454580Y-110831904D02*
X196359342Y-110784285D01*
X196359342Y-110784285D02*
X196168866Y-110784285D01*
X196168866Y-110784285D02*
X196073628Y-110831904D01*
X196073628Y-110831904D02*
X196026009Y-110879523D01*
X196026009Y-110879523D02*
X195978390Y-110974761D01*
X212467516Y-113766243D02*
X212429359Y-113842556D01*
X212429359Y-113842556D02*
X212353046Y-113918870D01*
X212353046Y-113918870D02*
X212238575Y-114033340D01*
X212238575Y-114033340D02*
X212200419Y-114109653D01*
X212200419Y-114109653D02*
X212200419Y-114185967D01*
X212391202Y-114147810D02*
X212353046Y-114224124D01*
X212353046Y-114224124D02*
X212276732Y-114300437D01*
X212276732Y-114300437D02*
X212124105Y-114338594D01*
X212124105Y-114338594D02*
X211857008Y-114338594D01*
X211857008Y-114338594D02*
X211704381Y-114300437D01*
X211704381Y-114300437D02*
X211628068Y-114224124D01*
X211628068Y-114224124D02*
X211589911Y-114147810D01*
X211589911Y-114147810D02*
X211589911Y-113995183D01*
X211589911Y-113995183D02*
X211628068Y-113918870D01*
X211628068Y-113918870D02*
X211704381Y-113842556D01*
X211704381Y-113842556D02*
X211857008Y-113804400D01*
X211857008Y-113804400D02*
X212124105Y-113804400D01*
X212124105Y-113804400D02*
X212276732Y-113842556D01*
X212276732Y-113842556D02*
X212353046Y-113918870D01*
X212353046Y-113918870D02*
X212391202Y-113995183D01*
X212391202Y-113995183D02*
X212391202Y-114147810D01*
X211589911Y-113537302D02*
X211589911Y-113041265D01*
X211589911Y-113041265D02*
X211895165Y-113308362D01*
X211895165Y-113308362D02*
X211895165Y-113193892D01*
X211895165Y-113193892D02*
X211933322Y-113117579D01*
X211933322Y-113117579D02*
X211971478Y-113079422D01*
X211971478Y-113079422D02*
X212047792Y-113041265D01*
X212047792Y-113041265D02*
X212238575Y-113041265D01*
X212238575Y-113041265D02*
X212314889Y-113079422D01*
X212314889Y-113079422D02*
X212353046Y-113117579D01*
X212353046Y-113117579D02*
X212391202Y-113193892D01*
X212391202Y-113193892D02*
X212391202Y-113422832D01*
X212391202Y-113422832D02*
X212353046Y-113499146D01*
X212353046Y-113499146D02*
X212314889Y-113537302D01*
X193384580Y-71587857D02*
X193432200Y-71635476D01*
X193432200Y-71635476D02*
X193479819Y-71778333D01*
X193479819Y-71778333D02*
X193479819Y-71873571D01*
X193479819Y-71873571D02*
X193432200Y-72016428D01*
X193432200Y-72016428D02*
X193336961Y-72111666D01*
X193336961Y-72111666D02*
X193241723Y-72159285D01*
X193241723Y-72159285D02*
X193051247Y-72206904D01*
X193051247Y-72206904D02*
X192908390Y-72206904D01*
X192908390Y-72206904D02*
X192717914Y-72159285D01*
X192717914Y-72159285D02*
X192622676Y-72111666D01*
X192622676Y-72111666D02*
X192527438Y-72016428D01*
X192527438Y-72016428D02*
X192479819Y-71873571D01*
X192479819Y-71873571D02*
X192479819Y-71778333D01*
X192479819Y-71778333D02*
X192527438Y-71635476D01*
X192527438Y-71635476D02*
X192575057Y-71587857D01*
X193479819Y-70635476D02*
X193479819Y-71206904D01*
X193479819Y-70921190D02*
X192479819Y-70921190D01*
X192479819Y-70921190D02*
X192622676Y-71016428D01*
X192622676Y-71016428D02*
X192717914Y-71111666D01*
X192717914Y-71111666D02*
X192765533Y-71206904D01*
X192479819Y-70016428D02*
X192479819Y-69921190D01*
X192479819Y-69921190D02*
X192527438Y-69825952D01*
X192527438Y-69825952D02*
X192575057Y-69778333D01*
X192575057Y-69778333D02*
X192670295Y-69730714D01*
X192670295Y-69730714D02*
X192860771Y-69683095D01*
X192860771Y-69683095D02*
X193098866Y-69683095D01*
X193098866Y-69683095D02*
X193289342Y-69730714D01*
X193289342Y-69730714D02*
X193384580Y-69778333D01*
X193384580Y-69778333D02*
X193432200Y-69825952D01*
X193432200Y-69825952D02*
X193479819Y-69921190D01*
X193479819Y-69921190D02*
X193479819Y-70016428D01*
X193479819Y-70016428D02*
X193432200Y-70111666D01*
X193432200Y-70111666D02*
X193384580Y-70159285D01*
X193384580Y-70159285D02*
X193289342Y-70206904D01*
X193289342Y-70206904D02*
X193098866Y-70254523D01*
X193098866Y-70254523D02*
X192860771Y-70254523D01*
X192860771Y-70254523D02*
X192670295Y-70206904D01*
X192670295Y-70206904D02*
X192575057Y-70159285D01*
X192575057Y-70159285D02*
X192527438Y-70111666D01*
X192527438Y-70111666D02*
X192479819Y-70016428D01*
X206194333Y-76299419D02*
X205718143Y-76299419D01*
X205718143Y-76299419D02*
X205718143Y-75299419D01*
X207051476Y-76299419D02*
X206480048Y-76299419D01*
X206765762Y-76299419D02*
X206765762Y-75299419D01*
X206765762Y-75299419D02*
X206670524Y-75442276D01*
X206670524Y-75442276D02*
X206575286Y-75537514D01*
X206575286Y-75537514D02*
X206480048Y-75585133D01*
X214949819Y-74662857D02*
X214473628Y-74996190D01*
X214949819Y-75234285D02*
X213949819Y-75234285D01*
X213949819Y-75234285D02*
X213949819Y-74853333D01*
X213949819Y-74853333D02*
X213997438Y-74758095D01*
X213997438Y-74758095D02*
X214045057Y-74710476D01*
X214045057Y-74710476D02*
X214140295Y-74662857D01*
X214140295Y-74662857D02*
X214283152Y-74662857D01*
X214283152Y-74662857D02*
X214378390Y-74710476D01*
X214378390Y-74710476D02*
X214426009Y-74758095D01*
X214426009Y-74758095D02*
X214473628Y-74853333D01*
X214473628Y-74853333D02*
X214473628Y-75234285D01*
X214045057Y-74281904D02*
X213997438Y-74234285D01*
X213997438Y-74234285D02*
X213949819Y-74139047D01*
X213949819Y-74139047D02*
X213949819Y-73900952D01*
X213949819Y-73900952D02*
X213997438Y-73805714D01*
X213997438Y-73805714D02*
X214045057Y-73758095D01*
X214045057Y-73758095D02*
X214140295Y-73710476D01*
X214140295Y-73710476D02*
X214235533Y-73710476D01*
X214235533Y-73710476D02*
X214378390Y-73758095D01*
X214378390Y-73758095D02*
X214949819Y-74329523D01*
X214949819Y-74329523D02*
X214949819Y-73710476D01*
X214949819Y-72758095D02*
X214949819Y-73329523D01*
X214949819Y-73043809D02*
X213949819Y-73043809D01*
X213949819Y-73043809D02*
X214092676Y-73139047D01*
X214092676Y-73139047D02*
X214187914Y-73234285D01*
X214187914Y-73234285D02*
X214235533Y-73329523D01*
X169119819Y-123479523D02*
X169834104Y-123479523D01*
X169834104Y-123479523D02*
X169976961Y-123527142D01*
X169976961Y-123527142D02*
X170072200Y-123622380D01*
X170072200Y-123622380D02*
X170119819Y-123765237D01*
X170119819Y-123765237D02*
X170119819Y-123860475D01*
X170119819Y-122479523D02*
X170119819Y-123050951D01*
X170119819Y-122765237D02*
X169119819Y-122765237D01*
X169119819Y-122765237D02*
X169262676Y-122860475D01*
X169262676Y-122860475D02*
X169357914Y-122955713D01*
X169357914Y-122955713D02*
X169405533Y-123050951D01*
X169119819Y-121860475D02*
X169119819Y-121765237D01*
X169119819Y-121765237D02*
X169167438Y-121669999D01*
X169167438Y-121669999D02*
X169215057Y-121622380D01*
X169215057Y-121622380D02*
X169310295Y-121574761D01*
X169310295Y-121574761D02*
X169500771Y-121527142D01*
X169500771Y-121527142D02*
X169738866Y-121527142D01*
X169738866Y-121527142D02*
X169929342Y-121574761D01*
X169929342Y-121574761D02*
X170024580Y-121622380D01*
X170024580Y-121622380D02*
X170072200Y-121669999D01*
X170072200Y-121669999D02*
X170119819Y-121765237D01*
X170119819Y-121765237D02*
X170119819Y-121860475D01*
X170119819Y-121860475D02*
X170072200Y-121955713D01*
X170072200Y-121955713D02*
X170024580Y-122003332D01*
X170024580Y-122003332D02*
X169929342Y-122050951D01*
X169929342Y-122050951D02*
X169738866Y-122098570D01*
X169738866Y-122098570D02*
X169500771Y-122098570D01*
X169500771Y-122098570D02*
X169310295Y-122050951D01*
X169310295Y-122050951D02*
X169215057Y-122003332D01*
X169215057Y-122003332D02*
X169167438Y-121955713D01*
X169167438Y-121955713D02*
X169119819Y-121860475D01*
X177774819Y-115706904D02*
X178584342Y-115706904D01*
X178584342Y-115706904D02*
X178679580Y-115659285D01*
X178679580Y-115659285D02*
X178727200Y-115611666D01*
X178727200Y-115611666D02*
X178774819Y-115516428D01*
X178774819Y-115516428D02*
X178774819Y-115325952D01*
X178774819Y-115325952D02*
X178727200Y-115230714D01*
X178727200Y-115230714D02*
X178679580Y-115183095D01*
X178679580Y-115183095D02*
X178584342Y-115135476D01*
X178584342Y-115135476D02*
X177774819Y-115135476D01*
X177774819Y-114183095D02*
X177774819Y-114659285D01*
X177774819Y-114659285D02*
X178251009Y-114706904D01*
X178251009Y-114706904D02*
X178203390Y-114659285D01*
X178203390Y-114659285D02*
X178155771Y-114564047D01*
X178155771Y-114564047D02*
X178155771Y-114325952D01*
X178155771Y-114325952D02*
X178203390Y-114230714D01*
X178203390Y-114230714D02*
X178251009Y-114183095D01*
X178251009Y-114183095D02*
X178346247Y-114135476D01*
X178346247Y-114135476D02*
X178584342Y-114135476D01*
X178584342Y-114135476D02*
X178679580Y-114183095D01*
X178679580Y-114183095D02*
X178727200Y-114230714D01*
X178727200Y-114230714D02*
X178774819Y-114325952D01*
X178774819Y-114325952D02*
X178774819Y-114564047D01*
X178774819Y-114564047D02*
X178727200Y-114659285D01*
X178727200Y-114659285D02*
X178679580Y-114706904D01*
X204629819Y-63352857D02*
X204153628Y-63686190D01*
X204629819Y-63924285D02*
X203629819Y-63924285D01*
X203629819Y-63924285D02*
X203629819Y-63543333D01*
X203629819Y-63543333D02*
X203677438Y-63448095D01*
X203677438Y-63448095D02*
X203725057Y-63400476D01*
X203725057Y-63400476D02*
X203820295Y-63352857D01*
X203820295Y-63352857D02*
X203963152Y-63352857D01*
X203963152Y-63352857D02*
X204058390Y-63400476D01*
X204058390Y-63400476D02*
X204106009Y-63448095D01*
X204106009Y-63448095D02*
X204153628Y-63543333D01*
X204153628Y-63543333D02*
X204153628Y-63924285D01*
X203725057Y-62971904D02*
X203677438Y-62924285D01*
X203677438Y-62924285D02*
X203629819Y-62829047D01*
X203629819Y-62829047D02*
X203629819Y-62590952D01*
X203629819Y-62590952D02*
X203677438Y-62495714D01*
X203677438Y-62495714D02*
X203725057Y-62448095D01*
X203725057Y-62448095D02*
X203820295Y-62400476D01*
X203820295Y-62400476D02*
X203915533Y-62400476D01*
X203915533Y-62400476D02*
X204058390Y-62448095D01*
X204058390Y-62448095D02*
X204629819Y-63019523D01*
X204629819Y-63019523D02*
X204629819Y-62400476D01*
X203629819Y-62067142D02*
X203629819Y-61448095D01*
X203629819Y-61448095D02*
X204010771Y-61781428D01*
X204010771Y-61781428D02*
X204010771Y-61638571D01*
X204010771Y-61638571D02*
X204058390Y-61543333D01*
X204058390Y-61543333D02*
X204106009Y-61495714D01*
X204106009Y-61495714D02*
X204201247Y-61448095D01*
X204201247Y-61448095D02*
X204439342Y-61448095D01*
X204439342Y-61448095D02*
X204534580Y-61495714D01*
X204534580Y-61495714D02*
X204582200Y-61543333D01*
X204582200Y-61543333D02*
X204629819Y-61638571D01*
X204629819Y-61638571D02*
X204629819Y-61924285D01*
X204629819Y-61924285D02*
X204582200Y-62019523D01*
X204582200Y-62019523D02*
X204534580Y-62067142D01*
X172616666Y-103004819D02*
X172616666Y-103719104D01*
X172616666Y-103719104D02*
X172569047Y-103861961D01*
X172569047Y-103861961D02*
X172473809Y-103957200D01*
X172473809Y-103957200D02*
X172330952Y-104004819D01*
X172330952Y-104004819D02*
X172235714Y-104004819D01*
X173140476Y-104004819D02*
X173330952Y-104004819D01*
X173330952Y-104004819D02*
X173426190Y-103957200D01*
X173426190Y-103957200D02*
X173473809Y-103909580D01*
X173473809Y-103909580D02*
X173569047Y-103766723D01*
X173569047Y-103766723D02*
X173616666Y-103576247D01*
X173616666Y-103576247D02*
X173616666Y-103195295D01*
X173616666Y-103195295D02*
X173569047Y-103100057D01*
X173569047Y-103100057D02*
X173521428Y-103052438D01*
X173521428Y-103052438D02*
X173426190Y-103004819D01*
X173426190Y-103004819D02*
X173235714Y-103004819D01*
X173235714Y-103004819D02*
X173140476Y-103052438D01*
X173140476Y-103052438D02*
X173092857Y-103100057D01*
X173092857Y-103100057D02*
X173045238Y-103195295D01*
X173045238Y-103195295D02*
X173045238Y-103433390D01*
X173045238Y-103433390D02*
X173092857Y-103528628D01*
X173092857Y-103528628D02*
X173140476Y-103576247D01*
X173140476Y-103576247D02*
X173235714Y-103623866D01*
X173235714Y-103623866D02*
X173426190Y-103623866D01*
X173426190Y-103623866D02*
X173521428Y-103576247D01*
X173521428Y-103576247D02*
X173569047Y-103528628D01*
X173569047Y-103528628D02*
X173616666Y-103433390D01*
X214949819Y-78687857D02*
X214473628Y-79021190D01*
X214949819Y-79259285D02*
X213949819Y-79259285D01*
X213949819Y-79259285D02*
X213949819Y-78878333D01*
X213949819Y-78878333D02*
X213997438Y-78783095D01*
X213997438Y-78783095D02*
X214045057Y-78735476D01*
X214045057Y-78735476D02*
X214140295Y-78687857D01*
X214140295Y-78687857D02*
X214283152Y-78687857D01*
X214283152Y-78687857D02*
X214378390Y-78735476D01*
X214378390Y-78735476D02*
X214426009Y-78783095D01*
X214426009Y-78783095D02*
X214473628Y-78878333D01*
X214473628Y-78878333D02*
X214473628Y-79259285D01*
X214045057Y-78306904D02*
X213997438Y-78259285D01*
X213997438Y-78259285D02*
X213949819Y-78164047D01*
X213949819Y-78164047D02*
X213949819Y-77925952D01*
X213949819Y-77925952D02*
X213997438Y-77830714D01*
X213997438Y-77830714D02*
X214045057Y-77783095D01*
X214045057Y-77783095D02*
X214140295Y-77735476D01*
X214140295Y-77735476D02*
X214235533Y-77735476D01*
X214235533Y-77735476D02*
X214378390Y-77783095D01*
X214378390Y-77783095D02*
X214949819Y-78354523D01*
X214949819Y-78354523D02*
X214949819Y-77735476D01*
X213949819Y-77116428D02*
X213949819Y-77021190D01*
X213949819Y-77021190D02*
X213997438Y-76925952D01*
X213997438Y-76925952D02*
X214045057Y-76878333D01*
X214045057Y-76878333D02*
X214140295Y-76830714D01*
X214140295Y-76830714D02*
X214330771Y-76783095D01*
X214330771Y-76783095D02*
X214568866Y-76783095D01*
X214568866Y-76783095D02*
X214759342Y-76830714D01*
X214759342Y-76830714D02*
X214854580Y-76878333D01*
X214854580Y-76878333D02*
X214902200Y-76925952D01*
X214902200Y-76925952D02*
X214949819Y-77021190D01*
X214949819Y-77021190D02*
X214949819Y-77116428D01*
X214949819Y-77116428D02*
X214902200Y-77211666D01*
X214902200Y-77211666D02*
X214854580Y-77259285D01*
X214854580Y-77259285D02*
X214759342Y-77306904D01*
X214759342Y-77306904D02*
X214568866Y-77354523D01*
X214568866Y-77354523D02*
X214330771Y-77354523D01*
X214330771Y-77354523D02*
X214140295Y-77306904D01*
X214140295Y-77306904D02*
X214045057Y-77259285D01*
X214045057Y-77259285D02*
X213997438Y-77211666D01*
X213997438Y-77211666D02*
X213949819Y-77116428D01*
X160982942Y-96617980D02*
X160935323Y-96665600D01*
X160935323Y-96665600D02*
X160792466Y-96713219D01*
X160792466Y-96713219D02*
X160697228Y-96713219D01*
X160697228Y-96713219D02*
X160554371Y-96665600D01*
X160554371Y-96665600D02*
X160459133Y-96570361D01*
X160459133Y-96570361D02*
X160411514Y-96475123D01*
X160411514Y-96475123D02*
X160363895Y-96284647D01*
X160363895Y-96284647D02*
X160363895Y-96141790D01*
X160363895Y-96141790D02*
X160411514Y-95951314D01*
X160411514Y-95951314D02*
X160459133Y-95856076D01*
X160459133Y-95856076D02*
X160554371Y-95760838D01*
X160554371Y-95760838D02*
X160697228Y-95713219D01*
X160697228Y-95713219D02*
X160792466Y-95713219D01*
X160792466Y-95713219D02*
X160935323Y-95760838D01*
X160935323Y-95760838D02*
X160982942Y-95808457D01*
X161935323Y-96713219D02*
X161363895Y-96713219D01*
X161649609Y-96713219D02*
X161649609Y-95713219D01*
X161649609Y-95713219D02*
X161554371Y-95856076D01*
X161554371Y-95856076D02*
X161459133Y-95951314D01*
X161459133Y-95951314D02*
X161363895Y-95998933D01*
X162792466Y-95713219D02*
X162601990Y-95713219D01*
X162601990Y-95713219D02*
X162506752Y-95760838D01*
X162506752Y-95760838D02*
X162459133Y-95808457D01*
X162459133Y-95808457D02*
X162363895Y-95951314D01*
X162363895Y-95951314D02*
X162316276Y-96141790D01*
X162316276Y-96141790D02*
X162316276Y-96522742D01*
X162316276Y-96522742D02*
X162363895Y-96617980D01*
X162363895Y-96617980D02*
X162411514Y-96665600D01*
X162411514Y-96665600D02*
X162506752Y-96713219D01*
X162506752Y-96713219D02*
X162697228Y-96713219D01*
X162697228Y-96713219D02*
X162792466Y-96665600D01*
X162792466Y-96665600D02*
X162840085Y-96617980D01*
X162840085Y-96617980D02*
X162887704Y-96522742D01*
X162887704Y-96522742D02*
X162887704Y-96284647D01*
X162887704Y-96284647D02*
X162840085Y-96189409D01*
X162840085Y-96189409D02*
X162792466Y-96141790D01*
X162792466Y-96141790D02*
X162697228Y-96094171D01*
X162697228Y-96094171D02*
X162506752Y-96094171D01*
X162506752Y-96094171D02*
X162411514Y-96141790D01*
X162411514Y-96141790D02*
X162363895Y-96189409D01*
X162363895Y-96189409D02*
X162316276Y-96284647D01*
X199384819Y-131661666D02*
X198908628Y-131994999D01*
X199384819Y-132233094D02*
X198384819Y-132233094D01*
X198384819Y-132233094D02*
X198384819Y-131852142D01*
X198384819Y-131852142D02*
X198432438Y-131756904D01*
X198432438Y-131756904D02*
X198480057Y-131709285D01*
X198480057Y-131709285D02*
X198575295Y-131661666D01*
X198575295Y-131661666D02*
X198718152Y-131661666D01*
X198718152Y-131661666D02*
X198813390Y-131709285D01*
X198813390Y-131709285D02*
X198861009Y-131756904D01*
X198861009Y-131756904D02*
X198908628Y-131852142D01*
X198908628Y-131852142D02*
X198908628Y-132233094D01*
X198384819Y-130756904D02*
X198384819Y-131233094D01*
X198384819Y-131233094D02*
X198861009Y-131280713D01*
X198861009Y-131280713D02*
X198813390Y-131233094D01*
X198813390Y-131233094D02*
X198765771Y-131137856D01*
X198765771Y-131137856D02*
X198765771Y-130899761D01*
X198765771Y-130899761D02*
X198813390Y-130804523D01*
X198813390Y-130804523D02*
X198861009Y-130756904D01*
X198861009Y-130756904D02*
X198956247Y-130709285D01*
X198956247Y-130709285D02*
X199194342Y-130709285D01*
X199194342Y-130709285D02*
X199289580Y-130756904D01*
X199289580Y-130756904D02*
X199337200Y-130804523D01*
X199337200Y-130804523D02*
X199384819Y-130899761D01*
X199384819Y-130899761D02*
X199384819Y-131137856D01*
X199384819Y-131137856D02*
X199337200Y-131233094D01*
X199337200Y-131233094D02*
X199289580Y-131280713D01*
X173657542Y-99100819D02*
X173324209Y-98624628D01*
X173086114Y-99100819D02*
X173086114Y-98100819D01*
X173086114Y-98100819D02*
X173467066Y-98100819D01*
X173467066Y-98100819D02*
X173562304Y-98148438D01*
X173562304Y-98148438D02*
X173609923Y-98196057D01*
X173609923Y-98196057D02*
X173657542Y-98291295D01*
X173657542Y-98291295D02*
X173657542Y-98434152D01*
X173657542Y-98434152D02*
X173609923Y-98529390D01*
X173609923Y-98529390D02*
X173562304Y-98577009D01*
X173562304Y-98577009D02*
X173467066Y-98624628D01*
X173467066Y-98624628D02*
X173086114Y-98624628D01*
X174609923Y-99100819D02*
X174038495Y-99100819D01*
X174324209Y-99100819D02*
X174324209Y-98100819D01*
X174324209Y-98100819D02*
X174228971Y-98243676D01*
X174228971Y-98243676D02*
X174133733Y-98338914D01*
X174133733Y-98338914D02*
X174038495Y-98386533D01*
X175181352Y-98529390D02*
X175086114Y-98481771D01*
X175086114Y-98481771D02*
X175038495Y-98434152D01*
X175038495Y-98434152D02*
X174990876Y-98338914D01*
X174990876Y-98338914D02*
X174990876Y-98291295D01*
X174990876Y-98291295D02*
X175038495Y-98196057D01*
X175038495Y-98196057D02*
X175086114Y-98148438D01*
X175086114Y-98148438D02*
X175181352Y-98100819D01*
X175181352Y-98100819D02*
X175371828Y-98100819D01*
X175371828Y-98100819D02*
X175467066Y-98148438D01*
X175467066Y-98148438D02*
X175514685Y-98196057D01*
X175514685Y-98196057D02*
X175562304Y-98291295D01*
X175562304Y-98291295D02*
X175562304Y-98338914D01*
X175562304Y-98338914D02*
X175514685Y-98434152D01*
X175514685Y-98434152D02*
X175467066Y-98481771D01*
X175467066Y-98481771D02*
X175371828Y-98529390D01*
X175371828Y-98529390D02*
X175181352Y-98529390D01*
X175181352Y-98529390D02*
X175086114Y-98577009D01*
X175086114Y-98577009D02*
X175038495Y-98624628D01*
X175038495Y-98624628D02*
X174990876Y-98719866D01*
X174990876Y-98719866D02*
X174990876Y-98910342D01*
X174990876Y-98910342D02*
X175038495Y-99005580D01*
X175038495Y-99005580D02*
X175086114Y-99053200D01*
X175086114Y-99053200D02*
X175181352Y-99100819D01*
X175181352Y-99100819D02*
X175371828Y-99100819D01*
X175371828Y-99100819D02*
X175467066Y-99053200D01*
X175467066Y-99053200D02*
X175514685Y-99005580D01*
X175514685Y-99005580D02*
X175562304Y-98910342D01*
X175562304Y-98910342D02*
X175562304Y-98719866D01*
X175562304Y-98719866D02*
X175514685Y-98624628D01*
X175514685Y-98624628D02*
X175467066Y-98577009D01*
X175467066Y-98577009D02*
X175371828Y-98529390D01*
X173629819Y-114836666D02*
X173153628Y-115169999D01*
X173629819Y-115408094D02*
X172629819Y-115408094D01*
X172629819Y-115408094D02*
X172629819Y-115027142D01*
X172629819Y-115027142D02*
X172677438Y-114931904D01*
X172677438Y-114931904D02*
X172725057Y-114884285D01*
X172725057Y-114884285D02*
X172820295Y-114836666D01*
X172820295Y-114836666D02*
X172963152Y-114836666D01*
X172963152Y-114836666D02*
X173058390Y-114884285D01*
X173058390Y-114884285D02*
X173106009Y-114931904D01*
X173106009Y-114931904D02*
X173153628Y-115027142D01*
X173153628Y-115027142D02*
X173153628Y-115408094D01*
X173629819Y-114360475D02*
X173629819Y-114169999D01*
X173629819Y-114169999D02*
X173582200Y-114074761D01*
X173582200Y-114074761D02*
X173534580Y-114027142D01*
X173534580Y-114027142D02*
X173391723Y-113931904D01*
X173391723Y-113931904D02*
X173201247Y-113884285D01*
X173201247Y-113884285D02*
X172820295Y-113884285D01*
X172820295Y-113884285D02*
X172725057Y-113931904D01*
X172725057Y-113931904D02*
X172677438Y-113979523D01*
X172677438Y-113979523D02*
X172629819Y-114074761D01*
X172629819Y-114074761D02*
X172629819Y-114265237D01*
X172629819Y-114265237D02*
X172677438Y-114360475D01*
X172677438Y-114360475D02*
X172725057Y-114408094D01*
X172725057Y-114408094D02*
X172820295Y-114455713D01*
X172820295Y-114455713D02*
X173058390Y-114455713D01*
X173058390Y-114455713D02*
X173153628Y-114408094D01*
X173153628Y-114408094D02*
X173201247Y-114360475D01*
X173201247Y-114360475D02*
X173248866Y-114265237D01*
X173248866Y-114265237D02*
X173248866Y-114074761D01*
X173248866Y-114074761D02*
X173201247Y-113979523D01*
X173201247Y-113979523D02*
X173153628Y-113931904D01*
X173153628Y-113931904D02*
X173058390Y-113884285D01*
X193141666Y-59974819D02*
X193141666Y-60689104D01*
X193141666Y-60689104D02*
X193094047Y-60831961D01*
X193094047Y-60831961D02*
X192998809Y-60927200D01*
X192998809Y-60927200D02*
X192855952Y-60974819D01*
X192855952Y-60974819D02*
X192760714Y-60974819D01*
X194046428Y-59974819D02*
X193855952Y-59974819D01*
X193855952Y-59974819D02*
X193760714Y-60022438D01*
X193760714Y-60022438D02*
X193713095Y-60070057D01*
X193713095Y-60070057D02*
X193617857Y-60212914D01*
X193617857Y-60212914D02*
X193570238Y-60403390D01*
X193570238Y-60403390D02*
X193570238Y-60784342D01*
X193570238Y-60784342D02*
X193617857Y-60879580D01*
X193617857Y-60879580D02*
X193665476Y-60927200D01*
X193665476Y-60927200D02*
X193760714Y-60974819D01*
X193760714Y-60974819D02*
X193951190Y-60974819D01*
X193951190Y-60974819D02*
X194046428Y-60927200D01*
X194046428Y-60927200D02*
X194094047Y-60879580D01*
X194094047Y-60879580D02*
X194141666Y-60784342D01*
X194141666Y-60784342D02*
X194141666Y-60546247D01*
X194141666Y-60546247D02*
X194094047Y-60451009D01*
X194094047Y-60451009D02*
X194046428Y-60403390D01*
X194046428Y-60403390D02*
X193951190Y-60355771D01*
X193951190Y-60355771D02*
X193760714Y-60355771D01*
X193760714Y-60355771D02*
X193665476Y-60403390D01*
X193665476Y-60403390D02*
X193617857Y-60451009D01*
X193617857Y-60451009D02*
X193570238Y-60546247D01*
X185238095Y-68384819D02*
X185238095Y-69194342D01*
X185238095Y-69194342D02*
X185285714Y-69289580D01*
X185285714Y-69289580D02*
X185333333Y-69337200D01*
X185333333Y-69337200D02*
X185428571Y-69384819D01*
X185428571Y-69384819D02*
X185619047Y-69384819D01*
X185619047Y-69384819D02*
X185714285Y-69337200D01*
X185714285Y-69337200D02*
X185761904Y-69289580D01*
X185761904Y-69289580D02*
X185809523Y-69194342D01*
X185809523Y-69194342D02*
X185809523Y-68384819D01*
X186714285Y-68718152D02*
X186714285Y-69384819D01*
X186476190Y-68337200D02*
X186238095Y-69051485D01*
X186238095Y-69051485D02*
X186857142Y-69051485D01*
X190497342Y-111854019D02*
X190164009Y-111377828D01*
X189925914Y-111854019D02*
X189925914Y-110854019D01*
X189925914Y-110854019D02*
X190306866Y-110854019D01*
X190306866Y-110854019D02*
X190402104Y-110901638D01*
X190402104Y-110901638D02*
X190449723Y-110949257D01*
X190449723Y-110949257D02*
X190497342Y-111044495D01*
X190497342Y-111044495D02*
X190497342Y-111187352D01*
X190497342Y-111187352D02*
X190449723Y-111282590D01*
X190449723Y-111282590D02*
X190402104Y-111330209D01*
X190402104Y-111330209D02*
X190306866Y-111377828D01*
X190306866Y-111377828D02*
X189925914Y-111377828D01*
X191449723Y-111854019D02*
X190878295Y-111854019D01*
X191164009Y-111854019D02*
X191164009Y-110854019D01*
X191164009Y-110854019D02*
X191068771Y-110996876D01*
X191068771Y-110996876D02*
X190973533Y-111092114D01*
X190973533Y-111092114D02*
X190878295Y-111139733D01*
X192306866Y-111187352D02*
X192306866Y-111854019D01*
X192068771Y-110806400D02*
X191830676Y-111520685D01*
X191830676Y-111520685D02*
X192449723Y-111520685D01*
X208879819Y-64162857D02*
X208403628Y-64496190D01*
X208879819Y-64734285D02*
X207879819Y-64734285D01*
X207879819Y-64734285D02*
X207879819Y-64353333D01*
X207879819Y-64353333D02*
X207927438Y-64258095D01*
X207927438Y-64258095D02*
X207975057Y-64210476D01*
X207975057Y-64210476D02*
X208070295Y-64162857D01*
X208070295Y-64162857D02*
X208213152Y-64162857D01*
X208213152Y-64162857D02*
X208308390Y-64210476D01*
X208308390Y-64210476D02*
X208356009Y-64258095D01*
X208356009Y-64258095D02*
X208403628Y-64353333D01*
X208403628Y-64353333D02*
X208403628Y-64734285D01*
X207975057Y-63781904D02*
X207927438Y-63734285D01*
X207927438Y-63734285D02*
X207879819Y-63639047D01*
X207879819Y-63639047D02*
X207879819Y-63400952D01*
X207879819Y-63400952D02*
X207927438Y-63305714D01*
X207927438Y-63305714D02*
X207975057Y-63258095D01*
X207975057Y-63258095D02*
X208070295Y-63210476D01*
X208070295Y-63210476D02*
X208165533Y-63210476D01*
X208165533Y-63210476D02*
X208308390Y-63258095D01*
X208308390Y-63258095D02*
X208879819Y-63829523D01*
X208879819Y-63829523D02*
X208879819Y-63210476D01*
X207879819Y-62877142D02*
X207879819Y-62210476D01*
X207879819Y-62210476D02*
X208879819Y-62639047D01*
X211553116Y-118455043D02*
X211514959Y-118531356D01*
X211514959Y-118531356D02*
X211438646Y-118607670D01*
X211438646Y-118607670D02*
X211324175Y-118722140D01*
X211324175Y-118722140D02*
X211286019Y-118798453D01*
X211286019Y-118798453D02*
X211286019Y-118874767D01*
X211476802Y-118836610D02*
X211438646Y-118912924D01*
X211438646Y-118912924D02*
X211362332Y-118989237D01*
X211362332Y-118989237D02*
X211209705Y-119027394D01*
X211209705Y-119027394D02*
X210942608Y-119027394D01*
X210942608Y-119027394D02*
X210789981Y-118989237D01*
X210789981Y-118989237D02*
X210713668Y-118912924D01*
X210713668Y-118912924D02*
X210675511Y-118836610D01*
X210675511Y-118836610D02*
X210675511Y-118683983D01*
X210675511Y-118683983D02*
X210713668Y-118607670D01*
X210713668Y-118607670D02*
X210789981Y-118531356D01*
X210789981Y-118531356D02*
X210942608Y-118493200D01*
X210942608Y-118493200D02*
X211209705Y-118493200D01*
X211209705Y-118493200D02*
X211362332Y-118531356D01*
X211362332Y-118531356D02*
X211438646Y-118607670D01*
X211438646Y-118607670D02*
X211476802Y-118683983D01*
X211476802Y-118683983D02*
X211476802Y-118836610D01*
X210751825Y-118187946D02*
X210713668Y-118149789D01*
X210713668Y-118149789D02*
X210675511Y-118073476D01*
X210675511Y-118073476D02*
X210675511Y-117882692D01*
X210675511Y-117882692D02*
X210713668Y-117806379D01*
X210713668Y-117806379D02*
X210751825Y-117768222D01*
X210751825Y-117768222D02*
X210828138Y-117730065D01*
X210828138Y-117730065D02*
X210904452Y-117730065D01*
X210904452Y-117730065D02*
X211018922Y-117768222D01*
X211018922Y-117768222D02*
X211476802Y-118226102D01*
X211476802Y-118226102D02*
X211476802Y-117730065D01*
X214949819Y-70487857D02*
X214473628Y-70821190D01*
X214949819Y-71059285D02*
X213949819Y-71059285D01*
X213949819Y-71059285D02*
X213949819Y-70678333D01*
X213949819Y-70678333D02*
X213997438Y-70583095D01*
X213997438Y-70583095D02*
X214045057Y-70535476D01*
X214045057Y-70535476D02*
X214140295Y-70487857D01*
X214140295Y-70487857D02*
X214283152Y-70487857D01*
X214283152Y-70487857D02*
X214378390Y-70535476D01*
X214378390Y-70535476D02*
X214426009Y-70583095D01*
X214426009Y-70583095D02*
X214473628Y-70678333D01*
X214473628Y-70678333D02*
X214473628Y-71059285D01*
X214045057Y-70106904D02*
X213997438Y-70059285D01*
X213997438Y-70059285D02*
X213949819Y-69964047D01*
X213949819Y-69964047D02*
X213949819Y-69725952D01*
X213949819Y-69725952D02*
X213997438Y-69630714D01*
X213997438Y-69630714D02*
X214045057Y-69583095D01*
X214045057Y-69583095D02*
X214140295Y-69535476D01*
X214140295Y-69535476D02*
X214235533Y-69535476D01*
X214235533Y-69535476D02*
X214378390Y-69583095D01*
X214378390Y-69583095D02*
X214949819Y-70154523D01*
X214949819Y-70154523D02*
X214949819Y-69535476D01*
X214045057Y-69154523D02*
X213997438Y-69106904D01*
X213997438Y-69106904D02*
X213949819Y-69011666D01*
X213949819Y-69011666D02*
X213949819Y-68773571D01*
X213949819Y-68773571D02*
X213997438Y-68678333D01*
X213997438Y-68678333D02*
X214045057Y-68630714D01*
X214045057Y-68630714D02*
X214140295Y-68583095D01*
X214140295Y-68583095D02*
X214235533Y-68583095D01*
X214235533Y-68583095D02*
X214378390Y-68630714D01*
X214378390Y-68630714D02*
X214949819Y-69202142D01*
X214949819Y-69202142D02*
X214949819Y-68583095D01*
X193869819Y-115803333D02*
X194584104Y-115803333D01*
X194584104Y-115803333D02*
X194726961Y-115850952D01*
X194726961Y-115850952D02*
X194822200Y-115946190D01*
X194822200Y-115946190D02*
X194869819Y-116089047D01*
X194869819Y-116089047D02*
X194869819Y-116184285D01*
X193869819Y-114850952D02*
X193869819Y-115327142D01*
X193869819Y-115327142D02*
X194346009Y-115374761D01*
X194346009Y-115374761D02*
X194298390Y-115327142D01*
X194298390Y-115327142D02*
X194250771Y-115231904D01*
X194250771Y-115231904D02*
X194250771Y-114993809D01*
X194250771Y-114993809D02*
X194298390Y-114898571D01*
X194298390Y-114898571D02*
X194346009Y-114850952D01*
X194346009Y-114850952D02*
X194441247Y-114803333D01*
X194441247Y-114803333D02*
X194679342Y-114803333D01*
X194679342Y-114803333D02*
X194774580Y-114850952D01*
X194774580Y-114850952D02*
X194822200Y-114898571D01*
X194822200Y-114898571D02*
X194869819Y-114993809D01*
X194869819Y-114993809D02*
X194869819Y-115231904D01*
X194869819Y-115231904D02*
X194822200Y-115327142D01*
X194822200Y-115327142D02*
X194774580Y-115374761D01*
X169148180Y-89509857D02*
X169195800Y-89557476D01*
X169195800Y-89557476D02*
X169243419Y-89700333D01*
X169243419Y-89700333D02*
X169243419Y-89795571D01*
X169243419Y-89795571D02*
X169195800Y-89938428D01*
X169195800Y-89938428D02*
X169100561Y-90033666D01*
X169100561Y-90033666D02*
X169005323Y-90081285D01*
X169005323Y-90081285D02*
X168814847Y-90128904D01*
X168814847Y-90128904D02*
X168671990Y-90128904D01*
X168671990Y-90128904D02*
X168481514Y-90081285D01*
X168481514Y-90081285D02*
X168386276Y-90033666D01*
X168386276Y-90033666D02*
X168291038Y-89938428D01*
X168291038Y-89938428D02*
X168243419Y-89795571D01*
X168243419Y-89795571D02*
X168243419Y-89700333D01*
X168243419Y-89700333D02*
X168291038Y-89557476D01*
X168291038Y-89557476D02*
X168338657Y-89509857D01*
X168338657Y-89128904D02*
X168291038Y-89081285D01*
X168291038Y-89081285D02*
X168243419Y-88986047D01*
X168243419Y-88986047D02*
X168243419Y-88747952D01*
X168243419Y-88747952D02*
X168291038Y-88652714D01*
X168291038Y-88652714D02*
X168338657Y-88605095D01*
X168338657Y-88605095D02*
X168433895Y-88557476D01*
X168433895Y-88557476D02*
X168529133Y-88557476D01*
X168529133Y-88557476D02*
X168671990Y-88605095D01*
X168671990Y-88605095D02*
X169243419Y-89176523D01*
X169243419Y-89176523D02*
X169243419Y-88557476D01*
X168243419Y-87938428D02*
X168243419Y-87843190D01*
X168243419Y-87843190D02*
X168291038Y-87747952D01*
X168291038Y-87747952D02*
X168338657Y-87700333D01*
X168338657Y-87700333D02*
X168433895Y-87652714D01*
X168433895Y-87652714D02*
X168624371Y-87605095D01*
X168624371Y-87605095D02*
X168862466Y-87605095D01*
X168862466Y-87605095D02*
X169052942Y-87652714D01*
X169052942Y-87652714D02*
X169148180Y-87700333D01*
X169148180Y-87700333D02*
X169195800Y-87747952D01*
X169195800Y-87747952D02*
X169243419Y-87843190D01*
X169243419Y-87843190D02*
X169243419Y-87938428D01*
X169243419Y-87938428D02*
X169195800Y-88033666D01*
X169195800Y-88033666D02*
X169148180Y-88081285D01*
X169148180Y-88081285D02*
X169052942Y-88128904D01*
X169052942Y-88128904D02*
X168862466Y-88176523D01*
X168862466Y-88176523D02*
X168624371Y-88176523D01*
X168624371Y-88176523D02*
X168433895Y-88128904D01*
X168433895Y-88128904D02*
X168338657Y-88081285D01*
X168338657Y-88081285D02*
X168291038Y-88033666D01*
X168291038Y-88033666D02*
X168243419Y-87938428D01*
X188809142Y-115280619D02*
X188475809Y-114804428D01*
X188237714Y-115280619D02*
X188237714Y-114280619D01*
X188237714Y-114280619D02*
X188618666Y-114280619D01*
X188618666Y-114280619D02*
X188713904Y-114328238D01*
X188713904Y-114328238D02*
X188761523Y-114375857D01*
X188761523Y-114375857D02*
X188809142Y-114471095D01*
X188809142Y-114471095D02*
X188809142Y-114613952D01*
X188809142Y-114613952D02*
X188761523Y-114709190D01*
X188761523Y-114709190D02*
X188713904Y-114756809D01*
X188713904Y-114756809D02*
X188618666Y-114804428D01*
X188618666Y-114804428D02*
X188237714Y-114804428D01*
X189761523Y-115280619D02*
X189190095Y-115280619D01*
X189475809Y-115280619D02*
X189475809Y-114280619D01*
X189475809Y-114280619D02*
X189380571Y-114423476D01*
X189380571Y-114423476D02*
X189285333Y-114518714D01*
X189285333Y-114518714D02*
X189190095Y-114566333D01*
X190713904Y-115280619D02*
X190142476Y-115280619D01*
X190428190Y-115280619D02*
X190428190Y-114280619D01*
X190428190Y-114280619D02*
X190332952Y-114423476D01*
X190332952Y-114423476D02*
X190237714Y-114518714D01*
X190237714Y-114518714D02*
X190142476Y-114566333D01*
X202581105Y-81303219D02*
X202581105Y-80303219D01*
X202581105Y-80303219D02*
X202819200Y-80303219D01*
X202819200Y-80303219D02*
X202962057Y-80350838D01*
X202962057Y-80350838D02*
X203057295Y-80446076D01*
X203057295Y-80446076D02*
X203104914Y-80541314D01*
X203104914Y-80541314D02*
X203152533Y-80731790D01*
X203152533Y-80731790D02*
X203152533Y-80874647D01*
X203152533Y-80874647D02*
X203104914Y-81065123D01*
X203104914Y-81065123D02*
X203057295Y-81160361D01*
X203057295Y-81160361D02*
X202962057Y-81255600D01*
X202962057Y-81255600D02*
X202819200Y-81303219D01*
X202819200Y-81303219D02*
X202581105Y-81303219D01*
X204104914Y-81303219D02*
X203533486Y-81303219D01*
X203819200Y-81303219D02*
X203819200Y-80303219D01*
X203819200Y-80303219D02*
X203723962Y-80446076D01*
X203723962Y-80446076D02*
X203628724Y-80541314D01*
X203628724Y-80541314D02*
X203533486Y-80588933D01*
X173002619Y-89357457D02*
X172526428Y-89690790D01*
X173002619Y-89928885D02*
X172002619Y-89928885D01*
X172002619Y-89928885D02*
X172002619Y-89547933D01*
X172002619Y-89547933D02*
X172050238Y-89452695D01*
X172050238Y-89452695D02*
X172097857Y-89405076D01*
X172097857Y-89405076D02*
X172193095Y-89357457D01*
X172193095Y-89357457D02*
X172335952Y-89357457D01*
X172335952Y-89357457D02*
X172431190Y-89405076D01*
X172431190Y-89405076D02*
X172478809Y-89452695D01*
X172478809Y-89452695D02*
X172526428Y-89547933D01*
X172526428Y-89547933D02*
X172526428Y-89928885D01*
X173002619Y-88405076D02*
X173002619Y-88976504D01*
X173002619Y-88690790D02*
X172002619Y-88690790D01*
X172002619Y-88690790D02*
X172145476Y-88786028D01*
X172145476Y-88786028D02*
X172240714Y-88881266D01*
X172240714Y-88881266D02*
X172288333Y-88976504D01*
X173002619Y-87928885D02*
X173002619Y-87738409D01*
X173002619Y-87738409D02*
X172955000Y-87643171D01*
X172955000Y-87643171D02*
X172907380Y-87595552D01*
X172907380Y-87595552D02*
X172764523Y-87500314D01*
X172764523Y-87500314D02*
X172574047Y-87452695D01*
X172574047Y-87452695D02*
X172193095Y-87452695D01*
X172193095Y-87452695D02*
X172097857Y-87500314D01*
X172097857Y-87500314D02*
X172050238Y-87547933D01*
X172050238Y-87547933D02*
X172002619Y-87643171D01*
X172002619Y-87643171D02*
X172002619Y-87833647D01*
X172002619Y-87833647D02*
X172050238Y-87928885D01*
X172050238Y-87928885D02*
X172097857Y-87976504D01*
X172097857Y-87976504D02*
X172193095Y-88024123D01*
X172193095Y-88024123D02*
X172431190Y-88024123D01*
X172431190Y-88024123D02*
X172526428Y-87976504D01*
X172526428Y-87976504D02*
X172574047Y-87928885D01*
X172574047Y-87928885D02*
X172621666Y-87833647D01*
X172621666Y-87833647D02*
X172621666Y-87643171D01*
X172621666Y-87643171D02*
X172574047Y-87547933D01*
X172574047Y-87547933D02*
X172526428Y-87500314D01*
X172526428Y-87500314D02*
X172431190Y-87452695D01*
X173606742Y-101418580D02*
X173559123Y-101466200D01*
X173559123Y-101466200D02*
X173416266Y-101513819D01*
X173416266Y-101513819D02*
X173321028Y-101513819D01*
X173321028Y-101513819D02*
X173178171Y-101466200D01*
X173178171Y-101466200D02*
X173082933Y-101370961D01*
X173082933Y-101370961D02*
X173035314Y-101275723D01*
X173035314Y-101275723D02*
X172987695Y-101085247D01*
X172987695Y-101085247D02*
X172987695Y-100942390D01*
X172987695Y-100942390D02*
X173035314Y-100751914D01*
X173035314Y-100751914D02*
X173082933Y-100656676D01*
X173082933Y-100656676D02*
X173178171Y-100561438D01*
X173178171Y-100561438D02*
X173321028Y-100513819D01*
X173321028Y-100513819D02*
X173416266Y-100513819D01*
X173416266Y-100513819D02*
X173559123Y-100561438D01*
X173559123Y-100561438D02*
X173606742Y-100609057D01*
X173987695Y-100609057D02*
X174035314Y-100561438D01*
X174035314Y-100561438D02*
X174130552Y-100513819D01*
X174130552Y-100513819D02*
X174368647Y-100513819D01*
X174368647Y-100513819D02*
X174463885Y-100561438D01*
X174463885Y-100561438D02*
X174511504Y-100609057D01*
X174511504Y-100609057D02*
X174559123Y-100704295D01*
X174559123Y-100704295D02*
X174559123Y-100799533D01*
X174559123Y-100799533D02*
X174511504Y-100942390D01*
X174511504Y-100942390D02*
X173940076Y-101513819D01*
X173940076Y-101513819D02*
X174559123Y-101513819D01*
X174940076Y-100609057D02*
X174987695Y-100561438D01*
X174987695Y-100561438D02*
X175082933Y-100513819D01*
X175082933Y-100513819D02*
X175321028Y-100513819D01*
X175321028Y-100513819D02*
X175416266Y-100561438D01*
X175416266Y-100561438D02*
X175463885Y-100609057D01*
X175463885Y-100609057D02*
X175511504Y-100704295D01*
X175511504Y-100704295D02*
X175511504Y-100799533D01*
X175511504Y-100799533D02*
X175463885Y-100942390D01*
X175463885Y-100942390D02*
X174892457Y-101513819D01*
X174892457Y-101513819D02*
X175511504Y-101513819D01*
X200441666Y-79974819D02*
X200441666Y-80689104D01*
X200441666Y-80689104D02*
X200394047Y-80831961D01*
X200394047Y-80831961D02*
X200298809Y-80927200D01*
X200298809Y-80927200D02*
X200155952Y-80974819D01*
X200155952Y-80974819D02*
X200060714Y-80974819D01*
X200822619Y-79974819D02*
X201441666Y-79974819D01*
X201441666Y-79974819D02*
X201108333Y-80355771D01*
X201108333Y-80355771D02*
X201251190Y-80355771D01*
X201251190Y-80355771D02*
X201346428Y-80403390D01*
X201346428Y-80403390D02*
X201394047Y-80451009D01*
X201394047Y-80451009D02*
X201441666Y-80546247D01*
X201441666Y-80546247D02*
X201441666Y-80784342D01*
X201441666Y-80784342D02*
X201394047Y-80879580D01*
X201394047Y-80879580D02*
X201346428Y-80927200D01*
X201346428Y-80927200D02*
X201251190Y-80974819D01*
X201251190Y-80974819D02*
X200965476Y-80974819D01*
X200965476Y-80974819D02*
X200870238Y-80927200D01*
X200870238Y-80927200D02*
X200822619Y-80879580D01*
X210288095Y-124949819D02*
X210288095Y-125759342D01*
X210288095Y-125759342D02*
X210335714Y-125854580D01*
X210335714Y-125854580D02*
X210383333Y-125902200D01*
X210383333Y-125902200D02*
X210478571Y-125949819D01*
X210478571Y-125949819D02*
X210669047Y-125949819D01*
X210669047Y-125949819D02*
X210764285Y-125902200D01*
X210764285Y-125902200D02*
X210811904Y-125854580D01*
X210811904Y-125854580D02*
X210859523Y-125759342D01*
X210859523Y-125759342D02*
X210859523Y-124949819D01*
X211240476Y-124949819D02*
X211859523Y-124949819D01*
X211859523Y-124949819D02*
X211526190Y-125330771D01*
X211526190Y-125330771D02*
X211669047Y-125330771D01*
X211669047Y-125330771D02*
X211764285Y-125378390D01*
X211764285Y-125378390D02*
X211811904Y-125426009D01*
X211811904Y-125426009D02*
X211859523Y-125521247D01*
X211859523Y-125521247D02*
X211859523Y-125759342D01*
X211859523Y-125759342D02*
X211811904Y-125854580D01*
X211811904Y-125854580D02*
X211764285Y-125902200D01*
X211764285Y-125902200D02*
X211669047Y-125949819D01*
X211669047Y-125949819D02*
X211383333Y-125949819D01*
X211383333Y-125949819D02*
X211288095Y-125902200D01*
X211288095Y-125902200D02*
X211240476Y-125854580D01*
X199879819Y-66222857D02*
X199403628Y-66556190D01*
X199879819Y-66794285D02*
X198879819Y-66794285D01*
X198879819Y-66794285D02*
X198879819Y-66413333D01*
X198879819Y-66413333D02*
X198927438Y-66318095D01*
X198927438Y-66318095D02*
X198975057Y-66270476D01*
X198975057Y-66270476D02*
X199070295Y-66222857D01*
X199070295Y-66222857D02*
X199213152Y-66222857D01*
X199213152Y-66222857D02*
X199308390Y-66270476D01*
X199308390Y-66270476D02*
X199356009Y-66318095D01*
X199356009Y-66318095D02*
X199403628Y-66413333D01*
X199403628Y-66413333D02*
X199403628Y-66794285D01*
X198975057Y-65841904D02*
X198927438Y-65794285D01*
X198927438Y-65794285D02*
X198879819Y-65699047D01*
X198879819Y-65699047D02*
X198879819Y-65460952D01*
X198879819Y-65460952D02*
X198927438Y-65365714D01*
X198927438Y-65365714D02*
X198975057Y-65318095D01*
X198975057Y-65318095D02*
X199070295Y-65270476D01*
X199070295Y-65270476D02*
X199165533Y-65270476D01*
X199165533Y-65270476D02*
X199308390Y-65318095D01*
X199308390Y-65318095D02*
X199879819Y-65889523D01*
X199879819Y-65889523D02*
X199879819Y-65270476D01*
X198879819Y-64413333D02*
X198879819Y-64603809D01*
X198879819Y-64603809D02*
X198927438Y-64699047D01*
X198927438Y-64699047D02*
X198975057Y-64746666D01*
X198975057Y-64746666D02*
X199117914Y-64841904D01*
X199117914Y-64841904D02*
X199308390Y-64889523D01*
X199308390Y-64889523D02*
X199689342Y-64889523D01*
X199689342Y-64889523D02*
X199784580Y-64841904D01*
X199784580Y-64841904D02*
X199832200Y-64794285D01*
X199832200Y-64794285D02*
X199879819Y-64699047D01*
X199879819Y-64699047D02*
X199879819Y-64508571D01*
X199879819Y-64508571D02*
X199832200Y-64413333D01*
X199832200Y-64413333D02*
X199784580Y-64365714D01*
X199784580Y-64365714D02*
X199689342Y-64318095D01*
X199689342Y-64318095D02*
X199451247Y-64318095D01*
X199451247Y-64318095D02*
X199356009Y-64365714D01*
X199356009Y-64365714D02*
X199308390Y-64413333D01*
X199308390Y-64413333D02*
X199260771Y-64508571D01*
X199260771Y-64508571D02*
X199260771Y-64699047D01*
X199260771Y-64699047D02*
X199308390Y-64794285D01*
X199308390Y-64794285D02*
X199356009Y-64841904D01*
X199356009Y-64841904D02*
X199451247Y-64889523D01*
X181967857Y-122315180D02*
X182301190Y-122791371D01*
X182539285Y-122315180D02*
X182539285Y-123315180D01*
X182539285Y-123315180D02*
X182158333Y-123315180D01*
X182158333Y-123315180D02*
X182063095Y-123267561D01*
X182063095Y-123267561D02*
X182015476Y-123219942D01*
X182015476Y-123219942D02*
X181967857Y-123124704D01*
X181967857Y-123124704D02*
X181967857Y-122981847D01*
X181967857Y-122981847D02*
X182015476Y-122886609D01*
X182015476Y-122886609D02*
X182063095Y-122838990D01*
X182063095Y-122838990D02*
X182158333Y-122791371D01*
X182158333Y-122791371D02*
X182539285Y-122791371D01*
X181015476Y-122315180D02*
X181586904Y-122315180D01*
X181301190Y-122315180D02*
X181301190Y-123315180D01*
X181301190Y-123315180D02*
X181396428Y-123172323D01*
X181396428Y-123172323D02*
X181491666Y-123077085D01*
X181491666Y-123077085D02*
X181586904Y-123029466D01*
X180396428Y-123315180D02*
X180301190Y-123315180D01*
X180301190Y-123315180D02*
X180205952Y-123267561D01*
X180205952Y-123267561D02*
X180158333Y-123219942D01*
X180158333Y-123219942D02*
X180110714Y-123124704D01*
X180110714Y-123124704D02*
X180063095Y-122934228D01*
X180063095Y-122934228D02*
X180063095Y-122696133D01*
X180063095Y-122696133D02*
X180110714Y-122505657D01*
X180110714Y-122505657D02*
X180158333Y-122410419D01*
X180158333Y-122410419D02*
X180205952Y-122362800D01*
X180205952Y-122362800D02*
X180301190Y-122315180D01*
X180301190Y-122315180D02*
X180396428Y-122315180D01*
X180396428Y-122315180D02*
X180491666Y-122362800D01*
X180491666Y-122362800D02*
X180539285Y-122410419D01*
X180539285Y-122410419D02*
X180586904Y-122505657D01*
X180586904Y-122505657D02*
X180634523Y-122696133D01*
X180634523Y-122696133D02*
X180634523Y-122934228D01*
X180634523Y-122934228D02*
X180586904Y-123124704D01*
X180586904Y-123124704D02*
X180539285Y-123219942D01*
X180539285Y-123219942D02*
X180491666Y-123267561D01*
X180491666Y-123267561D02*
X180396428Y-123315180D01*
X225376666Y-113434819D02*
X225376666Y-114149104D01*
X225376666Y-114149104D02*
X225329047Y-114291961D01*
X225329047Y-114291961D02*
X225233809Y-114387200D01*
X225233809Y-114387200D02*
X225090952Y-114434819D01*
X225090952Y-114434819D02*
X224995714Y-114434819D01*
X225805238Y-113530057D02*
X225852857Y-113482438D01*
X225852857Y-113482438D02*
X225948095Y-113434819D01*
X225948095Y-113434819D02*
X226186190Y-113434819D01*
X226186190Y-113434819D02*
X226281428Y-113482438D01*
X226281428Y-113482438D02*
X226329047Y-113530057D01*
X226329047Y-113530057D02*
X226376666Y-113625295D01*
X226376666Y-113625295D02*
X226376666Y-113720533D01*
X226376666Y-113720533D02*
X226329047Y-113863390D01*
X226329047Y-113863390D02*
X225757619Y-114434819D01*
X225757619Y-114434819D02*
X226376666Y-114434819D01*
X171828742Y-129891980D02*
X171781123Y-129939600D01*
X171781123Y-129939600D02*
X171638266Y-129987219D01*
X171638266Y-129987219D02*
X171543028Y-129987219D01*
X171543028Y-129987219D02*
X171400171Y-129939600D01*
X171400171Y-129939600D02*
X171304933Y-129844361D01*
X171304933Y-129844361D02*
X171257314Y-129749123D01*
X171257314Y-129749123D02*
X171209695Y-129558647D01*
X171209695Y-129558647D02*
X171209695Y-129415790D01*
X171209695Y-129415790D02*
X171257314Y-129225314D01*
X171257314Y-129225314D02*
X171304933Y-129130076D01*
X171304933Y-129130076D02*
X171400171Y-129034838D01*
X171400171Y-129034838D02*
X171543028Y-128987219D01*
X171543028Y-128987219D02*
X171638266Y-128987219D01*
X171638266Y-128987219D02*
X171781123Y-129034838D01*
X171781123Y-129034838D02*
X171828742Y-129082457D01*
X172781123Y-129987219D02*
X172209695Y-129987219D01*
X172495409Y-129987219D02*
X172495409Y-128987219D01*
X172495409Y-128987219D02*
X172400171Y-129130076D01*
X172400171Y-129130076D02*
X172304933Y-129225314D01*
X172304933Y-129225314D02*
X172209695Y-129272933D01*
X173114457Y-128987219D02*
X173781123Y-128987219D01*
X173781123Y-128987219D02*
X173352552Y-129987219D01*
X215534580Y-87036666D02*
X215582200Y-87084285D01*
X215582200Y-87084285D02*
X215629819Y-87227142D01*
X215629819Y-87227142D02*
X215629819Y-87322380D01*
X215629819Y-87322380D02*
X215582200Y-87465237D01*
X215582200Y-87465237D02*
X215486961Y-87560475D01*
X215486961Y-87560475D02*
X215391723Y-87608094D01*
X215391723Y-87608094D02*
X215201247Y-87655713D01*
X215201247Y-87655713D02*
X215058390Y-87655713D01*
X215058390Y-87655713D02*
X214867914Y-87608094D01*
X214867914Y-87608094D02*
X214772676Y-87560475D01*
X214772676Y-87560475D02*
X214677438Y-87465237D01*
X214677438Y-87465237D02*
X214629819Y-87322380D01*
X214629819Y-87322380D02*
X214629819Y-87227142D01*
X214629819Y-87227142D02*
X214677438Y-87084285D01*
X214677438Y-87084285D02*
X214725057Y-87036666D01*
X215629819Y-86084285D02*
X215629819Y-86655713D01*
X215629819Y-86369999D02*
X214629819Y-86369999D01*
X214629819Y-86369999D02*
X214772676Y-86465237D01*
X214772676Y-86465237D02*
X214867914Y-86560475D01*
X214867914Y-86560475D02*
X214915533Y-86655713D01*
X170976980Y-89332057D02*
X171024600Y-89379676D01*
X171024600Y-89379676D02*
X171072219Y-89522533D01*
X171072219Y-89522533D02*
X171072219Y-89617771D01*
X171072219Y-89617771D02*
X171024600Y-89760628D01*
X171024600Y-89760628D02*
X170929361Y-89855866D01*
X170929361Y-89855866D02*
X170834123Y-89903485D01*
X170834123Y-89903485D02*
X170643647Y-89951104D01*
X170643647Y-89951104D02*
X170500790Y-89951104D01*
X170500790Y-89951104D02*
X170310314Y-89903485D01*
X170310314Y-89903485D02*
X170215076Y-89855866D01*
X170215076Y-89855866D02*
X170119838Y-89760628D01*
X170119838Y-89760628D02*
X170072219Y-89617771D01*
X170072219Y-89617771D02*
X170072219Y-89522533D01*
X170072219Y-89522533D02*
X170119838Y-89379676D01*
X170119838Y-89379676D02*
X170167457Y-89332057D01*
X170167457Y-88951104D02*
X170119838Y-88903485D01*
X170119838Y-88903485D02*
X170072219Y-88808247D01*
X170072219Y-88808247D02*
X170072219Y-88570152D01*
X170072219Y-88570152D02*
X170119838Y-88474914D01*
X170119838Y-88474914D02*
X170167457Y-88427295D01*
X170167457Y-88427295D02*
X170262695Y-88379676D01*
X170262695Y-88379676D02*
X170357933Y-88379676D01*
X170357933Y-88379676D02*
X170500790Y-88427295D01*
X170500790Y-88427295D02*
X171072219Y-88998723D01*
X171072219Y-88998723D02*
X171072219Y-88379676D01*
X171072219Y-87427295D02*
X171072219Y-87998723D01*
X171072219Y-87713009D02*
X170072219Y-87713009D01*
X170072219Y-87713009D02*
X170215076Y-87808247D01*
X170215076Y-87808247D02*
X170310314Y-87903485D01*
X170310314Y-87903485D02*
X170357933Y-87998723D01*
X189584580Y-71462857D02*
X189632200Y-71510476D01*
X189632200Y-71510476D02*
X189679819Y-71653333D01*
X189679819Y-71653333D02*
X189679819Y-71748571D01*
X189679819Y-71748571D02*
X189632200Y-71891428D01*
X189632200Y-71891428D02*
X189536961Y-71986666D01*
X189536961Y-71986666D02*
X189441723Y-72034285D01*
X189441723Y-72034285D02*
X189251247Y-72081904D01*
X189251247Y-72081904D02*
X189108390Y-72081904D01*
X189108390Y-72081904D02*
X188917914Y-72034285D01*
X188917914Y-72034285D02*
X188822676Y-71986666D01*
X188822676Y-71986666D02*
X188727438Y-71891428D01*
X188727438Y-71891428D02*
X188679819Y-71748571D01*
X188679819Y-71748571D02*
X188679819Y-71653333D01*
X188679819Y-71653333D02*
X188727438Y-71510476D01*
X188727438Y-71510476D02*
X188775057Y-71462857D01*
X189679819Y-70510476D02*
X189679819Y-71081904D01*
X189679819Y-70796190D02*
X188679819Y-70796190D01*
X188679819Y-70796190D02*
X188822676Y-70891428D01*
X188822676Y-70891428D02*
X188917914Y-70986666D01*
X188917914Y-70986666D02*
X188965533Y-71081904D01*
X189679819Y-69558095D02*
X189679819Y-70129523D01*
X189679819Y-69843809D02*
X188679819Y-69843809D01*
X188679819Y-69843809D02*
X188822676Y-69939047D01*
X188822676Y-69939047D02*
X188917914Y-70034285D01*
X188917914Y-70034285D02*
X188965533Y-70129523D01*
X210279819Y-70531904D02*
X211089342Y-70531904D01*
X211089342Y-70531904D02*
X211184580Y-70484285D01*
X211184580Y-70484285D02*
X211232200Y-70436666D01*
X211232200Y-70436666D02*
X211279819Y-70341428D01*
X211279819Y-70341428D02*
X211279819Y-70150952D01*
X211279819Y-70150952D02*
X211232200Y-70055714D01*
X211232200Y-70055714D02*
X211184580Y-70008095D01*
X211184580Y-70008095D02*
X211089342Y-69960476D01*
X211089342Y-69960476D02*
X210279819Y-69960476D01*
X210708390Y-69341428D02*
X210660771Y-69436666D01*
X210660771Y-69436666D02*
X210613152Y-69484285D01*
X210613152Y-69484285D02*
X210517914Y-69531904D01*
X210517914Y-69531904D02*
X210470295Y-69531904D01*
X210470295Y-69531904D02*
X210375057Y-69484285D01*
X210375057Y-69484285D02*
X210327438Y-69436666D01*
X210327438Y-69436666D02*
X210279819Y-69341428D01*
X210279819Y-69341428D02*
X210279819Y-69150952D01*
X210279819Y-69150952D02*
X210327438Y-69055714D01*
X210327438Y-69055714D02*
X210375057Y-69008095D01*
X210375057Y-69008095D02*
X210470295Y-68960476D01*
X210470295Y-68960476D02*
X210517914Y-68960476D01*
X210517914Y-68960476D02*
X210613152Y-69008095D01*
X210613152Y-69008095D02*
X210660771Y-69055714D01*
X210660771Y-69055714D02*
X210708390Y-69150952D01*
X210708390Y-69150952D02*
X210708390Y-69341428D01*
X210708390Y-69341428D02*
X210756009Y-69436666D01*
X210756009Y-69436666D02*
X210803628Y-69484285D01*
X210803628Y-69484285D02*
X210898866Y-69531904D01*
X210898866Y-69531904D02*
X211089342Y-69531904D01*
X211089342Y-69531904D02*
X211184580Y-69484285D01*
X211184580Y-69484285D02*
X211232200Y-69436666D01*
X211232200Y-69436666D02*
X211279819Y-69341428D01*
X211279819Y-69341428D02*
X211279819Y-69150952D01*
X211279819Y-69150952D02*
X211232200Y-69055714D01*
X211232200Y-69055714D02*
X211184580Y-69008095D01*
X211184580Y-69008095D02*
X211089342Y-68960476D01*
X211089342Y-68960476D02*
X210898866Y-68960476D01*
X210898866Y-68960476D02*
X210803628Y-69008095D01*
X210803628Y-69008095D02*
X210756009Y-69055714D01*
X210756009Y-69055714D02*
X210708390Y-69150952D01*
X211703116Y-122035643D02*
X211664959Y-122111956D01*
X211664959Y-122111956D02*
X211588646Y-122188270D01*
X211588646Y-122188270D02*
X211474175Y-122302740D01*
X211474175Y-122302740D02*
X211436019Y-122379053D01*
X211436019Y-122379053D02*
X211436019Y-122455367D01*
X211626802Y-122417210D02*
X211588646Y-122493524D01*
X211588646Y-122493524D02*
X211512332Y-122569837D01*
X211512332Y-122569837D02*
X211359705Y-122607994D01*
X211359705Y-122607994D02*
X211092608Y-122607994D01*
X211092608Y-122607994D02*
X210939981Y-122569837D01*
X210939981Y-122569837D02*
X210863668Y-122493524D01*
X210863668Y-122493524D02*
X210825511Y-122417210D01*
X210825511Y-122417210D02*
X210825511Y-122264583D01*
X210825511Y-122264583D02*
X210863668Y-122188270D01*
X210863668Y-122188270D02*
X210939981Y-122111956D01*
X210939981Y-122111956D02*
X211092608Y-122073800D01*
X211092608Y-122073800D02*
X211359705Y-122073800D01*
X211359705Y-122073800D02*
X211512332Y-122111956D01*
X211512332Y-122111956D02*
X211588646Y-122188270D01*
X211588646Y-122188270D02*
X211626802Y-122264583D01*
X211626802Y-122264583D02*
X211626802Y-122417210D01*
X211626802Y-121310665D02*
X211626802Y-121768546D01*
X211626802Y-121539605D02*
X210825511Y-121539605D01*
X210825511Y-121539605D02*
X210939981Y-121615919D01*
X210939981Y-121615919D02*
X211016295Y-121692232D01*
X211016295Y-121692232D02*
X211054452Y-121768546D01*
D12*
%TO.C,D2*%
X206990000Y-101345000D02*
X206990000Y-103045000D01*
X206990000Y-101345000D02*
X209650000Y-101345000D01*
X206990000Y-103045000D02*
X209650000Y-103045000D01*
%TO.C,R7*%
X181665000Y-65080436D02*
X181665000Y-66534564D01*
X183485000Y-65080436D02*
X183485000Y-66534564D01*
%TO.C,R12*%
X186145458Y-115954300D02*
X185670942Y-115954300D01*
X186145458Y-116999300D02*
X185670942Y-116999300D01*
%TO.C,C7*%
X193440000Y-82008748D02*
X193440000Y-82531252D01*
X194910000Y-82008748D02*
X194910000Y-82531252D01*
D11*
%TO.C,U2*%
X206753200Y-105748000D02*
X210903200Y-105748000D01*
X206753200Y-110898000D02*
X210903200Y-110898000D01*
D12*
X206328200Y-105823000D02*
X206088200Y-105493000D01*
X206568200Y-105493000D01*
X206328200Y-105823000D01*
G36*
X206328200Y-105823000D02*
G01*
X206088200Y-105493000D01*
X206568200Y-105493000D01*
X206328200Y-105823000D01*
G37*
%TO.C,R17*%
X182236100Y-132292342D02*
X182236100Y-132766858D01*
X183281100Y-132292342D02*
X183281100Y-132766858D01*
%TO.C,C9*%
X195463748Y-125760000D02*
X195986252Y-125760000D01*
X195463748Y-127230000D02*
X195986252Y-127230000D01*
%TO.C,J4*%
X201920000Y-106650000D02*
X201920000Y-104050000D01*
X201920000Y-109250000D02*
X201920000Y-107920000D01*
X203250000Y-109250000D02*
X201920000Y-109250000D01*
X204580000Y-104050000D02*
X201920000Y-104050000D01*
X204580000Y-106650000D02*
X201920000Y-106650000D01*
X204580000Y-106650000D02*
X204580000Y-104050000D01*
%TO.C,C2*%
X213440000Y-108008748D02*
X213440000Y-108531252D01*
X214910000Y-108008748D02*
X214910000Y-108531252D01*
%TO.C,R4*%
X202795000Y-111329736D02*
X202795000Y-112783864D01*
X204615000Y-111329736D02*
X204615000Y-112783864D01*
%TO.C,R3*%
X200337742Y-110047500D02*
X200812258Y-110047500D01*
X200337742Y-111092500D02*
X200812258Y-111092500D01*
%TO.C,J12*%
X212395000Y-62890000D02*
X212395000Y-65550000D01*
X214995000Y-62890000D02*
X212395000Y-62890000D01*
X214995000Y-62890000D02*
X214995000Y-65550000D01*
X214995000Y-65550000D02*
X212395000Y-65550000D01*
X217595000Y-64220000D02*
X217595000Y-65550000D01*
X217595000Y-65550000D02*
X216265000Y-65550000D01*
%TO.C,C3*%
X212765000Y-128508748D02*
X212765000Y-129031252D01*
X214235000Y-128508748D02*
X214235000Y-129031252D01*
%TO.C,J7*%
X184570000Y-60790000D02*
X184570000Y-63390000D01*
X184570000Y-60790000D02*
X187230000Y-60790000D01*
X184570000Y-63390000D02*
X187230000Y-63390000D01*
X185900000Y-58190000D02*
X187230000Y-58190000D01*
X187230000Y-58190000D02*
X187230000Y-59520000D01*
X187230000Y-60790000D02*
X187230000Y-63390000D01*
%TO.C,R2*%
X201765000Y-88247064D02*
X201765000Y-86792936D01*
X203585000Y-88247064D02*
X203585000Y-86792936D01*
%TO.C,R15*%
X187542458Y-112626900D02*
X187067942Y-112626900D01*
X187542458Y-113671900D02*
X187067942Y-113671900D01*
%TO.C,C4*%
X206243420Y-81989400D02*
X206524580Y-81989400D01*
X206243420Y-83009400D02*
X206524580Y-83009400D01*
D11*
%TO.C,U1*%
X205961000Y-83629400D02*
X210111000Y-83629400D01*
X205961000Y-88779400D02*
X210111000Y-88779400D01*
D12*
X205536000Y-83704400D02*
X205296000Y-83374400D01*
X205776000Y-83374400D01*
X205536000Y-83704400D01*
G36*
X205536000Y-83704400D02*
G01*
X205296000Y-83374400D01*
X205776000Y-83374400D01*
X205536000Y-83704400D01*
G37*
%TO.C,L3*%
X196315000Y-117310000D02*
X196315000Y-118860000D01*
X196315000Y-124430000D02*
X196315000Y-122880000D01*
X203285000Y-117310000D02*
X196315000Y-117310000D01*
X203285000Y-117310000D02*
X203285000Y-118860000D01*
X203285000Y-124430000D02*
X196315000Y-124430000D01*
X203285000Y-124430000D02*
X203285000Y-122880000D01*
%TO.C,C12*%
X189465000Y-66304420D02*
X189465000Y-66585580D01*
X190485000Y-66304420D02*
X190485000Y-66585580D01*
%TO.C,C13*%
X184790580Y-119260000D02*
X184509420Y-119260000D01*
X184790580Y-120280000D02*
X184509420Y-120280000D01*
%TO.C,C15*%
X175734620Y-96256400D02*
X176015780Y-96256400D01*
X175734620Y-97276400D02*
X176015780Y-97276400D01*
%TO.C,C24*%
X178718820Y-109743800D02*
X178999980Y-109743800D01*
X178718820Y-110763800D02*
X178999980Y-110763800D01*
%TO.C,C6*%
X206084420Y-123810000D02*
X206365580Y-123810000D01*
X206084420Y-124830000D02*
X206365580Y-124830000D01*
%TO.C,L4*%
X193450200Y-72284600D02*
X193450200Y-73834600D01*
X193450200Y-79404600D02*
X193450200Y-77854600D01*
X200420200Y-72284600D02*
X193450200Y-72284600D01*
X200420200Y-72284600D02*
X200420200Y-73834600D01*
X200420200Y-79404600D02*
X193450200Y-79404600D01*
X200420200Y-79404600D02*
X200420200Y-77854600D01*
%TO.C,R6*%
X201090000Y-131130436D02*
X201090000Y-132584564D01*
X202910000Y-131130436D02*
X202910000Y-132584564D01*
%TO.C,R24*%
X211805000Y-51162500D02*
X212135000Y-51162500D01*
X211805000Y-57702500D02*
X211805000Y-51162500D01*
X212135000Y-57702500D02*
X211805000Y-57702500D01*
X214215000Y-57702500D02*
X214545000Y-57702500D01*
X214545000Y-51162500D02*
X214215000Y-51162500D01*
X214545000Y-57702500D02*
X214545000Y-51162500D01*
%TO.C,C19*%
X164814380Y-93741800D02*
X164533220Y-93741800D01*
X164814380Y-94761800D02*
X164533220Y-94761800D01*
D13*
%TO.C,U6*%
X177699199Y-132134001D02*
X178152491Y-132134001D01*
X178152491Y-128880001D02*
X177699199Y-128880001D01*
X180499907Y-132134001D02*
X180953199Y-132134001D01*
X180953199Y-128880001D02*
X180499907Y-128880001D01*
D14*
G36*
X181714000Y-129697500D02*
G01*
X181460000Y-129697500D01*
X181460000Y-129316500D01*
X181714000Y-129316500D01*
X181714000Y-129697500D01*
G37*
D12*
%TO.C,C18*%
X175797820Y-93741800D02*
X176078980Y-93741800D01*
X175797820Y-94761800D02*
X176078980Y-94761800D01*
D13*
%TO.C,R8*%
X181022740Y-109061500D02*
X181627260Y-109061500D01*
X181627260Y-105378500D02*
X181022740Y-105378500D01*
D12*
%TO.C,C5*%
X206510820Y-103469600D02*
X206791980Y-103469600D01*
X206510820Y-104489600D02*
X206791980Y-104489600D01*
%TO.C,L5*%
X190697000Y-94323400D02*
X190697000Y-95873400D01*
X190697000Y-101443400D02*
X190697000Y-99893400D01*
X197667000Y-94323400D02*
X190697000Y-94323400D01*
X197667000Y-94323400D02*
X197667000Y-95873400D01*
X197667000Y-101443400D02*
X190697000Y-101443400D01*
X197667000Y-101443400D02*
X197667000Y-99893400D01*
%TO.C,C23*%
X173815800Y-92004780D02*
X173815800Y-91723620D01*
X174835800Y-92004780D02*
X174835800Y-91723620D01*
%TO.C,L6*%
X190740000Y-101860000D02*
X190740000Y-103410000D01*
X190740000Y-108980000D02*
X190740000Y-107430000D01*
X197710000Y-101860000D02*
X190740000Y-101860000D01*
X197710000Y-101860000D02*
X197710000Y-103410000D01*
X197710000Y-108980000D02*
X190740000Y-108980000D01*
X197710000Y-108980000D02*
X197710000Y-107430000D01*
D13*
%TO.C,U7*%
X168928300Y-94239100D02*
X168928300Y-94685060D01*
X168928300Y-96053740D02*
X168928300Y-96499700D01*
X168928300Y-96499700D02*
X169794961Y-96499700D01*
X169794961Y-94239100D02*
X168928300Y-94239100D01*
X171312839Y-96499700D02*
X172179500Y-96499700D01*
X172179500Y-94239100D02*
X171312839Y-94239100D01*
X172179500Y-94685060D02*
X172179500Y-94239100D01*
X172179500Y-96499700D02*
X172179500Y-96053740D01*
D14*
G36*
X168496500Y-95809900D02*
G01*
X168242500Y-95809900D01*
X168242500Y-95428899D01*
X168496500Y-95428899D01*
X168496500Y-95809900D01*
G37*
D12*
%TO.C,J1*%
X217980000Y-133300000D02*
X217980000Y-51800000D01*
X220630000Y-130650000D02*
X220630000Y-133300000D01*
X220630000Y-133300000D02*
X217980000Y-133300000D01*
X223280000Y-51800000D02*
X217980000Y-51800000D01*
X223280000Y-130650000D02*
X220630000Y-130650000D01*
X223280000Y-130650000D02*
X223280000Y-51800000D01*
X223280000Y-131920000D02*
X223280000Y-133300000D01*
X223280000Y-133300000D02*
X221900000Y-133300000D01*
%TO.C,R13*%
X188914058Y-109426500D02*
X188439542Y-109426500D01*
X188914058Y-110471500D02*
X188439542Y-110471500D01*
%TO.C,J8*%
X182570000Y-100240000D02*
X182570000Y-102840000D01*
X182570000Y-100240000D02*
X185230000Y-100240000D01*
X182570000Y-102840000D02*
X185230000Y-102840000D01*
X183900000Y-97640000D02*
X185230000Y-97640000D01*
X185230000Y-97640000D02*
X185230000Y-98970000D01*
X185230000Y-100240000D02*
X185230000Y-102840000D01*
%TO.C,J11*%
X201945000Y-69040000D02*
X201945000Y-71700000D01*
X204545000Y-69040000D02*
X201945000Y-69040000D01*
X204545000Y-69040000D02*
X204545000Y-71700000D01*
X204545000Y-71700000D02*
X201945000Y-71700000D01*
X207145000Y-70370000D02*
X207145000Y-71700000D01*
X207145000Y-71700000D02*
X205815000Y-71700000D01*
%TO.C,C14*%
X175660180Y-127244400D02*
X175379020Y-127244400D01*
X175660180Y-128264400D02*
X175379020Y-128264400D01*
%TO.C,R16*%
X177784742Y-111331500D02*
X178259258Y-111331500D01*
X177784742Y-112376500D02*
X178259258Y-112376500D01*
%TO.C,L2*%
X200040000Y-94060000D02*
X200040000Y-95610000D01*
X200040000Y-101180000D02*
X200040000Y-99630000D01*
X207010000Y-94060000D02*
X200040000Y-94060000D01*
X207010000Y-94060000D02*
X207010000Y-95610000D01*
X207010000Y-101180000D02*
X200040000Y-101180000D01*
X207010000Y-101180000D02*
X207010000Y-99630000D01*
%TO.C,D3*%
X206365000Y-120420000D02*
X206365000Y-122120000D01*
X206365000Y-120420000D02*
X209025000Y-120420000D01*
X206365000Y-122120000D02*
X209025000Y-122120000D01*
%TO.C,R1*%
X199437742Y-88497500D02*
X199912258Y-88497500D01*
X199437742Y-89542500D02*
X199912258Y-89542500D01*
%TO.C,C8*%
X197040000Y-111831252D02*
X197040000Y-111308748D01*
X198510000Y-111831252D02*
X198510000Y-111308748D01*
D15*
%TO.C,Q3*%
X212889400Y-115481200D02*
X212889400Y-113481200D01*
X215039400Y-115481200D02*
X215039400Y-113481200D01*
D16*
X213351203Y-116181200D02*
G75*
G02*
X213127597Y-116181200I-111803J0D01*
G01*
X213127597Y-116181200D02*
G75*
G02*
X213351203Y-116181200I111803J0D01*
G01*
D12*
%TO.C,C10*%
X190265000Y-70233748D02*
X190265000Y-71656252D01*
X192085000Y-70233748D02*
X192085000Y-71656252D01*
%TO.C,L1*%
X202876000Y-72284600D02*
X202876000Y-73834600D01*
X202876000Y-79404600D02*
X202876000Y-77854600D01*
X209846000Y-72284600D02*
X202876000Y-72284600D01*
X209846000Y-72284600D02*
X209846000Y-73834600D01*
X209846000Y-79404600D02*
X202876000Y-79404600D01*
X209846000Y-79404600D02*
X209846000Y-77854600D01*
%TO.C,R21*%
X215402500Y-74257258D02*
X215402500Y-73782742D01*
X216447500Y-74257258D02*
X216447500Y-73782742D01*
%TO.C,J10*%
X171105000Y-121340000D02*
X172435000Y-121340000D01*
X171105000Y-122670000D02*
X171105000Y-121340000D01*
X173705000Y-121340000D02*
X176305000Y-121340000D01*
X173705000Y-124000000D02*
X173705000Y-121340000D01*
X173705000Y-124000000D02*
X176305000Y-124000000D01*
X176305000Y-124000000D02*
X176305000Y-121340000D01*
%TO.C,U5*%
X179540000Y-112835000D02*
X180240000Y-112835000D01*
X179540000Y-113535000D02*
X179540000Y-112835000D01*
X179540000Y-116355000D02*
X179540000Y-116755000D01*
X180240000Y-117055000D02*
X179780000Y-117055000D01*
X183760000Y-112835000D02*
X183060000Y-112835000D01*
X183760000Y-113535000D02*
X183760000Y-112835000D01*
X183760000Y-116355000D02*
X183760000Y-117055000D01*
X183760000Y-117055000D02*
X183060000Y-117055000D01*
X179540000Y-117055000D02*
X179210000Y-117295000D01*
X179210000Y-116815000D01*
X179540000Y-117055000D01*
G36*
X179540000Y-117055000D02*
G01*
X179210000Y-117295000D01*
X179210000Y-116815000D01*
X179540000Y-117055000D01*
G37*
%TO.C,R23*%
X202805000Y-59440000D02*
X202805000Y-65980000D01*
X202805000Y-65980000D02*
X203135000Y-65980000D01*
X203135000Y-59440000D02*
X202805000Y-59440000D01*
X205215000Y-59440000D02*
X205545000Y-59440000D01*
X205545000Y-59440000D02*
X205545000Y-65980000D01*
X205545000Y-65980000D02*
X205215000Y-65980000D01*
%TO.C,J9*%
X171620000Y-107590000D02*
X171620000Y-110190000D01*
X171620000Y-107590000D02*
X174280000Y-107590000D01*
X171620000Y-110190000D02*
X174280000Y-110190000D01*
X172950000Y-104990000D02*
X174280000Y-104990000D01*
X174280000Y-104990000D02*
X174280000Y-106320000D01*
X174280000Y-107590000D02*
X174280000Y-110190000D01*
%TO.C,R20*%
X215402500Y-78282258D02*
X215402500Y-77807742D01*
X216447500Y-78282258D02*
X216447500Y-77807742D01*
%TO.C,C16*%
X164839780Y-95672200D02*
X164558620Y-95672200D01*
X164839780Y-96692200D02*
X164558620Y-96692200D01*
%TO.C,R5*%
X196977500Y-131257742D02*
X196977500Y-131732258D01*
X198022500Y-131257742D02*
X198022500Y-131732258D01*
%TO.C,R18*%
X171464258Y-98453700D02*
X170989742Y-98453700D01*
X171464258Y-99498700D02*
X170989742Y-99498700D01*
D13*
%TO.C,R9*%
X171333500Y-114367740D02*
X171333500Y-114972260D01*
X175016500Y-114972260D02*
X175016500Y-114367740D01*
D12*
%TO.C,J6*%
X189370000Y-61100000D02*
X189370000Y-58500000D01*
X189370000Y-63700000D02*
X189370000Y-62370000D01*
X190700000Y-63700000D02*
X189370000Y-63700000D01*
X192030000Y-58500000D02*
X189370000Y-58500000D01*
X192030000Y-61100000D02*
X189370000Y-61100000D01*
X192030000Y-61100000D02*
X192030000Y-58500000D01*
D15*
%TO.C,U4*%
X185415000Y-64545000D02*
X184675000Y-64545000D01*
X185415000Y-67545000D02*
X184675000Y-67545000D01*
X187675000Y-64545000D02*
X186935000Y-64545000D01*
X187675000Y-67545000D02*
X186935000Y-67545000D01*
D16*
X188605000Y-67020000D02*
G75*
G02*
X188405000Y-67020000I-100000J0D01*
G01*
X188405000Y-67020000D02*
G75*
G02*
X188605000Y-67020000I100000J0D01*
G01*
D12*
%TO.C,R14*%
X188177458Y-111026700D02*
X187702942Y-111026700D01*
X188177458Y-112071700D02*
X187702942Y-112071700D01*
%TO.C,R27*%
X207055000Y-60250000D02*
X207385000Y-60250000D01*
X207055000Y-66790000D02*
X207055000Y-60250000D01*
X207385000Y-66790000D02*
X207055000Y-66790000D01*
X209465000Y-66790000D02*
X209795000Y-66790000D01*
X209795000Y-60250000D02*
X209465000Y-60250000D01*
X209795000Y-66790000D02*
X209795000Y-60250000D01*
D15*
%TO.C,Q2*%
X211975000Y-120170000D02*
X211975000Y-118170000D01*
X214125000Y-120170000D02*
X214125000Y-118170000D01*
D16*
X212436803Y-120870000D02*
G75*
G02*
X212213197Y-120870000I-111803J0D01*
G01*
X212213197Y-120870000D02*
G75*
G02*
X212436803Y-120870000I111803J0D01*
G01*
D12*
%TO.C,R22*%
X215402500Y-70082258D02*
X215402500Y-69607742D01*
X216447500Y-70082258D02*
X216447500Y-69607742D01*
%TO.C,J5*%
X195855000Y-114140000D02*
X197185000Y-114140000D01*
X195855000Y-115470000D02*
X195855000Y-114140000D01*
X198455000Y-114140000D02*
X201055000Y-114140000D01*
X198455000Y-116800000D02*
X198455000Y-114140000D01*
X198455000Y-116800000D02*
X201055000Y-116800000D01*
X201055000Y-116800000D02*
X201055000Y-114140000D01*
%TO.C,C20*%
X168278600Y-92017780D02*
X168278600Y-91736620D01*
X169298600Y-92017780D02*
X169298600Y-91736620D01*
%TO.C,R11*%
X186755058Y-114252500D02*
X186280542Y-114252500D01*
X186755058Y-115297500D02*
X186280542Y-115297500D01*
%TO.C,D1*%
X207723200Y-79871400D02*
X205063200Y-79871400D01*
X207723200Y-81571400D02*
X205063200Y-81571400D01*
X207723200Y-81571400D02*
X207723200Y-79871400D01*
%TO.C,R19*%
X172050700Y-92126858D02*
X172050700Y-91652342D01*
X173095700Y-92126858D02*
X173095700Y-91652342D01*
%TO.C,C22*%
X171342180Y-100396600D02*
X171061020Y-100396600D01*
X171342180Y-101416600D02*
X171061020Y-101416600D01*
%TO.C,J3*%
X196645000Y-82540000D02*
X196645000Y-85140000D01*
X196645000Y-82540000D02*
X199305000Y-82540000D01*
X196645000Y-85140000D02*
X199305000Y-85140000D01*
X197975000Y-79940000D02*
X199305000Y-79940000D01*
X199305000Y-79940000D02*
X199305000Y-81270000D01*
X199305000Y-82540000D02*
X199305000Y-85140000D01*
D11*
%TO.C,U3*%
X206225000Y-126340000D02*
X210375000Y-126340000D01*
X206225000Y-131490000D02*
X210375000Y-131490000D01*
D12*
X205800000Y-126415000D02*
X205560000Y-126085000D01*
X206040000Y-126085000D01*
X205800000Y-126415000D01*
G36*
X205800000Y-126415000D02*
G01*
X205560000Y-126085000D01*
X206040000Y-126085000D01*
X205800000Y-126415000D01*
G37*
%TO.C,R26*%
X198055000Y-62310000D02*
X198385000Y-62310000D01*
X198055000Y-68850000D02*
X198055000Y-62310000D01*
X198385000Y-68850000D02*
X198055000Y-68850000D01*
X200465000Y-68850000D02*
X200795000Y-68850000D01*
X200795000Y-62310000D02*
X200465000Y-62310000D01*
X200795000Y-68850000D02*
X200795000Y-62310000D01*
D13*
%TO.C,R10*%
X181022740Y-124611500D02*
X181627260Y-124611500D01*
X181627260Y-120928500D02*
X181022740Y-120928500D01*
D12*
%TO.C,J2*%
X223060000Y-112980000D02*
X223060000Y-61960000D01*
X225710000Y-110330000D02*
X225710000Y-112980000D01*
X225710000Y-112980000D02*
X223060000Y-112980000D01*
X228360000Y-61960000D02*
X223060000Y-61960000D01*
X228360000Y-110330000D02*
X225710000Y-110330000D01*
X228360000Y-110330000D02*
X228360000Y-61960000D01*
X228360000Y-111600000D02*
X228360000Y-112980000D01*
X228360000Y-112980000D02*
X226980000Y-112980000D01*
%TO.C,C17*%
X175660180Y-128895400D02*
X175379020Y-128895400D01*
X175660180Y-129915400D02*
X175379020Y-129915400D01*
%TO.C,C1*%
X212473000Y-86048148D02*
X212473000Y-86570652D01*
X213943000Y-86048148D02*
X213943000Y-86570652D01*
%TO.C,C21*%
X170031200Y-91877780D02*
X170031200Y-91596620D01*
X171051200Y-91877780D02*
X171051200Y-91596620D01*
%TO.C,C11*%
X186465000Y-70108748D02*
X186465000Y-71531252D01*
X188285000Y-70108748D02*
X188285000Y-71531252D01*
D16*
%TO.C,U8*%
X211524422Y-69044129D02*
X211524422Y-68844129D01*
X211524422Y-70695871D02*
X211524422Y-70303400D01*
X211726200Y-68844129D02*
X211526200Y-68844129D01*
X211921000Y-70695871D02*
X211526200Y-70695871D01*
X212823800Y-68844129D02*
X212623800Y-68844129D01*
X212823800Y-70695871D02*
X212623800Y-70695871D01*
X212825578Y-69044129D02*
X212825578Y-68844129D01*
X212825578Y-70695871D02*
X212825578Y-70495871D01*
D15*
%TO.C,Q1*%
X212125000Y-123750600D02*
X212125000Y-121750600D01*
X214275000Y-123750600D02*
X214275000Y-121750600D01*
D16*
X212586803Y-124450600D02*
G75*
G02*
X212363197Y-124450600I-111803J0D01*
G01*
X212363197Y-124450600D02*
G75*
G02*
X212586803Y-124450600I111803J0D01*
G01*
%TD*%
D17*
%TO.C,J1*%
X221900000Y-109060000D03*
%TD*%
M02*
