%TF.GenerationSoftware,KiCad,Pcbnew,9.0.2*%
%TF.CreationDate,2026-02-19T14:28:25-08:00*%
%TF.ProjectId,EPS_PCB_Prototyping,4550535f-5043-4425-9f50-726f746f7479,rev?*%
%TF.SameCoordinates,Original*%
%TF.FileFunction,Paste,Top*%
%TF.FilePolarity,Positive*%
%FSLAX46Y46*%
G04 Gerber Fmt 4.6, Leading zero omitted, Abs format (unit mm)*
G04 Created by KiCad (PCBNEW 9.0.2) date 2026-02-19 14:28:25*
%MOMM*%
%LPD*%
G01*
G04 APERTURE LIST*
G04 Aperture macros list*
%AMRoundRect*
0 Rectangle with rounded corners*
0 $1 Rounding radius*
0 $2 $3 $4 $5 $6 $7 $8 $9 X,Y pos of 4 corners*
0 Add a 4 corners polygon primitive as box body*
4,1,4,$2,$3,$4,$5,$6,$7,$8,$9,$2,$3,0*
0 Add four circle primitives for the rounded corners*
1,1,$1+$1,$2,$3*
1,1,$1+$1,$4,$5*
1,1,$1+$1,$6,$7*
1,1,$1+$1,$8,$9*
0 Add four rect primitives between the rounded corners*
20,1,$1+$1,$2,$3,$4,$5,0*
20,1,$1+$1,$4,$5,$6,$7,0*
20,1,$1+$1,$6,$7,$8,$9,0*
20,1,$1+$1,$8,$9,$2,$3,0*%
%AMFreePoly0*
4,1,33,2.048839,0.198839,2.052500,0.190000,2.052500,-0.190000,2.048839,-0.198839,2.040000,-0.202500,1.692500,-0.202500,1.692500,-0.447500,2.040000,-0.447500,2.048839,-0.451161,2.052500,-0.460000,2.052500,-0.840000,2.048839,-0.848839,2.040000,-0.852500,-0.240000,-0.852500,-0.248839,-0.848839,-0.252500,-0.840000,-0.252500,-0.460000,-0.248839,-0.451161,-0.240000,-0.447500,0.107500,-0.447500,
0.107500,-0.202500,-0.240000,-0.202500,-0.246036,-0.200000,-0.250000,-0.200000,-0.250000,-0.196035,-0.252500,-0.190000,-0.252500,0.190000,-0.250000,0.196035,-0.250000,0.200000,-0.246036,0.200000,-0.240000,0.202500,2.040000,0.202500,2.048839,0.198839,2.048839,0.198839,$1*%
G04 Aperture macros list end*
%ADD10C,0.000000*%
%ADD11C,0.010000*%
%ADD12RoundRect,0.112500X-0.187500X-0.112500X0.187500X-0.112500X0.187500X0.112500X-0.187500X0.112500X0*%
%ADD13RoundRect,0.250000X-0.625000X0.312500X-0.625000X-0.312500X0.625000X-0.312500X0.625000X0.312500X0*%
%ADD14RoundRect,0.200000X0.200000X0.275000X-0.200000X0.275000X-0.200000X-0.275000X0.200000X-0.275000X0*%
%ADD15RoundRect,0.250000X-0.475000X0.250000X-0.475000X-0.250000X0.475000X-0.250000X0.475000X0.250000X0*%
%ADD16R,1.550000X0.600000*%
%ADD17R,2.600000X3.100000*%
%ADD18RoundRect,0.200000X-0.275000X0.200000X-0.275000X-0.200000X0.275000X-0.200000X0.275000X0.200000X0*%
%ADD19RoundRect,0.250000X-0.250000X-0.475000X0.250000X-0.475000X0.250000X0.475000X-0.250000X0.475000X0*%
%ADD20RoundRect,0.200000X-0.200000X-0.275000X0.200000X-0.275000X0.200000X0.275000X-0.200000X0.275000X0*%
%ADD21RoundRect,0.250000X0.625000X-0.312500X0.625000X0.312500X-0.625000X0.312500X-0.625000X-0.312500X0*%
%ADD22RoundRect,0.225000X-0.225000X-0.250000X0.225000X-0.250000X0.225000X0.250000X-0.225000X0.250000X0*%
%ADD23RoundRect,0.250000X0.925000X1.500000X-0.925000X1.500000X-0.925000X-1.500000X0.925000X-1.500000X0*%
%ADD24RoundRect,0.225000X-0.250000X0.225000X-0.250000X-0.225000X0.250000X-0.225000X0.250000X0.225000X0*%
%ADD25RoundRect,0.225000X0.225000X0.250000X-0.225000X0.250000X-0.225000X-0.250000X0.225000X-0.250000X0*%
%ADD26R,0.704800X0.249200*%
%ADD27R,1.700000X3.099999*%
%ADD28R,3.048000X3.683000*%
%ADD29RoundRect,0.225000X0.250000X-0.225000X0.250000X0.225000X-0.250000X0.225000X-0.250000X-0.225000X0*%
%ADD30R,0.152400X0.812800*%
%ADD31R,0.812800X0.203200*%
%ADD32C,1.700000*%
%ADD33RoundRect,0.250000X0.475000X-0.250000X0.475000X0.250000X-0.475000X0.250000X-0.475000X-0.250000X0*%
%ADD34FreePoly0,90.000000*%
%ADD35R,0.400000X0.500000*%
%ADD36R,0.285000X0.920000*%
%ADD37RoundRect,0.250000X-0.650000X0.325000X-0.650000X-0.325000X0.650000X-0.325000X0.650000X0.325000X0*%
%ADD38RoundRect,0.200000X0.275000X-0.200000X0.275000X0.200000X-0.275000X0.200000X-0.275000X-0.200000X0*%
%ADD39RoundRect,0.212500X0.212500X-0.212500X0.212500X0.212500X-0.212500X0.212500X-0.212500X-0.212500X0*%
%ADD40RoundRect,0.087500X0.087500X-0.425000X0.087500X0.425000X-0.087500X0.425000X-0.087500X-0.425000X0*%
%ADD41RoundRect,0.087500X0.425000X-0.087500X0.425000X0.087500X-0.425000X0.087500X-0.425000X-0.087500X0*%
%ADD42R,3.683000X3.048000*%
%ADD43RoundRect,0.049600X0.250400X0.105400X-0.250400X0.105400X-0.250400X-0.105400X0.250400X-0.105400X0*%
%ADD44RoundRect,0.112500X0.187500X0.112500X-0.187500X0.112500X-0.187500X-0.112500X0.187500X-0.112500X0*%
%ADD45R,0.150000X0.349999*%
G04 APERTURE END LIST*
D10*
%TO.C,U6*%
G36*
X180076199Y-130407001D02*
G01*
X178576199Y-130407001D01*
X178576199Y-129057001D01*
X180076199Y-129057001D01*
X180076199Y-130407001D01*
G37*
G36*
X180076199Y-131957001D02*
G01*
X178576199Y-131957001D01*
X178576199Y-130607001D01*
X180076199Y-130607001D01*
X180076199Y-131957001D01*
G37*
D11*
%TO.C,Q3*%
X213984427Y-114941479D02*
X213244400Y-114941479D01*
X213244400Y-114021200D01*
X213984427Y-114021200D01*
X213984427Y-114941479D01*
G36*
X213984427Y-114941479D02*
G01*
X213244400Y-114941479D01*
X213244400Y-114021200D01*
X213984427Y-114021200D01*
X213984427Y-114941479D01*
G37*
%TO.C,U4*%
X186803000Y-65271000D02*
X186805000Y-65271000D01*
X186808000Y-65272000D01*
X186810000Y-65272000D01*
X186813000Y-65273000D01*
X186815000Y-65274000D01*
X186818000Y-65275000D01*
X186820000Y-65277000D01*
X186822000Y-65278000D01*
X186824000Y-65280000D01*
X186826000Y-65281000D01*
X186828000Y-65283000D01*
X186830000Y-65285000D01*
X186832000Y-65287000D01*
X186834000Y-65289000D01*
X186835000Y-65291000D01*
X186837000Y-65293000D01*
X186838000Y-65295000D01*
X186840000Y-65297000D01*
X186841000Y-65300000D01*
X186842000Y-65302000D01*
X186843000Y-65305000D01*
X186843000Y-65307000D01*
X186844000Y-65310000D01*
X186844000Y-65312000D01*
X186845000Y-65315000D01*
X186845000Y-65317000D01*
X186845000Y-65320000D01*
X186845000Y-66770000D01*
X186845000Y-66773000D01*
X186845000Y-66775000D01*
X186844000Y-66778000D01*
X186844000Y-66780000D01*
X186843000Y-66783000D01*
X186843000Y-66785000D01*
X186842000Y-66788000D01*
X186841000Y-66790000D01*
X186840000Y-66793000D01*
X186838000Y-66795000D01*
X186837000Y-66797000D01*
X186835000Y-66799000D01*
X186834000Y-66801000D01*
X186832000Y-66803000D01*
X186830000Y-66805000D01*
X186828000Y-66807000D01*
X186826000Y-66809000D01*
X186824000Y-66810000D01*
X186822000Y-66812000D01*
X186820000Y-66813000D01*
X186818000Y-66815000D01*
X186815000Y-66816000D01*
X186813000Y-66817000D01*
X186810000Y-66818000D01*
X186808000Y-66818000D01*
X186805000Y-66819000D01*
X186803000Y-66819000D01*
X186800000Y-66820000D01*
X186798000Y-66820000D01*
X186795000Y-66820000D01*
X185555000Y-66820000D01*
X185552000Y-66820000D01*
X185550000Y-66820000D01*
X185547000Y-66819000D01*
X185545000Y-66819000D01*
X185542000Y-66818000D01*
X185540000Y-66818000D01*
X185537000Y-66817000D01*
X185535000Y-66816000D01*
X185532000Y-66815000D01*
X185530000Y-66813000D01*
X185528000Y-66812000D01*
X185526000Y-66810000D01*
X185524000Y-66809000D01*
X185522000Y-66807000D01*
X185520000Y-66805000D01*
X185518000Y-66803000D01*
X185516000Y-66801000D01*
X185515000Y-66799000D01*
X185513000Y-66797000D01*
X185512000Y-66795000D01*
X185510000Y-66793000D01*
X185509000Y-66790000D01*
X185508000Y-66788000D01*
X185507000Y-66785000D01*
X185507000Y-66783000D01*
X185506000Y-66780000D01*
X185506000Y-66778000D01*
X185505000Y-66775000D01*
X185505000Y-66773000D01*
X185505000Y-66770000D01*
X185505000Y-65320000D01*
X185505000Y-65317000D01*
X185505000Y-65315000D01*
X185506000Y-65312000D01*
X185506000Y-65310000D01*
X185507000Y-65307000D01*
X185507000Y-65305000D01*
X185508000Y-65302000D01*
X185509000Y-65300000D01*
X185510000Y-65297000D01*
X185512000Y-65295000D01*
X185513000Y-65293000D01*
X185515000Y-65291000D01*
X185516000Y-65289000D01*
X185518000Y-65287000D01*
X185520000Y-65285000D01*
X185522000Y-65283000D01*
X185524000Y-65281000D01*
X185526000Y-65280000D01*
X185528000Y-65278000D01*
X185530000Y-65277000D01*
X185532000Y-65275000D01*
X185535000Y-65274000D01*
X185537000Y-65273000D01*
X185540000Y-65272000D01*
X185542000Y-65272000D01*
X185545000Y-65271000D01*
X185547000Y-65271000D01*
X185550000Y-65270000D01*
X185552000Y-65270000D01*
X185555000Y-65270000D01*
X186795000Y-65270000D01*
X186798000Y-65270000D01*
X186800000Y-65270000D01*
X186803000Y-65271000D01*
G36*
X186803000Y-65271000D02*
G01*
X186805000Y-65271000D01*
X186808000Y-65272000D01*
X186810000Y-65272000D01*
X186813000Y-65273000D01*
X186815000Y-65274000D01*
X186818000Y-65275000D01*
X186820000Y-65277000D01*
X186822000Y-65278000D01*
X186824000Y-65280000D01*
X186826000Y-65281000D01*
X186828000Y-65283000D01*
X186830000Y-65285000D01*
X186832000Y-65287000D01*
X186834000Y-65289000D01*
X186835000Y-65291000D01*
X186837000Y-65293000D01*
X186838000Y-65295000D01*
X186840000Y-65297000D01*
X186841000Y-65300000D01*
X186842000Y-65302000D01*
X186843000Y-65305000D01*
X186843000Y-65307000D01*
X186844000Y-65310000D01*
X186844000Y-65312000D01*
X186845000Y-65315000D01*
X186845000Y-65317000D01*
X186845000Y-65320000D01*
X186845000Y-66770000D01*
X186845000Y-66773000D01*
X186845000Y-66775000D01*
X186844000Y-66778000D01*
X186844000Y-66780000D01*
X186843000Y-66783000D01*
X186843000Y-66785000D01*
X186842000Y-66788000D01*
X186841000Y-66790000D01*
X186840000Y-66793000D01*
X186838000Y-66795000D01*
X186837000Y-66797000D01*
X186835000Y-66799000D01*
X186834000Y-66801000D01*
X186832000Y-66803000D01*
X186830000Y-66805000D01*
X186828000Y-66807000D01*
X186826000Y-66809000D01*
X186824000Y-66810000D01*
X186822000Y-66812000D01*
X186820000Y-66813000D01*
X186818000Y-66815000D01*
X186815000Y-66816000D01*
X186813000Y-66817000D01*
X186810000Y-66818000D01*
X186808000Y-66818000D01*
X186805000Y-66819000D01*
X186803000Y-66819000D01*
X186800000Y-66820000D01*
X186798000Y-66820000D01*
X186795000Y-66820000D01*
X185555000Y-66820000D01*
X185552000Y-66820000D01*
X185550000Y-66820000D01*
X185547000Y-66819000D01*
X185545000Y-66819000D01*
X185542000Y-66818000D01*
X185540000Y-66818000D01*
X185537000Y-66817000D01*
X185535000Y-66816000D01*
X185532000Y-66815000D01*
X185530000Y-66813000D01*
X185528000Y-66812000D01*
X185526000Y-66810000D01*
X185524000Y-66809000D01*
X185522000Y-66807000D01*
X185520000Y-66805000D01*
X185518000Y-66803000D01*
X185516000Y-66801000D01*
X185515000Y-66799000D01*
X185513000Y-66797000D01*
X185512000Y-66795000D01*
X185510000Y-66793000D01*
X185509000Y-66790000D01*
X185508000Y-66788000D01*
X185507000Y-66785000D01*
X185507000Y-66783000D01*
X185506000Y-66780000D01*
X185506000Y-66778000D01*
X185505000Y-66775000D01*
X185505000Y-66773000D01*
X185505000Y-66770000D01*
X185505000Y-65320000D01*
X185505000Y-65317000D01*
X185505000Y-65315000D01*
X185506000Y-65312000D01*
X185506000Y-65310000D01*
X185507000Y-65307000D01*
X185507000Y-65305000D01*
X185508000Y-65302000D01*
X185509000Y-65300000D01*
X185510000Y-65297000D01*
X185512000Y-65295000D01*
X185513000Y-65293000D01*
X185515000Y-65291000D01*
X185516000Y-65289000D01*
X185518000Y-65287000D01*
X185520000Y-65285000D01*
X185522000Y-65283000D01*
X185524000Y-65281000D01*
X185526000Y-65280000D01*
X185528000Y-65278000D01*
X185530000Y-65277000D01*
X185532000Y-65275000D01*
X185535000Y-65274000D01*
X185537000Y-65273000D01*
X185540000Y-65272000D01*
X185542000Y-65272000D01*
X185545000Y-65271000D01*
X185547000Y-65271000D01*
X185550000Y-65270000D01*
X185552000Y-65270000D01*
X185555000Y-65270000D01*
X186795000Y-65270000D01*
X186798000Y-65270000D01*
X186800000Y-65270000D01*
X186803000Y-65271000D01*
G37*
X185925000Y-67021000D02*
X185928000Y-67021000D01*
X185930000Y-67022000D01*
X185933000Y-67023000D01*
X185935000Y-67024000D01*
X185938000Y-67025000D01*
X185940000Y-67026000D01*
X185942000Y-67028000D01*
X185944000Y-67029000D01*
X185946000Y-67031000D01*
X185948000Y-67032000D01*
X185950000Y-67034000D01*
X185952000Y-67036000D01*
X185954000Y-67038000D01*
X185955000Y-67040000D01*
X185957000Y-67042000D01*
X185958000Y-67044000D01*
X185960000Y-67047000D01*
X185961000Y-67049000D01*
X185962000Y-67052000D01*
X185963000Y-67054000D01*
X185963000Y-67057000D01*
X185964000Y-67059000D01*
X185964000Y-67062000D01*
X185965000Y-67064000D01*
X185965000Y-67067000D01*
X185965000Y-67069000D01*
X185965000Y-67694000D01*
X185965000Y-67697000D01*
X185965000Y-67700000D01*
X185964000Y-67702000D01*
X185964000Y-67705000D01*
X185963000Y-67707000D01*
X185963000Y-67710000D01*
X185962000Y-67712000D01*
X185961000Y-67715000D01*
X185960000Y-67717000D01*
X185958000Y-67720000D01*
X185957000Y-67722000D01*
X185955000Y-67724000D01*
X185954000Y-67726000D01*
X185952000Y-67728000D01*
X185950000Y-67730000D01*
X185948000Y-67732000D01*
X185946000Y-67733000D01*
X185944000Y-67735000D01*
X185942000Y-67736000D01*
X185940000Y-67738000D01*
X185938000Y-67739000D01*
X185935000Y-67740000D01*
X185933000Y-67741000D01*
X185930000Y-67742000D01*
X185928000Y-67743000D01*
X185925000Y-67743000D01*
X185923000Y-67744000D01*
X185920000Y-67744000D01*
X185918000Y-67744000D01*
X185915000Y-67745000D01*
X185785000Y-67745000D01*
X185782000Y-67744000D01*
X185780000Y-67744000D01*
X185777000Y-67744000D01*
X185775000Y-67743000D01*
X185772000Y-67743000D01*
X185770000Y-67742000D01*
X185767000Y-67741000D01*
X185765000Y-67740000D01*
X185762000Y-67739000D01*
X185760000Y-67738000D01*
X185758000Y-67736000D01*
X185756000Y-67735000D01*
X185754000Y-67733000D01*
X185752000Y-67732000D01*
X185750000Y-67730000D01*
X185748000Y-67728000D01*
X185746000Y-67726000D01*
X185745000Y-67724000D01*
X185743000Y-67722000D01*
X185742000Y-67720000D01*
X185740000Y-67717000D01*
X185739000Y-67715000D01*
X185738000Y-67712000D01*
X185737000Y-67710000D01*
X185737000Y-67707000D01*
X185736000Y-67705000D01*
X185736000Y-67702000D01*
X185735000Y-67700000D01*
X185735000Y-67697000D01*
X185735000Y-67694500D01*
X185735000Y-67069000D01*
X185735000Y-67067000D01*
X185735000Y-67064000D01*
X185736000Y-67062000D01*
X185736000Y-67059000D01*
X185737000Y-67057000D01*
X185737000Y-67054000D01*
X185738000Y-67052000D01*
X185739000Y-67049000D01*
X185740000Y-67047000D01*
X185742000Y-67044000D01*
X185743000Y-67042000D01*
X185745000Y-67040000D01*
X185746000Y-67038000D01*
X185748000Y-67036000D01*
X185750000Y-67034000D01*
X185752000Y-67032000D01*
X185754000Y-67031000D01*
X185756000Y-67029000D01*
X185758000Y-67028000D01*
X185760000Y-67026000D01*
X185762000Y-67025000D01*
X185765000Y-67024000D01*
X185767000Y-67023000D01*
X185770000Y-67022000D01*
X185772000Y-67021000D01*
X185775000Y-67021000D01*
X185777000Y-67020000D01*
X185780000Y-67020000D01*
X185782000Y-67020000D01*
X185785000Y-67020000D01*
X185915000Y-67020000D01*
X185918000Y-67020000D01*
X185920000Y-67020000D01*
X185923000Y-67020000D01*
X185925000Y-67021000D01*
G36*
X185925000Y-67021000D02*
G01*
X185928000Y-67021000D01*
X185930000Y-67022000D01*
X185933000Y-67023000D01*
X185935000Y-67024000D01*
X185938000Y-67025000D01*
X185940000Y-67026000D01*
X185942000Y-67028000D01*
X185944000Y-67029000D01*
X185946000Y-67031000D01*
X185948000Y-67032000D01*
X185950000Y-67034000D01*
X185952000Y-67036000D01*
X185954000Y-67038000D01*
X185955000Y-67040000D01*
X185957000Y-67042000D01*
X185958000Y-67044000D01*
X185960000Y-67047000D01*
X185961000Y-67049000D01*
X185962000Y-67052000D01*
X185963000Y-67054000D01*
X185963000Y-67057000D01*
X185964000Y-67059000D01*
X185964000Y-67062000D01*
X185965000Y-67064000D01*
X185965000Y-67067000D01*
X185965000Y-67069000D01*
X185965000Y-67694000D01*
X185965000Y-67697000D01*
X185965000Y-67700000D01*
X185964000Y-67702000D01*
X185964000Y-67705000D01*
X185963000Y-67707000D01*
X185963000Y-67710000D01*
X185962000Y-67712000D01*
X185961000Y-67715000D01*
X185960000Y-67717000D01*
X185958000Y-67720000D01*
X185957000Y-67722000D01*
X185955000Y-67724000D01*
X185954000Y-67726000D01*
X185952000Y-67728000D01*
X185950000Y-67730000D01*
X185948000Y-67732000D01*
X185946000Y-67733000D01*
X185944000Y-67735000D01*
X185942000Y-67736000D01*
X185940000Y-67738000D01*
X185938000Y-67739000D01*
X185935000Y-67740000D01*
X185933000Y-67741000D01*
X185930000Y-67742000D01*
X185928000Y-67743000D01*
X185925000Y-67743000D01*
X185923000Y-67744000D01*
X185920000Y-67744000D01*
X185918000Y-67744000D01*
X185915000Y-67745000D01*
X185785000Y-67745000D01*
X185782000Y-67744000D01*
X185780000Y-67744000D01*
X185777000Y-67744000D01*
X185775000Y-67743000D01*
X185772000Y-67743000D01*
X185770000Y-67742000D01*
X185767000Y-67741000D01*
X185765000Y-67740000D01*
X185762000Y-67739000D01*
X185760000Y-67738000D01*
X185758000Y-67736000D01*
X185756000Y-67735000D01*
X185754000Y-67733000D01*
X185752000Y-67732000D01*
X185750000Y-67730000D01*
X185748000Y-67728000D01*
X185746000Y-67726000D01*
X185745000Y-67724000D01*
X185743000Y-67722000D01*
X185742000Y-67720000D01*
X185740000Y-67717000D01*
X185739000Y-67715000D01*
X185738000Y-67712000D01*
X185737000Y-67710000D01*
X185737000Y-67707000D01*
X185736000Y-67705000D01*
X185736000Y-67702000D01*
X185735000Y-67700000D01*
X185735000Y-67697000D01*
X185735000Y-67694500D01*
X185735000Y-67069000D01*
X185735000Y-67067000D01*
X185735000Y-67064000D01*
X185736000Y-67062000D01*
X185736000Y-67059000D01*
X185737000Y-67057000D01*
X185737000Y-67054000D01*
X185738000Y-67052000D01*
X185739000Y-67049000D01*
X185740000Y-67047000D01*
X185742000Y-67044000D01*
X185743000Y-67042000D01*
X185745000Y-67040000D01*
X185746000Y-67038000D01*
X185748000Y-67036000D01*
X185750000Y-67034000D01*
X185752000Y-67032000D01*
X185754000Y-67031000D01*
X185756000Y-67029000D01*
X185758000Y-67028000D01*
X185760000Y-67026000D01*
X185762000Y-67025000D01*
X185765000Y-67024000D01*
X185767000Y-67023000D01*
X185770000Y-67022000D01*
X185772000Y-67021000D01*
X185775000Y-67021000D01*
X185777000Y-67020000D01*
X185780000Y-67020000D01*
X185782000Y-67020000D01*
X185785000Y-67020000D01*
X185915000Y-67020000D01*
X185918000Y-67020000D01*
X185920000Y-67020000D01*
X185923000Y-67020000D01*
X185925000Y-67021000D01*
G37*
X185918000Y-64346000D02*
X185920000Y-64346000D01*
X185923000Y-64346000D01*
X185925000Y-64347000D01*
X185928000Y-64347000D01*
X185930000Y-64348000D01*
X185933000Y-64349000D01*
X185935000Y-64350000D01*
X185938000Y-64351000D01*
X185940000Y-64352000D01*
X185942000Y-64354000D01*
X185944000Y-64355000D01*
X185946000Y-64357000D01*
X185948000Y-64358000D01*
X185950000Y-64360000D01*
X185952000Y-64362000D01*
X185954000Y-64364000D01*
X185955000Y-64366000D01*
X185957000Y-64368000D01*
X185958000Y-64370000D01*
X185960000Y-64373000D01*
X185961000Y-64375000D01*
X185962000Y-64378000D01*
X185963000Y-64380000D01*
X185963000Y-64383000D01*
X185964000Y-64385000D01*
X185964000Y-64388000D01*
X185965000Y-64390000D01*
X185965000Y-64393000D01*
X185965000Y-64396000D01*
X185965000Y-65021000D01*
X185965000Y-65023000D01*
X185965000Y-65026000D01*
X185964000Y-65028000D01*
X185964000Y-65031000D01*
X185963000Y-65033000D01*
X185963000Y-65036000D01*
X185962000Y-65038000D01*
X185961000Y-65041000D01*
X185960000Y-65043000D01*
X185958000Y-65046000D01*
X185957000Y-65048000D01*
X185955000Y-65050000D01*
X185954000Y-65052000D01*
X185952000Y-65054000D01*
X185950000Y-65056000D01*
X185948000Y-65058000D01*
X185946000Y-65059000D01*
X185944000Y-65061000D01*
X185942000Y-65062000D01*
X185940000Y-65064000D01*
X185938000Y-65065000D01*
X185935000Y-65066000D01*
X185933000Y-65067000D01*
X185930000Y-65068000D01*
X185928000Y-65069000D01*
X185925000Y-65069000D01*
X185923000Y-65070000D01*
X185920000Y-65070000D01*
X185918000Y-65070000D01*
X185915000Y-65070000D01*
X185915000Y-65070500D01*
X185785000Y-65070000D01*
X185782000Y-65070000D01*
X185780000Y-65070000D01*
X185777000Y-65070000D01*
X185775000Y-65069000D01*
X185772000Y-65069000D01*
X185770000Y-65068000D01*
X185767000Y-65067000D01*
X185765000Y-65066000D01*
X185762000Y-65065000D01*
X185760000Y-65064000D01*
X185758000Y-65062000D01*
X185756000Y-65061000D01*
X185754000Y-65059000D01*
X185752000Y-65058000D01*
X185750000Y-65056000D01*
X185748000Y-65054000D01*
X185746000Y-65052000D01*
X185745000Y-65050000D01*
X185743000Y-65048000D01*
X185742000Y-65046000D01*
X185740000Y-65043000D01*
X185739000Y-65041000D01*
X185738000Y-65038000D01*
X185737000Y-65036000D01*
X185737000Y-65033000D01*
X185736000Y-65031000D01*
X185736000Y-65028000D01*
X185735000Y-65026000D01*
X185735000Y-65023000D01*
X185735000Y-65021000D01*
X185735000Y-64396000D01*
X185735000Y-64393000D01*
X185735000Y-64390000D01*
X185736000Y-64388000D01*
X185736000Y-64385000D01*
X185737000Y-64383000D01*
X185737000Y-64380000D01*
X185738000Y-64378000D01*
X185739000Y-64375000D01*
X185740000Y-64373000D01*
X185742000Y-64370000D01*
X185743000Y-64368000D01*
X185745000Y-64366000D01*
X185746000Y-64364000D01*
X185748000Y-64362000D01*
X185750000Y-64360000D01*
X185752000Y-64358000D01*
X185754000Y-64357000D01*
X185756000Y-64355000D01*
X185758000Y-64354000D01*
X185760000Y-64352000D01*
X185762000Y-64351000D01*
X185765000Y-64350000D01*
X185767000Y-64349000D01*
X185770000Y-64348000D01*
X185772000Y-64347000D01*
X185775000Y-64347000D01*
X185777000Y-64346000D01*
X185780000Y-64346000D01*
X185782000Y-64346000D01*
X185785000Y-64345000D01*
X185915000Y-64345000D01*
X185918000Y-64346000D01*
G36*
X185918000Y-64346000D02*
G01*
X185920000Y-64346000D01*
X185923000Y-64346000D01*
X185925000Y-64347000D01*
X185928000Y-64347000D01*
X185930000Y-64348000D01*
X185933000Y-64349000D01*
X185935000Y-64350000D01*
X185938000Y-64351000D01*
X185940000Y-64352000D01*
X185942000Y-64354000D01*
X185944000Y-64355000D01*
X185946000Y-64357000D01*
X185948000Y-64358000D01*
X185950000Y-64360000D01*
X185952000Y-64362000D01*
X185954000Y-64364000D01*
X185955000Y-64366000D01*
X185957000Y-64368000D01*
X185958000Y-64370000D01*
X185960000Y-64373000D01*
X185961000Y-64375000D01*
X185962000Y-64378000D01*
X185963000Y-64380000D01*
X185963000Y-64383000D01*
X185964000Y-64385000D01*
X185964000Y-64388000D01*
X185965000Y-64390000D01*
X185965000Y-64393000D01*
X185965000Y-64396000D01*
X185965000Y-65021000D01*
X185965000Y-65023000D01*
X185965000Y-65026000D01*
X185964000Y-65028000D01*
X185964000Y-65031000D01*
X185963000Y-65033000D01*
X185963000Y-65036000D01*
X185962000Y-65038000D01*
X185961000Y-65041000D01*
X185960000Y-65043000D01*
X185958000Y-65046000D01*
X185957000Y-65048000D01*
X185955000Y-65050000D01*
X185954000Y-65052000D01*
X185952000Y-65054000D01*
X185950000Y-65056000D01*
X185948000Y-65058000D01*
X185946000Y-65059000D01*
X185944000Y-65061000D01*
X185942000Y-65062000D01*
X185940000Y-65064000D01*
X185938000Y-65065000D01*
X185935000Y-65066000D01*
X185933000Y-65067000D01*
X185930000Y-65068000D01*
X185928000Y-65069000D01*
X185925000Y-65069000D01*
X185923000Y-65070000D01*
X185920000Y-65070000D01*
X185918000Y-65070000D01*
X185915000Y-65070000D01*
X185915000Y-65070500D01*
X185785000Y-65070000D01*
X185782000Y-65070000D01*
X185780000Y-65070000D01*
X185777000Y-65070000D01*
X185775000Y-65069000D01*
X185772000Y-65069000D01*
X185770000Y-65068000D01*
X185767000Y-65067000D01*
X185765000Y-65066000D01*
X185762000Y-65065000D01*
X185760000Y-65064000D01*
X185758000Y-65062000D01*
X185756000Y-65061000D01*
X185754000Y-65059000D01*
X185752000Y-65058000D01*
X185750000Y-65056000D01*
X185748000Y-65054000D01*
X185746000Y-65052000D01*
X185745000Y-65050000D01*
X185743000Y-65048000D01*
X185742000Y-65046000D01*
X185740000Y-65043000D01*
X185739000Y-65041000D01*
X185738000Y-65038000D01*
X185737000Y-65036000D01*
X185737000Y-65033000D01*
X185736000Y-65031000D01*
X185736000Y-65028000D01*
X185735000Y-65026000D01*
X185735000Y-65023000D01*
X185735000Y-65021000D01*
X185735000Y-64396000D01*
X185735000Y-64393000D01*
X185735000Y-64390000D01*
X185736000Y-64388000D01*
X185736000Y-64385000D01*
X185737000Y-64383000D01*
X185737000Y-64380000D01*
X185738000Y-64378000D01*
X185739000Y-64375000D01*
X185740000Y-64373000D01*
X185742000Y-64370000D01*
X185743000Y-64368000D01*
X185745000Y-64366000D01*
X185746000Y-64364000D01*
X185748000Y-64362000D01*
X185750000Y-64360000D01*
X185752000Y-64358000D01*
X185754000Y-64357000D01*
X185756000Y-64355000D01*
X185758000Y-64354000D01*
X185760000Y-64352000D01*
X185762000Y-64351000D01*
X185765000Y-64350000D01*
X185767000Y-64349000D01*
X185770000Y-64348000D01*
X185772000Y-64347000D01*
X185775000Y-64347000D01*
X185777000Y-64346000D01*
X185780000Y-64346000D01*
X185782000Y-64346000D01*
X185785000Y-64345000D01*
X185915000Y-64345000D01*
X185918000Y-64346000D01*
G37*
X186575000Y-67021000D02*
X186578000Y-67021000D01*
X186580000Y-67022000D01*
X186583000Y-67023000D01*
X186585000Y-67024000D01*
X186588000Y-67025000D01*
X186590000Y-67026000D01*
X186592000Y-67028000D01*
X186594000Y-67029000D01*
X186596000Y-67031000D01*
X186598000Y-67032000D01*
X186600000Y-67034000D01*
X186602000Y-67036000D01*
X186604000Y-67038000D01*
X186605000Y-67040000D01*
X186607000Y-67042000D01*
X186608000Y-67044000D01*
X186610000Y-67047000D01*
X186611000Y-67049000D01*
X186612000Y-67052000D01*
X186613000Y-67054000D01*
X186613000Y-67057000D01*
X186614000Y-67059000D01*
X186614000Y-67062000D01*
X186615000Y-67064000D01*
X186615000Y-67067000D01*
X186615000Y-67069000D01*
X186615000Y-67694000D01*
X186615000Y-67697000D01*
X186615000Y-67700000D01*
X186614000Y-67702000D01*
X186614000Y-67705000D01*
X186613000Y-67707000D01*
X186613000Y-67710000D01*
X186612000Y-67712000D01*
X186611000Y-67715000D01*
X186610000Y-67717000D01*
X186608000Y-67720000D01*
X186607000Y-67722000D01*
X186605000Y-67724000D01*
X186604000Y-67726000D01*
X186602000Y-67728000D01*
X186600000Y-67730000D01*
X186598000Y-67732000D01*
X186596000Y-67733000D01*
X186594000Y-67735000D01*
X186592000Y-67736000D01*
X186590000Y-67738000D01*
X186588000Y-67739000D01*
X186585000Y-67740000D01*
X186583000Y-67741000D01*
X186580000Y-67742000D01*
X186578000Y-67743000D01*
X186575000Y-67743000D01*
X186573000Y-67744000D01*
X186570000Y-67744000D01*
X186568000Y-67744000D01*
X186565000Y-67745000D01*
X186435000Y-67745000D01*
X186432000Y-67744000D01*
X186430000Y-67744000D01*
X186427000Y-67744000D01*
X186425000Y-67743000D01*
X186422000Y-67743000D01*
X186420000Y-67742000D01*
X186417000Y-67741000D01*
X186415000Y-67740000D01*
X186412000Y-67739000D01*
X186410000Y-67738000D01*
X186408000Y-67736000D01*
X186406000Y-67735000D01*
X186404000Y-67733000D01*
X186402000Y-67732000D01*
X186400000Y-67730000D01*
X186398000Y-67728000D01*
X186396000Y-67726000D01*
X186395000Y-67724000D01*
X186393000Y-67722000D01*
X186392000Y-67720000D01*
X186390000Y-67717000D01*
X186389000Y-67715000D01*
X186388000Y-67712000D01*
X186387000Y-67710000D01*
X186387000Y-67707000D01*
X186386000Y-67705000D01*
X186386000Y-67702000D01*
X186385000Y-67700000D01*
X186385000Y-67697000D01*
X186385000Y-67694500D01*
X186385000Y-67069000D01*
X186385000Y-67067000D01*
X186385000Y-67064000D01*
X186386000Y-67062000D01*
X186386000Y-67059000D01*
X186387000Y-67057000D01*
X186387000Y-67054000D01*
X186388000Y-67052000D01*
X186389000Y-67049000D01*
X186390000Y-67047000D01*
X186392000Y-67044000D01*
X186393000Y-67042000D01*
X186395000Y-67040000D01*
X186396000Y-67038000D01*
X186398000Y-67036000D01*
X186400000Y-67034000D01*
X186402000Y-67032000D01*
X186404000Y-67031000D01*
X186406000Y-67029000D01*
X186408000Y-67028000D01*
X186410000Y-67026000D01*
X186412000Y-67025000D01*
X186415000Y-67024000D01*
X186417000Y-67023000D01*
X186420000Y-67022000D01*
X186422000Y-67021000D01*
X186425000Y-67021000D01*
X186427000Y-67020000D01*
X186430000Y-67020000D01*
X186432000Y-67020000D01*
X186435000Y-67020000D01*
X186565000Y-67020000D01*
X186568000Y-67020000D01*
X186570000Y-67020000D01*
X186573000Y-67020000D01*
X186575000Y-67021000D01*
G36*
X186575000Y-67021000D02*
G01*
X186578000Y-67021000D01*
X186580000Y-67022000D01*
X186583000Y-67023000D01*
X186585000Y-67024000D01*
X186588000Y-67025000D01*
X186590000Y-67026000D01*
X186592000Y-67028000D01*
X186594000Y-67029000D01*
X186596000Y-67031000D01*
X186598000Y-67032000D01*
X186600000Y-67034000D01*
X186602000Y-67036000D01*
X186604000Y-67038000D01*
X186605000Y-67040000D01*
X186607000Y-67042000D01*
X186608000Y-67044000D01*
X186610000Y-67047000D01*
X186611000Y-67049000D01*
X186612000Y-67052000D01*
X186613000Y-67054000D01*
X186613000Y-67057000D01*
X186614000Y-67059000D01*
X186614000Y-67062000D01*
X186615000Y-67064000D01*
X186615000Y-67067000D01*
X186615000Y-67069000D01*
X186615000Y-67694000D01*
X186615000Y-67697000D01*
X186615000Y-67700000D01*
X186614000Y-67702000D01*
X186614000Y-67705000D01*
X186613000Y-67707000D01*
X186613000Y-67710000D01*
X186612000Y-67712000D01*
X186611000Y-67715000D01*
X186610000Y-67717000D01*
X186608000Y-67720000D01*
X186607000Y-67722000D01*
X186605000Y-67724000D01*
X186604000Y-67726000D01*
X186602000Y-67728000D01*
X186600000Y-67730000D01*
X186598000Y-67732000D01*
X186596000Y-67733000D01*
X186594000Y-67735000D01*
X186592000Y-67736000D01*
X186590000Y-67738000D01*
X186588000Y-67739000D01*
X186585000Y-67740000D01*
X186583000Y-67741000D01*
X186580000Y-67742000D01*
X186578000Y-67743000D01*
X186575000Y-67743000D01*
X186573000Y-67744000D01*
X186570000Y-67744000D01*
X186568000Y-67744000D01*
X186565000Y-67745000D01*
X186435000Y-67745000D01*
X186432000Y-67744000D01*
X186430000Y-67744000D01*
X186427000Y-67744000D01*
X186425000Y-67743000D01*
X186422000Y-67743000D01*
X186420000Y-67742000D01*
X186417000Y-67741000D01*
X186415000Y-67740000D01*
X186412000Y-67739000D01*
X186410000Y-67738000D01*
X186408000Y-67736000D01*
X186406000Y-67735000D01*
X186404000Y-67733000D01*
X186402000Y-67732000D01*
X186400000Y-67730000D01*
X186398000Y-67728000D01*
X186396000Y-67726000D01*
X186395000Y-67724000D01*
X186393000Y-67722000D01*
X186392000Y-67720000D01*
X186390000Y-67717000D01*
X186389000Y-67715000D01*
X186388000Y-67712000D01*
X186387000Y-67710000D01*
X186387000Y-67707000D01*
X186386000Y-67705000D01*
X186386000Y-67702000D01*
X186385000Y-67700000D01*
X186385000Y-67697000D01*
X186385000Y-67694500D01*
X186385000Y-67069000D01*
X186385000Y-67067000D01*
X186385000Y-67064000D01*
X186386000Y-67062000D01*
X186386000Y-67059000D01*
X186387000Y-67057000D01*
X186387000Y-67054000D01*
X186388000Y-67052000D01*
X186389000Y-67049000D01*
X186390000Y-67047000D01*
X186392000Y-67044000D01*
X186393000Y-67042000D01*
X186395000Y-67040000D01*
X186396000Y-67038000D01*
X186398000Y-67036000D01*
X186400000Y-67034000D01*
X186402000Y-67032000D01*
X186404000Y-67031000D01*
X186406000Y-67029000D01*
X186408000Y-67028000D01*
X186410000Y-67026000D01*
X186412000Y-67025000D01*
X186415000Y-67024000D01*
X186417000Y-67023000D01*
X186420000Y-67022000D01*
X186422000Y-67021000D01*
X186425000Y-67021000D01*
X186427000Y-67020000D01*
X186430000Y-67020000D01*
X186432000Y-67020000D01*
X186435000Y-67020000D01*
X186565000Y-67020000D01*
X186568000Y-67020000D01*
X186570000Y-67020000D01*
X186573000Y-67020000D01*
X186575000Y-67021000D01*
G37*
X186568000Y-64346000D02*
X186570000Y-64346000D01*
X186573000Y-64346000D01*
X186575000Y-64347000D01*
X186578000Y-64347000D01*
X186580000Y-64348000D01*
X186583000Y-64349000D01*
X186585000Y-64350000D01*
X186588000Y-64351000D01*
X186590000Y-64352000D01*
X186592000Y-64354000D01*
X186594000Y-64355000D01*
X186596000Y-64357000D01*
X186598000Y-64358000D01*
X186600000Y-64360000D01*
X186602000Y-64362000D01*
X186604000Y-64364000D01*
X186605000Y-64366000D01*
X186607000Y-64368000D01*
X186608000Y-64370000D01*
X186610000Y-64373000D01*
X186611000Y-64375000D01*
X186612000Y-64378000D01*
X186613000Y-64380000D01*
X186613000Y-64383000D01*
X186614000Y-64385000D01*
X186614000Y-64388000D01*
X186615000Y-64390000D01*
X186615000Y-64393000D01*
X186615000Y-64396000D01*
X186615000Y-65021000D01*
X186615000Y-65023000D01*
X186615000Y-65026000D01*
X186614000Y-65028000D01*
X186614000Y-65031000D01*
X186613000Y-65033000D01*
X186613000Y-65036000D01*
X186612000Y-65038000D01*
X186611000Y-65041000D01*
X186610000Y-65043000D01*
X186608000Y-65046000D01*
X186607000Y-65048000D01*
X186605000Y-65050000D01*
X186604000Y-65052000D01*
X186602000Y-65054000D01*
X186600000Y-65056000D01*
X186598000Y-65058000D01*
X186596000Y-65059000D01*
X186594000Y-65061000D01*
X186592000Y-65062000D01*
X186590000Y-65064000D01*
X186588000Y-65065000D01*
X186585000Y-65066000D01*
X186583000Y-65067000D01*
X186580000Y-65068000D01*
X186578000Y-65069000D01*
X186575000Y-65069000D01*
X186573000Y-65070000D01*
X186570000Y-65070000D01*
X186568000Y-65070000D01*
X186565000Y-65070000D01*
X186565000Y-65070500D01*
X186435000Y-65070000D01*
X186432000Y-65070000D01*
X186430000Y-65070000D01*
X186427000Y-65070000D01*
X186425000Y-65069000D01*
X186422000Y-65069000D01*
X186420000Y-65068000D01*
X186417000Y-65067000D01*
X186415000Y-65066000D01*
X186412000Y-65065000D01*
X186410000Y-65064000D01*
X186408000Y-65062000D01*
X186406000Y-65061000D01*
X186404000Y-65059000D01*
X186402000Y-65058000D01*
X186400000Y-65056000D01*
X186398000Y-65054000D01*
X186396000Y-65052000D01*
X186395000Y-65050000D01*
X186393000Y-65048000D01*
X186392000Y-65046000D01*
X186390000Y-65043000D01*
X186389000Y-65041000D01*
X186388000Y-65038000D01*
X186387000Y-65036000D01*
X186387000Y-65033000D01*
X186386000Y-65031000D01*
X186386000Y-65028000D01*
X186385000Y-65026000D01*
X186385000Y-65023000D01*
X186385000Y-65021000D01*
X186385000Y-64396000D01*
X186385000Y-64393000D01*
X186385000Y-64390000D01*
X186386000Y-64388000D01*
X186386000Y-64385000D01*
X186387000Y-64383000D01*
X186387000Y-64380000D01*
X186388000Y-64378000D01*
X186389000Y-64375000D01*
X186390000Y-64373000D01*
X186392000Y-64370000D01*
X186393000Y-64368000D01*
X186395000Y-64366000D01*
X186396000Y-64364000D01*
X186398000Y-64362000D01*
X186400000Y-64360000D01*
X186402000Y-64358000D01*
X186404000Y-64357000D01*
X186406000Y-64355000D01*
X186408000Y-64354000D01*
X186410000Y-64352000D01*
X186412000Y-64351000D01*
X186415000Y-64350000D01*
X186417000Y-64349000D01*
X186420000Y-64348000D01*
X186422000Y-64347000D01*
X186425000Y-64347000D01*
X186427000Y-64346000D01*
X186430000Y-64346000D01*
X186432000Y-64346000D01*
X186435000Y-64345000D01*
X186565000Y-64345000D01*
X186568000Y-64346000D01*
G36*
X186568000Y-64346000D02*
G01*
X186570000Y-64346000D01*
X186573000Y-64346000D01*
X186575000Y-64347000D01*
X186578000Y-64347000D01*
X186580000Y-64348000D01*
X186583000Y-64349000D01*
X186585000Y-64350000D01*
X186588000Y-64351000D01*
X186590000Y-64352000D01*
X186592000Y-64354000D01*
X186594000Y-64355000D01*
X186596000Y-64357000D01*
X186598000Y-64358000D01*
X186600000Y-64360000D01*
X186602000Y-64362000D01*
X186604000Y-64364000D01*
X186605000Y-64366000D01*
X186607000Y-64368000D01*
X186608000Y-64370000D01*
X186610000Y-64373000D01*
X186611000Y-64375000D01*
X186612000Y-64378000D01*
X186613000Y-64380000D01*
X186613000Y-64383000D01*
X186614000Y-64385000D01*
X186614000Y-64388000D01*
X186615000Y-64390000D01*
X186615000Y-64393000D01*
X186615000Y-64396000D01*
X186615000Y-65021000D01*
X186615000Y-65023000D01*
X186615000Y-65026000D01*
X186614000Y-65028000D01*
X186614000Y-65031000D01*
X186613000Y-65033000D01*
X186613000Y-65036000D01*
X186612000Y-65038000D01*
X186611000Y-65041000D01*
X186610000Y-65043000D01*
X186608000Y-65046000D01*
X186607000Y-65048000D01*
X186605000Y-65050000D01*
X186604000Y-65052000D01*
X186602000Y-65054000D01*
X186600000Y-65056000D01*
X186598000Y-65058000D01*
X186596000Y-65059000D01*
X186594000Y-65061000D01*
X186592000Y-65062000D01*
X186590000Y-65064000D01*
X186588000Y-65065000D01*
X186585000Y-65066000D01*
X186583000Y-65067000D01*
X186580000Y-65068000D01*
X186578000Y-65069000D01*
X186575000Y-65069000D01*
X186573000Y-65070000D01*
X186570000Y-65070000D01*
X186568000Y-65070000D01*
X186565000Y-65070000D01*
X186565000Y-65070500D01*
X186435000Y-65070000D01*
X186432000Y-65070000D01*
X186430000Y-65070000D01*
X186427000Y-65070000D01*
X186425000Y-65069000D01*
X186422000Y-65069000D01*
X186420000Y-65068000D01*
X186417000Y-65067000D01*
X186415000Y-65066000D01*
X186412000Y-65065000D01*
X186410000Y-65064000D01*
X186408000Y-65062000D01*
X186406000Y-65061000D01*
X186404000Y-65059000D01*
X186402000Y-65058000D01*
X186400000Y-65056000D01*
X186398000Y-65054000D01*
X186396000Y-65052000D01*
X186395000Y-65050000D01*
X186393000Y-65048000D01*
X186392000Y-65046000D01*
X186390000Y-65043000D01*
X186389000Y-65041000D01*
X186388000Y-65038000D01*
X186387000Y-65036000D01*
X186387000Y-65033000D01*
X186386000Y-65031000D01*
X186386000Y-65028000D01*
X186385000Y-65026000D01*
X186385000Y-65023000D01*
X186385000Y-65021000D01*
X186385000Y-64396000D01*
X186385000Y-64393000D01*
X186385000Y-64390000D01*
X186386000Y-64388000D01*
X186386000Y-64385000D01*
X186387000Y-64383000D01*
X186387000Y-64380000D01*
X186388000Y-64378000D01*
X186389000Y-64375000D01*
X186390000Y-64373000D01*
X186392000Y-64370000D01*
X186393000Y-64368000D01*
X186395000Y-64366000D01*
X186396000Y-64364000D01*
X186398000Y-64362000D01*
X186400000Y-64360000D01*
X186402000Y-64358000D01*
X186404000Y-64357000D01*
X186406000Y-64355000D01*
X186408000Y-64354000D01*
X186410000Y-64352000D01*
X186412000Y-64351000D01*
X186415000Y-64350000D01*
X186417000Y-64349000D01*
X186420000Y-64348000D01*
X186422000Y-64347000D01*
X186425000Y-64347000D01*
X186427000Y-64346000D01*
X186430000Y-64346000D01*
X186432000Y-64346000D01*
X186435000Y-64345000D01*
X186565000Y-64345000D01*
X186568000Y-64346000D01*
G37*
%TO.C,Q2*%
X213070027Y-119630279D02*
X212330000Y-119630279D01*
X212330000Y-118710000D01*
X213070027Y-118710000D01*
X213070027Y-119630279D01*
G36*
X213070027Y-119630279D02*
G01*
X212330000Y-119630279D01*
X212330000Y-118710000D01*
X213070027Y-118710000D01*
X213070027Y-119630279D01*
G37*
%TO.C,Q1*%
X213220027Y-123210879D02*
X212480000Y-123210879D01*
X212480000Y-122290600D01*
X213220027Y-122290600D01*
X213220027Y-123210879D01*
G36*
X213220027Y-123210879D02*
G01*
X212480000Y-123210879D01*
X212480000Y-122290600D01*
X213220027Y-122290600D01*
X213220027Y-123210879D01*
G37*
%TD*%
D12*
%TO.C,D2*%
X207550000Y-102195000D03*
X209650000Y-102195000D03*
%TD*%
D13*
%TO.C,R7*%
X182575000Y-64345000D03*
X182575000Y-67270000D03*
%TD*%
D14*
%TO.C,R12*%
X186733200Y-116476800D03*
X185083200Y-116476800D03*
%TD*%
D15*
%TO.C,C7*%
X194175000Y-81320000D03*
X194175000Y-83220000D03*
%TD*%
D16*
%TO.C,U2*%
X206128200Y-106418000D03*
X206128200Y-107688000D03*
X206128200Y-108958000D03*
X206128200Y-110228000D03*
X211528200Y-110228000D03*
X211528200Y-108958000D03*
X211528200Y-107688000D03*
X211528200Y-106418000D03*
D17*
X208828200Y-108323000D03*
%TD*%
D18*
%TO.C,R17*%
X182758600Y-131704600D03*
X182758600Y-133354600D03*
%TD*%
D19*
%TO.C,C9*%
X194775000Y-126495000D03*
X196675000Y-126495000D03*
%TD*%
D15*
%TO.C,C2*%
X214175000Y-107320000D03*
X214175000Y-109220000D03*
%TD*%
D13*
%TO.C,R4*%
X203705000Y-110594300D03*
X203705000Y-113519300D03*
%TD*%
D20*
%TO.C,R3*%
X199750000Y-110570000D03*
X201400000Y-110570000D03*
%TD*%
D15*
%TO.C,C3*%
X213500000Y-127820000D03*
X213500000Y-129720000D03*
%TD*%
D21*
%TO.C,R2*%
X202675000Y-88982500D03*
X202675000Y-86057500D03*
%TD*%
D14*
%TO.C,R15*%
X188130200Y-113149400D03*
X186480200Y-113149400D03*
%TD*%
D22*
%TO.C,C4*%
X205609000Y-82499400D03*
X207159000Y-82499400D03*
%TD*%
D16*
%TO.C,U1*%
X205336000Y-84299400D03*
X205336000Y-85569400D03*
X205336000Y-86839400D03*
X205336000Y-88109400D03*
X210736000Y-88109400D03*
X210736000Y-86839400D03*
X210736000Y-85569400D03*
X210736000Y-84299400D03*
D17*
X208036000Y-86204400D03*
%TD*%
D23*
%TO.C,L3*%
X202825000Y-120870000D03*
X196775000Y-120870000D03*
%TD*%
D24*
%TO.C,C12*%
X189975000Y-65670000D03*
X189975000Y-67220000D03*
%TD*%
D25*
%TO.C,C13*%
X185425000Y-119770000D03*
X183875000Y-119770000D03*
%TD*%
D22*
%TO.C,C15*%
X175100200Y-96766400D03*
X176650200Y-96766400D03*
%TD*%
%TO.C,C24*%
X178084400Y-110253800D03*
X179634400Y-110253800D03*
%TD*%
%TO.C,C6*%
X205450000Y-124320000D03*
X207000000Y-124320000D03*
%TD*%
D23*
%TO.C,L4*%
X199960200Y-75844600D03*
X193910200Y-75844600D03*
%TD*%
D13*
%TO.C,R6*%
X202000000Y-130395000D03*
X202000000Y-133320000D03*
%TD*%
D25*
%TO.C,C19*%
X165448800Y-94251800D03*
X163898800Y-94251800D03*
%TD*%
D26*
%TO.C,U6*%
X177798798Y-129507000D03*
X177798798Y-130007002D03*
X177798798Y-130507001D03*
X177798798Y-131007000D03*
X177798798Y-131507002D03*
X180853600Y-131507002D03*
X180853600Y-131007000D03*
X180853600Y-130507001D03*
X180853600Y-130007002D03*
X180853600Y-129507000D03*
D27*
X179326199Y-130507001D03*
%TD*%
D22*
%TO.C,C18*%
X175163400Y-94251800D03*
X176713400Y-94251800D03*
%TD*%
D28*
%TO.C,R8*%
X179166000Y-107220000D03*
X183484000Y-107220000D03*
%TD*%
D22*
%TO.C,C5*%
X205876400Y-103979600D03*
X207426400Y-103979600D03*
%TD*%
D23*
%TO.C,L5*%
X197207000Y-97883400D03*
X191157000Y-97883400D03*
%TD*%
D29*
%TO.C,C23*%
X174325800Y-92639200D03*
X174325800Y-91089200D03*
%TD*%
D23*
%TO.C,L6*%
X197250000Y-105420000D03*
X191200000Y-105420000D03*
%TD*%
D30*
%TO.C,U7*%
X170203901Y-96271100D03*
X170553900Y-96271100D03*
X170903899Y-96271100D03*
D31*
X171950900Y-95619400D03*
X171950900Y-95119400D03*
D30*
X170903899Y-94467700D03*
X170553900Y-94467700D03*
X170203901Y-94467700D03*
D31*
X169156900Y-95119400D03*
X169156900Y-95619400D03*
%TD*%
D32*
%TO.C,J1*%
X221900000Y-86200000D03*
%TD*%
D14*
%TO.C,R13*%
X189501800Y-109949000D03*
X187851800Y-109949000D03*
%TD*%
D25*
%TO.C,C14*%
X176294600Y-127754400D03*
X174744600Y-127754400D03*
%TD*%
D20*
%TO.C,R16*%
X177197000Y-111854000D03*
X178847000Y-111854000D03*
%TD*%
D23*
%TO.C,L2*%
X206550000Y-97620000D03*
X200500000Y-97620000D03*
%TD*%
D12*
%TO.C,D3*%
X206925000Y-121270000D03*
X209025000Y-121270000D03*
%TD*%
D20*
%TO.C,R1*%
X198850000Y-89020000D03*
X200500000Y-89020000D03*
%TD*%
D33*
%TO.C,C8*%
X197775000Y-112520000D03*
X197775000Y-110620000D03*
%TD*%
D34*
%TO.C,Q3*%
X213289400Y-115381200D03*
D35*
X213939400Y-115381200D03*
X214589400Y-115381200D03*
X214589400Y-113581200D03*
X213939400Y-113581200D03*
X213289400Y-113581200D03*
D36*
X214589400Y-114481200D03*
%TD*%
D37*
%TO.C,C10*%
X191175000Y-69470000D03*
X191175000Y-72420000D03*
%TD*%
D23*
%TO.C,L1*%
X209386000Y-75844600D03*
X203336000Y-75844600D03*
%TD*%
D38*
%TO.C,R21*%
X215925000Y-74845000D03*
X215925000Y-73195000D03*
%TD*%
D39*
%TO.C,U5*%
X181125000Y-115470000D03*
X182175000Y-115470000D03*
X181125000Y-114420000D03*
X182175000Y-114420000D03*
D40*
X180675000Y-116807500D03*
X181325000Y-116807500D03*
X181975000Y-116807500D03*
X182625000Y-116807500D03*
D41*
X183512500Y-115920000D03*
X183512500Y-115270000D03*
X183512500Y-114620000D03*
X183512500Y-113970000D03*
D40*
X182625000Y-113082500D03*
X181975000Y-113082500D03*
X181325000Y-113082500D03*
X180675000Y-113082500D03*
D41*
X179787500Y-113970000D03*
X179787500Y-114620000D03*
X179787500Y-115270000D03*
X179787500Y-115920000D03*
%TD*%
D38*
%TO.C,R20*%
X215925000Y-78870000D03*
X215925000Y-77220000D03*
%TD*%
D25*
%TO.C,C16*%
X165474200Y-96182200D03*
X163924200Y-96182200D03*
%TD*%
D18*
%TO.C,R5*%
X197500000Y-130670000D03*
X197500000Y-132320000D03*
%TD*%
D14*
%TO.C,R18*%
X172052000Y-98976200D03*
X170402000Y-98976200D03*
%TD*%
D42*
%TO.C,R9*%
X173175000Y-116829000D03*
X173175000Y-112511000D03*
%TD*%
D43*
%TO.C,U4*%
X187575000Y-67020000D03*
X187575000Y-66370000D03*
X187575000Y-65720000D03*
X187575000Y-65070000D03*
X184775000Y-65070000D03*
X184775000Y-65720000D03*
X184775000Y-66370000D03*
X184775000Y-67020000D03*
%TD*%
D14*
%TO.C,R14*%
X188765200Y-111549200D03*
X187115200Y-111549200D03*
%TD*%
D34*
%TO.C,Q2*%
X212375000Y-120070000D03*
D35*
X213025000Y-120070000D03*
X213675000Y-120070000D03*
X213675000Y-118270000D03*
X213025000Y-118270000D03*
X212375000Y-118270000D03*
D36*
X213675000Y-119170000D03*
%TD*%
D38*
%TO.C,R22*%
X215925000Y-70670000D03*
X215925000Y-69020000D03*
%TD*%
D29*
%TO.C,C20*%
X168788600Y-92652200D03*
X168788600Y-91102200D03*
%TD*%
D14*
%TO.C,R11*%
X187342800Y-114775000D03*
X185692800Y-114775000D03*
%TD*%
D44*
%TO.C,D1*%
X207163200Y-80721400D03*
X205063200Y-80721400D03*
%TD*%
D38*
%TO.C,R19*%
X172573200Y-92714600D03*
X172573200Y-91064600D03*
%TD*%
D25*
%TO.C,C22*%
X171976600Y-100906600D03*
X170426600Y-100906600D03*
%TD*%
D16*
%TO.C,U3*%
X205600000Y-127010000D03*
X205600000Y-128280000D03*
X205600000Y-129550000D03*
X205600000Y-130820000D03*
X211000000Y-130820000D03*
X211000000Y-129550000D03*
X211000000Y-128280000D03*
X211000000Y-127010000D03*
D17*
X208300000Y-128915000D03*
%TD*%
D28*
%TO.C,R10*%
X183484000Y-122770000D03*
X179166000Y-122770000D03*
%TD*%
D25*
%TO.C,C17*%
X176294600Y-129405400D03*
X174744600Y-129405400D03*
%TD*%
D15*
%TO.C,C1*%
X213208000Y-85359400D03*
X213208000Y-87259400D03*
%TD*%
D29*
%TO.C,C21*%
X170541200Y-92512200D03*
X170541200Y-90962200D03*
%TD*%
D37*
%TO.C,C11*%
X187375000Y-69345000D03*
X187375000Y-72295000D03*
%TD*%
D45*
%TO.C,U8*%
X211825001Y-70295000D03*
X212175000Y-70295000D03*
X212524999Y-70295000D03*
X212524999Y-69245000D03*
X212175000Y-69245000D03*
X211825001Y-69245000D03*
%TD*%
D34*
%TO.C,Q1*%
X212525000Y-123650600D03*
D35*
X213175000Y-123650600D03*
X213825000Y-123650600D03*
X213825000Y-121850600D03*
X213175000Y-121850600D03*
X212525000Y-121850600D03*
D36*
X213825000Y-122750600D03*
%TD*%
M02*
