%TF.GenerationSoftware,KiCad,Pcbnew,9.0.2*%
%TF.CreationDate,2026-02-19T14:28:25-08:00*%
%TF.ProjectId,EPS_PCB_Prototyping,4550535f-5043-4425-9f50-726f746f7479,rev?*%
%TF.SameCoordinates,Original*%
%TF.FileFunction,Soldermask,Bot*%
%TF.FilePolarity,Negative*%
%FSLAX46Y46*%
G04 Gerber Fmt 4.6, Leading zero omitted, Abs format (unit mm)*
G04 Created by KiCad (PCBNEW 9.0.2) date 2026-02-19 14:28:25*
%MOMM*%
%LPD*%
G01*
G04 APERTURE LIST*
%ADD10R,1.700000X1.700000*%
%ADD11C,1.700000*%
%ADD12C,1.600000*%
%ADD13C,3.600000*%
%ADD14C,6.400000*%
G04 APERTURE END LIST*
D10*
%TO.C,J4*%
X203250000Y-107920000D03*
D11*
X203250000Y-105380000D03*
%TD*%
D10*
%TO.C,J12*%
X216265000Y-64220000D03*
D11*
X213725000Y-64220000D03*
%TD*%
D10*
%TO.C,J7*%
X185900000Y-59520000D03*
D11*
X185900000Y-62060000D03*
%TD*%
D12*
%TO.C,R24*%
X213175000Y-58242500D03*
X213175000Y-50622500D03*
%TD*%
D10*
%TO.C,J1*%
X221900000Y-131920000D03*
D11*
X221900000Y-129380000D03*
X221900000Y-126840000D03*
X221900000Y-124300000D03*
X221900000Y-121760000D03*
X221900000Y-119220000D03*
X221900000Y-116680000D03*
X221900000Y-114140000D03*
X221900000Y-111600000D03*
X221900000Y-109060000D03*
X221900000Y-106520000D03*
X221900000Y-103980000D03*
X221900000Y-101440000D03*
X221900000Y-98900000D03*
X221900000Y-96360000D03*
X221900000Y-93820000D03*
X221900000Y-91280000D03*
X221900000Y-88740000D03*
X221900000Y-86200000D03*
X221900000Y-83660000D03*
X221900000Y-81120000D03*
X221900000Y-78580000D03*
X221900000Y-76040000D03*
X221900000Y-73500000D03*
X221900000Y-70960000D03*
X221900000Y-68420000D03*
X221900000Y-65880000D03*
X221900000Y-63340000D03*
X221900000Y-60800000D03*
X221900000Y-58260000D03*
X221900000Y-55720000D03*
X221900000Y-53180000D03*
X219360000Y-131920000D03*
X219360000Y-129380000D03*
X219360000Y-126840000D03*
X219360000Y-124300000D03*
X219360000Y-121760000D03*
X219360000Y-119220000D03*
X219360000Y-116680000D03*
X219360000Y-114140000D03*
X219360000Y-111600000D03*
X219360000Y-109060000D03*
X219360000Y-106520000D03*
X219360000Y-103980000D03*
X219360000Y-101440000D03*
X219360000Y-98900000D03*
X219360000Y-96360000D03*
X219360000Y-93820000D03*
X219360000Y-91280000D03*
X219360000Y-88740000D03*
X219360000Y-86200000D03*
X219360000Y-83660000D03*
X219360000Y-81120000D03*
X219360000Y-78580000D03*
X219360000Y-76040000D03*
X219360000Y-73500000D03*
X219360000Y-70960000D03*
X219360000Y-68420000D03*
X219360000Y-65880000D03*
X219360000Y-63340000D03*
X219360000Y-60800000D03*
X219360000Y-58260000D03*
X219360000Y-55720000D03*
X219360000Y-53180000D03*
%TD*%
D10*
%TO.C,J8*%
X183900000Y-98970000D03*
D11*
X183900000Y-101510000D03*
%TD*%
D10*
%TO.C,J11*%
X205815000Y-70370000D03*
D11*
X203275000Y-70370000D03*
%TD*%
D13*
%TO.C,H4*%
X226980000Y-133190000D03*
D14*
X226980000Y-133190000D03*
%TD*%
D10*
%TO.C,J10*%
X172435000Y-122670000D03*
D11*
X174975000Y-122670000D03*
%TD*%
D13*
%TO.C,H2*%
X226980000Y-53180000D03*
D14*
X226980000Y-53180000D03*
%TD*%
D12*
%TO.C,R23*%
X204175000Y-58900000D03*
X204175000Y-66520000D03*
%TD*%
D10*
%TO.C,J9*%
X172950000Y-106320000D03*
D11*
X172950000Y-108860000D03*
%TD*%
D10*
%TO.C,J6*%
X190700000Y-62370000D03*
D11*
X190700000Y-59830000D03*
%TD*%
D12*
%TO.C,R27*%
X208425000Y-67330000D03*
X208425000Y-59710000D03*
%TD*%
D10*
%TO.C,J5*%
X197185000Y-115470000D03*
D11*
X199725000Y-115470000D03*
%TD*%
D13*
%TO.C,H1*%
X141255000Y-55720000D03*
D14*
X141255000Y-55720000D03*
%TD*%
D13*
%TO.C,H3*%
X141255000Y-129380000D03*
D14*
X141255000Y-129380000D03*
%TD*%
D10*
%TO.C,J3*%
X197975000Y-81270000D03*
D11*
X197975000Y-83810000D03*
%TD*%
D12*
%TO.C,R26*%
X199425000Y-69390000D03*
X199425000Y-61770000D03*
%TD*%
D11*
%TO.C,J2*%
X224440000Y-111600000D03*
X224440000Y-109060000D03*
X224440000Y-106520000D03*
X224440000Y-103980000D03*
X224440000Y-101440000D03*
X224440000Y-98900000D03*
X224440000Y-96360000D03*
X224440000Y-93820000D03*
X224440000Y-91280000D03*
X224440000Y-88740000D03*
X224440000Y-86200000D03*
X224440000Y-83660000D03*
X224440000Y-81120000D03*
X224440000Y-78580000D03*
X224440000Y-76040000D03*
X224440000Y-73500000D03*
X224440000Y-70960000D03*
X224440000Y-68420000D03*
X224440000Y-65880000D03*
X224440000Y-63340000D03*
D10*
X226980000Y-111600000D03*
D11*
X226980000Y-109060000D03*
X226980000Y-106520000D03*
X226980000Y-103980000D03*
X226980000Y-101440000D03*
X226980000Y-98900000D03*
X226980000Y-96360000D03*
X226980000Y-93820000D03*
X226980000Y-91280000D03*
X226980000Y-88740000D03*
X226980000Y-86200000D03*
X226980000Y-83660000D03*
X226980000Y-81120000D03*
X226980000Y-78580000D03*
X226980000Y-76040000D03*
X226980000Y-73500000D03*
X226980000Y-70960000D03*
X226980000Y-68420000D03*
X226980000Y-65880000D03*
X226980000Y-63340000D03*
%TD*%
M02*
