%TF.GenerationSoftware,KiCad,Pcbnew,9.0.2*%
%TF.CreationDate,2026-04-11T15:14:33-07:00*%
%TF.ProjectId,EPS_PCB_Prototyping,4550535f-5043-4425-9f50-726f746f7479,rev?*%
%TF.SameCoordinates,Original*%
%TF.FileFunction,Copper,L2,Bot*%
%TF.FilePolarity,Positive*%
%FSLAX46Y46*%
G04 Gerber Fmt 4.6, Leading zero omitted, Abs format (unit mm)*
G04 Created by KiCad (PCBNEW 9.0.2) date 2026-04-11 15:14:33*
%MOMM*%
%LPD*%
G01*
G04 APERTURE LIST*
%TA.AperFunction,ComponentPad*%
%ADD10C,1.700000*%
%TD*%
%TA.AperFunction,ComponentPad*%
%ADD11R,1.700000X1.700000*%
%TD*%
%TA.AperFunction,ComponentPad*%
%ADD12C,0.600000*%
%TD*%
%TA.AperFunction,SMDPad,CuDef*%
%ADD13R,2.950000X4.500000*%
%TD*%
%TA.AperFunction,ComponentPad*%
%ADD14C,3.600000*%
%TD*%
%TA.AperFunction,ConnectorPad*%
%ADD15C,6.400000*%
%TD*%
%TA.AperFunction,ComponentPad*%
%ADD16C,0.400000*%
%TD*%
%TA.AperFunction,ComponentPad*%
%ADD17C,0.499999*%
%TD*%
%TA.AperFunction,ViaPad*%
%ADD18C,0.600000*%
%TD*%
%TA.AperFunction,ViaPad*%
%ADD19C,0.800000*%
%TD*%
%TA.AperFunction,Conductor*%
%ADD20C,0.254000*%
%TD*%
%TA.AperFunction,Conductor*%
%ADD21C,0.127000*%
%TD*%
%TA.AperFunction,Conductor*%
%ADD22C,1.000000*%
%TD*%
%TA.AperFunction,Conductor*%
%ADD23C,0.200000*%
%TD*%
%TA.AperFunction,Conductor*%
%ADD24C,0.700000*%
%TD*%
G04 APERTURE END LIST*
D10*
%TO.P,J2,a1,Pin_a1*%
%TO.N,unconnected-(J2-Pin_a1-Pada1)*%
X224445000Y-62070000D03*
%TO.P,J2,a2,Pin_a2*%
%TO.N,unconnected-(J2-Pin_a2-Pada2)*%
X224445000Y-64610000D03*
%TO.P,J2,a3,Pin_a3*%
%TO.N,unconnected-(J2-Pin_a3-Pada3)*%
X224445000Y-67150000D03*
%TO.P,J2,a4,Pin_a4*%
%TO.N,unconnected-(J2-Pin_a4-Pada4)*%
X224445000Y-69690000D03*
%TO.P,J2,a5,Pin_a5*%
%TO.N,unconnected-(J2-Pin_a5-Pada5)*%
X224445000Y-72230000D03*
%TO.P,J2,a6,Pin_a6*%
%TO.N,unconnected-(J2-Pin_a6-Pada6)*%
X224445000Y-74770000D03*
%TO.P,J2,a7,Pin_a7*%
%TO.N,unconnected-(J2-Pin_a7-Pada7)*%
X224445000Y-77310000D03*
%TO.P,J2,a8,Pin_a8*%
%TO.N,unconnected-(J2-Pin_a8-Pada8)*%
X224445000Y-79850000D03*
%TO.P,J2,a9,Pin_a9*%
%TO.N,unconnected-(J2-Pin_a9-Pada9)*%
X224445000Y-82390000D03*
%TO.P,J2,a10,Pin_a10*%
%TO.N,unconnected-(J2-Pin_a10-Pada10)*%
X224445000Y-84930000D03*
%TO.P,J2,a11,Pin_a11*%
%TO.N,unconnected-(J2-Pin_a11-Pada11)*%
X224445000Y-87470000D03*
%TO.P,J2,a12,Pin_a12*%
%TO.N,unconnected-(J2-Pin_a12-Pada12)*%
X224445000Y-90010000D03*
%TO.P,J2,a13,Pin_a13*%
%TO.N,unconnected-(J2-Pin_a13-Pada13)*%
X224445000Y-92550000D03*
%TO.P,J2,a14,Pin_a14*%
%TO.N,unconnected-(J2-Pin_a14-Pada14)*%
X224445000Y-95090000D03*
%TO.P,J2,a15,Pin_a15*%
%TO.N,GND*%
X224445000Y-97630000D03*
%TO.P,J2,a16,Pin_a16*%
X224445000Y-100170000D03*
%TO.P,J2,a17,Pin_a17*%
%TO.N,unconnected-(J2-Pin_a17-Pada17)*%
X224445000Y-102710000D03*
%TO.P,J2,a18,Pin_a18*%
%TO.N,unconnected-(J2-Pin_a18-Pada18)*%
X224445000Y-105250000D03*
%TO.P,J2,a19,Pin_a19*%
%TO.N,unconnected-(J2-Pin_a19-Pada19)*%
X224445000Y-107790000D03*
%TO.P,J2,a20,Pin_a20*%
%TO.N,unconnected-(J2-Pin_a20-Pada20)*%
X224445000Y-110330000D03*
%TO.P,J2,a21,Pin_a21*%
%TO.N,unconnected-(J2-Pin_a21-Pada21)*%
X224445000Y-112870000D03*
%TO.P,J2,a22,Pin_a22*%
%TO.N,unconnected-(J2-Pin_a22-Pada22)*%
X224445000Y-115410000D03*
%TO.P,J2,a23,Pin_a23*%
%TO.N,V_Batt*%
X224445000Y-117950000D03*
%TO.P,J2,a24,Pin_a24*%
%TO.N,unconnected-(J2-Pin_a24-Pada24)*%
X224445000Y-120490000D03*
%TO.P,J2,a25,Pin_a25*%
%TO.N,GND*%
X224445000Y-123030000D03*
%TO.P,J2,a26,Pin_a26*%
X224445000Y-125570000D03*
D11*
%TO.P,J2,b1,Pin_b1*%
%TO.N,unconnected-(J2-Pin_b1-Padb1)*%
X226985000Y-62070000D03*
D10*
%TO.P,J2,b2,Pin_b2*%
%TO.N,unconnected-(J2-Pin_b2-Padb2)*%
X226985000Y-64610000D03*
%TO.P,J2,b3,Pin_b3*%
%TO.N,unconnected-(J2-Pin_b3-Padb3)*%
X226985000Y-67150000D03*
%TO.P,J2,b4,Pin_b4*%
%TO.N,unconnected-(J2-Pin_b4-Padb4)*%
X226985000Y-69690000D03*
%TO.P,J2,b5,Pin_b5*%
%TO.N,unconnected-(J2-Pin_b5-Padb5)*%
X226985000Y-72230000D03*
%TO.P,J2,b6,Pin_b6*%
%TO.N,unconnected-(J2-Pin_b6-Padb6)*%
X226985000Y-74770000D03*
%TO.P,J2,b7,Pin_b7*%
%TO.N,unconnected-(J2-Pin_b7-Padb7)*%
X226985000Y-77310000D03*
%TO.P,J2,b8,Pin_b8*%
%TO.N,unconnected-(J2-Pin_b8-Padb8)*%
X226985000Y-79850000D03*
%TO.P,J2,b9,Pin_b9*%
%TO.N,unconnected-(J2-Pin_b9-Padb9)*%
X226985000Y-82390000D03*
%TO.P,J2,b10,Pin_b10*%
%TO.N,unconnected-(J2-Pin_b10-Padb10)*%
X226985000Y-84930000D03*
%TO.P,J2,b11,Pin_b11*%
%TO.N,unconnected-(J2-Pin_b11-Padb11)*%
X226985000Y-87470000D03*
%TO.P,J2,b12,Pin_b12*%
%TO.N,unconnected-(J2-Pin_b12-Padb12)*%
X226985000Y-90010000D03*
%TO.P,J2,b13,Pin_b13*%
%TO.N,unconnected-(J2-Pin_b13-Padb13)*%
X226985000Y-92550000D03*
%TO.P,J2,b14,Pin_b14*%
%TO.N,unconnected-(J2-Pin_b14-Padb14)*%
X226985000Y-95090000D03*
%TO.P,J2,b15,Pin_b15*%
%TO.N,GND*%
X226985000Y-97630000D03*
%TO.P,J2,b16,Pin_b16*%
X226985000Y-100170000D03*
%TO.P,J2,b17,Pin_b17*%
%TO.N,unconnected-(J2-Pin_b17-Padb17)*%
X226985000Y-102710000D03*
%TO.P,J2,b18,Pin_b18*%
%TO.N,unconnected-(J2-Pin_b18-Padb18)*%
X226985000Y-105250000D03*
%TO.P,J2,b19,Pin_b19*%
%TO.N,unconnected-(J2-Pin_b19-Padb19)*%
X226985000Y-107790000D03*
%TO.P,J2,b20,Pin_b20*%
%TO.N,unconnected-(J2-Pin_b20-Padb20)*%
X226985000Y-110330000D03*
%TO.P,J2,b21,Pin_b21*%
%TO.N,unconnected-(J2-Pin_b21-Padb21)*%
X226985000Y-112870000D03*
%TO.P,J2,b22,Pin_b22*%
%TO.N,unconnected-(J2-Pin_b22-Padb22)*%
X226985000Y-115410000D03*
%TO.P,J2,b23,Pin_b23*%
%TO.N,V_Batt*%
X226985000Y-117950000D03*
%TO.P,J2,b24,Pin_b24*%
%TO.N,unconnected-(J2-Pin_b24-Padb24)*%
X226985000Y-120490000D03*
%TO.P,J2,b25,Pin_b25*%
%TO.N,GND*%
X226985000Y-123030000D03*
%TO.P,J2,b26,Pin_b26*%
X226985000Y-125570000D03*
%TD*%
D11*
%TO.P,J8,1,Pin_1*%
%TO.N,/watchdog_timer/conn*%
X144989200Y-107516000D03*
D10*
%TO.P,J8,2,Pin_2*%
%TO.N,5V_HK*%
X144989200Y-104976000D03*
%TD*%
D11*
%TO.P,J4,1,Pin_1*%
%TO.N,Net-(J4-Pin_1)*%
X191826000Y-96126000D03*
D10*
%TO.P,J4,2,Pin_2*%
%TO.N,12V_conv_out*%
X191826000Y-98666000D03*
%TD*%
D12*
%TO.P,U3,9,GNDPAD*%
%TO.N,GND*%
X204569000Y-125167000D03*
X204569000Y-126367000D03*
X204569000Y-127667000D03*
X204569000Y-128767000D03*
D13*
X205169000Y-126967000D03*
D12*
X205769000Y-125167000D03*
X205769000Y-126367000D03*
X205769000Y-127667000D03*
X205769000Y-128767000D03*
%TD*%
D14*
%TO.P,H4,1,1*%
%TO.N,GND*%
X226985000Y-130650000D03*
D15*
X226985000Y-130650000D03*
%TD*%
D16*
%TO.P,U5,10*%
%TO.N,GND*%
X144985800Y-117040400D03*
%TO.P,U5,11*%
X144485800Y-117665400D03*
%TO.P,U5,12*%
X145485800Y-117665400D03*
%TO.P,U5,13*%
X144985800Y-118290400D03*
%TD*%
D14*
%TO.P,H2,1,1*%
%TO.N,GND*%
X226985000Y-56990000D03*
D15*
X226985000Y-56990000D03*
%TD*%
D12*
%TO.P,U2,9,GNDPAD*%
%TO.N,GND*%
X204315000Y-94941000D03*
X204315000Y-96141000D03*
X204315000Y-97441000D03*
X204315000Y-98541000D03*
D13*
X204915000Y-96741000D03*
D12*
X205515000Y-94941000D03*
X205515000Y-96141000D03*
X205515000Y-97441000D03*
X205515000Y-98541000D03*
%TD*%
D11*
%TO.P,J3,1,Pin_1*%
%TO.N,Net-(J3-Pin_1)*%
X191572000Y-58788000D03*
D10*
%TO.P,J3,2,Pin_2*%
%TO.N,5V_conv_out*%
X191572000Y-61328000D03*
%TD*%
D11*
%TO.P,J5,1,Pin_1*%
%TO.N,Net-(J5-Pin_1)*%
X199650000Y-120597000D03*
D10*
%TO.P,J5,2,Pin_2*%
%TO.N,3V3_conv_out*%
X199650000Y-118057000D03*
%TD*%
D14*
%TO.P,H1,1,1*%
%TO.N,GND*%
X141255000Y-53180000D03*
D15*
X141255000Y-53180000D03*
%TD*%
D11*
%TO.P,J6,1,Pin_1*%
%TO.N,Net-(J6-Pin_1)*%
X147884000Y-94602000D03*
D10*
%TO.P,J6,2,Pin_2*%
%TO.N,V_Batt*%
X147884000Y-97142000D03*
%TD*%
D14*
%TO.P,H3,1,1*%
%TO.N,GND*%
X141255000Y-133190000D03*
D15*
X141255000Y-133190000D03*
%TD*%
D17*
%TO.P,U4,V*%
%TO.N,GND*%
X151755000Y-96360000D03*
X152855000Y-96360000D03*
X153955000Y-96360000D03*
X151755000Y-95260002D03*
X152855000Y-95260002D03*
X153955000Y-95260002D03*
%TD*%
D12*
%TO.P,U1,9,GNDPAD*%
%TO.N,GND*%
X203555000Y-65920000D03*
X203555000Y-67120000D03*
X203555000Y-68420000D03*
X203555000Y-69520000D03*
D13*
X204155000Y-67720000D03*
D12*
X204755000Y-65920000D03*
X204755000Y-67120000D03*
X204755000Y-68420000D03*
X204755000Y-69520000D03*
%TD*%
D10*
%TO.P,J1,a1,Pin_a1*%
%TO.N,GND*%
X219285000Y-62070000D03*
%TO.P,J1,a2,Pin_a2*%
%TO.N,unconnected-(J1-Pin_a2-Pada2)*%
X219285000Y-64610000D03*
%TO.P,J1,a3,Pin_a3*%
%TO.N,unconnected-(J1-Pin_a3-Pada3)*%
X219285000Y-67150000D03*
%TO.P,J1,a4,Pin_a4*%
%TO.N,unconnected-(J1-Pin_a4-Pada4)*%
X219285000Y-69690000D03*
%TO.P,J1,a5,Pin_a5*%
%TO.N,unconnected-(J1-Pin_a5-Pada5)*%
X219285000Y-72230000D03*
%TO.P,J1,a6,Pin_a6*%
%TO.N,5V_en*%
X219285000Y-74770000D03*
%TO.P,J1,a7,Pin_a7*%
%TO.N,5V_out*%
X219285000Y-77310000D03*
%TO.P,J1,a8,Pin_a8*%
%TO.N,unconnected-(J1-Pin_a8-Pada8)*%
X219285000Y-79850000D03*
%TO.P,J1,a9,Pin_a9*%
%TO.N,unconnected-(J1-Pin_a9-Pada9)*%
X219285000Y-82390000D03*
%TO.P,J1,a10,Pin_a10*%
%TO.N,unconnected-(J1-Pin_a10-Pada10)*%
X219285000Y-84930000D03*
%TO.P,J1,a11,Pin_a11*%
%TO.N,12V_en*%
X219285000Y-87470000D03*
%TO.P,J1,a12,Pin_a12*%
%TO.N,12V_out*%
X219285000Y-90010000D03*
%TO.P,J1,a13,Pin_a13*%
%TO.N,unconnected-(J1-Pin_a13-Pada13)*%
X219285000Y-92550000D03*
%TO.P,J1,a14,Pin_a14*%
%TO.N,unconnected-(J1-Pin_a14-Pada14)*%
X219285000Y-95090000D03*
%TO.P,J1,a15,Pin_a15*%
%TO.N,CM_SCL*%
X219285000Y-97630000D03*
%TO.P,J1,a16,Pin_a16*%
%TO.N,CM_SDA*%
X219285000Y-100170000D03*
%TO.P,J1,a17,Pin_a17*%
%TO.N,unconnected-(J1-Pin_a17-Pada17)*%
X219285000Y-102710000D03*
%TO.P,J1,a18,Pin_a18*%
%TO.N,unconnected-(J1-Pin_a18-Pada18)*%
X219285000Y-105250000D03*
%TO.P,J1,a19,Pin_a19*%
%TO.N,unconnected-(J1-Pin_a19-Pada19)*%
X219285000Y-107790000D03*
%TO.P,J1,a20,Pin_a20*%
%TO.N,unconnected-(J1-Pin_a20-Pada20)*%
X219285000Y-110330000D03*
%TO.P,J1,a21,Pin_a21*%
%TO.N,unconnected-(J1-Pin_a21-Pada21)*%
X219285000Y-112870000D03*
%TO.P,J1,a22,Pin_a22*%
%TO.N,3V3_en*%
X219285000Y-115410000D03*
%TO.P,J1,a23,Pin_a23*%
%TO.N,3V3_out*%
X219285000Y-117950000D03*
%TO.P,J1,a24,Pin_a24*%
%TO.N,unconnected-(J1-Pin_a24-Pada24)*%
X219285000Y-120490000D03*
%TO.P,J1,a25,Pin_a25*%
%TO.N,GPIO*%
X219285000Y-123030000D03*
%TO.P,J1,a26,Pin_a26*%
%TO.N,GND*%
X219285000Y-125570000D03*
D11*
%TO.P,J1,b1,Pin_b1*%
X221825000Y-62070000D03*
D10*
%TO.P,J1,b2,Pin_b2*%
%TO.N,unconnected-(J1-Pin_b2-Padb2)*%
X221825000Y-64610000D03*
%TO.P,J1,b3,Pin_b3*%
%TO.N,unconnected-(J1-Pin_b3-Padb3)*%
X221825000Y-67150000D03*
%TO.P,J1,b4,Pin_b4*%
%TO.N,unconnected-(J1-Pin_b4-Padb4)*%
X221825000Y-69690000D03*
%TO.P,J1,b5,Pin_b5*%
%TO.N,unconnected-(J1-Pin_b5-Padb5)*%
X221825000Y-72230000D03*
%TO.P,J1,b6,Pin_b6*%
%TO.N,5V_conv_out*%
X221825000Y-74770000D03*
%TO.P,J1,b7,Pin_b7*%
%TO.N,5V_out*%
X221825000Y-77310000D03*
%TO.P,J1,b8,Pin_b8*%
%TO.N,unconnected-(J1-Pin_b8-Padb8)*%
X221825000Y-79850000D03*
%TO.P,J1,b9,Pin_b9*%
%TO.N,unconnected-(J1-Pin_b9-Padb9)*%
X221825000Y-82390000D03*
%TO.P,J1,b10,Pin_b10*%
%TO.N,unconnected-(J1-Pin_b10-Padb10)*%
X221825000Y-84930000D03*
%TO.P,J1,b11,Pin_b11*%
%TO.N,12V_conv_out*%
X221825000Y-87470000D03*
%TO.P,J1,b12,Pin_b12*%
%TO.N,12V_out*%
X221825000Y-90010000D03*
%TO.P,J1,b13,Pin_b13*%
%TO.N,unconnected-(J1-Pin_b13-Padb13)*%
X221825000Y-92550000D03*
%TO.P,J1,b14,Pin_b14*%
%TO.N,WARNING*%
X221825000Y-95090000D03*
%TO.P,J1,b15,Pin_b15*%
%TO.N,CRITICAL*%
X221825000Y-97630000D03*
%TO.P,J1,b16,Pin_b16*%
%TO.N,PV*%
X221825000Y-100170000D03*
%TO.P,J1,b17,Pin_b17*%
%TO.N,unconnected-(J1-Pin_b17-Padb17)*%
X221825000Y-102710000D03*
%TO.P,J1,b18,Pin_b18*%
%TO.N,unconnected-(J1-Pin_b18-Padb18)*%
X221825000Y-105250000D03*
%TO.P,J1,b19,Pin_b19*%
%TO.N,unconnected-(J1-Pin_b19-Padb19)*%
X221825000Y-107790000D03*
%TO.P,J1,b20,Pin_b20*%
%TO.N,unconnected-(J1-Pin_b20-Padb20)*%
X221825000Y-110330000D03*
%TO.P,J1,b21,Pin_b21*%
%TO.N,unconnected-(J1-Pin_b21-Padb21)*%
X221825000Y-112870000D03*
%TO.P,J1,b22,Pin_b22*%
%TO.N,3V3_conv_out*%
X221825000Y-115410000D03*
%TO.P,J1,b23,Pin_b23*%
%TO.N,3V3_out*%
X221825000Y-117950000D03*
%TO.P,J1,b24,Pin_b24*%
%TO.N,unconnected-(J1-Pin_b24-Padb24)*%
X221825000Y-120490000D03*
%TO.P,J1,b25,Pin_b25*%
%TO.N,RESET*%
X221825000Y-123030000D03*
%TO.P,J1,b26,Pin_b26*%
%TO.N,GND*%
X221825000Y-125570000D03*
%TD*%
D18*
%TO.N,GND*%
X172293800Y-98747600D03*
D19*
X206787000Y-103675200D03*
X190277000Y-117696000D03*
X215169000Y-74262000D03*
X217201000Y-92804000D03*
X194899800Y-114140000D03*
X144506200Y-74871600D03*
X216947000Y-83914000D03*
X212984600Y-66540400D03*
X214610200Y-79443600D03*
X167772600Y-98849200D03*
X215423000Y-72230000D03*
X186975000Y-76497200D03*
X144963400Y-115105200D03*
X142525000Y-120286800D03*
X229697800Y-67150000D03*
X175338200Y-99382600D03*
X185197000Y-63340000D03*
X212883000Y-64864000D03*
X190785000Y-70706000D03*
%TO.N,V_Batt*%
X213137000Y-104234000D03*
X211613000Y-99903000D03*
X214661000Y-104234000D03*
X210952600Y-129430800D03*
X214661000Y-99916000D03*
X211613000Y-104234000D03*
X213137000Y-99916000D03*
X209530200Y-69690000D03*
X222027000Y-128618000D03*
%TO.N,5V_HK*%
X208311000Y-79596000D03*
X147859000Y-73754000D03*
X209327000Y-99408000D03*
X150145000Y-94582000D03*
%TO.N,/Curr_meas/3V3_to_fet*%
X205517000Y-112870000D03*
X205517000Y-110076000D03*
X167925000Y-105504000D03*
X167925000Y-108044000D03*
%TO.N,/Curr_meas/5V_to_fet*%
X205517000Y-74262000D03*
X178593000Y-83660000D03*
X205517000Y-76548000D03*
X178593000Y-86708000D03*
%TO.N,3V3_out*%
X171176200Y-99255600D03*
X167671000Y-93515200D03*
X186797200Y-103548200D03*
%TO.N,/Curr_meas/12V_to_fet*%
X164877000Y-91026000D03*
X162337000Y-91026000D03*
X206279000Y-83964800D03*
X206279000Y-82085200D03*
%TO.N,5V_conv_out*%
X214203800Y-69486800D03*
%TO.N,12V_conv_out*%
X204755000Y-85184000D03*
%TO.N,3V3_conv_out*%
X203485000Y-119220000D03*
%TO.N,PV*%
X176815000Y-89248000D03*
%TO.N,CRITICAL*%
X177475400Y-91254600D03*
%TO.N,WARNING*%
X178085000Y-92804000D03*
%TO.N,CM_SCL*%
X178313600Y-97096600D03*
%TO.N,CM_SDA*%
X178085000Y-94836000D03*
%TO.N,/Curr_meas/5V_to_cm*%
X168179000Y-86708000D03*
X181895000Y-67404000D03*
X168179000Y-83914000D03*
X181895000Y-65372000D03*
%TD*%
D20*
%TO.N,GND*%
X223003000Y-101612000D02*
X223003000Y-103197944D01*
X218797056Y-106428000D02*
X216574466Y-104205410D01*
D21*
X215169000Y-78884800D02*
X215169000Y-74262000D01*
D20*
X214581548Y-68581000D02*
X215008000Y-69007452D01*
X215008000Y-69021000D02*
X215423000Y-69436000D01*
X220463000Y-105737944D02*
X219772944Y-106428000D01*
D21*
X216947000Y-83914000D02*
X217201000Y-84168000D01*
D20*
X207227266Y-103234934D02*
X206787000Y-103675200D01*
X215008000Y-69007452D02*
X215008000Y-69021000D01*
D21*
X214610200Y-79443600D02*
X215169000Y-78884800D01*
D20*
X221153056Y-104072000D02*
X220463000Y-104762056D01*
X224445000Y-100170000D02*
X223003000Y-101612000D01*
X216574466Y-103234934D02*
X207227266Y-103234934D01*
D21*
X217201000Y-84168000D02*
X217201000Y-92804000D01*
D22*
X193833000Y-114140000D02*
X190277000Y-117696000D01*
D20*
X214568000Y-68581000D02*
X214581548Y-68581000D01*
X223003000Y-103197944D02*
X222128944Y-104072000D01*
X213391000Y-66946800D02*
X213391000Y-67404000D01*
X212984600Y-66540400D02*
X213391000Y-66946800D01*
X213391000Y-67404000D02*
X214568000Y-68581000D01*
D23*
X172928800Y-99382600D02*
X172293800Y-98747600D01*
D22*
X194899800Y-114140000D02*
X193833000Y-114140000D01*
D20*
X216574466Y-104205410D02*
X216574466Y-103234934D01*
X222128944Y-104072000D02*
X221153056Y-104072000D01*
X215423000Y-69436000D02*
X215423000Y-72230000D01*
X220463000Y-104762056D02*
X220463000Y-105737944D01*
X219772944Y-106428000D02*
X218797056Y-106428000D01*
D23*
X175338200Y-99382600D02*
X172928800Y-99382600D01*
D24*
%TO.N,V_Batt*%
X210597000Y-130142000D02*
X211105000Y-129634000D01*
X149891000Y-99149000D02*
X149891000Y-127348000D01*
D22*
X210343000Y-70502800D02*
X210343000Y-98633000D01*
D24*
X149891000Y-127348000D02*
X154463000Y-131920000D01*
X154463000Y-131920000D02*
X210597000Y-131920000D01*
D22*
X209530200Y-69690000D02*
X210343000Y-70502800D01*
X210343000Y-98633000D02*
X211613000Y-99903000D01*
D24*
X147884000Y-97142000D02*
X149891000Y-99149000D01*
X210597000Y-131920000D02*
X210597000Y-130142000D01*
D22*
%TO.N,5V_HK*%
X209327000Y-99408000D02*
X208311000Y-98392000D01*
D21*
X150145000Y-94582000D02*
X150145000Y-76040000D01*
D22*
X208311000Y-98392000D02*
X208311000Y-79596000D01*
D21*
X150145000Y-76040000D02*
X147859000Y-73754000D01*
D22*
%TO.N,3V3_out*%
X186787000Y-103538000D02*
X186797200Y-103548200D01*
X167671000Y-95750400D02*
X171176200Y-99255600D01*
X167671000Y-93515200D02*
X167671000Y-95750400D01*
X175458600Y-103538000D02*
X186787000Y-103538000D01*
X171176200Y-99255600D02*
X175458600Y-103538000D01*
D20*
%TO.N,5V_conv_out*%
X207836000Y-68420000D02*
X205958000Y-70298000D01*
X214203800Y-69486800D02*
X214203800Y-69232800D01*
X213391000Y-68420000D02*
X207836000Y-68420000D01*
X194441000Y-70298000D02*
X192563000Y-68420000D01*
X205958000Y-70298000D02*
X194441000Y-70298000D01*
X192563000Y-68420000D02*
X192563000Y-62319000D01*
X192563000Y-62319000D02*
X191572000Y-61328000D01*
X214203800Y-69232800D02*
X213391000Y-68420000D01*
D21*
%TO.N,12V_conv_out*%
X204755000Y-85184000D02*
X204755000Y-85737000D01*
X204755000Y-85737000D02*
X191826000Y-98666000D01*
D24*
%TO.N,3V3_conv_out*%
X200813000Y-119220000D02*
X199650000Y-118057000D01*
X203485000Y-119220000D02*
X200813000Y-119220000D01*
D20*
%TO.N,PV*%
X221825000Y-100170000D02*
X220463000Y-101532000D01*
X219772944Y-103888000D02*
X217871000Y-103888000D01*
X181116065Y-102710000D02*
X176391000Y-97984935D01*
X220463000Y-101532000D02*
X220463000Y-103197944D01*
X176391000Y-97984935D02*
X176391000Y-89672000D01*
X220463000Y-103197944D02*
X219772944Y-103888000D01*
X216693000Y-102710000D02*
X181116065Y-102710000D01*
X217871000Y-103888000D02*
X216693000Y-102710000D01*
X176391000Y-89672000D02*
X176815000Y-89248000D01*
%TO.N,CRITICAL*%
X220647000Y-100473944D02*
X220647000Y-98808000D01*
X176952000Y-91397000D02*
X176952000Y-97902468D01*
X218180056Y-102149000D02*
X218981056Y-101348000D01*
X176952000Y-97902468D02*
X181198533Y-102149000D01*
X218981056Y-101348000D02*
X219772944Y-101348000D01*
X219772944Y-101348000D02*
X220647000Y-100473944D01*
X177094400Y-91254600D02*
X176952000Y-91397000D01*
X177475400Y-91254600D02*
X177094400Y-91254600D01*
X220647000Y-98808000D02*
X221825000Y-97630000D01*
X181198533Y-102149000D02*
X218180056Y-102149000D01*
%TO.N,WARNING*%
X220463000Y-96452000D02*
X218797056Y-96452000D01*
X218048266Y-97200790D02*
X218048266Y-98223266D01*
X218797056Y-96452000D02*
X218048266Y-97200790D01*
X179930734Y-98832266D02*
X179930734Y-94649734D01*
X218048266Y-98223266D02*
X215540532Y-100731000D01*
X181829468Y-100731000D02*
X179930734Y-98832266D01*
X179930734Y-94649734D02*
X178085000Y-92804000D01*
X221825000Y-95090000D02*
X220463000Y-96452000D01*
X215540532Y-100731000D02*
X181829468Y-100731000D01*
%TO.N,CM_SCL*%
X178313600Y-97096600D02*
X178085000Y-97325200D01*
X178085000Y-97325200D02*
X178085000Y-97630000D01*
X215729000Y-101186000D02*
X219285000Y-97630000D01*
X178085000Y-97630000D02*
X181641000Y-101186000D01*
X181641000Y-101186000D02*
X215729000Y-101186000D01*
%TO.N,CM_SDA*%
X217761000Y-101694000D02*
X219285000Y-100170000D01*
X177407000Y-97714000D02*
X181387000Y-101694000D01*
X178085000Y-94836000D02*
X177407000Y-95514000D01*
X177407000Y-95514000D02*
X177407000Y-97714000D01*
X181387000Y-101694000D02*
X217761000Y-101694000D01*
%TD*%
%TA.AperFunction,Conductor*%
%TO.N,V_Batt*%
G36*
X215890005Y-103882119D02*
G01*
X215935760Y-103934923D01*
X215946966Y-103986434D01*
X215946966Y-104267217D01*
X215971078Y-104388438D01*
X215971079Y-104388442D01*
X215971080Y-104388445D01*
X215994127Y-104444083D01*
X216018383Y-104502643D01*
X216053963Y-104555892D01*
X216057336Y-104560940D01*
X216087053Y-104605416D01*
X216087057Y-104605421D01*
X217705927Y-106224290D01*
X217739412Y-106285613D01*
X217742245Y-106312569D01*
X217691014Y-116933999D01*
X217691014Y-116934000D01*
X218117114Y-116918935D01*
X218184805Y-116936239D01*
X218232397Y-116987393D01*
X218244778Y-117056157D01*
X218221812Y-117115742D01*
X218129950Y-117242181D01*
X218033444Y-117431585D01*
X217967753Y-117633760D01*
X217934500Y-117843713D01*
X217934500Y-118056286D01*
X217967753Y-118266239D01*
X218033444Y-118468414D01*
X218129951Y-118657820D01*
X218254890Y-118829786D01*
X218405213Y-118980109D01*
X218577182Y-119105050D01*
X218585946Y-119109516D01*
X218636742Y-119157491D01*
X218653536Y-119225312D01*
X218630998Y-119291447D01*
X218585946Y-119330484D01*
X218577182Y-119334949D01*
X218405213Y-119459890D01*
X218254890Y-119610213D01*
X218129951Y-119782179D01*
X218033444Y-119971585D01*
X217967753Y-120173760D01*
X217934500Y-120383713D01*
X217934500Y-120596286D01*
X217967753Y-120806239D01*
X218033444Y-121008414D01*
X218129951Y-121197820D01*
X218254890Y-121369786D01*
X218405213Y-121520109D01*
X218577182Y-121645050D01*
X218585946Y-121649516D01*
X218636742Y-121697491D01*
X218653536Y-121765312D01*
X218630998Y-121831447D01*
X218585946Y-121870484D01*
X218577182Y-121874949D01*
X218405213Y-121999890D01*
X218254890Y-122150213D01*
X218129951Y-122322179D01*
X218033444Y-122511585D01*
X217967753Y-122713760D01*
X217934500Y-122923713D01*
X217934500Y-123136286D01*
X217967753Y-123346239D01*
X218033444Y-123548414D01*
X218129951Y-123737820D01*
X218254890Y-123909786D01*
X218405213Y-124060109D01*
X218577182Y-124185050D01*
X218585946Y-124189516D01*
X218636742Y-124237491D01*
X218653536Y-124305312D01*
X218630998Y-124371447D01*
X218585946Y-124410484D01*
X218577182Y-124414949D01*
X218405213Y-124539890D01*
X218254890Y-124690213D01*
X218129951Y-124862179D01*
X218033444Y-125051585D01*
X217967753Y-125253760D01*
X217934500Y-125463713D01*
X217934500Y-125676287D01*
X217967754Y-125886243D01*
X218030002Y-126077823D01*
X218033444Y-126088414D01*
X218129951Y-126277820D01*
X218254890Y-126449786D01*
X218405213Y-126600109D01*
X218577179Y-126725048D01*
X218577181Y-126725049D01*
X218577184Y-126725051D01*
X218766588Y-126821557D01*
X218968757Y-126887246D01*
X219178713Y-126920500D01*
X219178714Y-126920500D01*
X219391286Y-126920500D01*
X219391287Y-126920500D01*
X219601243Y-126887246D01*
X219803412Y-126821557D01*
X219992816Y-126725051D01*
X220014789Y-126709086D01*
X220164786Y-126600109D01*
X220164788Y-126600106D01*
X220164792Y-126600104D01*
X220315104Y-126449792D01*
X220315106Y-126449788D01*
X220315109Y-126449786D01*
X220440048Y-126277820D01*
X220440047Y-126277820D01*
X220440051Y-126277816D01*
X220444514Y-126269054D01*
X220492488Y-126218259D01*
X220560308Y-126201463D01*
X220626444Y-126223999D01*
X220665486Y-126269056D01*
X220669951Y-126277820D01*
X220794890Y-126449786D01*
X220945213Y-126600109D01*
X221117179Y-126725048D01*
X221117181Y-126725049D01*
X221117184Y-126725051D01*
X221306588Y-126821557D01*
X221508757Y-126887246D01*
X221718713Y-126920500D01*
X221718714Y-126920500D01*
X221931286Y-126920500D01*
X221931287Y-126920500D01*
X222141243Y-126887246D01*
X222343412Y-126821557D01*
X222532816Y-126725051D01*
X222554789Y-126709086D01*
X222704786Y-126600109D01*
X222704788Y-126600106D01*
X222704792Y-126600104D01*
X222855104Y-126449792D01*
X222855106Y-126449788D01*
X222855109Y-126449786D01*
X222980048Y-126277820D01*
X222980047Y-126277820D01*
X222980051Y-126277816D01*
X223024515Y-126190549D01*
X223072489Y-126139754D01*
X223140310Y-126122959D01*
X223206445Y-126145496D01*
X223245485Y-126190550D01*
X223289951Y-126277820D01*
X223414890Y-126449786D01*
X223565213Y-126600109D01*
X223737179Y-126725048D01*
X223737181Y-126725049D01*
X223737184Y-126725051D01*
X223926588Y-126821557D01*
X224128757Y-126887246D01*
X224338713Y-126920500D01*
X224338714Y-126920500D01*
X224551286Y-126920500D01*
X224551287Y-126920500D01*
X224761243Y-126887246D01*
X224963412Y-126821557D01*
X225152816Y-126725051D01*
X225174789Y-126709086D01*
X225324786Y-126600109D01*
X225324788Y-126600106D01*
X225324792Y-126600104D01*
X225475104Y-126449792D01*
X225475106Y-126449788D01*
X225475109Y-126449786D01*
X225600048Y-126277820D01*
X225600047Y-126277820D01*
X225600051Y-126277816D01*
X225604514Y-126269054D01*
X225652488Y-126218259D01*
X225720308Y-126201463D01*
X225786444Y-126223999D01*
X225825486Y-126269056D01*
X225829951Y-126277820D01*
X225954890Y-126449786D01*
X226105213Y-126600109D01*
X226277179Y-126725048D01*
X226277181Y-126725049D01*
X226277184Y-126725051D01*
X226371798Y-126773259D01*
X226422594Y-126821233D01*
X226439389Y-126889054D01*
X226416852Y-126955189D01*
X226362137Y-126998641D01*
X226339694Y-127005361D01*
X226084788Y-127056064D01*
X226084776Y-127056067D01*
X225736834Y-127161614D01*
X225400921Y-127300754D01*
X225400916Y-127300756D01*
X225080279Y-127472140D01*
X225080261Y-127472151D01*
X224777964Y-127674140D01*
X224777950Y-127674150D01*
X224496893Y-127904807D01*
X224239807Y-128161893D01*
X224009150Y-128442950D01*
X224009140Y-128442964D01*
X223807151Y-128745261D01*
X223807140Y-128745279D01*
X223635756Y-129065916D01*
X223635754Y-129065921D01*
X223496614Y-129401834D01*
X223391067Y-129749776D01*
X223391064Y-129749787D01*
X223320137Y-130106369D01*
X223284500Y-130468209D01*
X223284500Y-130831790D01*
X223320137Y-131193630D01*
X223391064Y-131550212D01*
X223391067Y-131550223D01*
X223496614Y-131898165D01*
X223635754Y-132234078D01*
X223635756Y-132234083D01*
X223807140Y-132554720D01*
X223807151Y-132554738D01*
X224009140Y-132857035D01*
X224009150Y-132857049D01*
X224239807Y-133138106D01*
X224496893Y-133395192D01*
X224496898Y-133395196D01*
X224496899Y-133395197D01*
X224777956Y-133625854D01*
X225080268Y-133827853D01*
X225080277Y-133827858D01*
X225080279Y-133827859D01*
X225400916Y-133999243D01*
X225400918Y-133999243D01*
X225400924Y-133999247D01*
X225736836Y-134138386D01*
X226084767Y-134243930D01*
X226084773Y-134243931D01*
X226084776Y-134243932D01*
X226084787Y-134243935D01*
X226441369Y-134314862D01*
X226803206Y-134350500D01*
X226803209Y-134350500D01*
X227166791Y-134350500D01*
X227166794Y-134350500D01*
X227528631Y-134314862D01*
X227598045Y-134301054D01*
X227885212Y-134243935D01*
X227885223Y-134243932D01*
X227885223Y-134243931D01*
X227885233Y-134243930D01*
X228233164Y-134138386D01*
X228569076Y-133999247D01*
X228889732Y-133827853D01*
X229192044Y-133625854D01*
X229473101Y-133395197D01*
X229730197Y-133138101D01*
X229960854Y-132857044D01*
X230162853Y-132554732D01*
X230334247Y-132234076D01*
X230473386Y-131898164D01*
X230578930Y-131550233D01*
X230578932Y-131550223D01*
X230578935Y-131550212D01*
X230649862Y-131193630D01*
X230685500Y-130831790D01*
X230685500Y-130468209D01*
X230649862Y-130106369D01*
X230578935Y-129749787D01*
X230578932Y-129749776D01*
X230578931Y-129749773D01*
X230578930Y-129749767D01*
X230473386Y-129401836D01*
X230334247Y-129065924D01*
X230162853Y-128745268D01*
X229960854Y-128442956D01*
X229730197Y-128161899D01*
X229730196Y-128161898D01*
X229730192Y-128161893D01*
X229473106Y-127904807D01*
X229192049Y-127674150D01*
X229192048Y-127674149D01*
X229192044Y-127674146D01*
X228889732Y-127472147D01*
X228889727Y-127472144D01*
X228889720Y-127472140D01*
X228569083Y-127300756D01*
X228569078Y-127300754D01*
X228233165Y-127161614D01*
X227885223Y-127056067D01*
X227885212Y-127056064D01*
X227630305Y-127005361D01*
X227568394Y-126972976D01*
X227533820Y-126912261D01*
X227537559Y-126842491D01*
X227578425Y-126785819D01*
X227598202Y-126773259D01*
X227692816Y-126725051D01*
X227744255Y-126687678D01*
X227864786Y-126600109D01*
X227864788Y-126600106D01*
X227864792Y-126600104D01*
X228015104Y-126449792D01*
X228015106Y-126449788D01*
X228015109Y-126449786D01*
X228140048Y-126277820D01*
X228140047Y-126277820D01*
X228140051Y-126277816D01*
X228236557Y-126088412D01*
X228302246Y-125886243D01*
X228335500Y-125676287D01*
X228335500Y-125463713D01*
X228302246Y-125253757D01*
X228236557Y-125051588D01*
X228140051Y-124862184D01*
X228140049Y-124862181D01*
X228140048Y-124862179D01*
X228015109Y-124690213D01*
X227864786Y-124539890D01*
X227692820Y-124414951D01*
X227692115Y-124414591D01*
X227684054Y-124410485D01*
X227633259Y-124362512D01*
X227616463Y-124294692D01*
X227638999Y-124228556D01*
X227684054Y-124189515D01*
X227692816Y-124185051D01*
X227714789Y-124169086D01*
X227864786Y-124060109D01*
X227864788Y-124060106D01*
X227864792Y-124060104D01*
X228015104Y-123909792D01*
X228015106Y-123909788D01*
X228015109Y-123909786D01*
X228140048Y-123737820D01*
X228140047Y-123737820D01*
X228140051Y-123737816D01*
X228236557Y-123548412D01*
X228302246Y-123346243D01*
X228335500Y-123136287D01*
X228335500Y-122923713D01*
X228302246Y-122713757D01*
X228236557Y-122511588D01*
X228140051Y-122322184D01*
X228140049Y-122322181D01*
X228140048Y-122322179D01*
X228015109Y-122150213D01*
X227864786Y-121999890D01*
X227692820Y-121874951D01*
X227692115Y-121874591D01*
X227684054Y-121870485D01*
X227633259Y-121822512D01*
X227616463Y-121754692D01*
X227638999Y-121688556D01*
X227684054Y-121649515D01*
X227692816Y-121645051D01*
X227714789Y-121629086D01*
X227864786Y-121520109D01*
X227864788Y-121520106D01*
X227864792Y-121520104D01*
X228015104Y-121369792D01*
X228015106Y-121369788D01*
X228015109Y-121369786D01*
X228140048Y-121197820D01*
X228140047Y-121197820D01*
X228140051Y-121197816D01*
X228236557Y-121008412D01*
X228302246Y-120806243D01*
X228335500Y-120596287D01*
X228335500Y-120383713D01*
X228302246Y-120173757D01*
X228236557Y-119971588D01*
X228140051Y-119782184D01*
X228140049Y-119782181D01*
X228140048Y-119782179D01*
X228015109Y-119610213D01*
X227864786Y-119459890D01*
X227692820Y-119334951D01*
X227503414Y-119238444D01*
X227503413Y-119238443D01*
X227503412Y-119238443D01*
X227301243Y-119172754D01*
X227301241Y-119172753D01*
X227301240Y-119172753D01*
X227139957Y-119147208D01*
X227091287Y-119139500D01*
X226878713Y-119139500D01*
X226830042Y-119147208D01*
X226668760Y-119172753D01*
X226466585Y-119238444D01*
X226277179Y-119334951D01*
X226105213Y-119459890D01*
X225954890Y-119610213D01*
X225829949Y-119782182D01*
X225825484Y-119790946D01*
X225777509Y-119841742D01*
X225709688Y-119858536D01*
X225643553Y-119835998D01*
X225604516Y-119790946D01*
X225600050Y-119782182D01*
X225475109Y-119610213D01*
X225324786Y-119459890D01*
X225152820Y-119334951D01*
X224963414Y-119238444D01*
X224963413Y-119238443D01*
X224963412Y-119238443D01*
X224761243Y-119172754D01*
X224761241Y-119172753D01*
X224761240Y-119172753D01*
X224599957Y-119147208D01*
X224551287Y-119139500D01*
X224338713Y-119139500D01*
X224290042Y-119147208D01*
X224128760Y-119172753D01*
X223926585Y-119238444D01*
X223737179Y-119334951D01*
X223565213Y-119459890D01*
X223414890Y-119610213D01*
X223289951Y-119782180D01*
X223245485Y-119869449D01*
X223197510Y-119920245D01*
X223129689Y-119937040D01*
X223063554Y-119914502D01*
X223024515Y-119869449D01*
X223010397Y-119841742D01*
X222980051Y-119782184D01*
X222972023Y-119771134D01*
X222855109Y-119610213D01*
X222704786Y-119459890D01*
X222532820Y-119334951D01*
X222532115Y-119334591D01*
X222524054Y-119330485D01*
X222473259Y-119282512D01*
X222456463Y-119214692D01*
X222478999Y-119148556D01*
X222524054Y-119109515D01*
X222532816Y-119105051D01*
X222554789Y-119089086D01*
X222704786Y-118980109D01*
X222704788Y-118980106D01*
X222704792Y-118980104D01*
X222855104Y-118829792D01*
X222855106Y-118829788D01*
X222855109Y-118829786D01*
X222980048Y-118657820D01*
X222980047Y-118657820D01*
X222980051Y-118657816D01*
X223076557Y-118468412D01*
X223142246Y-118266243D01*
X223175500Y-118056287D01*
X223175500Y-117843713D01*
X223142246Y-117633757D01*
X223076557Y-117431588D01*
X222980051Y-117242184D01*
X222980049Y-117242181D01*
X222980048Y-117242179D01*
X222855109Y-117070213D01*
X222748743Y-116963847D01*
X222715258Y-116902524D01*
X222720242Y-116832832D01*
X222762114Y-116776899D01*
X222827578Y-116752482D01*
X222831962Y-116752247D01*
X224049023Y-116709219D01*
X224091715Y-116715210D01*
X224128757Y-116727246D01*
X224338713Y-116760500D01*
X224338714Y-116760500D01*
X224551286Y-116760500D01*
X224551287Y-116760500D01*
X224761243Y-116727246D01*
X224893910Y-116684139D01*
X224927834Y-116678150D01*
X226365123Y-116627336D01*
X226425798Y-116640773D01*
X226466588Y-116661557D01*
X226668757Y-116727246D01*
X226878713Y-116760500D01*
X226878714Y-116760500D01*
X227091286Y-116760500D01*
X227091287Y-116760500D01*
X227301243Y-116727246D01*
X227503412Y-116661557D01*
X227635988Y-116594006D01*
X227687890Y-116580571D01*
X228121623Y-116565237D01*
X228189312Y-116582540D01*
X228236904Y-116633694D01*
X228250000Y-116689159D01*
X228250000Y-118585000D01*
X231435500Y-118585000D01*
X231502539Y-118604685D01*
X231548294Y-118657489D01*
X231559500Y-118709000D01*
X231559500Y-136100868D01*
X231539815Y-136167907D01*
X231487011Y-136213662D01*
X231426625Y-136224550D01*
X217455014Y-135222000D01*
X217455000Y-135222000D01*
X209197000Y-135222000D01*
X209129961Y-135202315D01*
X209084206Y-135149511D01*
X209073000Y-135098000D01*
X209073000Y-126077823D01*
X209062823Y-122511585D01*
X209040598Y-114723109D01*
X209060090Y-114656018D01*
X209112763Y-114610113D01*
X209126139Y-114604875D01*
X209169535Y-114590726D01*
X209291205Y-114513927D01*
X209344380Y-114468604D01*
X209439481Y-114360644D01*
X209500317Y-114230258D01*
X209520368Y-114163974D01*
X209520543Y-114163410D01*
X209520546Y-114163386D01*
X209520548Y-114163382D01*
X209520549Y-114163380D01*
X209542186Y-114021136D01*
X209578059Y-109624078D01*
X209575395Y-109567964D01*
X209572565Y-109540594D01*
X209563694Y-109485132D01*
X209513412Y-109350323D01*
X209479927Y-109289000D01*
X209393703Y-109173819D01*
X209393698Y-109173814D01*
X209393693Y-109173808D01*
X209059879Y-108839994D01*
X209026394Y-108778671D01*
X209023561Y-108752667D01*
X209016598Y-106312569D01*
X209009962Y-103986788D01*
X209029455Y-103919692D01*
X209082128Y-103873787D01*
X209133961Y-103862434D01*
X215822966Y-103862434D01*
X215890005Y-103882119D01*
G37*
%TD.AperFunction*%
%TA.AperFunction,Conductor*%
G36*
X217843903Y-60540733D02*
G01*
X217910008Y-60563360D01*
X217953385Y-60618134D01*
X217962424Y-60665210D01*
X217956887Y-61813197D01*
X217955361Y-61831997D01*
X217934500Y-61963707D01*
X217934500Y-62176292D01*
X217952951Y-62292787D01*
X217954477Y-62312783D01*
X217944250Y-64432976D01*
X217942725Y-64451773D01*
X217934500Y-64503711D01*
X217934500Y-64716287D01*
X217941062Y-64757726D01*
X217942587Y-64777719D01*
X217853495Y-83248232D01*
X217833487Y-83315176D01*
X217780463Y-83360676D01*
X217711257Y-83370285D01*
X217647842Y-83340954D01*
X217641815Y-83335315D01*
X217521038Y-83214538D01*
X217521034Y-83214535D01*
X217373553Y-83115990D01*
X217373540Y-83115983D01*
X217209667Y-83048106D01*
X217209658Y-83048103D01*
X217035694Y-83013500D01*
X217035691Y-83013500D01*
X216858309Y-83013500D01*
X216858306Y-83013500D01*
X216684341Y-83048103D01*
X216684332Y-83048106D01*
X216520459Y-83115983D01*
X216520446Y-83115990D01*
X216372965Y-83214535D01*
X216372961Y-83214538D01*
X216247538Y-83339961D01*
X216247535Y-83339965D01*
X216148990Y-83487446D01*
X216148983Y-83487459D01*
X216081106Y-83651332D01*
X216081103Y-83651341D01*
X216046500Y-83825304D01*
X216046500Y-84002695D01*
X216081103Y-84176658D01*
X216081106Y-84176667D01*
X216148983Y-84340540D01*
X216148990Y-84340553D01*
X216247535Y-84488034D01*
X216247538Y-84488038D01*
X216372961Y-84613461D01*
X216372965Y-84613464D01*
X216520449Y-84712011D01*
X216520451Y-84712011D01*
X216520453Y-84712013D01*
X216545916Y-84722560D01*
X216560452Y-84728581D01*
X216614856Y-84772421D01*
X216636921Y-84838715D01*
X216637000Y-84843142D01*
X216637000Y-92043138D01*
X216617315Y-92110177D01*
X216600681Y-92130819D01*
X216501538Y-92229961D01*
X216501535Y-92229965D01*
X216402990Y-92377446D01*
X216402983Y-92377459D01*
X216335106Y-92541332D01*
X216335103Y-92541341D01*
X216300500Y-92715304D01*
X216300500Y-92892695D01*
X216335103Y-93066658D01*
X216335106Y-93066667D01*
X216402983Y-93230540D01*
X216402990Y-93230553D01*
X216501535Y-93378034D01*
X216501538Y-93378038D01*
X216626961Y-93503461D01*
X216626965Y-93503464D01*
X216774446Y-93602009D01*
X216774459Y-93602016D01*
X216827916Y-93624158D01*
X216938334Y-93669894D01*
X216938336Y-93669894D01*
X216938341Y-93669896D01*
X217112304Y-93704499D01*
X217112307Y-93704500D01*
X217112309Y-93704500D01*
X217289693Y-93704500D01*
X217289694Y-93704499D01*
X217347682Y-93692964D01*
X217463658Y-93669896D01*
X217463661Y-93669894D01*
X217463666Y-93669894D01*
X217627547Y-93602013D01*
X217627548Y-93602011D01*
X217631556Y-93600352D01*
X217701025Y-93592883D01*
X217763504Y-93624158D01*
X217799156Y-93684247D01*
X217803007Y-93715511D01*
X217789473Y-96521397D01*
X217780765Y-96550530D01*
X217774306Y-96580225D01*
X217770285Y-96585596D01*
X217769465Y-96588341D01*
X217753156Y-96608480D01*
X217648258Y-96713379D01*
X217648255Y-96713380D01*
X217560857Y-96800778D01*
X217560851Y-96800786D01*
X217491499Y-96904579D01*
X217489852Y-96909183D01*
X217444880Y-97017754D01*
X217444878Y-97017762D01*
X217426215Y-97111586D01*
X217426216Y-97111587D01*
X217420766Y-97138987D01*
X217420766Y-97911985D01*
X217401081Y-97979024D01*
X217384447Y-97999666D01*
X215316932Y-100067181D01*
X215255609Y-100100666D01*
X215229251Y-100103500D01*
X210297560Y-100103500D01*
X210230521Y-100083815D01*
X210184766Y-100031011D01*
X210174822Y-99961853D01*
X210194458Y-99910609D01*
X210200602Y-99901413D01*
X210213631Y-99881914D01*
X210289051Y-99699836D01*
X210327500Y-99506540D01*
X210327500Y-99309460D01*
X210327500Y-99309457D01*
X210327499Y-99309455D01*
X210289051Y-99116164D01*
X210213631Y-98934086D01*
X210213629Y-98934083D01*
X210213627Y-98934079D01*
X210104139Y-98770219D01*
X210104136Y-98770215D01*
X209347819Y-98013898D01*
X209314334Y-97952575D01*
X209311500Y-97926217D01*
X209311500Y-79497456D01*
X209283144Y-79354904D01*
X213709700Y-79354904D01*
X213709700Y-79532295D01*
X213744303Y-79706258D01*
X213744306Y-79706267D01*
X213812183Y-79870140D01*
X213812190Y-79870153D01*
X213910735Y-80017634D01*
X213910738Y-80017638D01*
X214036161Y-80143061D01*
X214036165Y-80143064D01*
X214183646Y-80241609D01*
X214183659Y-80241616D01*
X214306563Y-80292523D01*
X214347534Y-80309494D01*
X214347536Y-80309494D01*
X214347541Y-80309496D01*
X214521504Y-80344099D01*
X214521507Y-80344100D01*
X214521509Y-80344100D01*
X214698893Y-80344100D01*
X214698894Y-80344099D01*
X214784667Y-80327038D01*
X214872858Y-80309496D01*
X214872861Y-80309494D01*
X214872866Y-80309494D01*
X215036747Y-80241613D01*
X215184235Y-80143064D01*
X215309664Y-80017635D01*
X215408213Y-79870147D01*
X215476094Y-79706266D01*
X215510700Y-79532291D01*
X215510700Y-79392079D01*
X215530385Y-79325040D01*
X215547019Y-79304397D01*
X215547256Y-79304160D01*
X215620313Y-79231104D01*
X215694565Y-79102496D01*
X215733001Y-78959052D01*
X215733001Y-78810547D01*
X215733001Y-78802952D01*
X215733000Y-78802934D01*
X215733000Y-75022861D01*
X215752685Y-74955822D01*
X215769314Y-74935184D01*
X215868464Y-74836035D01*
X215967013Y-74688547D01*
X216034894Y-74524666D01*
X216069500Y-74350691D01*
X216069500Y-74173309D01*
X216069500Y-74173306D01*
X216069499Y-74173304D01*
X216034896Y-73999341D01*
X216034893Y-73999332D01*
X215967016Y-73835459D01*
X215967009Y-73835446D01*
X215868464Y-73687965D01*
X215868461Y-73687961D01*
X215743038Y-73562538D01*
X215743034Y-73562535D01*
X215595553Y-73463990D01*
X215595540Y-73463983D01*
X215431667Y-73396106D01*
X215431658Y-73396103D01*
X215334472Y-73376772D01*
X215334457Y-73376769D01*
X215257691Y-73361500D01*
X215080309Y-73361500D01*
X215080306Y-73361500D01*
X214906341Y-73396103D01*
X214906332Y-73396106D01*
X214742459Y-73463983D01*
X214742446Y-73463990D01*
X214594965Y-73562535D01*
X214594961Y-73562538D01*
X214469538Y-73687961D01*
X214469535Y-73687965D01*
X214370990Y-73835446D01*
X214370983Y-73835459D01*
X214303106Y-73999332D01*
X214303103Y-73999341D01*
X214268500Y-74173304D01*
X214268500Y-74350695D01*
X214303103Y-74524658D01*
X214303106Y-74524667D01*
X214370983Y-74688540D01*
X214370990Y-74688553D01*
X214469534Y-74836033D01*
X214469535Y-74836034D01*
X214469536Y-74836035D01*
X214568682Y-74935181D01*
X214602166Y-74996502D01*
X214605000Y-75022861D01*
X214605000Y-78424728D01*
X214585315Y-78491767D01*
X214532511Y-78537522D01*
X214505192Y-78546345D01*
X214347540Y-78577704D01*
X214347532Y-78577706D01*
X214183659Y-78645583D01*
X214183646Y-78645590D01*
X214036165Y-78744135D01*
X214036161Y-78744138D01*
X213910738Y-78869561D01*
X213910735Y-78869565D01*
X213812190Y-79017046D01*
X213812183Y-79017059D01*
X213744306Y-79180932D01*
X213744303Y-79180941D01*
X213709700Y-79354904D01*
X209283144Y-79354904D01*
X209273052Y-79304170D01*
X209273051Y-79304169D01*
X209273051Y-79304165D01*
X209273049Y-79304160D01*
X209197635Y-79122092D01*
X209197633Y-79122088D01*
X209197632Y-79122086D01*
X209165706Y-79074305D01*
X209144828Y-79007628D01*
X209163312Y-78940248D01*
X209174844Y-78924502D01*
X209218569Y-78873733D01*
X209277944Y-78742675D01*
X209297426Y-78675577D01*
X209317473Y-78533103D01*
X209303825Y-74002624D01*
X209303870Y-73998929D01*
X209320783Y-73387403D01*
X209310860Y-73272807D01*
X209299701Y-73217868D01*
X209266325Y-73115227D01*
X209264137Y-73108498D01*
X209212409Y-73028009D01*
X209186348Y-72987457D01*
X209186343Y-72987451D01*
X209140599Y-72934659D01*
X209140595Y-72934656D01*
X209140593Y-72934653D01*
X209031859Y-72840433D01*
X209031857Y-72840432D01*
X209031856Y-72840431D01*
X208913411Y-72786338D01*
X208860608Y-72740582D01*
X208840926Y-72674323D01*
X208819000Y-69182000D01*
X208818939Y-69172278D01*
X208838203Y-69105117D01*
X208890718Y-69059031D01*
X208942937Y-69047500D01*
X213079719Y-69047500D01*
X213109159Y-69056144D01*
X213139146Y-69062668D01*
X213144161Y-69066422D01*
X213146758Y-69067185D01*
X213167400Y-69083819D01*
X213286029Y-69202448D01*
X213319514Y-69263771D01*
X213319966Y-69314319D01*
X213303300Y-69398110D01*
X213303300Y-69575495D01*
X213337903Y-69749458D01*
X213337906Y-69749467D01*
X213405783Y-69913340D01*
X213405790Y-69913353D01*
X213504335Y-70060834D01*
X213504338Y-70060838D01*
X213629761Y-70186261D01*
X213629765Y-70186264D01*
X213777246Y-70284809D01*
X213777259Y-70284816D01*
X213841025Y-70311228D01*
X213941134Y-70352694D01*
X213941136Y-70352694D01*
X213941141Y-70352696D01*
X214115104Y-70387299D01*
X214115107Y-70387300D01*
X214115109Y-70387300D01*
X214292493Y-70387300D01*
X214292494Y-70387299D01*
X214350482Y-70375764D01*
X214466458Y-70352696D01*
X214466461Y-70352694D01*
X214466466Y-70352694D01*
X214624048Y-70287421D01*
X214693517Y-70279953D01*
X214755996Y-70311228D01*
X214791648Y-70371317D01*
X214795500Y-70401983D01*
X214795500Y-71532638D01*
X214775815Y-71599677D01*
X214759181Y-71620319D01*
X214723538Y-71655961D01*
X214723535Y-71655965D01*
X214624990Y-71803446D01*
X214624983Y-71803459D01*
X214557106Y-71967332D01*
X214557103Y-71967341D01*
X214522500Y-72141304D01*
X214522500Y-72318695D01*
X214557103Y-72492658D01*
X214557106Y-72492667D01*
X214624983Y-72656540D01*
X214624990Y-72656553D01*
X214723535Y-72804034D01*
X214723538Y-72804038D01*
X214848961Y-72929461D01*
X214848965Y-72929464D01*
X214996446Y-73028009D01*
X214996459Y-73028016D01*
X215119363Y-73078923D01*
X215160334Y-73095894D01*
X215160336Y-73095894D01*
X215160341Y-73095896D01*
X215255472Y-73114818D01*
X215334309Y-73130500D01*
X215364198Y-73130500D01*
X215511693Y-73130500D01*
X215511694Y-73130499D01*
X215588473Y-73115227D01*
X215685658Y-73095896D01*
X215685661Y-73095894D01*
X215685666Y-73095894D01*
X215849547Y-73028013D01*
X215997035Y-72929464D01*
X216122464Y-72804035D01*
X216221013Y-72656547D01*
X216288894Y-72492666D01*
X216323500Y-72318691D01*
X216323500Y-72141309D01*
X216323500Y-72141306D01*
X216323499Y-72141304D01*
X216288896Y-71967341D01*
X216288893Y-71967332D01*
X216221016Y-71803459D01*
X216221009Y-71803446D01*
X216122464Y-71655965D01*
X216122461Y-71655961D01*
X216086819Y-71620319D01*
X216053334Y-71558996D01*
X216050500Y-71532638D01*
X216050500Y-69374195D01*
X216045977Y-69351456D01*
X216036673Y-69304684D01*
X216026386Y-69252966D01*
X215979853Y-69140629D01*
X215979365Y-69139189D01*
X215910414Y-69035996D01*
X215910413Y-69035994D01*
X215910411Y-69035992D01*
X215823008Y-68948589D01*
X215531329Y-68656910D01*
X215526888Y-68652232D01*
X215520887Y-68645572D01*
X215495411Y-68607444D01*
X215408008Y-68520041D01*
X215289524Y-68401557D01*
X214981559Y-68093591D01*
X214981556Y-68093588D01*
X214950879Y-68073091D01*
X214932089Y-68057670D01*
X214054819Y-67180400D01*
X214021334Y-67119077D01*
X214018500Y-67092719D01*
X214018500Y-66884994D01*
X213994386Y-66763770D01*
X213994385Y-66763769D01*
X213994385Y-66763765D01*
X213947083Y-66649567D01*
X213905996Y-66588076D01*
X213885120Y-66521399D01*
X213885100Y-66519187D01*
X213885100Y-66451706D01*
X213885099Y-66451704D01*
X213850496Y-66277741D01*
X213850493Y-66277732D01*
X213782616Y-66113859D01*
X213782609Y-66113846D01*
X213684064Y-65966365D01*
X213684061Y-65966361D01*
X213558638Y-65840938D01*
X213558634Y-65840935D01*
X213454506Y-65771358D01*
X213409701Y-65717745D01*
X213400994Y-65648420D01*
X213431149Y-65585393D01*
X213454508Y-65565153D01*
X213456018Y-65564142D01*
X213457035Y-65563464D01*
X213582464Y-65438035D01*
X213681013Y-65290547D01*
X213748894Y-65126666D01*
X213759838Y-65071650D01*
X213783499Y-64952695D01*
X213783500Y-64952693D01*
X213783500Y-64775306D01*
X213783499Y-64775304D01*
X213748896Y-64601341D01*
X213748893Y-64601332D01*
X213681016Y-64437459D01*
X213681009Y-64437446D01*
X213582464Y-64289965D01*
X213582461Y-64289961D01*
X213457038Y-64164538D01*
X213457034Y-64164535D01*
X213309553Y-64065990D01*
X213309540Y-64065983D01*
X213145667Y-63998106D01*
X213145658Y-63998103D01*
X212971694Y-63963500D01*
X212971691Y-63963500D01*
X212794309Y-63963500D01*
X212794306Y-63963500D01*
X212620341Y-63998103D01*
X212620332Y-63998106D01*
X212456459Y-64065983D01*
X212456446Y-64065990D01*
X212308965Y-64164535D01*
X212308961Y-64164538D01*
X212183538Y-64289961D01*
X212183535Y-64289965D01*
X212084990Y-64437446D01*
X212084983Y-64437459D01*
X212017106Y-64601332D01*
X212017103Y-64601341D01*
X211982500Y-64775304D01*
X211982500Y-64952695D01*
X212017103Y-65126658D01*
X212017106Y-65126667D01*
X212084983Y-65290540D01*
X212084990Y-65290553D01*
X212183535Y-65438034D01*
X212183538Y-65438038D01*
X212308964Y-65563464D01*
X212413094Y-65633041D01*
X212457899Y-65686653D01*
X212466606Y-65755978D01*
X212436452Y-65819005D01*
X212413102Y-65839240D01*
X212410566Y-65840934D01*
X212410561Y-65840938D01*
X212285138Y-65966361D01*
X212285135Y-65966365D01*
X212186590Y-66113846D01*
X212186583Y-66113859D01*
X212118706Y-66277732D01*
X212118703Y-66277741D01*
X212084100Y-66451704D01*
X212084100Y-66629095D01*
X212118703Y-66803058D01*
X212118706Y-66803067D01*
X212186583Y-66966940D01*
X212186590Y-66966953D01*
X212285135Y-67114434D01*
X212285138Y-67114438D01*
X212410561Y-67239861D01*
X212410565Y-67239864D01*
X212558046Y-67338409D01*
X212558050Y-67338411D01*
X212558053Y-67338413D01*
X212693100Y-67394350D01*
X212696433Y-67397036D01*
X212700652Y-67397778D01*
X212723401Y-67418768D01*
X212747500Y-67438189D01*
X212749745Y-67443077D01*
X212752002Y-67445159D01*
X212758807Y-67462800D01*
X212765655Y-67477706D01*
X212766559Y-67481185D01*
X212787614Y-67587035D01*
X212804755Y-67628416D01*
X212804988Y-67628980D01*
X212807151Y-67637296D01*
X212806317Y-67663978D01*
X212809171Y-67690518D01*
X212805243Y-67698363D01*
X212804970Y-67707131D01*
X212789844Y-67729125D01*
X212777895Y-67752997D01*
X212770349Y-67757473D01*
X212765379Y-67764702D01*
X212740764Y-67775027D01*
X212717806Y-67788649D01*
X212704225Y-67790354D01*
X212700949Y-67791729D01*
X212697753Y-67791167D01*
X212687141Y-67792500D01*
X208224678Y-67792500D01*
X208157639Y-67772815D01*
X208111884Y-67720011D01*
X208100729Y-67664927D01*
X208314597Y-60245344D01*
X208336205Y-60178903D01*
X208390306Y-60134688D01*
X208444023Y-60125041D01*
X217843903Y-60540733D01*
G37*
%TD.AperFunction*%
%TD*%
%TA.AperFunction,NonConductor*%
G36*
X217690429Y-100214500D02*
G01*
X217746363Y-100256371D01*
X217770780Y-100321836D01*
X217771095Y-100331280D01*
X217769087Y-100747726D01*
X217749079Y-100814670D01*
X217732770Y-100834809D01*
X217537400Y-101030181D01*
X217476077Y-101063666D01*
X217449718Y-101066500D01*
X217035281Y-101066500D01*
X216968242Y-101046815D01*
X216922487Y-100994011D01*
X216912543Y-100924853D01*
X216941568Y-100861297D01*
X216947600Y-100854819D01*
X217016427Y-100785992D01*
X217559420Y-100242998D01*
X217620738Y-100209516D01*
X217690429Y-100214500D01*
G37*
%TD.AperFunction*%
%TA.AperFunction,NonConductor*%
G36*
X220802750Y-116843684D02*
G01*
X220850342Y-116894838D01*
X220862723Y-116963602D01*
X220835961Y-117028144D01*
X220827120Y-117037983D01*
X220794894Y-117070208D01*
X220794890Y-117070213D01*
X220669949Y-117242182D01*
X220665484Y-117250946D01*
X220617509Y-117301742D01*
X220549688Y-117318536D01*
X220483553Y-117295998D01*
X220444516Y-117250946D01*
X220440050Y-117242182D01*
X220315109Y-117070213D01*
X220295476Y-117050580D01*
X220261991Y-116989257D01*
X220266975Y-116919565D01*
X220308847Y-116863632D01*
X220374311Y-116839215D01*
X220378716Y-116838979D01*
X220735060Y-116826381D01*
X220802750Y-116843684D01*
G37*
%TD.AperFunction*%
%TA.AperFunction,NonConductor*%
G36*
X220626444Y-118603999D02*
G01*
X220665486Y-118649056D01*
X220669951Y-118657820D01*
X220794890Y-118829786D01*
X220945213Y-118980109D01*
X221117182Y-119105050D01*
X221125946Y-119109516D01*
X221176742Y-119157491D01*
X221193536Y-119225312D01*
X221170998Y-119291447D01*
X221125946Y-119330484D01*
X221117182Y-119334949D01*
X220945213Y-119459890D01*
X220794890Y-119610213D01*
X220669949Y-119782182D01*
X220665484Y-119790946D01*
X220617509Y-119841742D01*
X220549688Y-119858536D01*
X220483553Y-119835998D01*
X220444516Y-119790946D01*
X220440050Y-119782182D01*
X220315109Y-119610213D01*
X220164786Y-119459890D01*
X219992820Y-119334951D01*
X219992115Y-119334591D01*
X219984054Y-119330485D01*
X219933259Y-119282512D01*
X219916463Y-119214692D01*
X219938999Y-119148556D01*
X219984054Y-119109515D01*
X219992816Y-119105051D01*
X220014789Y-119089086D01*
X220164786Y-118980109D01*
X220164788Y-118980106D01*
X220164792Y-118980104D01*
X220315104Y-118829792D01*
X220315106Y-118829788D01*
X220315109Y-118829786D01*
X220440048Y-118657820D01*
X220440047Y-118657820D01*
X220440051Y-118657816D01*
X220444514Y-118649054D01*
X220492488Y-118598259D01*
X220560308Y-118581463D01*
X220626444Y-118603999D01*
G37*
%TD.AperFunction*%
%TA.AperFunction,NonConductor*%
G36*
X225786444Y-121143999D02*
G01*
X225825486Y-121189056D01*
X225829951Y-121197820D01*
X225954890Y-121369786D01*
X226105213Y-121520109D01*
X226277182Y-121645050D01*
X226285946Y-121649516D01*
X226336742Y-121697491D01*
X226353536Y-121765312D01*
X226330998Y-121831447D01*
X226285946Y-121870484D01*
X226277182Y-121874949D01*
X226105213Y-121999890D01*
X225954890Y-122150213D01*
X225829949Y-122322182D01*
X225825484Y-122330946D01*
X225777509Y-122381742D01*
X225709688Y-122398536D01*
X225643553Y-122375998D01*
X225604516Y-122330946D01*
X225600050Y-122322182D01*
X225475109Y-122150213D01*
X225324786Y-121999890D01*
X225152820Y-121874951D01*
X225152115Y-121874591D01*
X225144054Y-121870485D01*
X225093259Y-121822512D01*
X225076463Y-121754692D01*
X225098999Y-121688556D01*
X225144054Y-121649515D01*
X225152816Y-121645051D01*
X225174789Y-121629086D01*
X225324786Y-121520109D01*
X225324788Y-121520106D01*
X225324792Y-121520104D01*
X225475104Y-121369792D01*
X225475106Y-121369788D01*
X225475109Y-121369786D01*
X225600048Y-121197820D01*
X225600047Y-121197820D01*
X225600051Y-121197816D01*
X225604514Y-121189054D01*
X225652488Y-121138259D01*
X225720308Y-121121463D01*
X225786444Y-121143999D01*
G37*
%TD.AperFunction*%
%TA.AperFunction,NonConductor*%
G36*
X220626444Y-121143999D02*
G01*
X220665486Y-121189056D01*
X220669951Y-121197820D01*
X220794890Y-121369786D01*
X220945213Y-121520109D01*
X221117182Y-121645050D01*
X221125946Y-121649516D01*
X221176742Y-121697491D01*
X221193536Y-121765312D01*
X221170998Y-121831447D01*
X221125946Y-121870484D01*
X221117182Y-121874949D01*
X220945213Y-121999890D01*
X220794890Y-122150213D01*
X220669949Y-122322182D01*
X220665484Y-122330946D01*
X220617509Y-122381742D01*
X220549688Y-122398536D01*
X220483553Y-122375998D01*
X220444516Y-122330946D01*
X220440050Y-122322182D01*
X220315109Y-122150213D01*
X220164786Y-121999890D01*
X219992820Y-121874951D01*
X219992115Y-121874591D01*
X219984054Y-121870485D01*
X219933259Y-121822512D01*
X219916463Y-121754692D01*
X219938999Y-121688556D01*
X219984054Y-121649515D01*
X219992816Y-121645051D01*
X220014789Y-121629086D01*
X220164786Y-121520109D01*
X220164788Y-121520106D01*
X220164792Y-121520104D01*
X220315104Y-121369792D01*
X220315106Y-121369788D01*
X220315109Y-121369786D01*
X220440048Y-121197820D01*
X220440047Y-121197820D01*
X220440051Y-121197816D01*
X220444514Y-121189054D01*
X220492488Y-121138259D01*
X220560308Y-121121463D01*
X220626444Y-121143999D01*
G37*
%TD.AperFunction*%
%TA.AperFunction,NonConductor*%
G36*
X223206445Y-121065496D02*
G01*
X223245485Y-121110550D01*
X223289951Y-121197820D01*
X223414890Y-121369786D01*
X223565213Y-121520109D01*
X223737182Y-121645050D01*
X223745946Y-121649516D01*
X223796742Y-121697491D01*
X223813536Y-121765312D01*
X223790998Y-121831447D01*
X223745946Y-121870484D01*
X223737182Y-121874949D01*
X223565213Y-121999890D01*
X223414890Y-122150213D01*
X223289951Y-122322180D01*
X223245485Y-122409449D01*
X223197510Y-122460245D01*
X223129689Y-122477040D01*
X223063554Y-122454502D01*
X223024515Y-122409449D01*
X223010397Y-122381742D01*
X222980051Y-122322184D01*
X222972023Y-122311134D01*
X222855109Y-122150213D01*
X222704786Y-121999890D01*
X222532820Y-121874951D01*
X222532115Y-121874591D01*
X222524054Y-121870485D01*
X222473259Y-121822512D01*
X222456463Y-121754692D01*
X222478999Y-121688556D01*
X222524054Y-121649515D01*
X222532816Y-121645051D01*
X222554789Y-121629086D01*
X222704786Y-121520109D01*
X222704788Y-121520106D01*
X222704792Y-121520104D01*
X222855104Y-121369792D01*
X222855106Y-121369788D01*
X222855109Y-121369786D01*
X222980048Y-121197820D01*
X222980047Y-121197820D01*
X222980051Y-121197816D01*
X223024515Y-121110549D01*
X223072489Y-121059754D01*
X223140310Y-121042959D01*
X223206445Y-121065496D01*
G37*
%TD.AperFunction*%
%TA.AperFunction,NonConductor*%
G36*
X225786444Y-123683999D02*
G01*
X225825486Y-123729056D01*
X225829951Y-123737820D01*
X225954890Y-123909786D01*
X226105213Y-124060109D01*
X226277182Y-124185050D01*
X226285946Y-124189516D01*
X226336742Y-124237491D01*
X226353536Y-124305312D01*
X226330998Y-124371447D01*
X226285946Y-124410484D01*
X226277182Y-124414949D01*
X226105213Y-124539890D01*
X225954890Y-124690213D01*
X225829949Y-124862182D01*
X225825484Y-124870946D01*
X225777509Y-124921742D01*
X225709688Y-124938536D01*
X225643553Y-124915998D01*
X225604516Y-124870946D01*
X225600050Y-124862182D01*
X225475109Y-124690213D01*
X225324786Y-124539890D01*
X225152820Y-124414951D01*
X225152115Y-124414591D01*
X225144054Y-124410485D01*
X225093259Y-124362512D01*
X225076463Y-124294692D01*
X225098999Y-124228556D01*
X225144054Y-124189515D01*
X225152816Y-124185051D01*
X225174789Y-124169086D01*
X225324786Y-124060109D01*
X225324788Y-124060106D01*
X225324792Y-124060104D01*
X225475104Y-123909792D01*
X225475106Y-123909788D01*
X225475109Y-123909786D01*
X225600048Y-123737820D01*
X225600047Y-123737820D01*
X225600051Y-123737816D01*
X225604514Y-123729054D01*
X225652488Y-123678259D01*
X225720308Y-123661463D01*
X225786444Y-123683999D01*
G37*
%TD.AperFunction*%
%TA.AperFunction,NonConductor*%
G36*
X220626444Y-123683999D02*
G01*
X220665486Y-123729056D01*
X220669951Y-123737820D01*
X220794890Y-123909786D01*
X220945213Y-124060109D01*
X221117182Y-124185050D01*
X221125946Y-124189516D01*
X221176742Y-124237491D01*
X221193536Y-124305312D01*
X221170998Y-124371447D01*
X221125946Y-124410484D01*
X221117182Y-124414949D01*
X220945213Y-124539890D01*
X220794890Y-124690213D01*
X220669949Y-124862182D01*
X220665484Y-124870946D01*
X220617509Y-124921742D01*
X220549688Y-124938536D01*
X220483553Y-124915998D01*
X220444516Y-124870946D01*
X220440050Y-124862182D01*
X220315109Y-124690213D01*
X220164786Y-124539890D01*
X219992820Y-124414951D01*
X219992115Y-124414591D01*
X219984054Y-124410485D01*
X219933259Y-124362512D01*
X219916463Y-124294692D01*
X219938999Y-124228556D01*
X219984054Y-124189515D01*
X219992816Y-124185051D01*
X220014789Y-124169086D01*
X220164786Y-124060109D01*
X220164788Y-124060106D01*
X220164792Y-124060104D01*
X220315104Y-123909792D01*
X220315106Y-123909788D01*
X220315109Y-123909786D01*
X220440048Y-123737820D01*
X220440047Y-123737820D01*
X220440051Y-123737816D01*
X220444514Y-123729054D01*
X220492488Y-123678259D01*
X220560308Y-123661463D01*
X220626444Y-123683999D01*
G37*
%TD.AperFunction*%
%TA.AperFunction,NonConductor*%
G36*
X223206445Y-123605496D02*
G01*
X223245485Y-123650550D01*
X223289951Y-123737820D01*
X223414890Y-123909786D01*
X223565213Y-124060109D01*
X223737182Y-124185050D01*
X223745946Y-124189516D01*
X223796742Y-124237491D01*
X223813536Y-124305312D01*
X223790998Y-124371447D01*
X223745946Y-124410484D01*
X223737182Y-124414949D01*
X223565213Y-124539890D01*
X223414890Y-124690213D01*
X223289951Y-124862180D01*
X223245485Y-124949449D01*
X223197510Y-125000245D01*
X223129689Y-125017040D01*
X223063554Y-124994502D01*
X223024515Y-124949449D01*
X223010397Y-124921742D01*
X222980051Y-124862184D01*
X222972023Y-124851134D01*
X222855109Y-124690213D01*
X222704786Y-124539890D01*
X222532820Y-124414951D01*
X222532115Y-124414591D01*
X222524054Y-124410485D01*
X222473259Y-124362512D01*
X222456463Y-124294692D01*
X222478999Y-124228556D01*
X222524054Y-124189515D01*
X222532816Y-124185051D01*
X222554789Y-124169086D01*
X222704786Y-124060109D01*
X222704788Y-124060106D01*
X222704792Y-124060104D01*
X222855104Y-123909792D01*
X222855106Y-123909788D01*
X222855109Y-123909786D01*
X222980048Y-123737820D01*
X222980047Y-123737820D01*
X222980051Y-123737816D01*
X223024515Y-123650549D01*
X223072489Y-123599754D01*
X223140310Y-123582959D01*
X223206445Y-123605496D01*
G37*
%TD.AperFunction*%
%TA.AperFunction,Conductor*%
%TO.N,/Curr_meas/3V3_to_fet*%
G36*
X173630239Y-103999685D02*
G01*
X173675994Y-104052489D01*
X173687200Y-104104000D01*
X173687200Y-108557600D01*
X208514686Y-109059275D01*
X208581435Y-109079923D01*
X208600581Y-109095581D01*
X209036261Y-109531261D01*
X209069746Y-109592584D01*
X209072576Y-109619954D01*
X209036703Y-114017012D01*
X209016472Y-114083888D01*
X208963297Y-114129211D01*
X208912707Y-114140000D01*
X196021665Y-114140000D01*
X195954626Y-114120315D01*
X195908871Y-114067511D01*
X195900048Y-114040191D01*
X195861852Y-113848172D01*
X195861851Y-113848165D01*
X195861849Y-113848160D01*
X195786435Y-113666092D01*
X195786428Y-113666079D01*
X195676939Y-113502218D01*
X195676936Y-113502214D01*
X195537585Y-113362863D01*
X195537581Y-113362860D01*
X195373720Y-113253371D01*
X195373707Y-113253364D01*
X195191639Y-113177950D01*
X195191629Y-113177947D01*
X194998343Y-113139500D01*
X194998341Y-113139500D01*
X193931540Y-113139500D01*
X193734459Y-113139500D01*
X193734456Y-113139500D01*
X193541171Y-113177946D01*
X193541167Y-113177948D01*
X193541165Y-113177948D01*
X193541164Y-113177949D01*
X193541162Y-113177950D01*
X193465743Y-113209189D01*
X193359089Y-113253366D01*
X193359079Y-113253371D01*
X193226458Y-113341987D01*
X193226457Y-113341988D01*
X193195215Y-113362862D01*
X193195214Y-113362863D01*
X192454398Y-114103681D01*
X192393075Y-114137166D01*
X192366717Y-114140000D01*
X180889099Y-114140000D01*
X180869039Y-114138367D01*
X165488940Y-111617039D01*
X165425968Y-111586768D01*
X165389358Y-111527258D01*
X165385000Y-111494672D01*
X165385000Y-104104000D01*
X165404685Y-104036961D01*
X165457489Y-103991206D01*
X165509000Y-103980000D01*
X173563200Y-103980000D01*
X173630239Y-103999685D01*
G37*
%TD.AperFunction*%
%TD*%
%TA.AperFunction,Conductor*%
%TO.N,/Curr_meas/5V_to_fet*%
G36*
X208758562Y-73265685D02*
G01*
X208804317Y-73318489D01*
X208815476Y-73373428D01*
X208798299Y-73994526D01*
X208811975Y-78534626D01*
X208792493Y-78601724D01*
X208739827Y-78647638D01*
X208670699Y-78657789D01*
X208640524Y-78649560D01*
X208602835Y-78633949D01*
X208602829Y-78633947D01*
X208409543Y-78595500D01*
X208409541Y-78595500D01*
X208212459Y-78595500D01*
X208212457Y-78595500D01*
X208019170Y-78633947D01*
X208019160Y-78633950D01*
X207837092Y-78709364D01*
X207837079Y-78709371D01*
X207673218Y-78818860D01*
X207673214Y-78818863D01*
X207533863Y-78958214D01*
X207533860Y-78958218D01*
X207424371Y-79122079D01*
X207424364Y-79122092D01*
X207348950Y-79304160D01*
X207348947Y-79304170D01*
X207310500Y-79497456D01*
X207310500Y-80744350D01*
X207290815Y-80811389D01*
X207238011Y-80857144D01*
X207186679Y-80868350D01*
X187991000Y-80896000D01*
X187991000Y-87346000D01*
X187971315Y-87413039D01*
X187918511Y-87458794D01*
X187867000Y-87470000D01*
X174141288Y-87470000D01*
X174074249Y-87450315D01*
X174028494Y-87397511D01*
X174018773Y-87344924D01*
X174017428Y-87344936D01*
X173990221Y-84227466D01*
X173948596Y-79457995D01*
X173967694Y-79390790D01*
X174020097Y-79344576D01*
X174042500Y-79336624D01*
X181118192Y-77567702D01*
X181148266Y-77564000D01*
X187228999Y-77564000D01*
X187229000Y-77564000D01*
X192783507Y-73271881D01*
X192848590Y-73246466D01*
X192859326Y-73246000D01*
X208691523Y-73246000D01*
X208758562Y-73265685D01*
G37*
%TD.AperFunction*%
%TD*%
%TA.AperFunction,Conductor*%
%TO.N,/Curr_meas/12V_to_fet*%
G36*
X207253389Y-81393438D02*
G01*
X207299220Y-81446176D01*
X207310500Y-81497850D01*
X207310500Y-89095846D01*
X207290815Y-89162885D01*
X207238011Y-89208640D01*
X207198819Y-89219233D01*
X201847147Y-89753534D01*
X201778483Y-89740606D01*
X201727709Y-89692609D01*
X201710944Y-89624781D01*
X201733512Y-89558656D01*
X201747134Y-89542480D01*
X205091094Y-86198520D01*
X205091099Y-86198517D01*
X205101302Y-86188313D01*
X205101304Y-86188313D01*
X205206313Y-86083304D01*
X205280565Y-85954696D01*
X205281164Y-85952460D01*
X205282184Y-85950785D01*
X205283674Y-85947190D01*
X205284234Y-85947422D01*
X205317526Y-85892801D01*
X205324410Y-85887420D01*
X205324331Y-85887324D01*
X205329029Y-85883467D01*
X205329035Y-85883464D01*
X205454464Y-85758035D01*
X205553013Y-85610547D01*
X205620894Y-85446666D01*
X205655500Y-85272691D01*
X205655500Y-85095309D01*
X205655500Y-85095306D01*
X205655499Y-85095304D01*
X205620896Y-84921341D01*
X205620893Y-84921332D01*
X205553016Y-84757459D01*
X205553009Y-84757446D01*
X205454464Y-84609965D01*
X205454461Y-84609961D01*
X205329038Y-84484538D01*
X205329034Y-84484535D01*
X205181553Y-84385990D01*
X205181540Y-84385983D01*
X205017667Y-84318106D01*
X205017658Y-84318103D01*
X204843694Y-84283500D01*
X204843691Y-84283500D01*
X204666309Y-84283500D01*
X204666306Y-84283500D01*
X204492341Y-84318103D01*
X204492332Y-84318106D01*
X204328459Y-84385983D01*
X204328446Y-84385990D01*
X204180965Y-84484535D01*
X204180961Y-84484538D01*
X204055538Y-84609961D01*
X204055535Y-84609965D01*
X203956990Y-84757446D01*
X203956983Y-84757459D01*
X203889106Y-84921332D01*
X203889103Y-84921341D01*
X203854500Y-85095304D01*
X203854500Y-85272695D01*
X203889103Y-85446658D01*
X203889106Y-85446667D01*
X203956983Y-85610539D01*
X203957815Y-85612095D01*
X203958004Y-85613004D01*
X203959318Y-85616176D01*
X203958716Y-85616424D01*
X203972063Y-85680496D01*
X203947069Y-85745742D01*
X203936143Y-85758239D01*
X199760723Y-89933658D01*
X199699400Y-89967143D01*
X199685361Y-89969364D01*
X178656482Y-92068852D01*
X178587818Y-92055924D01*
X178575272Y-92048567D01*
X178511552Y-92005990D01*
X178511549Y-92005988D01*
X178511547Y-92005987D01*
X178511544Y-92005985D01*
X178511539Y-92005983D01*
X178347667Y-91938106D01*
X178347659Y-91938104D01*
X178312584Y-91931127D01*
X178250673Y-91898741D01*
X178216099Y-91838025D01*
X178219840Y-91768256D01*
X178233671Y-91740623D01*
X178273413Y-91681147D01*
X178341294Y-91517266D01*
X178375900Y-91343291D01*
X178375900Y-91165909D01*
X178375900Y-91165906D01*
X178375899Y-91165904D01*
X178341296Y-90991941D01*
X178341293Y-90991932D01*
X178273416Y-90828059D01*
X178273409Y-90828046D01*
X178174864Y-90680565D01*
X178174861Y-90680561D01*
X178049438Y-90555138D01*
X178049434Y-90555135D01*
X177901953Y-90456590D01*
X177901940Y-90456583D01*
X177738067Y-90388706D01*
X177738058Y-90388703D01*
X177564094Y-90354100D01*
X177564091Y-90354100D01*
X177386709Y-90354100D01*
X177386706Y-90354100D01*
X177212741Y-90388703D01*
X177212732Y-90388706D01*
X177189950Y-90398143D01*
X177157331Y-90401648D01*
X177124853Y-90406319D01*
X177122763Y-90405364D01*
X177120480Y-90405610D01*
X177091144Y-90390924D01*
X177061297Y-90377294D01*
X177060055Y-90375361D01*
X177058002Y-90374334D01*
X177041262Y-90346119D01*
X177023523Y-90318516D01*
X177023087Y-90315484D01*
X177022351Y-90314244D01*
X177018500Y-90283581D01*
X177018500Y-90221256D01*
X177038185Y-90154217D01*
X177090989Y-90108462D01*
X177095048Y-90106695D01*
X177241540Y-90046016D01*
X177241540Y-90046015D01*
X177241547Y-90046013D01*
X177389035Y-89947464D01*
X177514464Y-89822035D01*
X177613013Y-89674547D01*
X177680894Y-89510666D01*
X177685210Y-89488972D01*
X177715499Y-89336695D01*
X177715500Y-89336693D01*
X177715500Y-89159306D01*
X177715499Y-89159304D01*
X177680896Y-88985341D01*
X177680893Y-88985332D01*
X177613016Y-88821459D01*
X177613009Y-88821446D01*
X177514464Y-88673965D01*
X177514461Y-88673961D01*
X177389038Y-88548538D01*
X177389034Y-88548535D01*
X177241553Y-88449990D01*
X177241540Y-88449983D01*
X177077667Y-88382106D01*
X177077658Y-88382103D01*
X176903694Y-88347500D01*
X176903691Y-88347500D01*
X176726309Y-88347500D01*
X176726306Y-88347500D01*
X176552341Y-88382103D01*
X176552332Y-88382106D01*
X176388459Y-88449983D01*
X176388446Y-88449990D01*
X176240965Y-88548535D01*
X176240961Y-88548538D01*
X176115538Y-88673961D01*
X176115535Y-88673965D01*
X176016990Y-88821446D01*
X176016983Y-88821459D01*
X175949106Y-88985332D01*
X175949103Y-88985341D01*
X175914500Y-89159304D01*
X175914500Y-89218047D01*
X175909623Y-89234916D01*
X175909768Y-89251977D01*
X175896228Y-89281259D01*
X175895377Y-89284204D01*
X175894495Y-89285601D01*
X175834917Y-89374767D01*
X175834917Y-89374768D01*
X175828545Y-89390148D01*
X175828542Y-89390155D01*
X175787614Y-89488964D01*
X175787612Y-89488972D01*
X175764832Y-89603490D01*
X175764833Y-89603491D01*
X175763500Y-89610191D01*
X175763500Y-92245446D01*
X175743815Y-92312485D01*
X175691011Y-92358240D01*
X175651819Y-92368833D01*
X171226999Y-92810600D01*
X168855600Y-94124621D01*
X168787420Y-94139895D01*
X168721806Y-94115885D01*
X168679589Y-94060212D01*
X168671500Y-94016159D01*
X168671500Y-93416656D01*
X168633052Y-93223370D01*
X168633051Y-93223369D01*
X168633051Y-93223365D01*
X168633049Y-93223360D01*
X168557635Y-93041292D01*
X168557628Y-93041279D01*
X168448139Y-92877418D01*
X168448136Y-92877414D01*
X168308785Y-92738063D01*
X168308781Y-92738060D01*
X168144920Y-92628571D01*
X168144907Y-92628564D01*
X167962839Y-92553150D01*
X167962829Y-92553147D01*
X167769543Y-92514700D01*
X167769541Y-92514700D01*
X167572459Y-92514700D01*
X167572457Y-92514700D01*
X167379170Y-92553147D01*
X167379160Y-92553150D01*
X167197092Y-92628564D01*
X167197079Y-92628571D01*
X167033218Y-92738060D01*
X167033214Y-92738063D01*
X166893863Y-92877414D01*
X166893860Y-92877418D01*
X166784371Y-93041279D01*
X166784364Y-93041292D01*
X166708950Y-93223360D01*
X166708947Y-93223370D01*
X166670500Y-93416656D01*
X166670500Y-95220000D01*
X166650815Y-95287039D01*
X166598011Y-95332794D01*
X166546500Y-95344000D01*
X161191000Y-95344000D01*
X161123961Y-95324315D01*
X161078206Y-95271511D01*
X161067000Y-95220000D01*
X161067000Y-87594000D01*
X161086685Y-87526961D01*
X161139489Y-87481206D01*
X161191000Y-87470000D01*
X165309204Y-87470000D01*
X165376243Y-87489685D01*
X165421998Y-87542489D01*
X165426858Y-87554841D01*
X165444383Y-87607497D01*
X165444386Y-87607503D01*
X165522171Y-87728537D01*
X165522179Y-87728548D01*
X165567923Y-87781340D01*
X165567926Y-87781343D01*
X165567930Y-87781347D01*
X165676664Y-87875567D01*
X165676667Y-87875568D01*
X165676668Y-87875569D01*
X165770925Y-87918616D01*
X165807541Y-87935338D01*
X165874580Y-87955023D01*
X165874584Y-87955024D01*
X166017000Y-87975500D01*
X166017003Y-87975500D01*
X173387915Y-87975500D01*
X173387917Y-87975499D01*
X173497515Y-87963475D01*
X173535570Y-87955023D01*
X173550005Y-87951817D01*
X173550005Y-87951816D01*
X173550009Y-87951816D01*
X173607036Y-87932419D01*
X173654402Y-87916310D01*
X173654403Y-87916309D01*
X173654407Y-87916308D01*
X173694019Y-87890358D01*
X173760883Y-87870088D01*
X173813480Y-87881288D01*
X173931829Y-87935338D01*
X173998868Y-87955023D01*
X173998872Y-87955024D01*
X174141288Y-87975500D01*
X174141291Y-87975500D01*
X187866990Y-87975500D01*
X187867000Y-87975500D01*
X187974456Y-87963947D01*
X188025967Y-87952741D01*
X188060197Y-87941347D01*
X188128497Y-87918616D01*
X188128501Y-87918613D01*
X188128504Y-87918613D01*
X188249543Y-87840825D01*
X188302347Y-87795070D01*
X188396567Y-87686336D01*
X188456338Y-87555459D01*
X188476023Y-87488420D01*
X188476024Y-87488416D01*
X188496500Y-87346000D01*
X188496500Y-81524592D01*
X188516185Y-81457553D01*
X188568989Y-81411798D01*
X188620317Y-81400592D01*
X207186322Y-81373850D01*
X207253389Y-81393438D01*
G37*
%TD.AperFunction*%
%TD*%
%TA.AperFunction,Conductor*%
%TO.N,GND*%
G36*
X173427448Y-48592553D02*
G01*
X173473244Y-48645321D01*
X173484490Y-48696921D01*
X173484490Y-48718459D01*
X173484489Y-48718471D01*
X173484490Y-48718476D01*
X173484488Y-48726076D01*
X173484487Y-48726084D01*
X173484487Y-48736945D01*
X173484487Y-48740591D01*
X173484444Y-48740737D01*
X173484450Y-48913597D01*
X173484451Y-48913602D01*
X173519076Y-49154357D01*
X173519078Y-49154365D01*
X173587607Y-49387724D01*
X173587617Y-49387756D01*
X173634978Y-49491454D01*
X173688670Y-49609013D01*
X173820183Y-49813639D01*
X173979477Y-49997467D01*
X174163311Y-50156755D01*
X174163318Y-50156759D01*
X174163320Y-50156761D01*
X174367934Y-50288255D01*
X174367942Y-50288260D01*
X174589205Y-50389306D01*
X174589211Y-50389307D01*
X174589216Y-50389310D01*
X174791328Y-50448654D01*
X174822596Y-50457835D01*
X175063364Y-50492453D01*
X175109098Y-50492453D01*
X175119095Y-50492453D01*
X175119098Y-50492454D01*
X175184986Y-50492454D01*
X175250878Y-50492455D01*
X175250882Y-50492454D01*
X193054944Y-50492454D01*
X193120882Y-50492454D01*
X193128657Y-50492454D01*
X193129526Y-50492395D01*
X193176568Y-50492400D01*
X193417344Y-50457801D01*
X193650744Y-50389286D01*
X193871992Y-50288260D01*
X193872010Y-50288252D01*
X193872011Y-50288250D01*
X193872016Y-50288249D01*
X194076656Y-50156748D01*
X194260496Y-49997460D01*
X194419794Y-49813629D01*
X194551306Y-49608996D01*
X194652354Y-49387729D01*
X194720882Y-49154333D01*
X194755493Y-48913559D01*
X194755490Y-48791935D01*
X194755490Y-48791931D01*
X194755490Y-48696943D01*
X194775175Y-48629904D01*
X194827979Y-48584149D01*
X194879586Y-48572943D01*
X229985525Y-48600440D01*
X229986412Y-48600500D01*
X229994108Y-48600500D01*
X230055572Y-48600500D01*
X230064418Y-48600816D01*
X230264561Y-48615130D01*
X230282063Y-48617647D01*
X230473797Y-48659355D01*
X230490755Y-48664334D01*
X230656303Y-48726081D01*
X230674609Y-48732909D01*
X230690701Y-48740259D01*
X230862904Y-48834288D01*
X230877784Y-48843849D01*
X230990768Y-48928429D01*
X231034867Y-48961441D01*
X231048237Y-48973027D01*
X231186972Y-49111762D01*
X231198558Y-49125132D01*
X231316146Y-49282210D01*
X231325711Y-49297095D01*
X231419740Y-49469298D01*
X231427090Y-49485390D01*
X231495662Y-49669236D01*
X231500646Y-49686212D01*
X231542351Y-49877931D01*
X231544869Y-49895442D01*
X231559184Y-50095580D01*
X231559500Y-50104427D01*
X231559500Y-67661000D01*
X231539815Y-67728039D01*
X231487011Y-67773794D01*
X231435500Y-67785000D01*
X228369346Y-67785000D01*
X228302307Y-67765315D01*
X228256552Y-67712511D01*
X228246608Y-67643353D01*
X228251413Y-67622689D01*
X228302246Y-67466243D01*
X228335500Y-67256287D01*
X228335500Y-67043713D01*
X228302246Y-66833757D01*
X228236557Y-66631588D01*
X228140051Y-66442184D01*
X228140049Y-66442181D01*
X228140048Y-66442179D01*
X228015109Y-66270213D01*
X227864786Y-66119890D01*
X227692820Y-65994951D01*
X227692115Y-65994591D01*
X227684054Y-65990485D01*
X227633259Y-65942512D01*
X227616463Y-65874692D01*
X227638999Y-65808556D01*
X227684054Y-65769515D01*
X227692816Y-65765051D01*
X227714789Y-65749086D01*
X227864786Y-65640109D01*
X227864788Y-65640106D01*
X227864792Y-65640104D01*
X228015104Y-65489792D01*
X228015106Y-65489788D01*
X228015109Y-65489786D01*
X228140048Y-65317820D01*
X228140047Y-65317820D01*
X228140051Y-65317816D01*
X228236557Y-65128412D01*
X228302246Y-64926243D01*
X228335500Y-64716287D01*
X228335500Y-64503713D01*
X228302246Y-64293757D01*
X228236557Y-64091588D01*
X228140051Y-63902184D01*
X228140049Y-63902181D01*
X228140048Y-63902179D01*
X228015109Y-63730213D01*
X227901569Y-63616673D01*
X227868084Y-63555350D01*
X227873068Y-63485658D01*
X227914940Y-63429725D01*
X227945915Y-63412810D01*
X228077331Y-63363796D01*
X228192546Y-63277546D01*
X228278796Y-63162331D01*
X228329091Y-63027483D01*
X228335500Y-62967873D01*
X228335499Y-61172128D01*
X228329091Y-61112517D01*
X228327810Y-61109083D01*
X228278797Y-60977671D01*
X228278793Y-60977664D01*
X228192547Y-60862455D01*
X228192544Y-60862452D01*
X228077335Y-60776206D01*
X228077328Y-60776202D01*
X227942482Y-60725908D01*
X227942483Y-60725908D01*
X227882883Y-60719501D01*
X227882881Y-60719500D01*
X227882873Y-60719500D01*
X227882864Y-60719500D01*
X226087129Y-60719500D01*
X226087123Y-60719501D01*
X226027516Y-60725908D01*
X225892671Y-60776202D01*
X225892664Y-60776206D01*
X225777455Y-60862452D01*
X225777452Y-60862455D01*
X225691206Y-60977664D01*
X225691203Y-60977669D01*
X225642189Y-61109083D01*
X225600317Y-61165016D01*
X225534853Y-61189433D01*
X225466580Y-61174581D01*
X225438326Y-61153430D01*
X225324786Y-61039890D01*
X225152820Y-60914951D01*
X224963414Y-60818444D01*
X224963413Y-60818443D01*
X224963412Y-60818443D01*
X224761243Y-60752754D01*
X224761241Y-60752753D01*
X224761240Y-60752753D01*
X224599957Y-60727208D01*
X224551287Y-60719500D01*
X224338713Y-60719500D01*
X224290042Y-60727208D01*
X224128760Y-60752753D01*
X223926585Y-60818444D01*
X223737179Y-60914951D01*
X223565213Y-61039890D01*
X223414890Y-61190213D01*
X223289951Y-61362179D01*
X223193444Y-61551585D01*
X223127753Y-61753760D01*
X223094500Y-61963713D01*
X223094500Y-62176287D01*
X223099489Y-62207786D01*
X223110026Y-62274317D01*
X223127754Y-62386243D01*
X223190565Y-62579555D01*
X223193444Y-62588414D01*
X223289951Y-62777820D01*
X223414890Y-62949786D01*
X223565213Y-63100109D01*
X223737182Y-63225050D01*
X223745946Y-63229516D01*
X223796742Y-63277491D01*
X223813536Y-63345312D01*
X223790998Y-63411447D01*
X223745946Y-63450484D01*
X223737182Y-63454949D01*
X223565213Y-63579890D01*
X223414890Y-63730213D01*
X223289951Y-63902180D01*
X223245485Y-63989449D01*
X223197510Y-64040245D01*
X223129689Y-64057040D01*
X223063554Y-64034502D01*
X223024515Y-63989449D01*
X223010397Y-63961742D01*
X222980051Y-63902184D01*
X222968049Y-63885664D01*
X222855109Y-63730213D01*
X222704786Y-63579890D01*
X222532820Y-63454951D01*
X222343414Y-63358444D01*
X222343413Y-63358443D01*
X222343412Y-63358443D01*
X222141243Y-63292754D01*
X222141241Y-63292753D01*
X222141240Y-63292753D01*
X221979957Y-63267208D01*
X221931287Y-63259500D01*
X221718713Y-63259500D01*
X221670042Y-63267208D01*
X221508760Y-63292753D01*
X221306585Y-63358444D01*
X221117179Y-63454951D01*
X220945213Y-63579890D01*
X220794890Y-63730213D01*
X220669949Y-63902182D01*
X220665484Y-63910946D01*
X220617509Y-63961742D01*
X220549688Y-63978536D01*
X220483553Y-63955998D01*
X220444516Y-63910946D01*
X220440050Y-63902182D01*
X220315109Y-63730213D01*
X220164786Y-63579890D01*
X219992820Y-63454951D01*
X219803414Y-63358444D01*
X219803413Y-63358443D01*
X219803412Y-63358443D01*
X219601243Y-63292754D01*
X219601241Y-63292753D01*
X219601240Y-63292753D01*
X219439957Y-63267208D01*
X219391287Y-63259500D01*
X219178713Y-63259500D01*
X219130042Y-63267208D01*
X218968760Y-63292753D01*
X218968757Y-63292754D01*
X218823350Y-63340000D01*
X218766582Y-63358445D01*
X218635444Y-63425263D01*
X218566775Y-63438159D01*
X218502035Y-63411882D01*
X218461778Y-63354776D01*
X218455151Y-63314184D01*
X218459971Y-62315221D01*
X218458511Y-62274317D01*
X218458511Y-62274308D01*
X218456987Y-62254341D01*
X218456985Y-62254321D01*
X218452227Y-62213709D01*
X218441527Y-62146150D01*
X218440000Y-62126752D01*
X218440000Y-62013245D01*
X218441527Y-61993847D01*
X218453382Y-61918996D01*
X218454637Y-61911075D01*
X218459204Y-61872894D01*
X218460730Y-61854094D01*
X218462381Y-61815635D01*
X218467918Y-60667648D01*
X218458856Y-60569891D01*
X218449817Y-60522815D01*
X218422033Y-60428664D01*
X218349670Y-60304305D01*
X218325156Y-60273350D01*
X218307308Y-60250812D01*
X218306491Y-60249753D01*
X218306283Y-60249519D01*
X218201827Y-60150599D01*
X218201824Y-60150596D01*
X218201821Y-60150594D01*
X218133246Y-60115536D01*
X218073706Y-60085098D01*
X218007607Y-60062474D01*
X218007604Y-60062473D01*
X217866239Y-60035727D01*
X217866245Y-60035727D01*
X208466360Y-59620035D01*
X208466358Y-59620035D01*
X208466356Y-59620035D01*
X208425742Y-59622749D01*
X208354663Y-59627501D01*
X208354657Y-59627502D01*
X208300950Y-59637148D01*
X208193652Y-59669007D01*
X208070420Y-59743276D01*
X208016318Y-59787492D01*
X207919006Y-59893463D01*
X207855487Y-60022566D01*
X207833879Y-60089007D01*
X207833877Y-60089013D01*
X207809307Y-60230778D01*
X207699500Y-64040245D01*
X207676877Y-64825089D01*
X207595840Y-67636470D01*
X207595439Y-67650365D01*
X207596661Y-67664622D01*
X207602592Y-67733830D01*
X207603479Y-67744173D01*
X207600784Y-67757457D01*
X207602884Y-67770852D01*
X207593975Y-67791031D01*
X207589591Y-67812649D01*
X207579533Y-67823746D01*
X207574666Y-67834771D01*
X207555454Y-67850312D01*
X207548288Y-67858220D01*
X207541175Y-67862919D01*
X207538767Y-67863917D01*
X207459565Y-67916838D01*
X207459330Y-67916994D01*
X207459271Y-67917034D01*
X207435989Y-67932590D01*
X207435988Y-67932591D01*
X205734400Y-69634181D01*
X205673077Y-69667666D01*
X205646719Y-69670500D01*
X194752281Y-69670500D01*
X194685242Y-69650815D01*
X194664600Y-69634181D01*
X193226819Y-68196400D01*
X193193334Y-68135077D01*
X193190500Y-68108719D01*
X193190500Y-62257195D01*
X193184039Y-62224718D01*
X193172865Y-62168541D01*
X193166386Y-62135966D01*
X193120207Y-62024481D01*
X193119420Y-62022270D01*
X193050414Y-61918996D01*
X193050413Y-61918994D01*
X193042494Y-61911075D01*
X192963008Y-61831589D01*
X192915121Y-61783702D01*
X192881636Y-61722379D01*
X192884873Y-61657698D01*
X192889246Y-61644243D01*
X192922500Y-61434287D01*
X192922500Y-61221713D01*
X192889246Y-61011757D01*
X192823557Y-60809588D01*
X192727051Y-60620184D01*
X192727049Y-60620181D01*
X192727048Y-60620179D01*
X192602109Y-60448213D01*
X192488569Y-60334673D01*
X192455084Y-60273350D01*
X192460068Y-60203658D01*
X192501940Y-60147725D01*
X192532915Y-60130810D01*
X192664331Y-60081796D01*
X192779546Y-59995546D01*
X192865796Y-59880331D01*
X192916091Y-59745483D01*
X192922500Y-59685873D01*
X192922499Y-57890128D01*
X192916091Y-57830517D01*
X192865796Y-57695669D01*
X192865795Y-57695668D01*
X192865793Y-57695664D01*
X192779547Y-57580455D01*
X192779544Y-57580452D01*
X192664335Y-57494206D01*
X192664328Y-57494202D01*
X192529482Y-57443908D01*
X192529483Y-57443908D01*
X192469883Y-57437501D01*
X192469881Y-57437500D01*
X192469873Y-57437500D01*
X192469864Y-57437500D01*
X190674129Y-57437500D01*
X190674123Y-57437501D01*
X190614516Y-57443908D01*
X190479671Y-57494202D01*
X190479664Y-57494206D01*
X190364455Y-57580452D01*
X190364452Y-57580455D01*
X190278206Y-57695664D01*
X190278202Y-57695671D01*
X190227908Y-57830517D01*
X190221501Y-57890116D01*
X190221501Y-57890123D01*
X190221500Y-57890135D01*
X190221500Y-59685870D01*
X190221501Y-59685876D01*
X190227908Y-59745483D01*
X190278202Y-59880328D01*
X190278206Y-59880335D01*
X190364452Y-59995544D01*
X190364455Y-59995547D01*
X190479664Y-60081793D01*
X190479671Y-60081797D01*
X190611082Y-60130810D01*
X190667016Y-60172681D01*
X190691433Y-60238145D01*
X190676582Y-60306418D01*
X190655431Y-60334673D01*
X190541889Y-60448215D01*
X190416951Y-60620179D01*
X190320444Y-60809585D01*
X190320443Y-60809587D01*
X190320443Y-60809588D01*
X190303266Y-60862452D01*
X190254753Y-61011760D01*
X190229353Y-61172129D01*
X190221500Y-61221713D01*
X190221500Y-61434287D01*
X190254754Y-61644243D01*
X190300067Y-61783702D01*
X190320444Y-61846414D01*
X190416951Y-62035820D01*
X190541890Y-62207786D01*
X190692213Y-62358109D01*
X190864179Y-62483048D01*
X190864181Y-62483049D01*
X190864184Y-62483051D01*
X191053588Y-62579557D01*
X191255757Y-62645246D01*
X191465713Y-62678500D01*
X191465714Y-62678500D01*
X191678286Y-62678500D01*
X191678287Y-62678500D01*
X191792103Y-62660473D01*
X191861395Y-62669427D01*
X191914847Y-62714424D01*
X191935487Y-62781175D01*
X191935500Y-62782946D01*
X191935500Y-68481807D01*
X191959612Y-68603028D01*
X191959615Y-68603038D01*
X191973752Y-68637169D01*
X191973758Y-68637181D01*
X191975744Y-68641975D01*
X192006917Y-68717233D01*
X192038929Y-68765142D01*
X192042812Y-68770953D01*
X192075587Y-68820006D01*
X192075591Y-68820011D01*
X193953589Y-70698008D01*
X194040992Y-70785411D01*
X194040993Y-70785412D01*
X194143760Y-70854079D01*
X194143773Y-70854086D01*
X194248564Y-70897491D01*
X194257965Y-70901385D01*
X194257969Y-70901385D01*
X194257970Y-70901386D01*
X194379194Y-70925500D01*
X194379197Y-70925500D01*
X206019804Y-70925500D01*
X206019805Y-70925499D01*
X206141035Y-70901386D01*
X206221784Y-70867937D01*
X206255233Y-70854083D01*
X206358008Y-70785411D01*
X206445411Y-70698008D01*
X208059600Y-69083819D01*
X208086527Y-69069115D01*
X208112346Y-69052523D01*
X208118546Y-69051631D01*
X208120923Y-69050334D01*
X208147281Y-69047500D01*
X208189444Y-69047500D01*
X208256483Y-69067185D01*
X208302238Y-69119989D01*
X208311587Y-69171035D01*
X208313422Y-69171024D01*
X208313449Y-69175446D01*
X208313449Y-69175452D01*
X208335048Y-72615724D01*
X208315785Y-72682883D01*
X208263270Y-72728969D01*
X208211051Y-72740500D01*
X192859326Y-72740500D01*
X192850557Y-72740690D01*
X192837393Y-72740976D01*
X192826662Y-72741442D01*
X192804823Y-72742863D01*
X192664714Y-72775595D01*
X192664710Y-72775596D01*
X192599634Y-72801008D01*
X192599625Y-72801012D01*
X192492833Y-72861463D01*
X192474420Y-72871886D01*
X192474416Y-72871888D01*
X192474407Y-72871895D01*
X187089942Y-77032619D01*
X187024859Y-77058034D01*
X187014123Y-77058500D01*
X181148250Y-77058500D01*
X181086516Y-77062286D01*
X181086504Y-77062287D01*
X181056430Y-77065989D01*
X180995596Y-77077293D01*
X174095901Y-78802215D01*
X174072451Y-78801261D01*
X174049249Y-78804804D01*
X174038188Y-78799868D01*
X174026089Y-78799377D01*
X174006876Y-78785896D01*
X173985443Y-78776333D01*
X173978807Y-78766202D01*
X173968894Y-78759247D01*
X173960019Y-78737520D01*
X173947159Y-78717887D01*
X173944269Y-78698960D01*
X173942474Y-78694565D01*
X173941833Y-78683017D01*
X173941443Y-78638325D01*
X173960543Y-78571117D01*
X173990677Y-78538318D01*
X174030060Y-78508556D01*
X185452532Y-69876502D01*
X185518520Y-69816821D01*
X185548074Y-69784932D01*
X185602567Y-69714618D01*
X185662338Y-69583741D01*
X185682023Y-69516702D01*
X185682024Y-69516698D01*
X185702500Y-69374282D01*
X185702500Y-64477843D01*
X185691872Y-64374732D01*
X185681553Y-64325207D01*
X185650111Y-64226420D01*
X185574458Y-64104035D01*
X185529636Y-64050437D01*
X185529631Y-64050432D01*
X185529629Y-64050430D01*
X185422581Y-63954333D01*
X185422579Y-63954331D01*
X185422577Y-63954330D01*
X185331831Y-63910946D01*
X185292771Y-63892272D01*
X185226104Y-63871418D01*
X185226087Y-63871413D01*
X185226083Y-63871412D01*
X185226079Y-63871411D01*
X185226073Y-63871410D01*
X185084055Y-63848441D01*
X185084046Y-63848440D01*
X170728893Y-63596595D01*
X170724491Y-63596537D01*
X170722394Y-63596519D01*
X170718964Y-63596504D01*
X170717908Y-63596500D01*
X166017000Y-63596500D01*
X166016991Y-63596500D01*
X166016990Y-63596501D01*
X165909549Y-63608052D01*
X165909537Y-63608054D01*
X165858027Y-63619260D01*
X165755502Y-63653383D01*
X165755496Y-63653386D01*
X165634462Y-63731171D01*
X165634451Y-63731179D01*
X165581659Y-63776923D01*
X165487433Y-63885664D01*
X165487430Y-63885668D01*
X165427664Y-64016534D01*
X165407976Y-64083582D01*
X165387500Y-64226001D01*
X165387500Y-86840500D01*
X165367815Y-86907539D01*
X165315011Y-86953294D01*
X165263500Y-86964500D01*
X161191000Y-86964500D01*
X161190991Y-86964500D01*
X161190990Y-86964501D01*
X161083549Y-86976052D01*
X161083537Y-86976054D01*
X161032027Y-86987260D01*
X160929502Y-87021383D01*
X160929496Y-87021386D01*
X160808462Y-87099171D01*
X160808451Y-87099179D01*
X160755659Y-87144923D01*
X160661433Y-87253664D01*
X160661430Y-87253668D01*
X160601664Y-87384534D01*
X160601662Y-87384541D01*
X160581977Y-87451580D01*
X160581976Y-87451584D01*
X160561500Y-87594000D01*
X160561500Y-95220000D01*
X160561501Y-95220009D01*
X160573052Y-95327450D01*
X160573054Y-95327462D01*
X160584260Y-95378972D01*
X160618383Y-95481497D01*
X160618386Y-95481503D01*
X160696171Y-95602537D01*
X160696179Y-95602548D01*
X160741923Y-95655340D01*
X160741926Y-95655343D01*
X160741930Y-95655347D01*
X160850664Y-95749567D01*
X160850667Y-95749568D01*
X160850668Y-95749569D01*
X160956320Y-95797820D01*
X160981541Y-95809338D01*
X161048580Y-95829023D01*
X161048584Y-95829024D01*
X161191000Y-95849500D01*
X161191003Y-95849500D01*
X166546489Y-95849500D01*
X166546500Y-95849500D01*
X166555260Y-95848558D01*
X166624015Y-95860958D01*
X166675155Y-95908565D01*
X166690135Y-95947655D01*
X166700828Y-96001412D01*
X166708946Y-96042228D01*
X166708949Y-96042237D01*
X166784364Y-96224307D01*
X166784371Y-96224320D01*
X166893859Y-96388180D01*
X166893860Y-96388181D01*
X166893861Y-96388182D01*
X167033218Y-96527539D01*
X167033219Y-96527539D01*
X167040286Y-96534606D01*
X167040285Y-96534606D01*
X167040289Y-96534609D01*
X170542737Y-100037059D01*
X170542759Y-100037079D01*
X173786760Y-103281080D01*
X173820245Y-103342403D01*
X173815261Y-103412095D01*
X173773389Y-103468028D01*
X173707925Y-103492445D01*
X173681432Y-103491499D01*
X173563200Y-103474500D01*
X165509000Y-103474500D01*
X165508991Y-103474500D01*
X165508990Y-103474501D01*
X165401549Y-103486052D01*
X165401537Y-103486054D01*
X165350027Y-103497260D01*
X165247502Y-103531383D01*
X165247496Y-103531386D01*
X165126462Y-103609171D01*
X165126451Y-103609179D01*
X165073659Y-103654923D01*
X164979433Y-103763664D01*
X164979430Y-103763668D01*
X164919664Y-103894534D01*
X164899976Y-103961582D01*
X164894017Y-104003030D01*
X164879502Y-104103990D01*
X164879500Y-104104001D01*
X164879500Y-111494656D01*
X164879501Y-111494690D01*
X164883961Y-111561682D01*
X164888317Y-111594260D01*
X164888321Y-111594281D01*
X164901623Y-111660092D01*
X164901624Y-111660097D01*
X164925379Y-111714947D01*
X164958807Y-111792129D01*
X164982248Y-111830233D01*
X164995420Y-111851644D01*
X165087470Y-111962200D01*
X165087476Y-111962204D01*
X165087477Y-111962206D01*
X165206961Y-112042362D01*
X165269072Y-112072219D01*
X165269843Y-112072597D01*
X165269937Y-112072635D01*
X165326106Y-112090335D01*
X165407163Y-112115880D01*
X180787262Y-114637208D01*
X180828024Y-114642200D01*
X180848084Y-114643833D01*
X180889099Y-114645500D01*
X180889108Y-114645500D01*
X192366719Y-114645500D01*
X192376865Y-114644955D01*
X192420757Y-114642603D01*
X192420765Y-114642602D01*
X192420767Y-114642602D01*
X192420768Y-114642602D01*
X192427761Y-114641849D01*
X192447115Y-114639769D01*
X192447125Y-114639767D01*
X192447128Y-114639767D01*
X192462907Y-114637210D01*
X192500527Y-114631114D01*
X192635336Y-114580832D01*
X192696659Y-114547347D01*
X192811841Y-114461123D01*
X193508820Y-113764140D01*
X193527600Y-113748729D01*
X193527611Y-113748722D01*
X193588375Y-113708120D01*
X193609810Y-113696662D01*
X193677335Y-113668693D01*
X193700594Y-113661637D01*
X193772264Y-113647381D01*
X193796454Y-113645000D01*
X194936344Y-113645000D01*
X194960526Y-113647381D01*
X195032216Y-113661641D01*
X195055467Y-113668694D01*
X195122985Y-113696661D01*
X195144421Y-113708119D01*
X195205188Y-113748722D01*
X195223979Y-113764143D01*
X195275652Y-113815816D01*
X195291073Y-113834606D01*
X195331677Y-113895374D01*
X195343136Y-113916812D01*
X195371102Y-113984328D01*
X195378158Y-114007589D01*
X195404261Y-114138813D01*
X195404570Y-114140000D01*
X195419011Y-114195542D01*
X195427834Y-114222862D01*
X195427839Y-114222875D01*
X195427841Y-114222881D01*
X195449052Y-114277505D01*
X195526835Y-114398537D01*
X195526844Y-114398548D01*
X195572588Y-114451340D01*
X195572591Y-114451343D01*
X195572595Y-114451347D01*
X195681329Y-114545567D01*
X195681332Y-114545568D01*
X195681333Y-114545569D01*
X195789630Y-114595028D01*
X195812206Y-114605338D01*
X195879245Y-114625023D01*
X195879249Y-114625024D01*
X196021665Y-114645500D01*
X208411228Y-114645500D01*
X208478267Y-114665185D01*
X208524022Y-114717989D01*
X208535227Y-114769146D01*
X208564229Y-124932370D01*
X208567107Y-125941019D01*
X208567499Y-126078210D01*
X208567500Y-126078564D01*
X208567500Y-130945500D01*
X208547815Y-131012539D01*
X208495011Y-131058294D01*
X208443500Y-131069500D01*
X154866650Y-131069500D01*
X154799611Y-131049815D01*
X154778969Y-131033181D01*
X150777819Y-127032030D01*
X150744334Y-126970707D01*
X150741500Y-126944349D01*
X150741500Y-117950713D01*
X198299500Y-117950713D01*
X198299500Y-118163286D01*
X198329758Y-118354332D01*
X198332754Y-118373243D01*
X198380613Y-118520538D01*
X198398444Y-118575414D01*
X198494951Y-118764820D01*
X198619890Y-118936786D01*
X198733430Y-119050326D01*
X198766915Y-119111649D01*
X198761931Y-119181341D01*
X198720059Y-119237274D01*
X198689083Y-119254189D01*
X198557669Y-119303203D01*
X198557664Y-119303206D01*
X198442455Y-119389452D01*
X198442452Y-119389455D01*
X198356206Y-119504664D01*
X198356202Y-119504671D01*
X198305908Y-119639517D01*
X198299501Y-119699116D01*
X198299500Y-119699135D01*
X198299500Y-121494870D01*
X198299501Y-121494876D01*
X198305908Y-121554483D01*
X198356202Y-121689328D01*
X198356206Y-121689335D01*
X198442452Y-121804544D01*
X198442455Y-121804547D01*
X198557664Y-121890793D01*
X198557671Y-121890797D01*
X198692517Y-121941091D01*
X198692516Y-121941091D01*
X198699444Y-121941835D01*
X198752127Y-121947500D01*
X200547872Y-121947499D01*
X200607483Y-121941091D01*
X200742331Y-121890796D01*
X200857546Y-121804546D01*
X200943796Y-121689331D01*
X200994091Y-121554483D01*
X201000500Y-121494873D01*
X201000499Y-120194499D01*
X201020184Y-120127461D01*
X201072987Y-120081706D01*
X201124499Y-120070500D01*
X203160505Y-120070500D01*
X203207953Y-120079937D01*
X203222334Y-120085894D01*
X203222338Y-120085894D01*
X203222341Y-120085896D01*
X203396304Y-120120499D01*
X203396307Y-120120500D01*
X203396309Y-120120500D01*
X203573693Y-120120500D01*
X203573694Y-120120499D01*
X203631682Y-120108964D01*
X203747658Y-120085896D01*
X203747661Y-120085894D01*
X203747666Y-120085894D01*
X203911547Y-120018013D01*
X204059035Y-119919464D01*
X204184464Y-119794035D01*
X204283013Y-119646547D01*
X204350894Y-119482666D01*
X204385500Y-119308691D01*
X204385500Y-119131309D01*
X204385500Y-119131306D01*
X204385499Y-119131304D01*
X204350896Y-118957341D01*
X204350893Y-118957332D01*
X204283016Y-118793459D01*
X204283009Y-118793446D01*
X204184464Y-118645965D01*
X204184461Y-118645961D01*
X204059038Y-118520538D01*
X204059034Y-118520535D01*
X203911553Y-118421990D01*
X203911540Y-118421983D01*
X203747667Y-118354106D01*
X203747658Y-118354103D01*
X203573694Y-118319500D01*
X203573691Y-118319500D01*
X203396309Y-118319500D01*
X203396306Y-118319500D01*
X203222341Y-118354103D01*
X203222337Y-118354105D01*
X203222335Y-118354105D01*
X203222334Y-118354106D01*
X203207953Y-118360062D01*
X203160505Y-118369500D01*
X201216650Y-118369500D01*
X201187210Y-118360855D01*
X201157223Y-118354332D01*
X201152207Y-118350577D01*
X201149611Y-118349815D01*
X201128974Y-118333186D01*
X201036817Y-118241028D01*
X201003334Y-118179706D01*
X201000500Y-118153349D01*
X201000500Y-117950713D01*
X200967246Y-117740760D01*
X200967246Y-117740757D01*
X200901557Y-117538588D01*
X200805051Y-117349184D01*
X200805049Y-117349181D01*
X200805048Y-117349179D01*
X200680109Y-117177213D01*
X200529786Y-117026890D01*
X200357820Y-116901951D01*
X200168414Y-116805444D01*
X200168413Y-116805443D01*
X200168412Y-116805443D01*
X199966243Y-116739754D01*
X199966241Y-116739753D01*
X199966240Y-116739753D01*
X199804957Y-116714208D01*
X199756287Y-116706500D01*
X199543713Y-116706500D01*
X199495042Y-116714208D01*
X199333760Y-116739753D01*
X199131585Y-116805444D01*
X198942179Y-116901951D01*
X198770213Y-117026890D01*
X198619890Y-117177213D01*
X198494951Y-117349179D01*
X198398444Y-117538585D01*
X198332753Y-117740760D01*
X198299500Y-117950713D01*
X150741500Y-117950713D01*
X150741500Y-99065232D01*
X150741499Y-99065228D01*
X150724992Y-98982243D01*
X150708816Y-98900918D01*
X150681083Y-98833965D01*
X150644704Y-98746137D01*
X150644702Y-98746135D01*
X150644702Y-98746133D01*
X150551627Y-98606838D01*
X150551624Y-98606834D01*
X149270819Y-97326029D01*
X149237334Y-97264706D01*
X149234500Y-97238348D01*
X149234500Y-97035713D01*
X149230096Y-97007909D01*
X149201246Y-96825757D01*
X149135557Y-96623588D01*
X149039051Y-96434184D01*
X149039049Y-96434181D01*
X149039048Y-96434179D01*
X148914109Y-96262213D01*
X148800569Y-96148673D01*
X148767084Y-96087350D01*
X148772068Y-96017658D01*
X148813940Y-95961725D01*
X148844915Y-95944810D01*
X148976331Y-95895796D01*
X149091546Y-95809546D01*
X149177796Y-95694331D01*
X149228091Y-95559483D01*
X149234500Y-95499873D01*
X149234499Y-95244358D01*
X149254183Y-95177322D01*
X149306987Y-95131567D01*
X149376146Y-95121623D01*
X149439701Y-95150648D01*
X149446180Y-95156680D01*
X149570961Y-95281461D01*
X149570965Y-95281464D01*
X149718446Y-95380009D01*
X149718459Y-95380016D01*
X149835616Y-95428543D01*
X149882334Y-95447894D01*
X149882336Y-95447894D01*
X149882341Y-95447896D01*
X150056304Y-95482499D01*
X150056307Y-95482500D01*
X150056309Y-95482500D01*
X150233693Y-95482500D01*
X150233694Y-95482499D01*
X150291682Y-95470964D01*
X150407658Y-95447896D01*
X150407661Y-95447894D01*
X150407666Y-95447894D01*
X150571547Y-95380013D01*
X150719035Y-95281464D01*
X150844464Y-95156035D01*
X150943013Y-95008547D01*
X151010894Y-94844666D01*
X151013373Y-94832206D01*
X151045499Y-94670695D01*
X151045500Y-94670693D01*
X151045500Y-94493306D01*
X151045499Y-94493304D01*
X151010896Y-94319341D01*
X151010893Y-94319332D01*
X150943016Y-94155459D01*
X150943009Y-94155446D01*
X150844464Y-94007965D01*
X150844461Y-94007961D01*
X150745319Y-93908819D01*
X150711834Y-93847496D01*
X150709000Y-93821138D01*
X150709000Y-75965749D01*
X150709000Y-75965748D01*
X150698095Y-75925051D01*
X150670565Y-75822304D01*
X150656244Y-75797500D01*
X150596313Y-75693696D01*
X150491304Y-75588687D01*
X150491303Y-75588686D01*
X150486973Y-75584356D01*
X150486962Y-75584346D01*
X148795819Y-73893203D01*
X148762334Y-73831880D01*
X148759500Y-73805522D01*
X148759500Y-73665306D01*
X148759499Y-73665304D01*
X148724896Y-73491341D01*
X148724893Y-73491332D01*
X148657016Y-73327459D01*
X148657009Y-73327446D01*
X148558464Y-73179965D01*
X148558461Y-73179961D01*
X148433038Y-73054538D01*
X148433034Y-73054535D01*
X148285553Y-72955990D01*
X148285540Y-72955983D01*
X148121667Y-72888106D01*
X148121658Y-72888103D01*
X147947694Y-72853500D01*
X147947691Y-72853500D01*
X147770309Y-72853500D01*
X147770306Y-72853500D01*
X147596341Y-72888103D01*
X147596332Y-72888106D01*
X147432459Y-72955983D01*
X147432446Y-72955990D01*
X147284965Y-73054535D01*
X147284961Y-73054538D01*
X147159538Y-73179961D01*
X147159535Y-73179965D01*
X147060990Y-73327446D01*
X147060983Y-73327459D01*
X146993106Y-73491332D01*
X146993103Y-73491341D01*
X146958500Y-73665304D01*
X146958500Y-73842695D01*
X146993103Y-74016658D01*
X146993106Y-74016667D01*
X147060983Y-74180540D01*
X147060990Y-74180553D01*
X147159535Y-74328034D01*
X147159538Y-74328038D01*
X147284961Y-74453461D01*
X147284965Y-74453464D01*
X147432446Y-74552009D01*
X147432459Y-74552016D01*
X147494564Y-74577740D01*
X147596334Y-74619894D01*
X147596336Y-74619894D01*
X147596341Y-74619896D01*
X147770304Y-74654499D01*
X147770307Y-74654500D01*
X147910522Y-74654500D01*
X147977561Y-74674185D01*
X147998203Y-74690819D01*
X149544681Y-76237297D01*
X149578166Y-76298620D01*
X149581000Y-76324978D01*
X149581000Y-93821138D01*
X149572355Y-93850577D01*
X149565832Y-93880565D01*
X149562077Y-93885580D01*
X149561315Y-93888177D01*
X149544682Y-93908819D01*
X149544681Y-93908820D01*
X149446180Y-94007320D01*
X149384856Y-94040804D01*
X149315165Y-94035820D01*
X149259232Y-93993948D01*
X149234815Y-93928483D01*
X149234499Y-93919638D01*
X149234499Y-93704129D01*
X149234498Y-93704123D01*
X149234497Y-93704116D01*
X149228091Y-93644517D01*
X149204068Y-93580109D01*
X149177797Y-93509671D01*
X149177793Y-93509664D01*
X149091547Y-93394455D01*
X149091544Y-93394452D01*
X148976335Y-93308206D01*
X148976328Y-93308202D01*
X148841482Y-93257908D01*
X148841483Y-93257908D01*
X148781883Y-93251501D01*
X148781881Y-93251500D01*
X148781873Y-93251500D01*
X148781864Y-93251500D01*
X146986129Y-93251500D01*
X146986123Y-93251501D01*
X146926516Y-93257908D01*
X146791671Y-93308202D01*
X146791664Y-93308206D01*
X146676455Y-93394452D01*
X146676452Y-93394455D01*
X146590206Y-93509664D01*
X146590202Y-93509671D01*
X146539908Y-93644517D01*
X146533501Y-93704116D01*
X146533501Y-93704123D01*
X146533500Y-93704135D01*
X146533500Y-95499870D01*
X146533501Y-95499876D01*
X146539908Y-95559483D01*
X146590202Y-95694328D01*
X146590206Y-95694335D01*
X146676452Y-95809544D01*
X146676455Y-95809547D01*
X146791664Y-95895793D01*
X146791671Y-95895797D01*
X146923082Y-95944810D01*
X146979016Y-95986681D01*
X147003433Y-96052145D01*
X146988582Y-96120418D01*
X146967431Y-96148673D01*
X146853889Y-96262215D01*
X146728951Y-96434179D01*
X146632444Y-96623585D01*
X146632443Y-96623587D01*
X146632443Y-96623588D01*
X146617346Y-96670053D01*
X146566753Y-96825760D01*
X146533500Y-97035713D01*
X146533500Y-97248286D01*
X146560664Y-97419797D01*
X146566754Y-97458243D01*
X146627246Y-97644418D01*
X146632444Y-97660414D01*
X146728951Y-97849820D01*
X146853890Y-98021786D01*
X147004213Y-98172109D01*
X147176179Y-98297048D01*
X147176181Y-98297049D01*
X147176184Y-98297051D01*
X147365588Y-98393557D01*
X147567757Y-98459246D01*
X147777713Y-98492500D01*
X147777714Y-98492500D01*
X147980349Y-98492500D01*
X148047388Y-98512185D01*
X148068030Y-98528819D01*
X149004181Y-99464970D01*
X149037666Y-99526293D01*
X149040500Y-99552651D01*
X149040500Y-127431771D01*
X149073181Y-127596073D01*
X149073184Y-127596082D01*
X149137296Y-127750863D01*
X149137297Y-127750866D01*
X149230372Y-127890161D01*
X149230375Y-127890165D01*
X153802374Y-132462162D01*
X153920838Y-132580626D01*
X154060137Y-132673703D01*
X154214918Y-132737816D01*
X154379228Y-132770499D01*
X154379232Y-132770500D01*
X154379233Y-132770500D01*
X208443500Y-132770500D01*
X208510539Y-132790185D01*
X208556294Y-132842989D01*
X208567500Y-132894500D01*
X208567500Y-135098000D01*
X208567501Y-135098009D01*
X208579052Y-135205450D01*
X208579054Y-135205462D01*
X208590260Y-135256972D01*
X208624383Y-135359497D01*
X208624386Y-135359503D01*
X208702171Y-135480537D01*
X208702179Y-135480548D01*
X208747923Y-135533340D01*
X208747926Y-135533343D01*
X208747930Y-135533347D01*
X208856664Y-135627567D01*
X208987541Y-135687338D01*
X209054580Y-135707023D01*
X209054584Y-135707024D01*
X209197000Y-135727500D01*
X217432452Y-135727500D01*
X217441326Y-135727817D01*
X231316586Y-136723454D01*
X231349563Y-136735762D01*
X231382018Y-136747867D01*
X231382027Y-136747879D01*
X231382042Y-136747885D01*
X231402546Y-136775290D01*
X231423890Y-136803801D01*
X231423891Y-136803817D01*
X231423900Y-136803829D01*
X231426372Y-136838509D01*
X231428874Y-136873492D01*
X231428867Y-136873510D01*
X231428868Y-136873521D01*
X231416541Y-136906561D01*
X231325712Y-137072904D01*
X231316146Y-137087789D01*
X231198558Y-137244867D01*
X231186972Y-137258237D01*
X231048237Y-137396972D01*
X231034867Y-137408558D01*
X230877789Y-137526146D01*
X230862904Y-137535711D01*
X230690701Y-137629740D01*
X230674609Y-137637090D01*
X230490763Y-137705662D01*
X230473787Y-137710646D01*
X230282068Y-137752351D01*
X230264557Y-137754869D01*
X230083779Y-137767799D01*
X230064417Y-137769184D01*
X230055572Y-137769500D01*
X193879500Y-137769500D01*
X193812461Y-137749815D01*
X193766706Y-137697011D01*
X193755500Y-137645500D01*
X193755500Y-137428381D01*
X193755500Y-137428378D01*
X193720883Y-137187609D01*
X193652353Y-136954218D01*
X193551306Y-136732955D01*
X193545199Y-136723453D01*
X193419798Y-136528325D01*
X193260507Y-136344492D01*
X193076674Y-136185201D01*
X192872049Y-136053696D01*
X192872044Y-136053693D01*
X192751828Y-135998792D01*
X192650782Y-135952647D01*
X192560821Y-135926232D01*
X192417396Y-135884118D01*
X192417386Y-135884116D01*
X192298365Y-135867003D01*
X192176622Y-135849500D01*
X192120892Y-135849500D01*
X174250892Y-135849500D01*
X174185000Y-135849500D01*
X174063378Y-135849500D01*
X174002506Y-135858251D01*
X173822613Y-135884116D01*
X173822603Y-135884118D01*
X173589218Y-135952647D01*
X173367955Y-136053693D01*
X173367950Y-136053696D01*
X173163325Y-136185201D01*
X172979492Y-136344492D01*
X172820201Y-136528325D01*
X172688696Y-136732950D01*
X172688693Y-136732955D01*
X172587647Y-136954218D01*
X172519118Y-137187603D01*
X172519116Y-137187613D01*
X172509864Y-137251964D01*
X172489016Y-137396972D01*
X172484500Y-137428379D01*
X172484500Y-137645500D01*
X172464815Y-137712539D01*
X172412011Y-137758294D01*
X172360500Y-137769500D01*
X138179428Y-137769500D01*
X138170582Y-137769184D01*
X138148622Y-137767613D01*
X137970442Y-137754869D01*
X137952931Y-137752351D01*
X137761212Y-137710646D01*
X137744236Y-137705662D01*
X137560390Y-137637090D01*
X137544298Y-137629740D01*
X137372095Y-137535711D01*
X137357210Y-137526146D01*
X137200132Y-137408558D01*
X137186762Y-137396972D01*
X137048027Y-137258237D01*
X137036441Y-137244867D01*
X136993578Y-137187609D01*
X136918849Y-137087784D01*
X136909288Y-137072904D01*
X136815259Y-136900701D01*
X136807909Y-136884609D01*
X136795187Y-136850500D01*
X136739334Y-136700755D01*
X136734355Y-136683797D01*
X136692647Y-136492063D01*
X136690130Y-136474556D01*
X136675816Y-136274418D01*
X136675500Y-136265572D01*
X136675500Y-118709000D01*
X136695185Y-118641961D01*
X136747989Y-118596206D01*
X136799500Y-118585000D01*
X139985000Y-118585000D01*
X139985000Y-104869713D01*
X143638700Y-104869713D01*
X143638700Y-105082287D01*
X143671954Y-105292243D01*
X143717648Y-105432875D01*
X143737644Y-105494414D01*
X143834151Y-105683820D01*
X143959090Y-105855786D01*
X144072630Y-105969326D01*
X144106115Y-106030649D01*
X144101131Y-106100341D01*
X144059259Y-106156274D01*
X144028283Y-106173189D01*
X143896869Y-106222203D01*
X143896864Y-106222206D01*
X143781655Y-106308452D01*
X143781652Y-106308455D01*
X143695406Y-106423664D01*
X143695402Y-106423671D01*
X143645108Y-106558517D01*
X143638701Y-106618116D01*
X143638701Y-106618123D01*
X143638700Y-106618135D01*
X143638700Y-108413870D01*
X143638701Y-108413876D01*
X143645108Y-108473483D01*
X143695402Y-108608328D01*
X143695406Y-108608335D01*
X143781652Y-108723544D01*
X143781655Y-108723547D01*
X143896864Y-108809793D01*
X143896871Y-108809797D01*
X144031717Y-108860091D01*
X144031716Y-108860091D01*
X144038644Y-108860835D01*
X144091327Y-108866500D01*
X145887072Y-108866499D01*
X145946683Y-108860091D01*
X146081531Y-108809796D01*
X146196746Y-108723546D01*
X146282996Y-108608331D01*
X146333291Y-108473483D01*
X146339700Y-108413873D01*
X146339699Y-106618128D01*
X146333291Y-106558517D01*
X146320906Y-106525312D01*
X146282997Y-106423671D01*
X146282993Y-106423664D01*
X146196747Y-106308455D01*
X146196744Y-106308452D01*
X146081535Y-106222206D01*
X146081528Y-106222202D01*
X145950117Y-106173189D01*
X145894183Y-106131318D01*
X145869766Y-106065853D01*
X145884618Y-105997580D01*
X145905763Y-105969332D01*
X146019304Y-105855792D01*
X146052957Y-105809473D01*
X146144248Y-105683820D01*
X146144247Y-105683820D01*
X146144251Y-105683816D01*
X146240757Y-105494412D01*
X146306446Y-105292243D01*
X146339700Y-105082287D01*
X146339700Y-104869713D01*
X146306446Y-104659757D01*
X146240757Y-104457588D01*
X146144251Y-104268184D01*
X146144249Y-104268181D01*
X146144248Y-104268179D01*
X146019309Y-104096213D01*
X145868986Y-103945890D01*
X145697020Y-103820951D01*
X145507614Y-103724444D01*
X145507613Y-103724443D01*
X145507612Y-103724443D01*
X145305443Y-103658754D01*
X145305441Y-103658753D01*
X145305440Y-103658753D01*
X145144157Y-103633208D01*
X145095487Y-103625500D01*
X144882913Y-103625500D01*
X144834242Y-103633208D01*
X144672960Y-103658753D01*
X144470785Y-103724444D01*
X144281379Y-103820951D01*
X144109413Y-103945890D01*
X143959090Y-104096213D01*
X143834151Y-104268179D01*
X143737644Y-104457585D01*
X143671953Y-104659760D01*
X143660578Y-104731582D01*
X143638700Y-104869713D01*
X139985000Y-104869713D01*
X139985000Y-67785000D01*
X136799500Y-67785000D01*
X136732461Y-67765315D01*
X136686706Y-67712511D01*
X136675500Y-67661000D01*
X136675500Y-50104427D01*
X136675816Y-50095581D01*
X136690130Y-49895443D01*
X136690131Y-49895434D01*
X136692646Y-49877938D01*
X136734356Y-49686199D01*
X136739333Y-49669248D01*
X136807911Y-49485385D01*
X136815259Y-49469298D01*
X136859784Y-49387756D01*
X136909291Y-49297089D01*
X136918845Y-49282221D01*
X137036448Y-49125123D01*
X137048020Y-49111769D01*
X137186769Y-48973020D01*
X137200123Y-48961448D01*
X137357221Y-48843845D01*
X137372089Y-48834291D01*
X137544298Y-48740258D01*
X137560385Y-48732911D01*
X137744248Y-48664333D01*
X137761199Y-48659356D01*
X137952938Y-48617646D01*
X137970436Y-48615130D01*
X138170582Y-48600816D01*
X138179428Y-48600500D01*
X138248632Y-48600500D01*
X138249513Y-48600440D01*
X173360395Y-48572921D01*
X173427448Y-48592553D01*
G37*
%TD.AperFunction*%
%TA.AperFunction,Conductor*%
G36*
X227002345Y-127098650D02*
G01*
X227016455Y-127098395D01*
X227034759Y-127109695D01*
X227055124Y-127116635D01*
X227065077Y-127128413D01*
X227075907Y-127135099D01*
X227091801Y-127158873D01*
X227092359Y-127158556D01*
X227094547Y-127162399D01*
X227094549Y-127162403D01*
X227109970Y-127189484D01*
X227129120Y-127223114D01*
X227129122Y-127223117D01*
X227129123Y-127223118D01*
X227217389Y-127336742D01*
X227217391Y-127336743D01*
X227217392Y-127336745D01*
X227297482Y-127394497D01*
X227334092Y-127420896D01*
X227334101Y-127420901D01*
X227334108Y-127420905D01*
X227391585Y-127450971D01*
X227394966Y-127452916D01*
X227396004Y-127453282D01*
X227531689Y-127501148D01*
X227756275Y-127545819D01*
X227768060Y-127548771D01*
X228056827Y-127636367D01*
X228068285Y-127640467D01*
X228347066Y-127755942D01*
X228358066Y-127761145D01*
X228624156Y-127903373D01*
X228634594Y-127909629D01*
X228885494Y-128077276D01*
X228895267Y-128084524D01*
X229128518Y-128275947D01*
X229137535Y-128284120D01*
X229350877Y-128497462D01*
X229359049Y-128506478D01*
X229550473Y-128739730D01*
X229557722Y-128749504D01*
X229725366Y-129000400D01*
X229731622Y-129010838D01*
X229873855Y-129276938D01*
X229879058Y-129287938D01*
X229994531Y-129566714D01*
X229998630Y-129578171D01*
X230086220Y-129866913D01*
X230089178Y-129878719D01*
X230148041Y-130174654D01*
X230149826Y-130186690D01*
X230179403Y-130486981D01*
X230180000Y-130499135D01*
X230180000Y-130800862D01*
X230179403Y-130813017D01*
X230149825Y-131113316D01*
X230148040Y-131125346D01*
X230089178Y-131421275D01*
X230086224Y-131433070D01*
X229998627Y-131721836D01*
X229994527Y-131733293D01*
X229879058Y-132012060D01*
X229873855Y-132023060D01*
X229731622Y-132289160D01*
X229725366Y-132299598D01*
X229557722Y-132550494D01*
X229550474Y-132560268D01*
X229359055Y-132793514D01*
X229350882Y-132802530D01*
X229137530Y-133015882D01*
X229128514Y-133024055D01*
X228895268Y-133215474D01*
X228885494Y-133222722D01*
X228634598Y-133390366D01*
X228624160Y-133396622D01*
X228358060Y-133538855D01*
X228347060Y-133544058D01*
X228068290Y-133659528D01*
X228056832Y-133663628D01*
X227768080Y-133751220D01*
X227756276Y-133754176D01*
X227497951Y-133805560D01*
X227497950Y-133805560D01*
X227482305Y-133808672D01*
X227460344Y-133813041D01*
X227460340Y-133813040D01*
X227448309Y-133814826D01*
X227170686Y-133842170D01*
X227148019Y-133844403D01*
X227135866Y-133845000D01*
X226834136Y-133845000D01*
X226821982Y-133844403D01*
X226521690Y-133814826D01*
X226509654Y-133813041D01*
X226213719Y-133754178D01*
X226201913Y-133751220D01*
X225913171Y-133663630D01*
X225901714Y-133659531D01*
X225622935Y-133544057D01*
X225611935Y-133538854D01*
X225345838Y-133396622D01*
X225335400Y-133390366D01*
X225084504Y-133222722D01*
X225074730Y-133215473D01*
X224841489Y-133024058D01*
X224832473Y-133015886D01*
X224619115Y-132802529D01*
X224610943Y-132793513D01*
X224419527Y-132560271D01*
X224412278Y-132550497D01*
X224244629Y-132299595D01*
X224238373Y-132289157D01*
X224096147Y-132023070D01*
X224090944Y-132012070D01*
X223975467Y-131733285D01*
X223971367Y-131721827D01*
X223883772Y-131433062D01*
X223880816Y-131421258D01*
X223821958Y-131125352D01*
X223820172Y-131113314D01*
X223790597Y-130813017D01*
X223790000Y-130800864D01*
X223790000Y-130499133D01*
X223790597Y-130486980D01*
X223795287Y-130439349D01*
X223820173Y-130186675D01*
X223821958Y-130174645D01*
X223880816Y-129878739D01*
X223883772Y-129866935D01*
X223971367Y-129578170D01*
X223975464Y-129566720D01*
X224090944Y-129287927D01*
X224096143Y-129276938D01*
X224238382Y-129010826D01*
X224244627Y-129000406D01*
X224412281Y-128749495D01*
X224419527Y-128739726D01*
X224610957Y-128506467D01*
X224619110Y-128497472D01*
X224832472Y-128284110D01*
X224841467Y-128275957D01*
X225074730Y-128084523D01*
X225084500Y-128077278D01*
X225084503Y-128077276D01*
X225335416Y-127909620D01*
X225345824Y-127903382D01*
X225611935Y-127761142D01*
X225622918Y-127755947D01*
X225901718Y-127640465D01*
X225913164Y-127636371D01*
X226201926Y-127548775D01*
X226213702Y-127545824D01*
X226438312Y-127501148D01*
X226484693Y-127489619D01*
X226507136Y-127482899D01*
X226552247Y-127467030D01*
X226676507Y-127394497D01*
X226731222Y-127351045D01*
X226731222Y-127351044D01*
X226731223Y-127351041D01*
X226739089Y-127344796D01*
X226744394Y-127337096D01*
X226830014Y-127246441D01*
X226873195Y-127161690D01*
X226882883Y-127151431D01*
X226888512Y-127138493D01*
X226906395Y-127126536D01*
X226921168Y-127110895D01*
X226934865Y-127107502D01*
X226946596Y-127099660D01*
X226968106Y-127099270D01*
X226988989Y-127094099D01*
X227002345Y-127098650D01*
G37*
%TD.AperFunction*%
%TA.AperFunction,Conductor*%
G36*
X224546944Y-121860185D02*
G01*
X224592699Y-121912989D01*
X224600267Y-121934686D01*
X224602582Y-121944031D01*
X224602586Y-121944040D01*
X224602587Y-121944044D01*
X224656689Y-122077340D01*
X224656695Y-122077350D01*
X224746165Y-122190011D01*
X224746169Y-122190016D01*
X224771014Y-122213480D01*
X224796966Y-122237990D01*
X224797011Y-122238033D01*
X224813878Y-122249920D01*
X224815677Y-122251288D01*
X224821302Y-122258922D01*
X224855697Y-122283910D01*
X224855697Y-122283911D01*
X224987585Y-122379732D01*
X224987587Y-122379733D01*
X225002383Y-122392371D01*
X225082625Y-122472613D01*
X225095262Y-122487409D01*
X225220017Y-122659121D01*
X225220194Y-122658986D01*
X225222476Y-122661967D01*
X225222481Y-122661974D01*
X225222486Y-122661980D01*
X225222487Y-122661981D01*
X225260312Y-122705635D01*
X225261518Y-122707026D01*
X225352295Y-122789156D01*
X225480493Y-122854477D01*
X225546628Y-122877015D01*
X225546634Y-122877016D01*
X225546635Y-122877017D01*
X225611591Y-122889216D01*
X225688029Y-122903572D01*
X225831191Y-122889216D01*
X225892947Y-122873923D01*
X225894761Y-122873570D01*
X225899014Y-122872421D01*
X225899019Y-122872421D01*
X226032337Y-122818312D01*
X226145011Y-122728834D01*
X226192986Y-122678038D01*
X226193003Y-122678020D01*
X226203635Y-122662936D01*
X226205643Y-122660168D01*
X226237136Y-122618016D01*
X226238909Y-122619305D01*
X226335269Y-122486672D01*
X226335715Y-122486077D01*
X226336152Y-122485748D01*
X226347364Y-122472621D01*
X226427621Y-122392364D01*
X226442405Y-122379737D01*
X226574305Y-122283909D01*
X226574304Y-122283908D01*
X226614119Y-122254983D01*
X226613985Y-122254807D01*
X226616979Y-122252515D01*
X226639250Y-122233217D01*
X226662026Y-122213482D01*
X226744156Y-122122705D01*
X226809477Y-121994507D01*
X226832015Y-121928372D01*
X226832015Y-121928370D01*
X226833334Y-121924501D01*
X226847081Y-121905000D01*
X226856993Y-121883297D01*
X226866845Y-121876965D01*
X226873592Y-121867395D01*
X226895698Y-121858422D01*
X226915771Y-121845523D01*
X226933906Y-121842915D01*
X226938333Y-121841119D01*
X226950706Y-121840500D01*
X227019905Y-121840500D01*
X227086944Y-121860185D01*
X227132699Y-121912989D01*
X227140267Y-121934686D01*
X227142582Y-121944031D01*
X227142586Y-121944040D01*
X227142587Y-121944044D01*
X227196689Y-122077340D01*
X227196695Y-122077350D01*
X227286165Y-122190011D01*
X227286169Y-122190016D01*
X227311014Y-122213480D01*
X227336966Y-122237990D01*
X227337011Y-122238033D01*
X227353878Y-122249920D01*
X227355677Y-122251288D01*
X227361302Y-122258922D01*
X227395697Y-122283910D01*
X227395697Y-122283911D01*
X227527585Y-122379732D01*
X227527587Y-122379733D01*
X227542383Y-122392371D01*
X227622626Y-122472614D01*
X227635263Y-122487410D01*
X227701967Y-122579221D01*
X227712134Y-122595811D01*
X227763661Y-122696939D01*
X227771107Y-122714915D01*
X227806179Y-122822853D01*
X227810721Y-122841774D01*
X227828473Y-122953853D01*
X227830000Y-122973251D01*
X227830000Y-123086747D01*
X227828473Y-123106145D01*
X227810721Y-123218224D01*
X227806179Y-123237145D01*
X227771105Y-123345089D01*
X227763659Y-123363064D01*
X227712138Y-123464181D01*
X227701971Y-123480772D01*
X227635264Y-123572587D01*
X227622627Y-123587383D01*
X227542386Y-123667624D01*
X227527590Y-123680261D01*
X227417124Y-123760518D01*
X227416798Y-123760756D01*
X227395682Y-123776099D01*
X227395737Y-123776175D01*
X227354425Y-123806422D01*
X227354394Y-123806433D01*
X227353022Y-123807483D01*
X227307961Y-123846529D01*
X227225833Y-123937309D01*
X227225831Y-123937311D01*
X227160517Y-124065505D01*
X227137977Y-124131652D01*
X227111426Y-124273047D01*
X227125785Y-124416203D01*
X227125786Y-124416209D01*
X227142581Y-124484027D01*
X227142587Y-124484044D01*
X227196689Y-124617340D01*
X227196695Y-124617350D01*
X227286165Y-124730011D01*
X227286169Y-124730016D01*
X227311014Y-124753480D01*
X227336966Y-124777990D01*
X227337011Y-124778033D01*
X227353878Y-124789920D01*
X227355677Y-124791288D01*
X227361302Y-124798922D01*
X227395697Y-124823910D01*
X227395697Y-124823911D01*
X227527585Y-124919732D01*
X227527587Y-124919733D01*
X227542383Y-124932371D01*
X227622626Y-125012614D01*
X227635263Y-125027410D01*
X227701967Y-125119221D01*
X227712134Y-125135811D01*
X227763661Y-125236939D01*
X227771105Y-125254911D01*
X227771107Y-125254915D01*
X227806179Y-125362853D01*
X227810721Y-125381774D01*
X227828473Y-125493853D01*
X227830000Y-125513251D01*
X227830000Y-125626747D01*
X227828473Y-125646145D01*
X227810721Y-125758224D01*
X227806179Y-125777145D01*
X227771105Y-125885089D01*
X227763659Y-125903064D01*
X227712138Y-126004181D01*
X227701971Y-126020772D01*
X227635264Y-126112587D01*
X227622627Y-126127383D01*
X227542384Y-126207626D01*
X227527588Y-126220263D01*
X227435768Y-126286974D01*
X227419183Y-126297137D01*
X227391062Y-126311466D01*
X227368714Y-126322853D01*
X227368709Y-126322856D01*
X227327201Y-126346540D01*
X227307424Y-126359100D01*
X227307417Y-126359105D01*
X227307410Y-126359109D01*
X227268314Y-126386618D01*
X227268310Y-126386621D01*
X227168409Y-126490154D01*
X227168407Y-126490157D01*
X227142951Y-126525459D01*
X227127542Y-126546829D01*
X227127540Y-126546832D01*
X227127539Y-126546834D01*
X227096036Y-126607059D01*
X227047520Y-126657338D01*
X226979523Y-126673406D01*
X226913633Y-126650162D01*
X226871263Y-126596217D01*
X226859162Y-126566403D01*
X226859161Y-126566400D01*
X226859159Y-126566398D01*
X226859158Y-126566395D01*
X226769687Y-126453733D01*
X226769682Y-126453728D01*
X226718886Y-126405754D01*
X226601290Y-126322855D01*
X226577966Y-126310971D01*
X226550816Y-126297137D01*
X226534233Y-126286975D01*
X226442411Y-126220264D01*
X226442409Y-126220262D01*
X226427614Y-126207626D01*
X226347371Y-126127383D01*
X226334733Y-126112587D01*
X226309757Y-126078210D01*
X226238911Y-125980697D01*
X226238910Y-125980697D01*
X226209985Y-125940885D01*
X226209811Y-125941019D01*
X226207515Y-125938020D01*
X226168477Y-125892967D01*
X226168476Y-125892966D01*
X226077691Y-125810833D01*
X226077688Y-125810831D01*
X225949494Y-125745517D01*
X225883347Y-125722977D01*
X225741950Y-125696426D01*
X225598796Y-125710785D01*
X225598791Y-125710785D01*
X225598789Y-125710786D01*
X225565511Y-125719027D01*
X225530972Y-125727581D01*
X225530955Y-125727587D01*
X225397663Y-125781688D01*
X225397660Y-125781689D01*
X225397660Y-125781690D01*
X225299658Y-125859516D01*
X225284981Y-125871171D01*
X225236969Y-125922006D01*
X225236961Y-125922016D01*
X225228987Y-125933330D01*
X225218404Y-125946371D01*
X225214791Y-125950253D01*
X225212004Y-125951906D01*
X225095264Y-126112587D01*
X225082627Y-126127383D01*
X225002389Y-126207621D01*
X224987592Y-126220259D01*
X224895764Y-126286974D01*
X224879178Y-126297138D01*
X224879175Y-126297140D01*
X224778062Y-126348660D01*
X224760086Y-126356106D01*
X224652145Y-126391179D01*
X224633225Y-126395721D01*
X224577186Y-126404597D01*
X224521145Y-126413473D01*
X224501749Y-126415000D01*
X224388252Y-126415000D01*
X224368854Y-126413473D01*
X224256774Y-126395721D01*
X224237853Y-126391179D01*
X224129912Y-126356106D01*
X224111936Y-126348660D01*
X224010819Y-126297138D01*
X223994230Y-126286972D01*
X223902409Y-126220262D01*
X223887612Y-126207624D01*
X223807371Y-126127383D01*
X223794733Y-126112587D01*
X223728026Y-126020772D01*
X223728023Y-126020767D01*
X223717859Y-126004179D01*
X223707001Y-125982868D01*
X223695889Y-125961059D01*
X223669563Y-125921962D01*
X223627516Y-125859518D01*
X223588478Y-125814466D01*
X223588470Y-125814458D01*
X223497696Y-125732333D01*
X223396681Y-125680864D01*
X223345885Y-125632890D01*
X223329089Y-125565069D01*
X223351626Y-125498934D01*
X223406337Y-125455485D01*
X223452338Y-125436815D01*
X223565012Y-125347337D01*
X223612987Y-125296541D01*
X223612988Y-125296539D01*
X223695888Y-125178942D01*
X223720791Y-125130064D01*
X223724293Y-125124662D01*
X223725143Y-125123930D01*
X223728024Y-125119229D01*
X223794737Y-125027405D01*
X223807364Y-125012621D01*
X223887621Y-124932364D01*
X223902405Y-124919737D01*
X224034305Y-124823909D01*
X224034304Y-124823908D01*
X224074119Y-124794983D01*
X224073985Y-124794807D01*
X224076979Y-124792515D01*
X224099250Y-124773217D01*
X224122026Y-124753482D01*
X224204156Y-124662705D01*
X224269477Y-124534507D01*
X224292015Y-124468372D01*
X224318572Y-124326971D01*
X224313165Y-124273047D01*
X224571426Y-124273047D01*
X224585785Y-124416203D01*
X224585786Y-124416209D01*
X224602581Y-124484027D01*
X224602587Y-124484044D01*
X224656689Y-124617340D01*
X224656695Y-124617350D01*
X224746165Y-124730011D01*
X224746169Y-124730016D01*
X224771014Y-124753480D01*
X224796966Y-124777990D01*
X224797011Y-124778033D01*
X224813878Y-124789920D01*
X224815677Y-124791288D01*
X224821302Y-124798922D01*
X224855697Y-124823910D01*
X224855697Y-124823911D01*
X224987585Y-124919732D01*
X224987587Y-124919733D01*
X225002383Y-124932371D01*
X225082625Y-125012613D01*
X225095262Y-125027409D01*
X225220017Y-125199121D01*
X225220194Y-125198986D01*
X225222476Y-125201967D01*
X225222481Y-125201974D01*
X225222486Y-125201980D01*
X225222487Y-125201981D01*
X225260312Y-125245635D01*
X225261518Y-125247026D01*
X225352295Y-125329156D01*
X225480493Y-125394477D01*
X225546628Y-125417015D01*
X225546634Y-125417016D01*
X225546635Y-125417017D01*
X225611591Y-125429216D01*
X225688029Y-125443572D01*
X225831191Y-125429216D01*
X225892947Y-125413923D01*
X225894761Y-125413570D01*
X225899014Y-125412421D01*
X225899019Y-125412421D01*
X226032337Y-125358312D01*
X226145011Y-125268834D01*
X226192986Y-125218038D01*
X226193003Y-125218020D01*
X226203635Y-125202936D01*
X226205643Y-125200168D01*
X226237136Y-125158016D01*
X226238909Y-125159305D01*
X226335269Y-125026672D01*
X226335715Y-125026077D01*
X226336152Y-125025748D01*
X226347364Y-125012621D01*
X226427621Y-124932364D01*
X226442405Y-124919737D01*
X226574305Y-124823909D01*
X226574304Y-124823908D01*
X226614119Y-124794983D01*
X226613985Y-124794807D01*
X226616979Y-124792515D01*
X226639250Y-124773217D01*
X226662026Y-124753482D01*
X226744156Y-124662705D01*
X226809477Y-124534507D01*
X226832015Y-124468372D01*
X226858572Y-124326971D01*
X226844216Y-124183809D01*
X226828925Y-124122057D01*
X226828571Y-124120241D01*
X226827421Y-124115982D01*
X226806937Y-124065512D01*
X226773312Y-123982663D01*
X226683834Y-123869989D01*
X226658995Y-123846529D01*
X226633035Y-123822011D01*
X226617942Y-123811371D01*
X226615171Y-123809360D01*
X226573016Y-123777863D01*
X226574305Y-123776090D01*
X226441759Y-123679791D01*
X226441074Y-123679279D01*
X226440747Y-123678844D01*
X226427613Y-123667625D01*
X226347371Y-123587383D01*
X226334733Y-123572587D01*
X226238911Y-123440697D01*
X226238910Y-123440697D01*
X226209985Y-123400885D01*
X226209811Y-123401019D01*
X226207515Y-123398020D01*
X226168477Y-123352967D01*
X226168476Y-123352966D01*
X226077691Y-123270833D01*
X226077688Y-123270831D01*
X225949494Y-123205517D01*
X225883347Y-123182977D01*
X225741950Y-123156426D01*
X225598796Y-123170785D01*
X225598791Y-123170785D01*
X225598789Y-123170786D01*
X225565511Y-123179027D01*
X225530972Y-123187581D01*
X225530955Y-123187587D01*
X225397663Y-123241688D01*
X225397660Y-123241689D01*
X225397660Y-123241690D01*
X225360963Y-123270832D01*
X225284981Y-123331171D01*
X225236969Y-123382006D01*
X225236961Y-123382016D01*
X225228987Y-123393330D01*
X225218404Y-123406371D01*
X225214791Y-123410253D01*
X225212004Y-123411906D01*
X225095264Y-123572587D01*
X225082627Y-123587383D01*
X225002386Y-123667624D01*
X224987590Y-123680261D01*
X224877124Y-123760518D01*
X224876798Y-123760756D01*
X224855682Y-123776099D01*
X224855737Y-123776175D01*
X224814425Y-123806422D01*
X224814394Y-123806433D01*
X224813022Y-123807483D01*
X224767961Y-123846529D01*
X224685833Y-123937309D01*
X224685831Y-123937311D01*
X224620517Y-124065505D01*
X224597977Y-124131652D01*
X224571426Y-124273047D01*
X224313165Y-124273047D01*
X224304216Y-124183809D01*
X224288925Y-124122057D01*
X224288571Y-124120241D01*
X224287421Y-124115982D01*
X224266937Y-124065512D01*
X224233312Y-123982663D01*
X224143834Y-123869989D01*
X224118995Y-123846529D01*
X224093035Y-123822011D01*
X224077942Y-123811371D01*
X224075171Y-123809360D01*
X224033016Y-123777863D01*
X224034305Y-123776090D01*
X223901759Y-123679791D01*
X223901074Y-123679279D01*
X223900747Y-123678844D01*
X223887613Y-123667625D01*
X223807371Y-123587383D01*
X223794733Y-123572587D01*
X223728026Y-123480772D01*
X223728024Y-123480769D01*
X223717859Y-123464179D01*
X223707001Y-123442868D01*
X223695889Y-123421059D01*
X223669563Y-123381962D01*
X223627516Y-123319518D01*
X223588478Y-123274466D01*
X223588470Y-123274458D01*
X223497696Y-123192333D01*
X223396681Y-123140864D01*
X223345885Y-123092890D01*
X223329089Y-123025069D01*
X223351626Y-122958934D01*
X223406337Y-122915485D01*
X223452338Y-122896815D01*
X223565012Y-122807337D01*
X223612987Y-122756541D01*
X223612988Y-122756539D01*
X223695888Y-122638942D01*
X223720791Y-122590064D01*
X223724293Y-122584662D01*
X223725143Y-122583930D01*
X223728024Y-122579229D01*
X223794737Y-122487405D01*
X223807364Y-122472621D01*
X223887621Y-122392364D01*
X223902405Y-122379737D01*
X224034305Y-122283909D01*
X224034304Y-122283908D01*
X224074119Y-122254983D01*
X224073985Y-122254807D01*
X224076979Y-122252515D01*
X224099250Y-122233217D01*
X224122026Y-122213482D01*
X224204156Y-122122705D01*
X224269477Y-121994507D01*
X224292015Y-121928372D01*
X224292015Y-121928370D01*
X224293334Y-121924501D01*
X224307081Y-121905000D01*
X224316993Y-121883297D01*
X224326845Y-121876965D01*
X224333592Y-121867395D01*
X224355698Y-121858422D01*
X224375771Y-121845523D01*
X224393906Y-121842915D01*
X224398333Y-121841119D01*
X224410706Y-121840500D01*
X224479905Y-121840500D01*
X224546944Y-121860185D01*
G37*
%TD.AperFunction*%
%TA.AperFunction,Conductor*%
G36*
X219386944Y-124400185D02*
G01*
X219432699Y-124452989D01*
X219440267Y-124474686D01*
X219442582Y-124484031D01*
X219442586Y-124484040D01*
X219442587Y-124484044D01*
X219496689Y-124617340D01*
X219496695Y-124617350D01*
X219586165Y-124730011D01*
X219586169Y-124730016D01*
X219611014Y-124753480D01*
X219636966Y-124777990D01*
X219637011Y-124778033D01*
X219653878Y-124789920D01*
X219655677Y-124791288D01*
X219661302Y-124798922D01*
X219695697Y-124823910D01*
X219695697Y-124823911D01*
X219827585Y-124919732D01*
X219827587Y-124919733D01*
X219842383Y-124932371D01*
X219922625Y-125012613D01*
X219935262Y-125027409D01*
X220060017Y-125199121D01*
X220060194Y-125198986D01*
X220062476Y-125201967D01*
X220062481Y-125201974D01*
X220062486Y-125201980D01*
X220062487Y-125201981D01*
X220100312Y-125245635D01*
X220101518Y-125247026D01*
X220192295Y-125329156D01*
X220320493Y-125394477D01*
X220386628Y-125417015D01*
X220386634Y-125417016D01*
X220386635Y-125417017D01*
X220451591Y-125429216D01*
X220528029Y-125443572D01*
X220671191Y-125429216D01*
X220732947Y-125413923D01*
X220734761Y-125413570D01*
X220739014Y-125412421D01*
X220739019Y-125412421D01*
X220872337Y-125358312D01*
X220985011Y-125268834D01*
X221032986Y-125218038D01*
X221033003Y-125218020D01*
X221043635Y-125202936D01*
X221045643Y-125200168D01*
X221077136Y-125158016D01*
X221078909Y-125159305D01*
X221175269Y-125026672D01*
X221175715Y-125026077D01*
X221176152Y-125025748D01*
X221187364Y-125012621D01*
X221267621Y-124932364D01*
X221282405Y-124919737D01*
X221414305Y-124823909D01*
X221414304Y-124823908D01*
X221454119Y-124794983D01*
X221453985Y-124794807D01*
X221456979Y-124792515D01*
X221479250Y-124773217D01*
X221502026Y-124753482D01*
X221584156Y-124662705D01*
X221649477Y-124534507D01*
X221672015Y-124468372D01*
X221672015Y-124468370D01*
X221673334Y-124464501D01*
X221687081Y-124445000D01*
X221696993Y-124423297D01*
X221706845Y-124416965D01*
X221713592Y-124407395D01*
X221735698Y-124398422D01*
X221755771Y-124385523D01*
X221773906Y-124382915D01*
X221778333Y-124381119D01*
X221790706Y-124380500D01*
X221859905Y-124380500D01*
X221926944Y-124400185D01*
X221972699Y-124452989D01*
X221980267Y-124474686D01*
X221982582Y-124484031D01*
X221982586Y-124484040D01*
X221982587Y-124484044D01*
X222036689Y-124617340D01*
X222036695Y-124617350D01*
X222126165Y-124730011D01*
X222126169Y-124730016D01*
X222151014Y-124753480D01*
X222176966Y-124777990D01*
X222177011Y-124778033D01*
X222193878Y-124789920D01*
X222195677Y-124791288D01*
X222201302Y-124798922D01*
X222235697Y-124823910D01*
X222235697Y-124823911D01*
X222367585Y-124919732D01*
X222367587Y-124919733D01*
X222382383Y-124932371D01*
X222462627Y-125012615D01*
X222475265Y-125027412D01*
X222541972Y-125119228D01*
X222552137Y-125135815D01*
X222563000Y-125157133D01*
X222574112Y-125178942D01*
X222642485Y-125280483D01*
X222656399Y-125296541D01*
X222681527Y-125325539D01*
X222733027Y-125372132D01*
X222772296Y-125407660D01*
X222873320Y-125459135D01*
X222924115Y-125507107D01*
X222940910Y-125574928D01*
X222918373Y-125641063D01*
X222863659Y-125684514D01*
X222817665Y-125703182D01*
X222817657Y-125703186D01*
X222704986Y-125792662D01*
X222657020Y-125843448D01*
X222657014Y-125843454D01*
X222657000Y-125843474D01*
X222574111Y-125961057D01*
X222552139Y-126004179D01*
X222541974Y-126020767D01*
X222475261Y-126112591D01*
X222462623Y-126127387D01*
X222382389Y-126207621D01*
X222367592Y-126220259D01*
X222275764Y-126286974D01*
X222259175Y-126297140D01*
X222158062Y-126348660D01*
X222140086Y-126356106D01*
X222032145Y-126391179D01*
X222013225Y-126395721D01*
X221957186Y-126404597D01*
X221901145Y-126413473D01*
X221881749Y-126415000D01*
X221768252Y-126415000D01*
X221748854Y-126413473D01*
X221636774Y-126395721D01*
X221617853Y-126391179D01*
X221509912Y-126356106D01*
X221491936Y-126348660D01*
X221390819Y-126297138D01*
X221374230Y-126286972D01*
X221282409Y-126220262D01*
X221267612Y-126207624D01*
X221187371Y-126127383D01*
X221174733Y-126112587D01*
X221149757Y-126078210D01*
X221078911Y-125980697D01*
X221078910Y-125980697D01*
X221049985Y-125940885D01*
X221049811Y-125941019D01*
X221047515Y-125938020D01*
X221008477Y-125892967D01*
X221008476Y-125892966D01*
X220917691Y-125810833D01*
X220917688Y-125810831D01*
X220789494Y-125745517D01*
X220723347Y-125722977D01*
X220581950Y-125696426D01*
X220438796Y-125710785D01*
X220438791Y-125710785D01*
X220438789Y-125710786D01*
X220405511Y-125719027D01*
X220370972Y-125727581D01*
X220370955Y-125727587D01*
X220237663Y-125781688D01*
X220237660Y-125781689D01*
X220237660Y-125781690D01*
X220139658Y-125859516D01*
X220124981Y-125871171D01*
X220076969Y-125922006D01*
X220076961Y-125922016D01*
X220068987Y-125933330D01*
X220058404Y-125946371D01*
X220054791Y-125950253D01*
X220052004Y-125951906D01*
X219935264Y-126112587D01*
X219922627Y-126127383D01*
X219842389Y-126207621D01*
X219827592Y-126220259D01*
X219735764Y-126286974D01*
X219719178Y-126297138D01*
X219719175Y-126297140D01*
X219618062Y-126348660D01*
X219600086Y-126356106D01*
X219492145Y-126391179D01*
X219473225Y-126395721D01*
X219417186Y-126404597D01*
X219361145Y-126413473D01*
X219341749Y-126415000D01*
X219228252Y-126415000D01*
X219208854Y-126413473D01*
X219096774Y-126395721D01*
X219077853Y-126391179D01*
X218969912Y-126356106D01*
X218951936Y-126348660D01*
X218850819Y-126297138D01*
X218834230Y-126286972D01*
X218742409Y-126220262D01*
X218727612Y-126207624D01*
X218647369Y-126127381D01*
X218634732Y-126112585D01*
X218568031Y-126020778D01*
X218557868Y-126004194D01*
X218506337Y-125903060D01*
X218498893Y-125885087D01*
X218494371Y-125871171D01*
X218463820Y-125777143D01*
X218459278Y-125758223D01*
X218455177Y-125732333D01*
X218441527Y-125646145D01*
X218440000Y-125626748D01*
X218440000Y-125513254D01*
X218441525Y-125493869D01*
X218459282Y-125381751D01*
X218463816Y-125362865D01*
X218498896Y-125254899D01*
X218506334Y-125236943D01*
X218557871Y-125135797D01*
X218568024Y-125119228D01*
X218634734Y-125027409D01*
X218647363Y-125012622D01*
X218727621Y-124932364D01*
X218742405Y-124919737D01*
X218874305Y-124823909D01*
X218874304Y-124823908D01*
X218914119Y-124794983D01*
X218913985Y-124794807D01*
X218916979Y-124792515D01*
X218939250Y-124773217D01*
X218962026Y-124753482D01*
X219044156Y-124662705D01*
X219109477Y-124534507D01*
X219132015Y-124468372D01*
X219132015Y-124468370D01*
X219133334Y-124464501D01*
X219147081Y-124445000D01*
X219156993Y-124423297D01*
X219166845Y-124416965D01*
X219173592Y-124407395D01*
X219195698Y-124398422D01*
X219215771Y-124385523D01*
X219233906Y-124382915D01*
X219238333Y-124381119D01*
X219250706Y-124380500D01*
X219319905Y-124380500D01*
X219386944Y-124400185D01*
G37*
%TD.AperFunction*%
%TA.AperFunction,Conductor*%
G36*
X208667130Y-103357185D02*
G01*
X208712885Y-103409989D01*
X208722829Y-103479147D01*
X208694036Y-103542433D01*
X208689466Y-103547739D01*
X208603421Y-103647616D01*
X208544025Y-103778664D01*
X208524533Y-103845759D01*
X208504463Y-103988237D01*
X208517131Y-108427603D01*
X208497638Y-108494699D01*
X208444965Y-108540604D01*
X208391346Y-108551944D01*
X174314914Y-108061088D01*
X174248165Y-108040440D01*
X174203175Y-107986983D01*
X174192700Y-107937101D01*
X174192700Y-104104010D01*
X174192700Y-104104000D01*
X174181147Y-103996544D01*
X174181143Y-103996529D01*
X174180614Y-103993255D01*
X174182075Y-103993018D01*
X174186623Y-103929195D01*
X174228480Y-103873250D01*
X174293938Y-103848816D01*
X174362214Y-103863650D01*
X174390497Y-103884817D01*
X174678335Y-104172655D01*
X174678364Y-104172686D01*
X174820814Y-104315136D01*
X174820818Y-104315139D01*
X174984679Y-104424628D01*
X174984686Y-104424632D01*
X175101122Y-104472861D01*
X175166764Y-104500051D01*
X175218043Y-104510251D01*
X175296916Y-104525940D01*
X175360056Y-104538500D01*
X175360059Y-104538500D01*
X175360060Y-104538500D01*
X175557140Y-104538500D01*
X186635170Y-104538500D01*
X186659360Y-104540882D01*
X186698658Y-104548699D01*
X186698659Y-104548700D01*
X186698660Y-104548700D01*
X186895742Y-104548700D01*
X186895743Y-104548699D01*
X187089036Y-104510251D01*
X187271114Y-104434831D01*
X187434981Y-104325339D01*
X187574339Y-104185981D01*
X187683831Y-104022114D01*
X187759251Y-103840036D01*
X187797700Y-103646740D01*
X187797700Y-103461500D01*
X187817385Y-103394461D01*
X187870189Y-103348706D01*
X187921700Y-103337500D01*
X208600091Y-103337500D01*
X208667130Y-103357185D01*
G37*
%TD.AperFunction*%
%TA.AperFunction,Conductor*%
G36*
X216448758Y-103357185D02*
G01*
X216469400Y-103373819D01*
X217383589Y-104288008D01*
X217465789Y-104370208D01*
X217470994Y-104375413D01*
X217470996Y-104375414D01*
X217573756Y-104444076D01*
X217573758Y-104444077D01*
X217573767Y-104444083D01*
X217598772Y-104454440D01*
X217621071Y-104463677D01*
X217659805Y-104479721D01*
X217687966Y-104491386D01*
X217731529Y-104500051D01*
X217809192Y-104515499D01*
X217809196Y-104515500D01*
X217809197Y-104515500D01*
X217932804Y-104515500D01*
X217941195Y-104515500D01*
X218008234Y-104535185D01*
X218053989Y-104587989D01*
X218063933Y-104657147D01*
X218051680Y-104695794D01*
X218033445Y-104731582D01*
X217967753Y-104933760D01*
X217934500Y-105143713D01*
X217934500Y-105356287D01*
X217934499Y-105356287D01*
X217946630Y-105432875D01*
X217937675Y-105502168D01*
X217892679Y-105555620D01*
X217825927Y-105576259D01*
X217758614Y-105557534D01*
X217736476Y-105539953D01*
X216488785Y-104292263D01*
X216455300Y-104230940D01*
X216452466Y-104204582D01*
X216452466Y-103986444D01*
X216452466Y-103986434D01*
X216440913Y-103878978D01*
X216429707Y-103827467D01*
X216413464Y-103778664D01*
X216395582Y-103724936D01*
X216395579Y-103724930D01*
X216361324Y-103671629D01*
X216317791Y-103603891D01*
X216305574Y-103589792D01*
X216272047Y-103551099D01*
X216272042Y-103551094D01*
X216272036Y-103551087D01*
X216272028Y-103551080D01*
X216270138Y-103549190D01*
X216269702Y-103548393D01*
X216269136Y-103547739D01*
X216269278Y-103547615D01*
X216259518Y-103529747D01*
X216245017Y-103513011D01*
X216243101Y-103499687D01*
X216236647Y-103487870D01*
X216238225Y-103465775D01*
X216235073Y-103443853D01*
X216240665Y-103431606D01*
X216241625Y-103418178D01*
X216254896Y-103400445D01*
X216264098Y-103380297D01*
X216275424Y-103373018D01*
X216283491Y-103362240D01*
X216304242Y-103354497D01*
X216322876Y-103342523D01*
X216344781Y-103339373D01*
X216348953Y-103337817D01*
X216357811Y-103337500D01*
X216381719Y-103337500D01*
X216448758Y-103357185D01*
G37*
%TD.AperFunction*%
%TA.AperFunction,Conductor*%
G36*
X223206445Y-103285496D02*
G01*
X223245484Y-103330549D01*
X223269361Y-103377410D01*
X223289951Y-103417820D01*
X223414890Y-103589786D01*
X223565213Y-103740109D01*
X223737182Y-103865050D01*
X223745946Y-103869516D01*
X223796742Y-103917491D01*
X223813536Y-103985312D01*
X223790998Y-104051447D01*
X223745946Y-104090484D01*
X223737182Y-104094949D01*
X223565213Y-104219890D01*
X223414890Y-104370213D01*
X223289951Y-104542180D01*
X223245485Y-104629449D01*
X223197510Y-104680245D01*
X223129689Y-104697040D01*
X223063554Y-104674502D01*
X223024515Y-104629449D01*
X223010397Y-104601742D01*
X222980051Y-104542184D01*
X222956851Y-104510252D01*
X222855109Y-104370213D01*
X222704786Y-104219890D01*
X222532820Y-104094951D01*
X222532115Y-104094591D01*
X222524054Y-104090485D01*
X222473259Y-104042512D01*
X222456463Y-103974692D01*
X222478999Y-103908556D01*
X222524054Y-103869515D01*
X222532816Y-103865051D01*
X222563861Y-103842496D01*
X222704786Y-103740109D01*
X222704788Y-103740106D01*
X222704792Y-103740104D01*
X222855104Y-103589792D01*
X222855106Y-103589788D01*
X222855109Y-103589786D01*
X222980048Y-103417820D01*
X222980047Y-103417820D01*
X222980051Y-103417816D01*
X223024515Y-103330549D01*
X223072489Y-103279754D01*
X223140310Y-103262959D01*
X223206445Y-103285496D01*
G37*
%TD.AperFunction*%
%TA.AperFunction,Conductor*%
G36*
X220885539Y-103726251D02*
G01*
X220918817Y-103727717D01*
X220920897Y-103728780D01*
X220922014Y-103728860D01*
X220941027Y-103739067D01*
X220950245Y-103743777D01*
X220950922Y-103744255D01*
X221117184Y-103865051D01*
X221133910Y-103873573D01*
X221141214Y-103878735D01*
X221184601Y-103933501D01*
X221191493Y-104003030D01*
X221159700Y-104065247D01*
X221125946Y-104090484D01*
X221117182Y-104094949D01*
X220945213Y-104219890D01*
X220794890Y-104370213D01*
X220669949Y-104542182D01*
X220665484Y-104550946D01*
X220617509Y-104601742D01*
X220549688Y-104618536D01*
X220483553Y-104595998D01*
X220444516Y-104550946D01*
X220440050Y-104542182D01*
X220319725Y-104376567D01*
X220296245Y-104310760D01*
X220312071Y-104242707D01*
X220332362Y-104216001D01*
X220444373Y-104103990D01*
X220791002Y-103757359D01*
X220820223Y-103741403D01*
X220849015Y-103724643D01*
X220850776Y-103724720D01*
X220852323Y-103723876D01*
X220885539Y-103726251D01*
G37*
%TD.AperFunction*%
%TA.AperFunction,Conductor*%
G36*
X175695845Y-92892232D02*
G01*
X175746619Y-92940229D01*
X175763500Y-93002691D01*
X175763500Y-98046742D01*
X175787612Y-98167962D01*
X175787614Y-98167970D01*
X175821062Y-98248720D01*
X175834915Y-98282165D01*
X175834916Y-98282167D01*
X175834917Y-98282168D01*
X175880082Y-98349762D01*
X175883648Y-98355098D01*
X175883648Y-98355099D01*
X175903590Y-98384945D01*
X175903593Y-98384948D01*
X179844465Y-102325819D01*
X179877950Y-102387142D01*
X179872966Y-102456834D01*
X179831094Y-102512767D01*
X179765630Y-102537184D01*
X179756784Y-102537500D01*
X175924382Y-102537500D01*
X175857343Y-102517815D01*
X175836701Y-102501181D01*
X171957679Y-98622159D01*
X171957659Y-98622137D01*
X168707819Y-95372297D01*
X168674334Y-95310974D01*
X168671500Y-95284616D01*
X168671500Y-94765505D01*
X168681225Y-94732383D01*
X168690858Y-94698976D01*
X168691096Y-94698767D01*
X168691185Y-94698466D01*
X168717276Y-94675857D01*
X168743438Y-94652964D01*
X168743808Y-94652867D01*
X168743989Y-94652711D01*
X168777253Y-94642855D01*
X168781552Y-94642215D01*
X168897925Y-94633169D01*
X168966105Y-94617895D01*
X168966110Y-94617893D01*
X169100605Y-94566778D01*
X171358528Y-93315634D01*
X171406305Y-93300710D01*
X175627186Y-92879305D01*
X175695845Y-92892232D01*
G37*
%TD.AperFunction*%
%TA.AperFunction,Conductor*%
G36*
X223206445Y-95665496D02*
G01*
X223245484Y-95710549D01*
X223265365Y-95749567D01*
X223289951Y-95797820D01*
X223414890Y-95969786D01*
X223565213Y-96120109D01*
X223737179Y-96245048D01*
X223737181Y-96245049D01*
X223737184Y-96245051D01*
X223926588Y-96341557D01*
X224128757Y-96407246D01*
X224338713Y-96440500D01*
X224338714Y-96440500D01*
X224551286Y-96440500D01*
X224551287Y-96440500D01*
X224761243Y-96407246D01*
X224963412Y-96341557D01*
X225152816Y-96245051D01*
X225263905Y-96164341D01*
X225324786Y-96120109D01*
X225324788Y-96120106D01*
X225324792Y-96120104D01*
X225475104Y-95969792D01*
X225475106Y-95969788D01*
X225475109Y-95969786D01*
X225600048Y-95797820D01*
X225600047Y-95797820D01*
X225600051Y-95797816D01*
X225604514Y-95789054D01*
X225652488Y-95738259D01*
X225720308Y-95721463D01*
X225786444Y-95743999D01*
X225825486Y-95789056D01*
X225829951Y-95797820D01*
X225954890Y-95969786D01*
X226105213Y-96120109D01*
X226277179Y-96245048D01*
X226277181Y-96245049D01*
X226277184Y-96245051D01*
X226466588Y-96341557D01*
X226668757Y-96407246D01*
X226878713Y-96440500D01*
X226878714Y-96440500D01*
X227091286Y-96440500D01*
X227091287Y-96440500D01*
X227301243Y-96407246D01*
X227503412Y-96341557D01*
X227692816Y-96245051D01*
X227803905Y-96164341D01*
X227864786Y-96120109D01*
X227864788Y-96120106D01*
X227864792Y-96120104D01*
X228015104Y-95969792D01*
X228025680Y-95955234D01*
X228081009Y-95912568D01*
X228150622Y-95906587D01*
X228212418Y-95939191D01*
X228246777Y-96000029D01*
X228250000Y-96028118D01*
X228250000Y-101771881D01*
X228230315Y-101838920D01*
X228177511Y-101884675D01*
X228108353Y-101894619D01*
X228044797Y-101865594D01*
X228025682Y-101844766D01*
X228015109Y-101830214D01*
X228015105Y-101830209D01*
X227864786Y-101679890D01*
X227692820Y-101554951D01*
X227503414Y-101458444D01*
X227503413Y-101458443D01*
X227503412Y-101458443D01*
X227301243Y-101392754D01*
X227301241Y-101392753D01*
X227301240Y-101392753D01*
X227139957Y-101367208D01*
X227091287Y-101359500D01*
X226878713Y-101359500D01*
X226830042Y-101367208D01*
X226668760Y-101392753D01*
X226466585Y-101458444D01*
X226277179Y-101554951D01*
X226105213Y-101679890D01*
X225954890Y-101830213D01*
X225829949Y-102002182D01*
X225825484Y-102010946D01*
X225777509Y-102061742D01*
X225709688Y-102078536D01*
X225643553Y-102055998D01*
X225604516Y-102010946D01*
X225600050Y-102002182D01*
X225475109Y-101830213D01*
X225324786Y-101679890D01*
X225152820Y-101554951D01*
X224963414Y-101458444D01*
X224963413Y-101458443D01*
X224963412Y-101458443D01*
X224761243Y-101392754D01*
X224761241Y-101392753D01*
X224761240Y-101392753D01*
X224599957Y-101367208D01*
X224551287Y-101359500D01*
X224338713Y-101359500D01*
X224290042Y-101367208D01*
X224128760Y-101392753D01*
X223926585Y-101458444D01*
X223737179Y-101554951D01*
X223565213Y-101679890D01*
X223414890Y-101830213D01*
X223289951Y-102002180D01*
X223245485Y-102089449D01*
X223197510Y-102140245D01*
X223129689Y-102157040D01*
X223063554Y-102134502D01*
X223024515Y-102089449D01*
X223010397Y-102061742D01*
X222980051Y-102002184D01*
X222972023Y-101991134D01*
X222855109Y-101830213D01*
X222704786Y-101679890D01*
X222532820Y-101554951D01*
X222532115Y-101554591D01*
X222524054Y-101550485D01*
X222473259Y-101502512D01*
X222456463Y-101434692D01*
X222478999Y-101368556D01*
X222524054Y-101329515D01*
X222532816Y-101325051D01*
X222554789Y-101309086D01*
X222704786Y-101200109D01*
X222704788Y-101200106D01*
X222704792Y-101200104D01*
X222855104Y-101049792D01*
X222855106Y-101049788D01*
X222855109Y-101049786D01*
X222980048Y-100877820D01*
X222980047Y-100877820D01*
X222980051Y-100877816D01*
X223076557Y-100688412D01*
X223142246Y-100486243D01*
X223175500Y-100276287D01*
X223175500Y-100063713D01*
X223142246Y-99853757D01*
X223076557Y-99651588D01*
X222980051Y-99462184D01*
X222980049Y-99462181D01*
X222980048Y-99462179D01*
X222855109Y-99290213D01*
X222704786Y-99139890D01*
X222532820Y-99014951D01*
X222532115Y-99014591D01*
X222524054Y-99010485D01*
X222473259Y-98962512D01*
X222456463Y-98894692D01*
X222478999Y-98828556D01*
X222524054Y-98789515D01*
X222532816Y-98785051D01*
X222586378Y-98746136D01*
X222704786Y-98660109D01*
X222704788Y-98660106D01*
X222704792Y-98660104D01*
X222855104Y-98509792D01*
X222855106Y-98509788D01*
X222855109Y-98509786D01*
X222980048Y-98337820D01*
X222980047Y-98337820D01*
X222980051Y-98337816D01*
X223076557Y-98148412D01*
X223142246Y-97946243D01*
X223175500Y-97736287D01*
X223175500Y-97523713D01*
X223142246Y-97313757D01*
X223076557Y-97111588D01*
X222980051Y-96922184D01*
X222980049Y-96922181D01*
X222980048Y-96922179D01*
X222855109Y-96750213D01*
X222704786Y-96599890D01*
X222532820Y-96474951D01*
X222532115Y-96474591D01*
X222524054Y-96470485D01*
X222473259Y-96422512D01*
X222456463Y-96354692D01*
X222478999Y-96288556D01*
X222524054Y-96249515D01*
X222532816Y-96245051D01*
X222643905Y-96164341D01*
X222704786Y-96120109D01*
X222704788Y-96120106D01*
X222704792Y-96120104D01*
X222855104Y-95969792D01*
X222855106Y-95969788D01*
X222855109Y-95969786D01*
X222980048Y-95797820D01*
X222980047Y-95797820D01*
X222980051Y-95797816D01*
X223024515Y-95710549D01*
X223072489Y-95659754D01*
X223140310Y-95642959D01*
X223206445Y-95665496D01*
G37*
%TD.AperFunction*%
%TA.AperFunction,Conductor*%
G36*
X207242845Y-89742632D02*
G01*
X207293619Y-89790629D01*
X207310500Y-89853091D01*
X207310500Y-98490541D01*
X207314805Y-98512185D01*
X207315690Y-98516630D01*
X207315690Y-98516633D01*
X207321798Y-98547343D01*
X207344228Y-98660104D01*
X207348949Y-98683835D01*
X207348950Y-98683840D01*
X207424364Y-98865907D01*
X207424371Y-98865920D01*
X207533860Y-99029781D01*
X207533863Y-99029785D01*
X207677537Y-99173459D01*
X207677559Y-99173479D01*
X208395899Y-99891819D01*
X208429384Y-99953142D01*
X208424400Y-100022834D01*
X208382528Y-100078767D01*
X208317064Y-100103184D01*
X208308218Y-100103500D01*
X192495976Y-100103500D01*
X192428937Y-100083815D01*
X192383182Y-100031011D01*
X192373238Y-99961853D01*
X192402263Y-99898297D01*
X192439681Y-99869015D01*
X192533816Y-99821051D01*
X192555789Y-99805086D01*
X192705786Y-99696109D01*
X192705788Y-99696106D01*
X192705792Y-99696104D01*
X192856104Y-99545792D01*
X192856106Y-99545788D01*
X192856109Y-99545786D01*
X192981048Y-99373820D01*
X192981047Y-99373820D01*
X192981051Y-99373816D01*
X193077557Y-99184412D01*
X193143246Y-98982243D01*
X193176500Y-98772287D01*
X193176500Y-98559713D01*
X193143246Y-98349757D01*
X193116847Y-98268513D01*
X193114853Y-98198675D01*
X193147096Y-98142518D01*
X201217687Y-90071927D01*
X201279008Y-90038444D01*
X201348700Y-90043428D01*
X201390548Y-90069499D01*
X201431227Y-90107953D01*
X201548783Y-90190904D01*
X201548786Y-90190905D01*
X201548788Y-90190906D01*
X201684936Y-90237373D01*
X201684951Y-90237378D01*
X201753033Y-90250196D01*
X201753562Y-90250299D01*
X201753607Y-90250304D01*
X201753615Y-90250306D01*
X201753620Y-90250307D01*
X201897366Y-90256533D01*
X207174186Y-89729705D01*
X207242845Y-89742632D01*
G37*
%TD.AperFunction*%
%TA.AperFunction,Conductor*%
G36*
X218422347Y-83453283D02*
G01*
X218442129Y-83454022D01*
X218467528Y-83466787D01*
X218470324Y-83467623D01*
X218473404Y-83469740D01*
X218473664Y-83469871D01*
X218474707Y-83470597D01*
X218577184Y-83545051D01*
X218593534Y-83553381D01*
X218600532Y-83558257D01*
X218617287Y-83579117D01*
X218636742Y-83597491D01*
X218638834Y-83605942D01*
X218644287Y-83612730D01*
X218647105Y-83639341D01*
X218653536Y-83665312D01*
X218650727Y-83673551D01*
X218651645Y-83682211D01*
X218639629Y-83706119D01*
X218630998Y-83731447D01*
X218624178Y-83736862D01*
X218620270Y-83744640D01*
X218585946Y-83770484D01*
X218577182Y-83774949D01*
X218405213Y-83899890D01*
X218254890Y-84050213D01*
X218129951Y-84222179D01*
X218033444Y-84411585D01*
X217967753Y-84613760D01*
X217934500Y-84823713D01*
X217934500Y-85036286D01*
X217967753Y-85246239D01*
X218033444Y-85448414D01*
X218129951Y-85637820D01*
X218254890Y-85809786D01*
X218405213Y-85960109D01*
X218577182Y-86085050D01*
X218585946Y-86089516D01*
X218636742Y-86137491D01*
X218653536Y-86205312D01*
X218630998Y-86271447D01*
X218585946Y-86310484D01*
X218577182Y-86314949D01*
X218405213Y-86439890D01*
X218254890Y-86590213D01*
X218129951Y-86762179D01*
X218033444Y-86951585D01*
X217967753Y-87153760D01*
X217934500Y-87363713D01*
X217934500Y-87576287D01*
X217937306Y-87594001D01*
X217967753Y-87786239D01*
X218033444Y-87988414D01*
X218129951Y-88177820D01*
X218254890Y-88349786D01*
X218405213Y-88500109D01*
X218577182Y-88625050D01*
X218585946Y-88629516D01*
X218636742Y-88677491D01*
X218653536Y-88745312D01*
X218630998Y-88811447D01*
X218585946Y-88850484D01*
X218577182Y-88854949D01*
X218405213Y-88979890D01*
X218254890Y-89130213D01*
X218129951Y-89302179D01*
X218033444Y-89491585D01*
X217967753Y-89693760D01*
X217934500Y-89903713D01*
X217934500Y-90116286D01*
X217967753Y-90326239D01*
X218033444Y-90528414D01*
X218129951Y-90717820D01*
X218254890Y-90889786D01*
X218405213Y-91040109D01*
X218577182Y-91165050D01*
X218585946Y-91169516D01*
X218636742Y-91217491D01*
X218653536Y-91285312D01*
X218630998Y-91351447D01*
X218585946Y-91390484D01*
X218577182Y-91394949D01*
X218405213Y-91519890D01*
X218254890Y-91670213D01*
X218129951Y-91842179D01*
X218033444Y-92031585D01*
X217967753Y-92233760D01*
X217934500Y-92443713D01*
X217934500Y-92656286D01*
X217967753Y-92866240D01*
X217996833Y-92955739D01*
X217998828Y-93025580D01*
X217962747Y-93085413D01*
X217900046Y-93116241D01*
X217839744Y-93111712D01*
X217813445Y-93102959D01*
X217790776Y-93095414D01*
X217790774Y-93095413D01*
X217790773Y-93095413D01*
X217646986Y-93090279D01*
X217646981Y-93090280D01*
X217577519Y-93097748D01*
X217577511Y-93097750D01*
X217474070Y-93124138D01*
X217474028Y-93124149D01*
X217438226Y-93133283D01*
X217434218Y-93134942D01*
X217434105Y-93134998D01*
X217434102Y-93134991D01*
X217431625Y-93136016D01*
X217431614Y-93136020D01*
X217327492Y-93179147D01*
X217304237Y-93186202D01*
X217282315Y-93190563D01*
X217251879Y-93196617D01*
X217227691Y-93199000D01*
X217174312Y-93199000D01*
X217150119Y-93196617D01*
X217135536Y-93193716D01*
X217097754Y-93186200D01*
X217074497Y-93179145D01*
X217025180Y-93158718D01*
X217003740Y-93147258D01*
X216959357Y-93117602D01*
X216940567Y-93102181D01*
X216902819Y-93064433D01*
X216887403Y-93045650D01*
X216857733Y-93001246D01*
X216846282Y-92979824D01*
X216825849Y-92930492D01*
X216818795Y-92907237D01*
X216808382Y-92854883D01*
X216806000Y-92830694D01*
X216806000Y-92777303D01*
X216808382Y-92753114D01*
X216818795Y-92700760D01*
X216825847Y-92677508D01*
X216846284Y-92628168D01*
X216857732Y-92606751D01*
X216887400Y-92562351D01*
X216902818Y-92543567D01*
X216958106Y-92488279D01*
X216958106Y-92488278D01*
X216958122Y-92488263D01*
X216994288Y-92448000D01*
X217010922Y-92427358D01*
X217042567Y-92383474D01*
X217102338Y-92252597D01*
X217122023Y-92185558D01*
X217122024Y-92185554D01*
X217142500Y-92043138D01*
X217142500Y-84843142D01*
X217142420Y-84834123D01*
X217142341Y-84829696D01*
X217142099Y-84820671D01*
X217116552Y-84679077D01*
X217095318Y-84615280D01*
X217094774Y-84613522D01*
X217094486Y-84612781D01*
X217094485Y-84612776D01*
X217030079Y-84484116D01*
X216932035Y-84378812D01*
X216877631Y-84334972D01*
X216877629Y-84334971D01*
X216877627Y-84334969D01*
X216777090Y-84275319D01*
X216771472Y-84271779D01*
X216705357Y-84227602D01*
X216686567Y-84212181D01*
X216648819Y-84174433D01*
X216633403Y-84155650D01*
X216603733Y-84111246D01*
X216592282Y-84089824D01*
X216571849Y-84040492D01*
X216564795Y-84017237D01*
X216554382Y-83964883D01*
X216552000Y-83940694D01*
X216552000Y-83887303D01*
X216554382Y-83863114D01*
X216562658Y-83821503D01*
X216564794Y-83810763D01*
X216571851Y-83787502D01*
X216592281Y-83738179D01*
X216603740Y-83716740D01*
X216633397Y-83672355D01*
X216648813Y-83653570D01*
X216686569Y-83615814D01*
X216705342Y-83600406D01*
X216749752Y-83570732D01*
X216771171Y-83559283D01*
X216820509Y-83538847D01*
X216843761Y-83531795D01*
X216870144Y-83526547D01*
X216896116Y-83521382D01*
X216920304Y-83519000D01*
X216973689Y-83519000D01*
X216997878Y-83521382D01*
X217013435Y-83524476D01*
X217050241Y-83531797D01*
X217073501Y-83538853D01*
X217122817Y-83559280D01*
X217144255Y-83570738D01*
X217166545Y-83585632D01*
X217188642Y-83600396D01*
X217207424Y-83615810D01*
X217284374Y-83692759D01*
X217296452Y-83704442D01*
X217302479Y-83710081D01*
X217314972Y-83721385D01*
X217435635Y-83799755D01*
X217499050Y-83829086D01*
X217636898Y-83870286D01*
X217780777Y-83870982D01*
X217849286Y-83861469D01*
X217849927Y-83861385D01*
X217849984Y-83861372D01*
X217849991Y-83861372D01*
X217919114Y-83841437D01*
X217988235Y-83821503D01*
X218005122Y-83810765D01*
X218109650Y-83744298D01*
X218162674Y-83698798D01*
X218177188Y-83682211D01*
X218235283Y-83615815D01*
X218257417Y-83590519D01*
X218290239Y-83519556D01*
X218303273Y-83504660D01*
X218312162Y-83486974D01*
X218325806Y-83478907D01*
X218336246Y-83466977D01*
X218355267Y-83461491D01*
X218372308Y-83451417D01*
X218388148Y-83452007D01*
X218403380Y-83447615D01*
X218422347Y-83453283D01*
G37*
%TD.AperFunction*%
%TA.AperFunction,Conductor*%
G36*
X215197215Y-78765963D02*
G01*
X215226239Y-78829519D01*
X215227501Y-78847165D01*
X215227501Y-78857667D01*
X215207816Y-78924706D01*
X215191182Y-78945348D01*
X215189594Y-78946935D01*
X215153404Y-78987226D01*
X215136771Y-79007867D01*
X215105135Y-79051739D01*
X215045363Y-79182616D01*
X215025676Y-79249661D01*
X215005200Y-79392080D01*
X215005200Y-79470288D01*
X215002817Y-79494481D01*
X214992401Y-79546841D01*
X214985345Y-79570100D01*
X214964917Y-79619418D01*
X214953458Y-79640857D01*
X214923799Y-79685245D01*
X214908378Y-79704035D01*
X214870635Y-79741778D01*
X214851844Y-79757200D01*
X214807460Y-79786856D01*
X214786022Y-79798314D01*
X214736692Y-79818747D01*
X214713433Y-79825803D01*
X214661080Y-79836217D01*
X214636891Y-79838600D01*
X214583512Y-79838600D01*
X214559319Y-79836217D01*
X214544736Y-79833316D01*
X214506954Y-79825800D01*
X214483697Y-79818745D01*
X214434380Y-79798318D01*
X214412940Y-79786858D01*
X214368557Y-79757202D01*
X214368555Y-79757200D01*
X214349767Y-79741781D01*
X214312019Y-79704033D01*
X214296603Y-79685250D01*
X214266933Y-79640846D01*
X214255482Y-79619424D01*
X214235049Y-79570092D01*
X214227995Y-79546837D01*
X214217582Y-79494483D01*
X214215200Y-79470294D01*
X214215200Y-79416903D01*
X214217582Y-79392714D01*
X214227994Y-79340365D01*
X214235051Y-79317102D01*
X214255481Y-79267779D01*
X214266940Y-79246340D01*
X214296597Y-79201955D01*
X214312013Y-79183170D01*
X214349769Y-79145414D01*
X214368542Y-79130006D01*
X214412952Y-79100332D01*
X214434366Y-79088886D01*
X214483706Y-79068448D01*
X214506943Y-79061400D01*
X214603812Y-79042132D01*
X214660548Y-79027380D01*
X214687867Y-79018557D01*
X214742504Y-78997341D01*
X214863543Y-78919553D01*
X214916347Y-78873798D01*
X215009789Y-78765962D01*
X215068567Y-78728188D01*
X215138437Y-78728188D01*
X215197215Y-78765963D01*
G37*
%TD.AperFunction*%
%TA.AperFunction,Conductor*%
G36*
X215219878Y-73869382D02*
G01*
X215235435Y-73872476D01*
X215272241Y-73879797D01*
X215295501Y-73886853D01*
X215344817Y-73907280D01*
X215366256Y-73918739D01*
X215410642Y-73948397D01*
X215429432Y-73963818D01*
X215467178Y-74001564D01*
X215482595Y-74020348D01*
X215512260Y-74064744D01*
X215523718Y-74086181D01*
X215544147Y-74135504D01*
X215551202Y-74158760D01*
X215561617Y-74211113D01*
X215564000Y-74235307D01*
X215564000Y-74288688D01*
X215561617Y-74312881D01*
X215551201Y-74365241D01*
X215544147Y-74388495D01*
X215523714Y-74437824D01*
X215512258Y-74459258D01*
X215482602Y-74503641D01*
X215467181Y-74522431D01*
X215411888Y-74577723D01*
X215375687Y-74618027D01*
X215359067Y-74638655D01*
X215359053Y-74638672D01*
X215327433Y-74682524D01*
X215327432Y-74682524D01*
X215282062Y-74781870D01*
X215236306Y-74834673D01*
X215169266Y-74854357D01*
X215102227Y-74834672D01*
X215056473Y-74781867D01*
X215053091Y-74773703D01*
X215045832Y-74754241D01*
X215012348Y-74692920D01*
X214926124Y-74577739D01*
X214926119Y-74577734D01*
X214926114Y-74577728D01*
X214870821Y-74522436D01*
X214855399Y-74503645D01*
X214855396Y-74503641D01*
X214825736Y-74459252D01*
X214814278Y-74437814D01*
X214811644Y-74431456D01*
X214793851Y-74388498D01*
X214786795Y-74365237D01*
X214776382Y-74312883D01*
X214774000Y-74288694D01*
X214774000Y-74235303D01*
X214776382Y-74211114D01*
X214786794Y-74158765D01*
X214793851Y-74135502D01*
X214814281Y-74086179D01*
X214825740Y-74064740D01*
X214855397Y-74020355D01*
X214870813Y-74001570D01*
X214908569Y-73963814D01*
X214927342Y-73948406D01*
X214971752Y-73918732D01*
X214993171Y-73907283D01*
X215042509Y-73886847D01*
X215065761Y-73879795D01*
X215092144Y-73874547D01*
X215118116Y-73869382D01*
X215142304Y-73867000D01*
X215195689Y-73867000D01*
X215219878Y-73869382D01*
G37*
%TD.AperFunction*%
%TA.AperFunction,Conductor*%
G36*
X215516016Y-71479060D02*
G01*
X215545041Y-71542615D01*
X215546125Y-71553624D01*
X215547897Y-71586689D01*
X215550729Y-71613022D01*
X215550732Y-71613049D01*
X215559385Y-71666445D01*
X215559385Y-71666447D01*
X215609666Y-71801252D01*
X215609668Y-71801257D01*
X215643153Y-71862580D01*
X215643154Y-71862582D01*
X215728731Y-71976899D01*
X215732566Y-71982318D01*
X215766258Y-72032741D01*
X215777718Y-72054181D01*
X215798147Y-72103503D01*
X215805202Y-72126760D01*
X215815617Y-72179113D01*
X215818000Y-72203307D01*
X215818000Y-72256688D01*
X215815617Y-72280881D01*
X215805201Y-72333241D01*
X215798145Y-72356499D01*
X215798145Y-72356500D01*
X215777717Y-72405818D01*
X215766258Y-72427257D01*
X215736599Y-72471645D01*
X215721178Y-72490435D01*
X215683435Y-72528178D01*
X215664644Y-72543600D01*
X215620260Y-72573256D01*
X215598822Y-72584714D01*
X215549492Y-72605147D01*
X215526233Y-72612203D01*
X215473880Y-72622617D01*
X215449691Y-72625000D01*
X215396312Y-72625000D01*
X215372119Y-72622617D01*
X215357536Y-72619716D01*
X215319754Y-72612200D01*
X215296497Y-72605145D01*
X215247180Y-72584718D01*
X215225740Y-72573258D01*
X215181357Y-72543602D01*
X215181355Y-72543600D01*
X215162567Y-72528181D01*
X215124819Y-72490433D01*
X215109403Y-72471650D01*
X215079733Y-72427246D01*
X215068282Y-72405824D01*
X215047849Y-72356492D01*
X215040795Y-72333237D01*
X215030382Y-72280883D01*
X215028000Y-72256694D01*
X215028000Y-72203303D01*
X215030382Y-72179114D01*
X215040795Y-72126760D01*
X215047850Y-72103501D01*
X215068281Y-72054177D01*
X215079733Y-72032749D01*
X215111134Y-71985756D01*
X215121967Y-71971810D01*
X215152788Y-71937500D01*
X215169422Y-71916858D01*
X215201067Y-71872974D01*
X215260838Y-71742097D01*
X215280523Y-71675058D01*
X215280524Y-71675054D01*
X215299565Y-71542614D01*
X215328590Y-71479061D01*
X215387368Y-71441286D01*
X215457237Y-71441286D01*
X215516016Y-71479060D01*
G37*
%TD.AperFunction*%
%TA.AperFunction,Conductor*%
G36*
X215254458Y-69101172D02*
G01*
X215280779Y-69121245D01*
X215508681Y-69349146D01*
X215542166Y-69410469D01*
X215545000Y-69436827D01*
X215545000Y-70334166D01*
X215525315Y-70401205D01*
X215472511Y-70446960D01*
X215403353Y-70456904D01*
X215339797Y-70427879D01*
X215302023Y-70369101D01*
X215297242Y-70341909D01*
X215297058Y-70338973D01*
X215293209Y-70308331D01*
X215293208Y-70308329D01*
X215293207Y-70308316D01*
X215281447Y-70246306D01*
X215226387Y-70113378D01*
X215190735Y-70053289D01*
X215190734Y-70053288D01*
X215190703Y-70053250D01*
X215188908Y-70050938D01*
X215187930Y-70049808D01*
X215100454Y-69941256D01*
X215084133Y-69929924D01*
X215073922Y-69918130D01*
X215065635Y-69899965D01*
X215053106Y-69884418D01*
X215051429Y-69868827D01*
X215044922Y-69854563D01*
X215047771Y-69834800D01*
X215045637Y-69814949D01*
X215053106Y-69789512D01*
X215069694Y-69749466D01*
X215104300Y-69575491D01*
X215104300Y-69398109D01*
X215104300Y-69398106D01*
X215071481Y-69233118D01*
X215077708Y-69163526D01*
X215120571Y-69108349D01*
X215186460Y-69085104D01*
X215254458Y-69101172D01*
G37*
%TD.AperFunction*%
%TA.AperFunction,Conductor*%
G36*
X213042108Y-66068148D02*
G01*
X213054389Y-66080875D01*
X213066624Y-66095515D01*
X213066625Y-66095516D01*
X213066642Y-66095531D01*
X213066648Y-66095537D01*
X213093766Y-66119896D01*
X213173663Y-66191664D01*
X213226244Y-66226797D01*
X213245032Y-66242217D01*
X213282779Y-66279965D01*
X213298195Y-66298748D01*
X213327860Y-66343144D01*
X213339318Y-66364581D01*
X213359747Y-66413904D01*
X213366802Y-66437160D01*
X213377217Y-66489513D01*
X213379600Y-66513707D01*
X213379600Y-66519105D01*
X213379622Y-66523928D01*
X213379639Y-66525867D01*
X213379687Y-66529449D01*
X213379700Y-66530409D01*
X213402712Y-66672437D01*
X213402713Y-66672441D01*
X213402714Y-66672445D01*
X213423587Y-66739113D01*
X213423591Y-66739125D01*
X213423592Y-66739126D01*
X213485681Y-66868905D01*
X213485686Y-66868914D01*
X213492103Y-66878517D01*
X213498476Y-66898874D01*
X213509280Y-66917264D01*
X213512562Y-66943859D01*
X213512980Y-66945194D01*
X213512805Y-66945830D01*
X213513000Y-66947407D01*
X213513000Y-67092721D01*
X213515897Y-67146769D01*
X213515897Y-67146770D01*
X213518729Y-67173103D01*
X213518732Y-67173130D01*
X213527385Y-67226526D01*
X213527385Y-67226528D01*
X213577666Y-67361333D01*
X213577668Y-67361338D01*
X213611153Y-67422661D01*
X213697377Y-67537842D01*
X213819684Y-67660149D01*
X213853168Y-67721470D01*
X213848184Y-67791162D01*
X213806313Y-67847096D01*
X213740849Y-67871513D01*
X213684553Y-67862392D01*
X213664604Y-67854129D01*
X213654787Y-67850063D01*
X213654785Y-67850061D01*
X213654785Y-67850062D01*
X213574035Y-67816614D01*
X213574027Y-67816612D01*
X213452807Y-67792500D01*
X213452803Y-67792500D01*
X213435982Y-67792500D01*
X213425432Y-67789402D01*
X213414505Y-67790626D01*
X213392497Y-67779731D01*
X213368943Y-67772815D01*
X213361744Y-67764507D01*
X213351888Y-67759628D01*
X213339264Y-67738563D01*
X213323188Y-67720011D01*
X213320682Y-67707558D01*
X213315971Y-67699697D01*
X213312043Y-67664625D01*
X213312404Y-67653089D01*
X213312406Y-67653033D01*
X213312405Y-67653028D01*
X213312232Y-67648460D01*
X213312293Y-67648457D01*
X213312006Y-67640891D01*
X213311931Y-67640894D01*
X213311773Y-67636467D01*
X213304854Y-67572127D01*
X213301752Y-67558030D01*
X213296373Y-67510049D01*
X213294210Y-67501733D01*
X213276661Y-67449406D01*
X213273855Y-67439754D01*
X213273168Y-67436978D01*
X213262346Y-67382566D01*
X213255812Y-67354055D01*
X213254908Y-67350576D01*
X213244782Y-67322174D01*
X213243294Y-67316153D01*
X213243369Y-67314401D01*
X213230432Y-67280870D01*
X213230434Y-67280870D01*
X213227222Y-67272546D01*
X213227119Y-67271305D01*
X213226393Y-67269723D01*
X213224355Y-67264896D01*
X213223634Y-67263243D01*
X213223629Y-67263229D01*
X213220608Y-67257040D01*
X213219415Y-67254523D01*
X213218151Y-67251772D01*
X213218150Y-67251772D01*
X213210962Y-67236128D01*
X213210962Y-67236127D01*
X213209110Y-67232096D01*
X213209111Y-67232096D01*
X213206866Y-67227208D01*
X213206855Y-67227189D01*
X213205712Y-67224701D01*
X213205711Y-67224699D01*
X213205711Y-67224698D01*
X213201853Y-67216301D01*
X213196246Y-67207137D01*
X213185548Y-67185222D01*
X213185544Y-67185215D01*
X213183099Y-67182209D01*
X213171601Y-67165432D01*
X213162735Y-67149901D01*
X213162734Y-67149899D01*
X213159811Y-67146759D01*
X213115845Y-67099535D01*
X213094749Y-67073602D01*
X213092492Y-67071520D01*
X213091133Y-67072992D01*
X213069944Y-67050232D01*
X213064698Y-67044597D01*
X213064683Y-67044583D01*
X213057000Y-67038391D01*
X213057000Y-67038392D01*
X213053763Y-67035783D01*
X213043443Y-67026261D01*
X213033235Y-67019240D01*
X213029570Y-67016287D01*
X213013625Y-67003438D01*
X213013626Y-67003438D01*
X213010293Y-67000752D01*
X213010282Y-67000744D01*
X213010278Y-67000741D01*
X212985136Y-66985824D01*
X212978143Y-66981352D01*
X212924927Y-66944753D01*
X212917705Y-66942385D01*
X212893083Y-66931206D01*
X212886546Y-66927328D01*
X212886545Y-66927327D01*
X212842625Y-66909135D01*
X212808773Y-66895114D01*
X212787345Y-66883661D01*
X212742949Y-66853996D01*
X212724165Y-66838579D01*
X212686419Y-66800833D01*
X212671003Y-66782050D01*
X212641333Y-66737646D01*
X212629882Y-66716224D01*
X212609449Y-66666892D01*
X212602395Y-66643637D01*
X212591982Y-66591283D01*
X212589600Y-66567094D01*
X212589600Y-66513703D01*
X212591982Y-66489514D01*
X212602394Y-66437165D01*
X212609451Y-66413902D01*
X212629881Y-66364579D01*
X212641340Y-66343140D01*
X212670997Y-66298755D01*
X212686413Y-66279970D01*
X212748354Y-66218029D01*
X212754795Y-66212032D01*
X212767504Y-66201019D01*
X212812516Y-66156801D01*
X212856143Y-66091506D01*
X212909755Y-66046702D01*
X212979080Y-66037993D01*
X213042108Y-66068148D01*
G37*
%TD.AperFunction*%
%TA.AperFunction,Conductor*%
G36*
X212933878Y-64471382D02*
G01*
X212949435Y-64474476D01*
X212986241Y-64481797D01*
X213009501Y-64488853D01*
X213058817Y-64509280D01*
X213080256Y-64520739D01*
X213124642Y-64550397D01*
X213143432Y-64565818D01*
X213181178Y-64603564D01*
X213196595Y-64622348D01*
X213226260Y-64666744D01*
X213237718Y-64688181D01*
X213258147Y-64737504D01*
X213265202Y-64760760D01*
X213275617Y-64813113D01*
X213278000Y-64837307D01*
X213278000Y-64890688D01*
X213275617Y-64914881D01*
X213265201Y-64967241D01*
X213258145Y-64990500D01*
X213237717Y-65039818D01*
X213226258Y-65061257D01*
X213196599Y-65105645D01*
X213181178Y-65124435D01*
X213119248Y-65186365D01*
X213112773Y-65192394D01*
X213100127Y-65203351D01*
X213055087Y-65247593D01*
X213011455Y-65312893D01*
X212957843Y-65357697D01*
X212888518Y-65366404D01*
X212825490Y-65336249D01*
X212813209Y-65323521D01*
X212800973Y-65308880D01*
X212800972Y-65308879D01*
X212693934Y-65212732D01*
X212641346Y-65177594D01*
X212622560Y-65162176D01*
X212584822Y-65124438D01*
X212584820Y-65124435D01*
X212569401Y-65105648D01*
X212539737Y-65061253D01*
X212528278Y-65039814D01*
X212507852Y-64990500D01*
X212500795Y-64967237D01*
X212490382Y-64914883D01*
X212488000Y-64890694D01*
X212488000Y-64837303D01*
X212490382Y-64813114D01*
X212500794Y-64760765D01*
X212507851Y-64737502D01*
X212528281Y-64688179D01*
X212539740Y-64666740D01*
X212569397Y-64622355D01*
X212584813Y-64603570D01*
X212622569Y-64565814D01*
X212641342Y-64550406D01*
X212685752Y-64520732D01*
X212707171Y-64509283D01*
X212756509Y-64488847D01*
X212779761Y-64481795D01*
X212806144Y-64476547D01*
X212832116Y-64471382D01*
X212856304Y-64469000D01*
X212909689Y-64469000D01*
X212933878Y-64471382D01*
G37*
%TD.AperFunction*%
%TD*%
%TA.AperFunction,Conductor*%
%TO.N,/Curr_meas/5V_to_cm*%
G36*
X170720083Y-64102019D02*
G01*
X185075177Y-64353862D01*
X185141859Y-64374720D01*
X185186681Y-64428318D01*
X185197000Y-64477843D01*
X185197000Y-69374282D01*
X185177315Y-69441321D01*
X185147761Y-69473210D01*
X173433200Y-78326000D01*
X173433199Y-78326000D01*
X173511908Y-87344918D01*
X173492809Y-87412127D01*
X173440407Y-87458341D01*
X173387913Y-87470000D01*
X166017000Y-87470000D01*
X165949961Y-87450315D01*
X165904206Y-87397511D01*
X165893000Y-87346000D01*
X165893000Y-64226000D01*
X165912685Y-64158961D01*
X165965489Y-64113206D01*
X166017000Y-64102000D01*
X170717908Y-64102000D01*
X170720083Y-64102019D01*
G37*
%TD.AperFunction*%
%TD*%
M02*
