M48
; DRILL file {KiCad 9.0.2} date 2026-04-11T15:14:37-0700
; FORMAT={-:-/ absolute / inch / decimal}
; #@! TF.CreationDate,2026-04-11T15:14:37-07:00
; #@! TF.GenerationSoftware,Kicad,Pcbnew,9.0.2
; #@! TF.FileFunction,Plated,1,2,PTH
FMAT,2
INCH
; #@! TA.AperFunction,Plated,PTH,ComponentDrill
T1C0.0079
; #@! TA.AperFunction,Plated,PTH,ComponentDrill
T2C0.0080
; #@! TA.AperFunction,Plated,PTH,ViaDrill
T3C0.0118
; #@! TA.AperFunction,Plated,PTH,ComponentDrill
T4C0.0118
; #@! TA.AperFunction,Plated,PTH,ViaDrill
T5C0.0197
; #@! TA.AperFunction,Plated,PTH,ComponentDrill
T6C0.0394
; #@! TA.AperFunction,Plated,PTH,ComponentDrill
T7C0.1260
%
G90
G05
T1
X5.6884Y-4.6325
X5.7081Y-4.6079
X5.7081Y-4.6571
X5.7278Y-4.6325
T2
X5.9746Y-3.7504
X5.9746Y-3.7937
X6.0179Y-3.7504
X6.0179Y-3.7937
X6.0612Y-3.7504
X6.0612Y-3.7937
T3
X6.7832Y-3.8877
T4
X8.014Y-2.5953
X8.014Y-2.6425
X8.014Y-2.6937
X8.014Y-2.737
X8.0439Y-3.7378
X8.0439Y-3.7851
X8.0439Y-3.8363
X8.0439Y-3.8796
X8.0539Y-4.9278
X8.0539Y-4.9751
X8.0539Y-5.0263
X8.0539Y-5.0696
X8.0612Y-2.5953
X8.0612Y-2.6425
X8.0612Y-2.6937
X8.0612Y-2.737
X8.0911Y-3.7378
X8.0911Y-3.7851
X8.0911Y-3.8363
X8.0911Y-3.8796
X8.1011Y-4.9278
X8.1011Y-4.9751
X8.1011Y-5.0263
X8.1011Y-5.0696
T5
X5.6112Y-4.7357
X5.6892Y-2.9477
X5.7072Y-4.5317
X5.8212Y-2.9037
X5.9112Y-3.7237
X6.3912Y-3.5837
X6.4912Y-3.5837
X6.6012Y-3.6817
X6.6052Y-3.8917
X6.6112Y-4.1537
X6.6112Y-4.2537
X6.6212Y-3.3037
X6.6212Y-3.4137
X6.7392Y-3.9077
X6.9031Y-3.9127
X6.9612Y-3.5137
X6.9872Y-3.5927
X7.0112Y-3.6537
X7.0112Y-3.7337
X7.0202Y-3.8227
X7.0312Y-3.2937
X7.0312Y-3.4137
X7.1612Y-2.5737
X7.1612Y-2.6537
X7.2912Y-2.4937
X7.3542Y-4.0767
X7.3612Y-3.0117
X7.4912Y-4.6337
X7.5112Y-2.7837
X7.6732Y-4.4937
X8.0112Y-4.6937
X8.0612Y-3.3537
X8.0912Y-2.9237
X8.0912Y-3.0137
X8.0912Y-4.3337
X8.0912Y-4.4437
X8.1212Y-3.2317
X8.1212Y-3.3057
X8.1412Y-4.0817
X8.2012Y-3.1337
X8.2412Y-3.9137
X8.2492Y-2.7437
X8.3052Y-5.0957
X8.3312Y-3.9332
X8.3312Y-4.1037
X8.3812Y-2.5537
X8.3852Y-2.6197
X8.3912Y-3.9337
X8.3912Y-4.1037
X8.4332Y-2.7357
X8.4492Y-3.1277
X8.4512Y-3.9337
X8.4512Y-4.1037
X8.4712Y-2.9237
X8.4812Y-2.8437
X8.5412Y-3.3037
X8.5512Y-3.6537
X8.7412Y-5.0637
X9.0432Y-2.6437
T6
X5.7082Y-4.1329
X5.7082Y-4.2329
X5.8222Y-3.7245
X5.8222Y-3.8245
X7.5422Y-2.3145
X7.5422Y-2.4145
X7.5522Y-3.7845
X7.5522Y-3.8845
X7.8602Y-4.6479
X7.8602Y-4.7479
X8.6333Y-2.4437
X8.6333Y-2.5437
X8.6333Y-2.6437
X8.6333Y-2.7437
X8.6333Y-2.8437
X8.6333Y-2.9437
X8.6333Y-3.0437
X8.6333Y-3.1437
X8.6333Y-3.2437
X8.6333Y-3.3437
X8.6333Y-3.4437
X8.6333Y-3.5437
X8.6333Y-3.6437
X8.6333Y-3.7437
X8.6333Y-3.8437
X8.6333Y-3.9437
X8.6333Y-4.0437
X8.6333Y-4.1437
X8.6333Y-4.2437
X8.6333Y-4.3437
X8.6333Y-4.4437
X8.6333Y-4.5437
X8.6333Y-4.6437
X8.6333Y-4.7437
X8.6333Y-4.8437
X8.6333Y-4.9437
X8.7333Y-2.4437
X8.7333Y-2.5437
X8.7333Y-2.6437
X8.7333Y-2.7437
X8.7333Y-2.8437
X8.7333Y-2.9437
X8.7333Y-3.0437
X8.7333Y-3.1437
X8.7333Y-3.2437
X8.7333Y-3.3437
X8.7333Y-3.4437
X8.7333Y-3.5437
X8.7333Y-3.6437
X8.7333Y-3.7437
X8.7333Y-3.8437
X8.7333Y-3.9437
X8.7333Y-4.0437
X8.7333Y-4.1437
X8.7333Y-4.2437
X8.7333Y-4.3437
X8.7333Y-4.4437
X8.7333Y-4.5437
X8.7333Y-4.6437
X8.7333Y-4.7437
X8.7333Y-4.8437
X8.7333Y-4.9437
X8.8364Y-2.4437
X8.8364Y-2.5437
X8.8364Y-2.6437
X8.8364Y-2.7437
X8.8364Y-2.8437
X8.8364Y-2.9437
X8.8364Y-3.0437
X8.8364Y-3.1437
X8.8364Y-3.2437
X8.8364Y-3.3437
X8.8364Y-3.4437
X8.8364Y-3.5437
X8.8364Y-3.6437
X8.8364Y-3.7437
X8.8364Y-3.8437
X8.8364Y-3.9437
X8.8364Y-4.0437
X8.8364Y-4.1437
X8.8364Y-4.2437
X8.8364Y-4.3437
X8.8364Y-4.4437
X8.8364Y-4.5437
X8.8364Y-4.6437
X8.8364Y-4.7437
X8.8364Y-4.8437
X8.8364Y-4.9437
X8.9364Y-2.4437
X8.9364Y-2.5437
X8.9364Y-2.6437
X8.9364Y-2.7437
X8.9364Y-2.8437
X8.9364Y-2.9437
X8.9364Y-3.0437
X8.9364Y-3.1437
X8.9364Y-3.2437
X8.9364Y-3.3437
X8.9364Y-3.4437
X8.9364Y-3.5437
X8.9364Y-3.6437
X8.9364Y-3.7437
X8.9364Y-3.8437
X8.9364Y-3.9437
X8.9364Y-4.0437
X8.9364Y-4.1437
X8.9364Y-4.2437
X8.9364Y-4.3437
X8.9364Y-4.4437
X8.9364Y-4.5437
X8.9364Y-4.6437
X8.9364Y-4.7437
X8.9364Y-4.8437
X8.9364Y-4.9437
T7
X5.5612Y-2.0937
X5.5612Y-5.2437
X8.9364Y-2.2437
X8.9364Y-5.1437
M30
