M48
; DRILL file {KiCad 9.0.2} date 2026-02-19T15:22:09-0800
; FORMAT={-:-/ absolute / inch / decimal}
; #@! TF.CreationDate,2026-02-19T15:22:09-08:00
; #@! TF.GenerationSoftware,Kicad,Pcbnew,9.0.2
; #@! TF.FileFunction,Plated,1,2,PTH
FMAT,2
INCH
; #@! TA.AperFunction,Plated,PTH,ComponentDrill
T1C0.0079
; #@! TA.AperFunction,Plated,PTH,ViaDrill
T2C0.0118
; #@! TA.AperFunction,Plated,PTH,ComponentDrill
T3C0.0118
; #@! TA.AperFunction,Plated,PTH,ViaDrill
T4C0.0197
; #@! TA.AperFunction,Plated,PTH,ComponentDrill
T5C0.0315
; #@! TA.AperFunction,Plated,PTH,ComponentDrill
T6C0.0394
; #@! TA.AperFunction,Plated,PTH,ComponentDrill
T7C0.1260
%
G90
G05
T1
X7.31Y-2.6002
X7.3297Y-2.5756
X7.3297Y-2.6248
X7.3494Y-2.6002
T2
X6.7702Y-3.8337
X6.9931Y-4.7055
X7.0522Y-3.4988
X7.0892Y-4.3907
X7.123Y-4.7154
X7.1585Y-5.0559
X7.2396Y-2.5581
X7.2923Y-4.4437
X7.3848Y-2.4909
X7.3986Y-3.8374
X7.4222Y-3.8689
X7.4222Y-4.2055
X7.4262Y-2.5874
X7.4281Y-4.1661
X7.4419Y-3.8965
X7.4478Y-2.8955
X7.4931Y-3.5992
X7.6309Y-4.3335
X7.6565Y-4.3571
X7.6663Y-5.111
X7.6683Y-3.5165
X7.6801Y-4.3827
X7.7175Y-3.3492
X7.751Y-4.2587
X7.7608Y-3.5087
X7.7648Y-3.4614
X7.7766Y-4.2783
X7.7951Y-4.3047
X7.812Y-5.0736
X7.8711Y-3.2961
X7.936Y-3.6661
X7.94Y-2.2769
X7.9793Y-2.2547
X8.0187Y-4.0461
X8.0384Y-3.5933
X8.127Y-2.3433
X8.188Y-5.2272
X8.1959Y-3.5638
X8.2156Y-4.4004
X8.2411Y-3.924
X8.2746Y-4.4201
X8.314Y-3.987
X8.3455Y-4.5972
X8.3533Y-2.8059
X8.3927Y-3.2882
X8.4045Y-4.9713
X8.4321Y-4.1445
X8.4636Y-4.9122
X8.4636Y-5.0303
X8.4715Y-3.2882
X8.4715Y-3.3472
X8.501Y-2.6583
X8.501Y-3.1504
X8.5108Y-4.1839
X8.5108Y-4.2232
T3
X8.1668Y-3.323
X8.1668Y-3.3703
X8.1668Y-3.4214
X8.1668Y-3.4647
X8.1772Y-5.0045
X8.1772Y-5.0518
X8.1772Y-5.103
X8.1772Y-5.1463
X8.198Y-4.1938
X8.198Y-4.2411
X8.198Y-4.2922
X8.198Y-4.3356
X8.214Y-3.323
X8.214Y-3.3703
X8.214Y-3.4214
X8.214Y-3.4647
X8.2244Y-5.0045
X8.2244Y-5.0518
X8.2244Y-5.103
X8.2244Y-5.1463
X8.2452Y-4.1938
X8.2452Y-4.2411
X8.2452Y-4.2922
X8.2452Y-4.3356
T4
X6.4439Y-3.5933
X6.5392Y-4.0327
X6.8652Y-3.9277
X6.9183Y-4.0992
X6.9412Y-4.3237
X6.9557Y-5.2272
X6.9793Y-3.6327
X6.9812Y-4.6228
X7.1427Y-4.0992
X7.1892Y-4.6767
X7.4498Y-4.6237
X7.4557Y-4.7783
X7.5222Y-4.3367
X8.2953Y-4.8344
X8.2963Y-4.6937
X8.315Y-4.4978
T5
X7.8514Y-2.4319
X7.8514Y-2.7319
X8.0384Y-2.3189
X8.0384Y-2.6189
X8.2057Y-2.3508
X8.2057Y-2.6508
X8.3927Y-1.993
X8.3927Y-2.293
T6
X6.7888Y-4.8295
X6.8091Y-4.1858
X6.8091Y-4.2858
X6.8888Y-4.8295
X7.2402Y-3.8965
X7.2402Y-3.9965
X7.3189Y-2.3433
X7.3189Y-2.4433
X7.5079Y-2.3555
X7.5079Y-2.4555
X7.7632Y-4.5461
X7.7943Y-3.1996
X7.7943Y-3.2996
X7.8632Y-4.5461
X8.002Y-4.1488
X8.002Y-4.2488
X8.003Y-2.7705
X8.103Y-2.7705
X8.4144Y-2.5283
X8.5144Y-2.5283
X8.6362Y-2.0937
X8.6362Y-2.1937
X8.6362Y-2.2937
X8.6362Y-2.3937
X8.6362Y-2.4937
X8.6362Y-2.5937
X8.6362Y-2.6937
X8.6362Y-2.7937
X8.6362Y-2.8937
X8.6362Y-2.9937
X8.6362Y-3.0937
X8.6362Y-3.1937
X8.6362Y-3.2937
X8.6362Y-3.3937
X8.6362Y-3.4937
X8.6362Y-3.5937
X8.6362Y-3.6937
X8.6362Y-3.7937
X8.6362Y-3.8937
X8.6362Y-3.9937
X8.6362Y-4.0937
X8.6362Y-4.1937
X8.6362Y-4.2937
X8.6362Y-4.3937
X8.6362Y-4.4937
X8.6362Y-4.5937
X8.6362Y-4.6937
X8.6362Y-4.7937
X8.6362Y-4.8937
X8.6362Y-4.9937
X8.6362Y-5.0937
X8.6362Y-5.1937
X8.7362Y-2.0937
X8.7362Y-2.1937
X8.7362Y-2.2937
X8.7362Y-2.3937
X8.7362Y-2.4937
X8.7362Y-2.5937
X8.7362Y-2.6937
X8.7362Y-2.7937
X8.7362Y-2.8937
X8.7362Y-2.9937
X8.7362Y-3.0937
X8.7362Y-3.1937
X8.7362Y-3.2937
X8.7362Y-3.3937
X8.7362Y-3.4937
X8.7362Y-3.5937
X8.7362Y-3.6937
X8.7362Y-3.7937
X8.7362Y-3.8937
X8.7362Y-3.9937
X8.7362Y-4.0937
X8.7362Y-4.1937
X8.7362Y-4.2937
X8.7362Y-4.3937
X8.7362Y-4.4937
X8.7362Y-4.5937
X8.7362Y-4.6937
X8.7362Y-4.7937
X8.7362Y-4.8937
X8.7362Y-4.9937
X8.7362Y-5.0937
X8.7362Y-5.1937
X8.8362Y-2.4937
X8.8362Y-2.5937
X8.8362Y-2.6937
X8.8362Y-2.7937
X8.8362Y-2.8937
X8.8362Y-2.9937
X8.8362Y-3.0937
X8.8362Y-3.1937
X8.8362Y-3.2937
X8.8362Y-3.3937
X8.8362Y-3.4937
X8.8362Y-3.5937
X8.8362Y-3.6937
X8.8362Y-3.7937
X8.8362Y-3.8937
X8.8362Y-3.9937
X8.8362Y-4.0937
X8.8362Y-4.1937
X8.8362Y-4.2937
X8.8362Y-4.3937
X8.9362Y-2.4937
X8.9362Y-2.5937
X8.9362Y-2.6937
X8.9362Y-2.7937
X8.9362Y-2.8937
X8.9362Y-2.9937
X8.9362Y-3.0937
X8.9362Y-3.1937
X8.9362Y-3.2937
X8.9362Y-3.3937
X8.9362Y-3.4937
X8.9362Y-3.5937
X8.9362Y-3.6937
X8.9362Y-3.7937
X8.9362Y-3.8937
X8.9362Y-3.9937
X8.9362Y-4.0937
X8.9362Y-4.1937
X8.9362Y-4.2937
X8.9362Y-4.3937
T7
X5.5612Y-2.1937
X5.5612Y-5.0937
X8.9362Y-2.0937
X8.9362Y-5.2437
M30
